<?xml version="1.0" standalone="no"?><!-- Generator: Gravit.io --><svg xmlns="http://www.w3.org/2000/svg" xmlns:xlink="http://www.w3.org/1999/xlink" style="isolation:isolate" viewBox="0 0 179.187 388" width="179.187" height="388"><defs><clipPath id="_clipPath_H6wpmtQhUrD0YbztOZ2Zc5an74BLc3Aq"><rect width="179.187" height="388"/></clipPath></defs><g clip-path="url(#_clipPath_H6wpmtQhUrD0YbztOZ2Zc5an74BLc3Aq)"><clipPath id="_clipPath_f55122XuYWLx8MSjpZdoGTqsURhvYo0i"><path d=" M 0 0 L 179.187 0 L 179.187 388 L 0 388 L 0 0 Z " fill="rgb(255,255,255)"/></clipPath><g clip-path="url(#_clipPath_f55122XuYWLx8MSjpZdoGTqsURhvYo0i)"><g><clipPath id="_clipPath_iRWKIfEjtmaSsdhT9bElH91WvYyxACoF"><path d=" M 0 0 L 179.187 0 L 179.187 388 L 0 388 L 0 0 Z " fill="rgb(255,255,255)"/></clipPath><g clip-path="url(#_clipPath_iRWKIfEjtmaSsdhT9bElH91WvYyxACoF)"><g><path d=" M 0 0 L 179.187 0 L 179.187 63.074 L 0 63.074 L 0 0 Z " fill="rgb(255,255,255)"/><path d=" M 0 63.074 L 179.187 63.074 L 179.187 233.182 L 0 233.182 L 0 63.074 Z " fill="rgb(223,110,34)"/><path d=" M 38.002 0 L 63.231 0 L 63.231 50.459 L 38.002 50.459 L 38.002 0 Z " fill="rgb(21,66,115)"/><path d=" M 51.07 39.035 L 50.631 39.035 L 50.631 37.819 L 51.07 37.819 L 51.07 39.035 Z  M 53.054 33.666 L 52.615 33.666 L 52.615 32.45 L 53.054 32.45 L 53.054 33.666 Z  M 44.919 31.567 C 44.884 31.567 44.658 31.567 44.658 31.612 C 44.658 31.658 44.762 31.638 44.919 31.663 C 45.273 31.724 45.408 31.9 45.656 31.9 C 45.877 31.9 46.11 31.749 46.019 31.426 C 46.005 31.371 45.974 31.385 45.964 31.421 C 45.929 31.567 45.752 31.648 45.564 31.648 C 45.333 31.648 45.287 31.567 44.919 31.567 Z  M 42.502 32.783 C 42.543 32.839 42.957 33.374 42.321 33.581 C 42.29 33.591 42.285 33.616 42.325 33.636 C 42.794 33.833 43.021 33.469 43.021 33.469 C 43.259 34.015 42.895 34.312 42.895 34.312 C 42.946 34.408 43.173 34.575 43.512 34.651 C 43.642 34.58 43.825 34.448 43.901 34.247 C 43.901 34.247 43.991 34.484 43.91 34.711 C 44.868 34.797 45.207 34.03 45.948 34.171 C 45.968 34.176 45.978 34.161 45.978 34.141 C 45.978 33.666 45.691 32.804 44.773 32.627 C 43.859 32.45 44.107 32.077 44.107 32.077 C 44.491 32.062 44.712 32.228 44.712 32.228 C 44.783 32.112 44.682 31.991 44.682 31.991 C 44.717 31.945 44.738 31.789 44.738 31.789 C 44.304 31.789 44.193 31.693 44.193 31.693 C 44.127 31.436 44.304 31.072 44.95 31.461 C 45.111 31.32 45.095 31.098 45.095 31.098 C 45.146 31.072 45.176 30.997 45.176 30.967 C 45.176 30.861 44.661 30.573 44.53 30.538 C 44.5 30.382 44.298 30.159 43.693 30.24 C 43.405 30.275 43.198 30.2 43.294 30.033 C 43.309 30.003 43.259 29.998 43.234 30.028 C 43.168 30.094 43.078 30.281 43.325 30.407 C 43.602 30.548 43.617 30.825 43.623 30.866 C 43.627 30.926 43.557 30.932 43.541 30.871 C 43.415 30.402 42.769 30.301 42.391 30.548 C 42.411 30.8 42.684 30.967 42.83 30.967 C 42.915 30.967 43.033 30.881 43.033 30.765 C 43.033 30.709 43.062 30.715 43.078 30.76 C 43.138 30.926 42.891 31.275 42.527 31.062 C 42.155 31.436 42.305 31.9 42.342 32.067 C 42.406 32.369 42.26 32.667 41.982 32.531 C 41.967 32.526 41.953 32.521 41.953 32.551 C 41.957 32.733 42.204 32.95 42.502 32.783 Z  M 44.561 30.901 C 44.384 31.098 44.102 31.052 44.031 30.729 C 44.394 30.709 44.545 30.745 44.561 30.901 Z  M 55.698 31.648 C 55.511 31.648 55.334 31.567 55.298 31.421 C 55.289 31.385 55.258 31.371 55.243 31.426 C 55.152 31.749 55.385 31.9 55.606 31.9 C 55.853 31.9 55.99 31.724 56.344 31.663 C 56.499 31.638 56.605 31.663 56.605 31.612 C 56.605 31.567 56.379 31.567 56.344 31.567 C 55.979 31.567 55.929 31.648 55.698 31.648 Z  M 59.311 32.541 C 59.311 32.511 59.296 32.516 59.281 32.521 C 59.002 32.657 58.855 32.365 58.922 32.057 C 58.957 31.885 59.109 31.426 58.735 31.052 C 58.366 31.265 58.119 30.916 58.186 30.75 C 58.2 30.705 58.23 30.699 58.23 30.755 C 58.23 30.871 58.346 30.957 58.432 30.957 C 58.578 30.957 58.852 30.79 58.872 30.538 C 58.492 30.291 57.846 30.392 57.72 30.861 C 57.706 30.921 57.636 30.916 57.64 30.856 C 57.64 30.815 57.66 30.538 57.937 30.396 C 58.191 30.27 58.099 30.084 58.028 30.018 C 58.004 29.993 57.949 29.998 57.969 30.023 C 58.064 30.189 57.858 30.265 57.575 30.23 C 56.969 30.149 56.772 30.376 56.736 30.528 C 56.605 30.563 56.091 30.851 56.091 30.957 C 56.091 30.987 56.122 31.068 56.172 31.088 C 56.172 31.088 56.161 31.305 56.318 31.451 C 56.958 31.062 57.14 31.426 57.075 31.683 C 57.075 31.683 56.958 31.774 56.526 31.779 C 56.526 31.779 56.546 31.935 56.581 31.981 C 56.581 31.981 56.479 32.107 56.55 32.218 C 56.55 32.218 56.772 32.052 57.156 32.067 C 57.156 32.067 57.402 32.44 56.49 32.617 C 55.576 32.793 55.283 33.656 55.283 34.131 C 55.283 34.156 55.293 34.166 55.313 34.161 C 56.055 34.025 56.394 34.791 57.352 34.701 C 57.267 34.474 57.362 34.237 57.362 34.237 C 57.438 34.438 57.619 34.575 57.751 34.64 C 58.095 34.564 58.317 34.403 58.366 34.302 C 58.366 34.302 58.004 34.004 58.241 33.459 C 58.241 33.459 58.467 33.823 58.936 33.626 C 58.977 33.606 58.967 33.581 58.942 33.571 C 58.305 33.364 58.72 32.829 58.761 32.773 C 59.059 32.95 59.311 32.733 59.311 32.541 Z  M 57.231 30.729 C 57.16 31.052 56.879 31.098 56.701 30.901 C 56.716 30.745 56.873 30.709 57.231 30.729 Z  M 50.464 25.336 C 50.464 25.416 50.5 25.487 50.526 25.527 C 50.581 25.608 50.57 25.653 50.546 25.679 C 50.52 25.704 50.474 25.714 50.394 25.659 C 50.353 25.628 50.283 25.598 50.202 25.598 C 50.067 25.598 49.995 25.689 49.995 25.764 C 49.995 25.84 50.067 25.931 50.202 25.931 C 50.283 25.931 50.353 25.896 50.394 25.87 C 50.474 25.815 50.52 25.825 50.546 25.85 C 50.57 25.876 50.535 26.153 50.5 26.375 C 50.274 26.426 50.163 26.607 50.163 26.713 C 50.163 26.99 50.455 27.147 50.631 27.243 C 50.803 27.152 51.101 26.99 51.101 26.713 C 51.101 26.607 50.99 26.42 50.762 26.375 C 50.733 26.158 50.692 25.876 50.716 25.85 C 50.742 25.825 50.788 25.815 50.868 25.87 C 50.908 25.9 50.979 25.931 51.061 25.931 C 51.196 25.931 51.267 25.84 51.267 25.764 C 51.267 25.689 51.196 25.598 51.061 25.598 C 50.979 25.598 50.908 25.633 50.868 25.659 C 50.788 25.714 50.742 25.704 50.716 25.679 C 50.692 25.653 50.681 25.608 50.737 25.527 C 50.768 25.487 50.797 25.416 50.797 25.336 C 50.797 25.199 50.707 25.129 50.631 25.129 C 50.555 25.129 50.464 25.199 50.464 25.336 Z  M 50.631 27.384 C 50.444 27.384 50.293 27.536 50.293 27.722 C 50.293 27.909 50.444 28.06 50.631 28.06 C 50.818 28.06 50.97 27.909 50.97 27.722 C 50.97 27.536 50.818 27.384 50.631 27.384 Z  M 50.631 30.619 C 51.978 30.619 52.735 30.876 52.735 30.876 C 52.741 30.195 52.741 29.816 53.13 29.872 C 52.916 29.302 53.835 29.075 53.835 28.333 C 53.835 27.843 53.487 27.788 53.387 27.788 C 53.083 27.788 53.13 27.985 52.872 27.985 C 52.841 27.985 52.806 27.975 52.806 28 C 52.806 28.086 52.876 28.232 52.998 28.232 C 53.159 28.232 53.159 28.07 53.281 28.07 C 53.331 28.07 53.407 28.111 53.407 28.277 C 53.407 28.595 53.2 28.943 52.952 29.216 C 52.896 29.14 52.821 29.089 52.726 29.089 C 52.58 29.089 52.452 29.241 52.452 29.428 C 52.452 29.499 52.463 29.549 52.488 29.605 C 52.408 29.65 52.332 29.675 52.282 29.675 C 52.171 29.675 52.004 29.629 52.004 29.387 C 52.004 28.848 52.726 28.373 52.726 27.687 C 52.726 27.359 52.508 27.036 52.049 27.036 C 51.56 27.036 51.651 27.48 51.227 27.48 C 51.207 27.48 51.192 27.485 51.192 27.505 C 51.192 27.536 51.267 27.783 51.484 27.783 C 51.716 27.783 51.782 27.379 51.993 27.379 C 52.069 27.379 52.186 27.425 52.186 27.697 C 52.186 27.909 52.08 28.257 51.929 28.585 C 51.873 28.529 51.797 28.489 51.716 28.489 C 51.534 28.489 51.403 28.666 51.403 28.873 C 51.403 29.004 51.453 29.135 51.545 29.216 C 51.438 29.352 51.327 29.463 51.181 29.463 C 50.888 29.463 50.762 29.296 50.762 29.115 C 50.762 28.918 51.12 28.848 51.12 28.545 C 51.12 28.338 50.984 28.222 50.859 28.222 C 50.716 28.222 50.646 28.313 50.631 28.313 C 50.616 28.313 50.546 28.222 50.404 28.222 C 50.274 28.222 50.142 28.338 50.142 28.545 C 50.142 28.848 50.5 28.923 50.5 29.115 C 50.5 29.296 50.369 29.463 50.082 29.463 C 49.935 29.463 49.824 29.352 49.717 29.216 C 49.809 29.13 49.859 29.004 49.859 28.873 C 49.859 28.661 49.727 28.489 49.547 28.489 C 49.46 28.489 49.391 28.529 49.335 28.585 C 49.183 28.252 49.078 27.909 49.078 27.697 C 49.078 27.425 49.193 27.379 49.269 27.379 C 49.475 27.379 49.541 27.783 49.778 27.783 C 49.995 27.783 50.071 27.536 50.071 27.505 C 50.071 27.49 50.056 27.48 50.036 27.48 C 49.613 27.48 49.703 27.036 49.214 27.036 C 48.759 27.036 48.537 27.359 48.537 27.687 C 48.537 28.373 49.259 28.848 49.259 29.387 C 49.259 29.629 49.092 29.675 48.981 29.675 C 48.925 29.675 48.856 29.65 48.774 29.605 C 48.8 29.544 48.809 29.499 48.809 29.428 C 48.809 29.241 48.683 29.089 48.537 29.089 C 48.446 29.089 48.37 29.14 48.315 29.216 C 48.068 28.943 47.86 28.595 47.86 28.277 C 47.86 28.116 47.936 28.07 47.988 28.07 C 48.103 28.07 48.109 28.232 48.27 28.232 C 48.391 28.232 48.461 28.086 48.461 28 C 48.461 27.975 48.426 27.985 48.396 27.985 C 48.138 27.985 48.183 27.788 47.881 27.788 C 47.78 27.788 47.432 27.843 47.432 28.333 C 47.432 29.079 48.35 29.302 48.138 29.872 C 48.527 29.816 48.523 30.195 48.533 30.876 C 48.527 30.876 49.283 30.619 50.631 30.619 L 50.631 30.619 Z  M 48.163 31.623 C 47.795 31.703 47.533 31.779 47.418 31.815 C 47.422 31.653 47.482 31.502 47.628 31.471 C 47.649 31.466 47.655 31.441 47.634 31.431 C 47.307 31.214 47.134 31.628 47.13 31.643 C 47.013 31.633 46.836 31.668 46.836 31.825 C 46.836 32.294 45.767 32.551 45.519 32.592 C 45.958 32.758 46.141 33.313 46.141 33.313 C 46.458 32.995 46.826 32.718 46.912 32.718 C 46.998 32.718 47.028 32.824 47.033 32.884 C 47.033 32.905 47.054 32.909 47.068 32.894 C 47.235 32.647 47.155 32.592 47.139 32.516 C 47.13 32.46 47.144 32.243 47.387 32.269 L 47.387 35.392 L 47.26 35.417 C 47.204 35.427 46.745 35.039 46.227 34.675 C 45.701 34.312 45.425 34.529 44.828 34.852 C 44.047 35.276 43.259 34.892 43.259 34.892 C 42.589 35.372 42.356 36.764 42.356 36.764 C 42.219 36.82 41.998 36.881 41.791 36.881 C 41.276 36.881 41.186 36.568 41.186 36.386 C 41.186 35.594 42.179 35.256 42.179 34.474 C 42.179 34.282 42.093 33.515 41.139 33.515 L 40.287 33.515 C 39.929 33.515 39.842 33.258 39.793 33.162 C 39.773 33.121 39.738 33.147 39.752 33.177 C 39.777 33.242 39.712 33.343 39.712 33.54 C 39.712 33.858 39.898 34.05 40.246 34.05 C 40.403 34.05 40.554 34.004 40.599 33.974 C 40.63 33.954 40.651 33.984 40.635 34.004 C 40.484 34.181 40.474 34.514 40.534 34.59 C 40.55 34.61 40.569 34.605 40.569 34.59 C 40.655 34.257 40.968 33.939 41.392 33.939 C 41.911 33.939 41.906 34.378 41.906 34.484 C 41.906 35.12 40.791 35.584 40.791 36.462 C 40.791 37.35 41.731 37.537 42.27 37.4 C 42.239 38.288 41.22 38.591 41.19 37.955 C 41.19 37.925 41.165 37.92 41.149 37.96 C 41.023 38.273 41.075 38.551 41.468 38.637 C 41.493 38.641 41.482 38.657 41.458 38.677 C 41.064 38.924 41.276 39.903 41.297 40.19 C 41.326 40.604 40.912 40.554 40.877 40.544 C 40.863 40.539 40.842 40.544 40.873 40.579 C 41.165 40.937 41.528 40.61 41.528 40.61 C 41.801 40.695 41.634 40.927 41.447 41.049 C 41.418 41.069 41.422 41.089 41.453 41.089 C 41.493 41.094 41.918 41.129 41.992 40.791 C 42.179 41.013 42.457 40.933 42.512 40.902 C 42.593 40.862 42.991 40.716 43.027 41.16 C 43.027 41.19 43.047 41.17 43.062 41.154 C 43.36 40.776 43.043 40.544 42.86 40.519 C 42.875 40.499 43.113 40.297 43.329 40.574 C 43.344 40.594 43.36 40.6 43.36 40.559 C 43.385 40.08 42.996 40.039 42.745 40.246 C 42.734 40.196 42.648 39.928 43.027 39.938 C 43.037 39.938 43.052 39.923 43.037 39.908 C 42.745 39.595 42.502 39.878 42.441 39.949 C 42.311 40.105 41.982 40.039 41.953 40.039 C 42.054 38.379 43.516 38.97 43.718 38.162 C 43.728 38.122 43.748 38.137 43.748 38.152 C 43.804 38.349 44.298 38.374 44.389 37.991 C 44.394 37.965 44.389 37.95 44.374 37.965 C 43.95 38.389 42.996 37.067 44.298 35.992 C 45.408 35.079 46.402 35.589 46.781 35.887 C 46.801 36.018 46.72 36.063 46.67 36.078 C 46.651 36.084 46.644 36.098 46.675 36.114 C 46.781 36.154 46.927 36.139 46.998 36.043 C 47.235 36.21 47.033 36.421 46.937 36.477 C 46.912 36.492 46.922 36.507 46.943 36.512 C 47.159 36.553 47.342 36.331 47.352 36.199 L 47.387 36.22 L 47.387 37.163 C 47.387 38.505 48.936 38.692 50.637 39.827 C 52.337 38.687 53.88 38.505 53.88 37.163 L 53.88 36.22 L 53.916 36.199 C 53.927 36.325 54.102 36.553 54.325 36.512 C 54.345 36.507 54.355 36.492 54.33 36.477 C 54.234 36.417 54.027 36.21 54.269 36.043 C 54.339 36.144 54.486 36.154 54.592 36.114 C 54.623 36.104 54.617 36.084 54.597 36.078 C 54.547 36.063 54.466 36.018 54.486 35.887 C 54.866 35.584 55.859 35.074 56.969 35.992 C 58.271 37.067 57.318 38.384 56.894 37.965 C 56.873 37.945 56.873 37.965 56.879 37.991 C 56.969 38.379 57.464 38.349 57.519 38.152 C 57.525 38.137 57.545 38.122 57.549 38.162 C 57.751 38.97 59.209 38.379 59.316 40.039 C 59.284 40.044 58.957 40.105 58.825 39.949 C 58.77 39.883 58.528 39.595 58.23 39.908 C 58.21 39.928 58.23 39.938 58.241 39.938 C 58.618 39.928 58.539 40.196 58.524 40.246 C 58.271 40.039 57.882 40.08 57.908 40.559 C 57.908 40.594 57.922 40.594 57.937 40.574 C 58.154 40.297 58.392 40.499 58.408 40.519 C 58.23 40.544 57.908 40.776 58.206 41.154 C 58.22 41.17 58.235 41.19 58.241 41.16 C 58.282 40.716 58.674 40.857 58.755 40.902 C 58.811 40.933 59.089 41.013 59.275 40.791 C 59.351 41.129 59.775 41.094 59.814 41.089 C 59.845 41.089 59.845 41.069 59.819 41.049 C 59.638 40.927 59.466 40.695 59.738 40.61 C 59.738 40.61 60.102 40.937 60.395 40.579 C 60.421 40.549 60.406 40.539 60.39 40.544 C 60.354 40.554 59.942 40.604 59.971 40.19 C 59.991 39.903 60.203 38.924 59.81 38.677 C 59.784 38.662 59.775 38.647 59.799 38.637 C 60.193 38.551 60.243 38.273 60.117 37.96 C 60.102 37.92 60.077 37.93 60.077 37.955 C 60.047 38.591 59.033 38.288 58.998 37.4 C 59.542 37.541 60.476 37.35 60.476 36.462 C 60.476 35.589 59.36 35.12 59.36 34.484 C 59.36 34.378 59.355 33.939 59.875 33.939 C 60.299 33.939 60.611 34.257 60.698 34.59 C 60.702 34.605 60.719 34.61 60.734 34.59 C 60.793 34.509 60.783 34.181 60.632 34.004 C 60.617 33.989 60.632 33.954 60.667 33.974 C 60.714 34.004 60.865 34.05 61.02 34.05 C 61.368 34.05 61.555 33.858 61.555 33.54 C 61.555 33.343 61.484 33.242 61.515 33.177 C 61.531 33.147 61.491 33.126 61.474 33.162 C 61.424 33.263 61.333 33.515 60.98 33.515 L 60.127 33.515 C 59.174 33.515 59.089 34.287 59.089 34.474 C 59.089 35.256 60.082 35.594 60.082 36.386 C 60.082 36.573 59.986 36.881 59.477 36.881 C 59.264 36.881 59.042 36.82 58.911 36.764 C 58.911 36.764 58.685 35.377 58.008 34.892 C 58.008 34.892 57.221 35.276 56.439 34.852 C 55.844 34.529 55.561 34.312 55.036 34.675 C 54.512 35.039 54.057 35.427 54.002 35.417 L 53.875 35.392 L 53.875 32.269 C 54.118 32.243 54.133 32.46 54.123 32.516 C 54.109 32.586 54.033 32.647 54.193 32.894 C 54.208 32.915 54.223 32.905 54.229 32.884 C 54.234 32.824 54.269 32.718 54.349 32.718 C 54.43 32.718 54.804 32.995 55.123 33.313 C 55.123 33.313 55.304 32.763 55.742 32.592 C 55.495 32.551 54.425 32.294 54.425 31.825 C 54.425 31.668 54.249 31.633 54.133 31.643 C 54.129 31.628 53.951 31.214 53.629 31.431 C 53.613 31.441 53.613 31.466 53.633 31.471 C 53.779 31.507 53.84 31.653 53.845 31.815 C 53.533 31.719 52.206 31.345 50.631 31.345 C 49.865 31.345 49.163 31.436 48.603 31.537 L 48.603 32.617 L 48.163 32.617 L 48.163 31.623 Z  M 45.257 42.713 C 45.141 42.668 45.065 42.593 45.065 42.436 L 45.065 41.765 C 44.874 41.699 44.349 41.497 43.294 41.497 C 42.422 41.497 42.148 41.694 42.134 41.765 L 41.901 43.042 C 41.901 43.042 42.255 42.719 43.521 42.799 C 45.045 42.896 46.624 43.799 46.624 42.835 L 46.624 42.27 C 45.434 42.275 45.257 42.658 45.257 42.713 Z  M 54.637 42.275 L 54.637 42.84 C 54.637 43.799 56.217 42.9 57.741 42.804 C 59.007 42.724 59.36 43.046 59.36 43.046 L 59.129 41.765 C 59.118 41.694 58.841 41.497 57.969 41.497 C 56.918 41.497 56.394 41.699 56.196 41.765 L 56.196 42.436 C 56.196 42.587 56.122 42.663 56.005 42.713 C 56.011 42.658 55.833 42.275 54.637 42.275 Z  M 50.631 41.694 C 53.089 41.694 55.582 41.82 55.904 42.194 C 55.929 42.224 55.939 42.194 55.939 42.169 L 55.939 40.867 C 55.939 40.488 53.366 40.266 50.626 40.266 C 47.887 40.266 45.312 40.488 45.312 40.867 L 45.312 42.169 C 45.312 42.189 45.323 42.219 45.349 42.194 C 45.686 41.826 48.179 41.694 50.631 41.694 Z  M 48.441 35.558 L 48.194 35.493 L 48.173 35.523 L 47.887 35.397 L 48.144 35.397 C 48.168 35.397 48.168 35.382 48.158 35.372 C 48.043 35.256 47.936 35.155 47.936 35.155 C 47.936 35.155 48.054 35.2 48.219 35.261 C 48.239 35.266 48.245 35.256 48.234 35.241 C 48.153 35.125 48.043 34.963 48.043 34.963 C 48.043 34.963 48.274 35.12 48.321 35.15 C 48.335 35.16 48.345 35.15 48.34 35.135 C 48.28 34.983 48.21 34.807 48.21 34.807 L 48.461 35.049 C 48.471 35.059 48.486 35.054 48.481 35.039 C 48.457 34.923 48.41 34.711 48.41 34.711 L 48.597 34.983 C 48.607 34.998 48.623 34.994 48.623 34.978 C 48.623 34.923 48.627 34.681 48.627 34.681 C 48.627 34.681 48.708 34.862 48.745 34.953 C 48.755 34.973 48.764 34.973 48.774 34.948 C 48.784 34.918 48.87 34.716 48.87 34.716 L 48.88 35.029 L 48.84 35.039 L 48.79 35.412 C 49.158 35.327 49.623 34.691 49.976 34.691 C 50.4 34.691 50.55 35.185 51.327 34.933 C 51.525 35.225 51.595 35.478 51.671 35.826 C 51.973 36.108 52.393 36.013 52.393 35.715 C 52.393 35.311 51.953 35.235 51.953 34.812 C 51.953 34.625 52.084 34.352 52.443 34.352 C 52.635 34.352 52.913 34.433 53.074 34.433 C 53.265 34.433 53.305 34.297 53.325 34.237 C 53.34 34.196 53.396 34.206 53.392 34.241 C 53.387 34.282 53.411 34.338 53.411 34.428 C 53.411 34.696 53.024 34.731 52.977 34.696 C 52.957 34.681 52.943 34.701 52.957 34.716 C 53.019 34.761 53.002 34.923 52.932 35.024 C 52.922 35.034 52.913 35.034 52.913 35.024 C 52.872 34.832 52.644 34.595 52.448 34.595 C 52.376 34.595 52.23 34.635 52.23 34.807 C 52.23 35.044 52.71 35.266 52.71 35.761 C 52.71 36.275 52.2 36.401 51.686 36.27 C 51.7 36.76 52.432 37.047 52.448 36.699 C 52.448 36.674 52.463 36.689 52.469 36.699 C 52.574 36.85 52.528 36.961 52.387 37.022 C 52.513 37.077 52.539 37.334 52.574 37.491 C 52.63 37.723 52.872 37.592 52.887 37.587 C 52.902 37.577 52.907 37.587 52.896 37.602 C 52.806 37.839 52.56 37.748 52.56 37.748 C 52.432 37.839 52.583 37.92 52.7 37.955 C 52.715 37.96 52.715 37.97 52.706 37.981 C 52.619 38.011 52.437 38.071 52.346 37.915 C 52.282 38.077 52.145 38.071 52.095 38.071 C 51.998 38.071 51.938 38.167 51.958 38.298 C 51.958 38.309 51.953 38.314 51.943 38.309 C 51.721 38.162 51.847 37.986 51.938 37.94 C 51.923 37.93 51.767 37.864 51.7 38.046 C 51.696 38.061 51.686 38.061 51.68 38.046 C 51.585 37.784 51.797 37.708 51.949 37.774 C 51.938 37.738 51.858 37.607 51.656 37.653 C 51.645 37.658 51.64 37.653 51.645 37.637 C 51.68 37.557 51.776 37.441 51.964 37.557 C 52.06 37.617 52.22 37.531 52.236 37.521 C 51.908 36.871 51.277 37.415 51.13 36.906 C 51.126 36.896 51.116 36.886 51.105 36.916 C 51.07 37.022 50.792 37.032 50.742 36.82 C 50.737 36.805 50.742 36.8 50.757 36.81 C 50.797 36.85 50.883 36.886 50.999 36.724 C 51.075 36.613 51.085 36.467 51.085 36.371 C 51.085 35.977 50.692 35.311 50.076 35.311 C 49.687 35.311 49.269 35.463 48.957 35.69 L 49.243 35.755 C 49.218 36.048 48.936 36.22 48.679 36.144 L 48.724 35.811 C 48.679 35.826 48.568 35.866 48.507 35.952 C 48.502 35.957 48.491 35.957 48.491 35.947 C 48.441 35.755 48.597 35.66 48.644 35.639 C 48.648 35.634 48.648 35.634 48.637 35.634 C 48.496 35.629 48.42 35.73 48.396 35.765 C 48.391 35.771 48.385 35.771 48.385 35.765 C 48.401 35.725 48.375 35.629 48.441 35.558 L 48.441 35.558 Z  M 49.304 37.819 C 49.193 37.955 49.097 37.824 48.95 37.824 C 48.814 37.824 48.79 37.94 48.79 37.986 C 48.79 37.996 48.784 37.996 48.78 37.991 C 48.623 37.779 48.8 37.663 48.901 37.647 C 48.885 37.632 48.734 37.531 48.637 37.673 C 48.634 37.683 48.623 37.678 48.623 37.668 C 48.617 37.405 48.825 37.385 48.967 37.501 C 48.991 37.4 48.925 37.334 48.814 37.33 C 48.8 37.33 48.8 37.32 48.804 37.314 C 48.85 37.264 48.895 37.244 48.94 37.244 C 49.087 37.244 49.107 37.431 49.203 37.431 C 49.344 37.431 49.551 37.239 49.566 37.219 C 49.561 37.208 49.425 36.835 49.45 36.613 C 49.45 36.603 49.446 36.603 49.44 36.608 C 49.37 36.648 49.198 36.644 49.198 36.431 C 49.198 36.417 49.203 36.411 49.214 36.427 C 49.29 36.532 49.415 36.411 49.475 36.341 C 49.541 36.265 49.904 35.74 50.383 35.74 C 50.491 35.74 50.626 35.801 50.737 35.877 C 50.57 36.078 50.737 36.27 50.859 36.245 C 50.873 36.24 50.873 36.255 50.863 36.26 C 50.227 36.497 49.945 36.593 49.945 37.128 C 49.945 37.405 50.04 37.562 50.202 37.521 C 50.213 37.517 50.217 37.521 50.207 37.531 C 50.146 37.602 50.082 37.627 50.026 37.627 C 49.894 37.627 49.869 37.557 49.798 37.557 C 49.727 37.557 49.491 37.698 49.491 37.814 C 49.491 37.86 49.52 37.92 49.602 37.97 C 49.606 37.976 49.602 37.981 49.602 37.981 C 49.531 37.981 49.344 37.996 49.304 37.819 Z  M 50.974 32.647 C 50.777 32.637 50.646 32.678 50.657 32.743 C 50.752 32.844 50.879 32.834 50.974 32.647 Z  M 50.242 33.137 C 50.383 33.101 50.535 33.116 50.555 33.121 C 50.576 33.126 50.576 33.162 50.55 33.167 C 50.257 33.202 50.242 33.338 50.056 33.338 C 49.935 33.338 49.798 33.212 49.849 33.031 C 49.854 33.005 49.874 33.005 49.88 33.031 C 49.9 33.111 50.015 33.197 50.242 33.137 Z  M 46.443 39.626 C 46.634 39.873 46.821 39.641 47.078 39.641 C 47.204 39.641 47.356 39.681 47.381 39.933 C 47.381 39.949 47.391 39.949 47.408 39.933 C 47.684 39.555 47.366 39.343 47.184 39.313 C 47.225 39.277 47.492 39.111 47.669 39.358 C 47.679 39.373 47.7 39.368 47.7 39.348 C 47.7 38.869 47.342 38.833 47.078 39.04 C 47.028 38.854 47.17 38.733 47.352 38.733 C 47.371 38.733 47.381 38.717 47.371 38.707 C 47.048 38.364 46.811 38.798 46.756 38.864 C 46.63 39.035 46.17 38.712 45.984 38.52 C 45.984 38.52 46.387 38.097 46.387 37.708 C 46.387 37.683 46.382 37.653 46.382 37.637 C 46.382 37.627 46.387 37.622 46.398 37.627 C 46.437 37.653 46.493 37.668 46.55 37.668 C 46.641 37.668 46.816 37.637 46.816 37.31 C 46.816 37.284 46.807 37.284 46.797 37.3 C 46.745 37.37 46.696 37.385 46.655 37.385 C 46.328 37.385 45.645 36.295 44.839 36.295 C 44.627 36.295 44.228 36.447 44.031 36.664 C 44.127 36.719 44.148 36.84 44.137 36.926 C 44.121 37.062 44.012 37.133 43.901 37.163 C 43.88 37.168 43.88 37.183 43.901 37.194 C 44.308 37.35 45.045 37.627 45.217 37.774 C 45.413 37.945 45.378 38.268 45.262 38.717 C 45.151 39.146 44.915 39.091 44.823 39.076 C 44.808 39.076 44.808 39.08 44.814 39.091 C 44.919 39.222 45.045 39.267 45.156 39.267 C 45.368 39.267 45.45 39.136 45.554 39.136 C 45.736 39.136 46.125 39.398 46.125 39.6 C 46.125 39.711 46.04 39.817 45.923 39.888 C 45.918 39.893 45.918 39.903 45.929 39.903 C 46.014 39.918 46.373 39.949 46.443 39.626 L 46.443 39.626 Z  M 55.339 39.903 C 55.349 39.903 55.354 39.893 55.345 39.888 C 55.233 39.812 55.143 39.711 55.143 39.6 C 55.143 39.398 55.526 39.136 55.713 39.136 C 55.824 39.136 55.9 39.267 56.111 39.267 C 56.222 39.267 56.348 39.222 56.455 39.091 C 56.464 39.08 56.459 39.07 56.444 39.076 C 56.359 39.091 56.116 39.146 56.005 38.717 C 55.889 38.268 55.848 37.945 56.05 37.774 C 56.217 37.627 56.958 37.35 57.367 37.194 C 57.388 37.183 57.388 37.168 57.367 37.163 C 57.256 37.133 57.145 37.062 57.13 36.926 C 57.12 36.84 57.14 36.724 57.236 36.664 C 57.034 36.447 56.636 36.295 56.424 36.295 C 55.616 36.295 54.936 37.385 54.608 37.385 C 54.567 37.385 54.512 37.37 54.466 37.3 C 54.457 37.284 54.445 37.284 54.445 37.31 C 54.445 37.637 54.623 37.668 54.714 37.668 C 54.763 37.668 54.825 37.653 54.866 37.627 C 54.875 37.622 54.88 37.627 54.88 37.637 C 54.88 37.653 54.875 37.683 54.875 37.708 C 54.875 38.097 55.278 38.52 55.278 38.52 C 55.096 38.712 54.637 39.03 54.506 38.864 C 54.451 38.793 54.214 38.364 53.89 38.707 C 53.88 38.722 53.886 38.733 53.911 38.733 C 54.092 38.733 54.234 38.854 54.184 39.04 C 53.922 38.833 53.562 38.869 53.562 39.348 C 53.562 39.368 53.583 39.373 53.594 39.358 C 53.764 39.111 54.038 39.277 54.073 39.313 C 53.89 39.338 53.578 39.555 53.851 39.933 C 53.86 39.949 53.87 39.949 53.875 39.933 C 53.907 39.686 54.057 39.641 54.179 39.641 C 54.43 39.641 54.617 39.873 54.814 39.626 C 54.895 39.949 55.254 39.918 55.339 39.903 L 55.339 39.903 Z  M 48.825 33.611 C 48.8 33.646 48.714 33.611 48.683 33.595 C 48.679 33.591 48.673 33.595 48.679 33.601 C 48.698 33.646 48.78 33.782 48.901 33.782 C 48.957 33.782 49.036 33.752 49.057 33.712 C 49.057 33.712 49.531 33.868 49.763 33.928 C 49.672 34.05 49.617 34.196 49.602 34.352 C 49.415 34.237 48.658 33.833 48.658 33.833 L 48.426 34.156 C 48.385 34.206 48.2 34.07 48.239 34.02 L 48.416 33.772 C 48.356 33.712 48.214 33.747 48.173 33.762 C 48.168 33.762 48.163 33.762 48.168 33.752 C 48.194 33.702 48.28 33.555 48.502 33.621 C 48.502 33.485 48.3 33.53 48.245 33.545 C 48.239 33.545 48.234 33.545 48.239 33.54 C 48.294 33.48 48.461 33.348 48.644 33.459 L 48.724 33.348 L 48.562 33.177 L 48.663 33.035 L 48.78 33.187 L 49.652 31.991 C 49.672 31.961 49.849 31.91 49.909 31.895 C 49.915 31.961 49.924 32.142 49.904 32.173 L 49.047 33.379 L 49.228 33.439 L 49.127 33.581 L 48.915 33.48 L 48.825 33.611 L 48.825 33.611 Z  M 51.887 33.414 C 51.887 33.525 51.953 33.687 52.099 33.636 C 52.104 33.631 52.115 33.636 52.109 33.641 C 52.089 33.762 51.867 33.873 51.771 33.732 C 51.68 33.918 51.707 34.095 51.893 34.196 C 51.902 34.201 51.902 34.216 51.893 34.226 C 51.776 34.307 51.601 34.292 51.519 34.131 C 51.363 34.247 51.383 34.499 51.479 34.585 C 51.479 34.585 51.046 34.842 50.651 34.661 C 50.389 34.534 50.178 34.373 49.839 34.403 C 49.885 33.928 50.122 33.808 50.555 33.737 C 50.903 33.681 50.943 33.52 50.899 33.399 C 50.783 33.368 50.566 33.475 50.566 33.475 C 50.526 33.409 50.581 33.343 50.581 33.343 C 50.561 33.318 50.55 33.232 50.55 33.232 C 50.792 33.232 50.839 33.177 50.839 33.177 C 50.883 32.925 50.626 32.899 50.429 33.035 C 50.339 32.955 50.353 32.849 50.353 32.849 C 50.328 32.834 50.309 32.793 50.309 32.773 C 50.309 32.712 50.596 32.551 50.672 32.531 C 50.692 32.445 50.792 32.329 51.101 32.359 C 51.137 32.279 51.075 31.981 51.04 31.905 C 51.029 31.88 51.046 31.87 51.07 31.885 C 51.177 31.951 51.283 32.203 51.358 32.208 C 51.358 32.208 51.7 32.026 51.716 32.036 C 51.731 32.047 51.782 32.43 51.782 32.43 C 51.826 32.485 52.095 32.43 52.21 32.481 C 52.241 32.495 52.241 32.516 52.21 32.521 C 52.124 32.536 51.847 32.657 51.803 32.733 C 51.964 32.97 51.887 33.318 51.887 33.414 L 51.887 33.414 Z " fill="rgb(255,255,255)"/><g><path d=" M 68.998 32.536 C 69.286 32.45 69.437 32.309 69.457 32.072 L 69.8 28.076 L 69.346 27.944 L 69.346 27.717 C 69.7 27.672 70.129 27.662 70.411 27.662 L 70.693 27.662 L 71.92 31.456 L 71.929 31.456 L 73.122 27.662 L 73.458 27.662 C 73.741 27.662 74.095 27.672 74.408 27.717 L 74.408 27.944 L 73.923 28.06 L 74.267 32.365 L 74.72 32.45 L 74.72 32.622 C 74.533 32.708 74.267 32.753 73.964 32.753 C 73.605 32.753 73.379 32.738 73.101 32.672 L 73.101 32.526 C 73.429 32.445 73.581 32.254 73.566 31.931 L 73.368 28.378 L 73.352 28.378 L 71.96 32.718 L 71.658 32.758 L 70.249 28.383 L 70.24 28.393 L 69.998 32.314 L 70.507 32.445 L 70.507 32.617 C 70.17 32.718 69.983 32.748 69.609 32.748 C 69.428 32.748 69.2 32.718 69.008 32.667 L 69.008 32.536 L 68.998 32.536 Z  M 75.276 32.546 C 75.487 32.471 75.689 32.314 75.689 32.122 L 75.689 29.478 L 75.189 29.266 L 75.189 29.1 C 75.542 28.999 75.901 28.953 76.123 28.953 L 76.375 28.953 L 76.335 29.377 L 76.335 32.349 L 76.775 32.465 L 76.775 32.612 C 76.506 32.708 76.264 32.743 75.866 32.743 C 75.685 32.743 75.457 32.728 75.281 32.672 L 75.281 32.546 L 75.276 32.546 Z  M 75.603 27.788 C 75.603 27.546 75.775 27.329 76.047 27.329 C 76.264 27.329 76.457 27.495 76.457 27.753 C 76.457 28.025 76.269 28.237 76.018 28.237 C 75.785 28.232 75.603 28.045 75.603 27.788 Z  M 77.38 32.546 C 77.582 32.471 77.793 32.314 77.793 32.122 L 77.793 29.478 L 77.289 29.266 L 77.289 29.095 C 77.647 28.994 78 28.953 78.227 28.953 L 78.415 28.953 L 78.415 29.377 C 78.681 29.11 79.116 28.938 79.569 28.938 C 80.22 28.938 80.665 29.352 80.665 30.159 L 80.665 32.349 L 81.074 32.465 L 81.074 32.612 C 80.861 32.698 80.589 32.743 80.25 32.743 C 80.084 32.743 79.897 32.728 79.741 32.672 L 79.741 32.546 C 79.937 32.46 80.024 32.314 80.024 32.032 L 80.024 30.538 C 80.024 29.771 79.7 29.483 79.241 29.483 C 78.918 29.483 78.61 29.594 78.435 29.725 L 78.435 32.355 L 78.873 32.465 L 78.873 32.612 C 78.605 32.708 78.359 32.743 77.964 32.743 C 77.778 32.743 77.556 32.728 77.38 32.672 L 77.38 32.546 L 77.38 32.546 Z  M 81.658 32.546 C 81.871 32.471 82.072 32.314 82.072 32.122 L 82.072 29.478 L 81.574 29.266 L 81.574 29.1 C 81.927 28.999 82.285 28.953 82.507 28.953 L 82.759 28.953 L 82.719 29.377 L 82.719 32.349 L 83.157 32.465 L 83.157 32.612 C 82.889 32.708 82.648 32.743 82.249 32.743 C 82.068 32.743 81.841 32.728 81.664 32.672 L 81.664 32.546 L 81.658 32.546 L 81.658 32.546 Z  M 81.986 27.788 C 81.986 27.546 82.158 27.329 82.43 27.329 C 82.648 27.329 82.84 27.495 82.84 27.753 C 82.84 28.025 82.652 28.237 82.401 28.237 C 82.168 28.232 81.986 28.045 81.986 27.788 L 81.986 27.788 Z  M 83.718 31.829 C 84.07 32.158 84.403 32.324 84.822 32.324 C 85.262 32.324 85.488 32.112 85.488 31.84 C 85.488 31.567 85.332 31.396 84.818 31.174 L 84.429 31.007 C 83.974 30.81 83.722 30.482 83.722 30.038 C 83.722 29.423 84.267 28.888 85.084 28.888 C 85.71 28.888 85.962 29.075 85.962 29.372 C 85.962 29.488 85.947 29.589 85.922 29.7 C 85.669 29.529 85.327 29.402 85.029 29.402 C 84.529 29.402 84.292 29.619 84.292 29.887 C 84.292 30.169 84.433 30.326 84.903 30.502 L 85.327 30.669 C 85.892 30.886 86.104 31.179 86.104 31.638 C 86.104 32.238 85.524 32.788 84.651 32.788 C 83.965 32.788 83.656 32.571 83.656 32.148 C 83.647 32.042 83.666 31.915 83.718 31.829 Z  M 86.967 30.543 L 86.993 29.503 L 86.564 29.503 L 86.564 29.246 L 87.405 28.409 L 87.664 28.378 L 87.633 29.085 L 88.667 29.085 L 88.611 29.509 L 87.612 29.509 L 87.597 30.492 C 87.587 30.82 87.587 31.118 87.587 31.406 C 87.587 32.042 87.775 32.258 88.067 32.258 C 88.294 32.258 88.49 32.178 88.648 32.057 L 88.729 32.087 C 88.697 32.546 88.426 32.783 87.886 32.783 C 87.26 32.783 86.957 32.455 86.957 31.693 C 86.946 31.315 86.962 30.901 86.967 30.543 L 86.967 30.543 Z  M 90.599 28.898 C 91.443 28.898 91.953 29.463 91.953 30.361 C 91.953 30.508 91.953 30.664 91.942 30.861 L 89.636 30.861 C 89.636 31.739 90.146 32.243 90.791 32.243 C 91.176 32.243 91.598 32.112 91.897 31.905 C 91.912 31.945 91.928 32.032 91.928 32.107 C 91.928 32.46 91.413 32.788 90.58 32.788 C 89.686 32.788 88.959 32.092 88.959 30.997 C 88.966 29.639 89.788 28.898 90.599 28.898 L 90.599 28.898 Z  M 91.327 30.457 C 91.327 29.69 90.998 29.322 90.535 29.322 C 90.106 29.322 89.651 29.836 89.651 30.457 L 91.327 30.457 Z  M 92.553 32.546 C 92.754 32.471 92.967 32.314 92.967 32.122 L 92.967 29.478 L 92.461 29.266 L 92.461 29.095 C 92.82 28.994 93.174 28.953 93.401 28.953 L 93.587 28.953 L 93.587 29.499 L 93.597 29.499 L 93.815 29.256 C 94.026 29.029 94.237 28.913 94.5 28.913 C 94.774 28.913 94.91 29.029 94.91 29.251 C 94.91 29.398 94.863 29.574 94.783 29.72 C 94.637 29.605 94.465 29.539 94.299 29.539 C 94.056 29.539 93.83 29.65 93.612 29.862 L 93.612 32.349 L 94.152 32.465 L 94.152 32.612 C 93.885 32.708 93.627 32.743 93.183 32.743 C 92.957 32.743 92.739 32.728 92.557 32.672 L 92.557 32.546 L 92.553 32.546 L 92.553 32.546 Z  M 95.156 32.546 C 95.369 32.471 95.57 32.314 95.57 32.122 L 95.57 29.478 L 95.07 29.266 L 95.07 29.1 C 95.424 28.999 95.782 28.953 96.004 28.953 L 96.257 28.953 L 96.217 29.377 L 96.217 32.349 L 96.654 32.465 L 96.654 32.612 C 96.387 32.708 96.146 32.743 95.747 32.743 C 95.565 32.743 95.337 32.728 95.162 32.672 L 95.162 32.546 L 95.156 32.546 Z  M 95.484 27.788 C 95.484 27.546 95.656 27.329 95.929 27.329 C 96.146 27.329 96.337 27.495 96.337 27.753 C 96.337 28.025 96.151 28.237 95.898 28.237 C 95.666 28.232 95.484 28.045 95.484 27.788 L 95.484 27.788 Z  M 98.634 28.898 C 99.475 28.898 99.985 29.463 99.985 30.361 C 99.985 30.508 99.985 30.664 99.975 30.861 L 97.669 30.861 C 97.669 31.739 98.179 32.243 98.824 32.243 C 99.208 32.243 99.633 32.112 99.929 31.905 C 99.945 31.945 99.96 32.032 99.96 32.107 C 99.96 32.46 99.445 32.788 98.613 32.788 C 97.72 32.788 96.994 32.092 96.994 30.997 C 96.998 29.639 97.816 28.898 98.634 28.898 L 98.634 28.898 Z  M 99.359 30.457 C 99.359 29.69 99.031 29.322 98.568 29.322 C 98.138 29.322 97.684 29.836 97.684 30.457 L 99.359 30.457 Z  M 101.892 29.367 L 101.569 29.14 L 101.569 28.953 L 103.064 28.953 L 103.064 29.14 L 102.62 29.327 L 103.462 31.805 L 103.472 31.805 L 104.34 29.347 L 103.896 29.135 L 103.896 28.949 L 105.101 28.949 L 105.101 29.135 L 104.886 29.317 L 103.493 32.768 L 103.225 32.783 L 101.892 29.367 L 101.892 29.367 Z  M 107.387 30.649 L 107.387 30.437 C 107.387 29.594 107.185 29.413 106.692 29.413 C 106.262 29.413 105.848 29.594 105.515 29.922 C 105.5 29.846 105.49 29.776 105.49 29.685 C 105.49 29.186 105.859 28.893 106.772 28.893 C 107.565 28.893 108.033 29.292 108.033 29.942 C 108.033 30.114 108.009 30.508 108.003 30.735 L 107.979 32.001 C 108.033 32.142 108.15 32.289 108.291 32.4 C 108.175 32.541 107.962 32.698 107.762 32.798 C 107.614 32.702 107.494 32.581 107.402 32.415 C 107.185 32.627 106.762 32.788 106.348 32.788 C 105.762 32.788 105.355 32.42 105.355 31.921 C 105.355 31.239 106.106 30.649 107.387 30.649 Z  M 106.641 32.324 C 106.884 32.324 107.195 32.228 107.392 32.112 L 107.392 31.017 C 106.51 31.017 106.03 31.385 106.03 31.809 C 106.03 32.122 106.243 32.324 106.641 32.324 L 106.641 32.324 Z  M 108.906 32.546 C 109.109 32.471 109.32 32.314 109.32 32.122 L 109.32 29.478 L 108.816 29.266 L 108.816 29.095 C 109.175 28.994 109.527 28.953 109.754 28.953 L 109.941 28.953 L 109.941 29.377 C 110.208 29.11 110.642 28.938 111.096 28.938 C 111.748 28.938 112.192 29.352 112.192 30.159 L 112.192 32.349 L 112.6 32.465 L 112.6 32.612 C 112.388 32.698 112.115 32.743 111.777 32.743 C 111.611 32.743 111.425 32.728 111.267 32.672 L 111.267 32.546 C 111.465 32.46 111.551 32.314 111.551 32.032 L 111.551 30.538 C 111.551 29.771 111.227 29.483 110.768 29.483 C 110.451 29.483 110.133 29.594 109.961 29.725 L 109.961 32.355 L 110.401 32.471 L 110.401 32.617 C 110.133 32.712 109.886 32.748 109.491 32.748 C 109.304 32.748 109.083 32.733 108.906 32.678 L 108.906 32.546 L 108.906 32.546 Z  M 114.705 32.526 C 114.986 32.44 115.158 32.289 115.158 31.931 L 115.158 28.096 L 114.664 27.929 L 114.664 27.758 C 115.174 27.672 115.612 27.646 116.253 27.646 C 117.899 27.646 118.984 28.484 118.984 29.988 C 118.984 31.708 117.671 32.748 116.137 32.748 C 115.522 32.748 115.198 32.738 114.705 32.667 L 114.705 32.526 L 114.705 32.526 Z  M 116.213 32.294 C 117.318 32.294 118.221 31.522 118.221 30.129 C 118.221 28.832 117.354 28.111 116.234 28.111 C 116.107 28.111 115.966 28.121 115.824 28.136 L 115.824 32.269 C 115.97 32.279 116.082 32.294 116.213 32.294 L 116.213 32.294 Z  M 121.223 28.898 C 122.067 28.898 122.576 29.463 122.576 30.361 C 122.576 30.508 122.576 30.664 122.571 30.861 L 120.265 30.861 C 120.265 31.739 120.775 32.243 121.42 32.243 C 121.804 32.243 122.227 32.112 122.526 31.905 C 122.54 31.945 122.555 32.032 122.555 32.107 C 122.555 32.46 122.041 32.788 121.208 32.788 C 120.316 32.788 119.588 32.092 119.588 30.997 C 119.588 29.639 120.412 28.898 121.223 28.898 L 121.223 28.898 Z  M 121.956 30.457 C 121.956 29.69 121.627 29.322 121.163 29.322 C 120.734 29.322 120.279 29.836 120.279 30.457 L 121.956 30.457 Z  M 123.171 32.546 C 123.373 32.471 123.585 32.314 123.585 32.122 L 123.585 29.509 L 123.156 29.509 L 123.156 29.236 L 123.585 29.065 L 123.585 28.484 C 123.574 27.656 124.124 27.061 125.088 27.061 C 125.643 27.061 125.86 27.208 125.86 27.435 C 125.86 27.505 125.845 27.616 125.82 27.692 C 125.532 27.591 125.095 27.526 124.781 27.526 C 124.463 27.526 124.201 27.823 124.201 28.378 C 124.201 28.494 124.216 28.908 124.232 29.085 L 125.231 29.085 L 125.144 29.509 L 124.221 29.509 L 124.221 32.349 L 124.716 32.465 L 124.716 32.612 C 124.447 32.708 124.185 32.743 123.751 32.743 C 123.565 32.743 123.343 32.728 123.166 32.672 L 123.166 32.546 L 123.171 32.546 Z  M 127.061 28.898 C 127.904 28.898 128.414 29.463 128.414 30.361 C 128.414 30.508 128.414 30.664 128.403 30.861 L 126.097 30.861 C 126.097 31.739 126.608 32.243 127.253 32.243 C 127.637 32.243 128.06 32.112 128.359 31.905 C 128.373 31.945 128.388 32.032 128.388 32.107 C 128.388 32.46 127.874 32.788 127.041 32.788 C 126.149 32.788 125.421 32.092 125.421 30.997 C 125.428 29.639 126.245 28.898 127.061 28.898 L 127.061 28.898 Z  M 127.789 30.457 C 127.789 29.69 127.46 29.322 126.997 29.322 C 126.568 29.322 126.113 29.836 126.113 30.457 L 127.789 30.457 Z  M 129.014 32.546 C 129.217 32.471 129.429 32.314 129.429 32.122 L 129.429 29.478 L 128.924 29.266 L 128.924 29.095 C 129.281 28.994 129.636 28.953 129.862 28.953 L 130.05 28.953 L 130.05 29.377 C 130.317 29.11 130.75 28.938 131.205 28.938 C 131.856 28.938 132.3 29.352 132.3 30.159 L 132.3 32.349 L 132.708 32.465 L 132.708 32.612 C 132.497 32.698 132.223 32.743 131.886 32.743 C 131.72 32.743 131.532 32.728 131.376 32.672 L 131.376 32.546 C 131.572 32.46 131.658 32.314 131.658 32.032 L 131.658 30.538 C 131.658 29.771 131.335 29.483 130.876 29.483 C 130.558 29.483 130.24 29.594 130.069 29.725 L 130.069 32.355 L 130.508 32.471 L 130.508 32.617 C 130.24 32.712 129.994 32.748 129.599 32.748 C 129.414 32.748 129.191 32.733 129.014 32.678 L 129.014 32.546 L 129.014 32.546 Z  M 133.248 31.829 C 133.601 32.158 133.934 32.324 134.352 32.324 C 134.792 32.324 135.019 32.112 135.019 31.84 C 135.019 31.567 134.862 31.396 134.348 31.174 L 133.959 31.007 C 133.505 30.81 133.252 30.482 133.252 30.038 C 133.252 29.423 133.799 28.888 134.615 28.888 C 135.241 28.888 135.494 29.075 135.494 29.372 C 135.494 29.488 135.479 29.589 135.453 29.7 C 135.201 29.529 134.858 29.402 134.559 29.402 C 134.06 29.402 133.823 29.619 133.823 29.887 C 133.823 30.169 133.965 30.326 134.433 30.502 L 134.858 30.669 C 135.422 30.886 135.635 31.179 135.635 31.638 C 135.635 32.238 135.054 32.788 134.181 32.788 C 133.496 32.788 133.188 32.571 133.188 32.148 C 133.178 32.042 133.197 31.915 133.248 31.829 L 133.248 31.829 Z  M 136.165 32.546 C 136.376 32.471 136.579 32.314 136.579 32.122 L 136.579 29.478 L 136.079 29.266 L 136.079 29.1 C 136.432 28.999 136.79 28.953 137.008 28.953 L 137.26 28.953 L 137.22 29.377 L 137.22 32.349 L 137.658 32.465 L 137.658 32.612 C 137.39 32.708 137.149 32.743 136.749 32.743 C 136.568 32.743 136.342 32.728 136.165 32.672 L 136.165 32.546 L 136.165 32.546 Z  M 136.493 27.788 C 136.493 27.546 136.665 27.329 136.936 27.329 C 137.153 27.329 137.345 27.495 137.345 27.753 C 137.345 28.025 137.158 28.237 136.906 28.237 C 136.669 28.232 136.493 28.045 136.493 27.788 L 136.493 27.788 Z  M 139.832 28.898 C 140.676 28.898 141.185 29.463 141.185 30.361 C 141.185 30.508 141.185 30.664 141.175 30.861 L 138.869 30.861 C 138.869 31.739 139.378 32.243 140.025 32.243 C 140.408 32.243 140.832 32.112 141.129 31.905 C 141.144 31.945 141.161 32.032 141.161 32.107 C 141.161 32.46 140.646 32.788 139.813 32.788 C 138.919 32.788 138.193 32.092 138.193 30.997 C 138.198 29.639 139.021 28.898 139.832 28.898 L 139.832 28.898 Z  M 140.559 30.457 C 140.559 29.69 140.232 29.322 139.767 29.322 C 139.338 29.322 138.885 29.836 138.885 30.457 L 140.559 30.457 Z " fill="rgb(0,0,0)"/></g><path d=" M 29.069 189.882 L 34.092 205.157 L 30.698 205.157 L 29.735 202.13 L 25.033 202.13 L 24.115 205.157 L 20.721 205.157 L 25.721 189.882 L 29.069 189.882 Z  M 27.395 194.102 L 26.019 199.194 L 28.771 199.194 L 27.395 194.102 Z  M 45.331 196.442 L 45.331 203.001 Q 45.331 204.056 44.712 204.722 Q 44.092 205.387 42.946 205.387 Q 42.625 205.387 42.131 205.284 Q 41.638 205.18 41.099 205.031 Q 40.56 204.882 40.044 204.71 Q 39.528 204.538 39.161 204.401 L 39.161 209.515 L 35.996 210.066 L 35.996 194.286 L 39.047 194.286 L 39.047 195.089 Q 39.414 194.951 39.941 194.767 Q 40.469 194.584 41.031 194.423 Q 41.592 194.263 42.109 194.16 Q 42.625 194.056 42.946 194.056 Q 44.092 194.056 44.712 194.722 Q 45.331 195.387 45.331 196.442 L 45.331 196.442 Z  M 39.161 198.047 L 39.161 201.396 Q 39.161 201.625 39.391 201.694 Q 39.505 201.74 39.884 201.866 Q 40.262 201.992 40.686 202.118 Q 41.111 202.245 41.478 202.348 Q 41.845 202.451 41.936 202.451 Q 42.166 202.451 42.166 202.222 L 42.166 197.222 Q 42.166 196.992 41.936 196.992 Q 41.845 196.992 41.478 197.095 Q 41.111 197.199 40.686 197.325 Q 40.262 197.451 39.884 197.577 Q 39.505 197.703 39.391 197.749 Q 39.161 197.818 39.161 198.047 Z  M 57.418 196.442 L 57.418 203.001 Q 57.418 204.056 56.799 204.722 Q 56.18 205.387 55.033 205.387 Q 54.712 205.387 54.219 205.284 Q 53.726 205.18 53.187 205.031 Q 52.648 204.882 52.132 204.71 Q 51.615 204.538 51.248 204.401 L 51.248 209.515 L 48.083 210.066 L 48.083 194.286 L 51.134 194.286 L 51.134 195.089 Q 51.501 194.951 52.028 194.767 Q 52.556 194.584 53.118 194.423 Q 53.68 194.263 54.196 194.16 Q 54.712 194.056 55.033 194.056 Q 56.18 194.056 56.799 194.722 Q 57.418 195.387 57.418 196.442 L 57.418 196.442 Z  M 51.248 198.047 L 51.248 201.396 Q 51.248 201.625 51.478 201.694 Q 51.593 201.74 51.971 201.866 Q 52.349 201.992 52.774 202.118 Q 53.198 202.245 53.565 202.348 Q 53.932 202.451 54.024 202.451 Q 54.253 202.451 54.253 202.222 L 54.253 197.222 Q 54.253 196.992 54.024 196.992 Q 53.932 196.992 53.565 197.095 Q 53.198 197.199 52.774 197.325 Q 52.349 197.451 51.971 197.577 Q 51.593 197.703 51.478 197.749 Q 51.248 197.818 51.248 198.047 Z  M 60.171 205.157 L 60.171 189.882 L 63.336 189.332 L 63.336 205.157 L 60.171 205.157 L 60.171 205.157 Z  M 66.317 205.157 L 66.317 194.286 L 69.483 194.286 L 69.483 205.157 L 66.317 205.157 Z  M 66.317 192.933 L 66.317 189.515 L 69.483 189.515 L 69.483 192.933 L 66.317 192.933 Z  M 78.198 200.822 L 81.295 201.373 L 81.295 202.772 Q 81.295 203.254 81.111 203.689 Q 80.928 204.125 80.595 204.458 Q 80.262 204.79 79.827 204.974 Q 79.391 205.157 78.909 205.157 L 74.62 205.157 Q 74.139 205.157 73.703 204.974 Q 73.267 204.79 72.934 204.458 Q 72.602 204.125 72.418 203.689 Q 72.235 203.254 72.235 202.772 L 72.235 196.671 Q 72.235 196.189 72.418 195.754 Q 72.602 195.318 72.934 194.985 Q 73.267 194.653 73.703 194.469 Q 74.139 194.286 74.62 194.286 L 78.909 194.286 Q 79.391 194.286 79.827 194.469 Q 80.262 194.653 80.595 194.985 Q 80.928 195.318 81.111 195.754 Q 81.295 196.189 81.295 196.671 L 81.295 197.887 L 78.198 198.46 L 78.198 197.405 Q 78.198 197.176 77.969 197.176 L 75.629 197.176 Q 75.4 197.176 75.4 197.405 L 75.4 202.038 Q 75.4 202.267 75.629 202.267 L 77.969 202.267 Q 78.198 202.267 78.198 202.038 L 78.198 200.822 L 78.198 200.822 Z  M 83.519 203.001 L 83.519 201.281 Q 83.519 200.226 84.139 199.561 Q 84.758 198.896 85.905 198.896 Q 86.547 198.896 87.533 198.999 Q 88.519 199.102 89.46 199.286 L 89.46 197.29 Q 89.46 197.061 89.23 197.061 L 86.868 197.061 Q 86.639 197.061 86.639 197.29 L 86.639 198.001 L 83.657 197.497 L 83.657 196.671 Q 83.657 196.189 83.84 195.754 Q 84.024 195.318 84.357 194.985 Q 84.689 194.653 85.125 194.469 Q 85.561 194.286 86.042 194.286 L 90.24 194.286 Q 90.721 194.286 91.157 194.469 Q 91.593 194.653 91.925 194.985 Q 92.258 195.318 92.441 195.754 Q 92.625 196.189 92.625 196.671 L 92.625 205.157 L 89.574 205.157 L 89.574 204.63 Q 89.208 204.767 88.714 204.905 Q 88.221 205.043 87.705 205.146 Q 87.189 205.249 86.707 205.318 Q 86.226 205.387 85.905 205.387 Q 84.758 205.387 84.139 204.722 Q 83.519 204.056 83.519 203.001 L 83.519 203.001 Z  M 89.46 202.222 L 89.46 201.602 Q 89.46 201.35 89.23 201.304 Q 88.909 201.281 88.542 201.247 Q 88.175 201.212 87.831 201.189 Q 87.487 201.167 87.212 201.155 Q 86.937 201.144 86.845 201.144 Q 86.616 201.144 86.616 201.373 L 86.616 202.772 Q 86.616 203.001 86.845 203.001 Q 86.937 203.001 87.281 202.944 Q 87.625 202.887 88.015 202.806 Q 88.405 202.726 88.76 202.646 Q 89.116 202.566 89.23 202.52 Q 89.46 202.451 89.46 202.222 L 89.46 202.222 Z  M 94.23 196.992 L 94.23 194.286 L 95.836 194.286 L 95.836 191.855 L 99.001 191.304 L 99.001 194.286 L 101.57 194.286 L 101.042 196.992 L 99.001 196.992 L 99.001 202.176 Q 99.001 202.405 99.231 202.405 L 101.157 202.405 L 101.157 205.157 L 98.221 205.157 Q 97.74 205.157 97.304 204.974 Q 96.868 204.79 96.536 204.458 Q 96.203 204.125 96.019 203.689 Q 95.836 203.254 95.836 202.772 L 95.836 196.992 L 94.23 196.992 L 94.23 196.992 Z  M 103.52 205.157 L 103.52 194.286 L 106.685 194.286 L 106.685 205.157 L 103.52 205.157 Z  M 103.52 192.933 L 103.52 189.515 L 106.685 189.515 L 106.685 192.933 L 103.52 192.933 Z  M 118.978 196.671 L 118.978 202.772 Q 118.978 203.254 118.795 203.689 Q 118.611 204.125 118.279 204.458 Q 117.946 204.79 117.51 204.974 Q 117.075 205.157 116.593 205.157 L 111.822 205.157 Q 111.341 205.157 110.905 204.974 Q 110.469 204.79 110.137 204.458 Q 109.804 204.125 109.621 203.689 Q 109.437 203.254 109.437 202.772 L 109.437 196.671 Q 109.437 196.189 109.621 195.754 Q 109.804 195.318 110.137 194.985 Q 110.469 194.653 110.905 194.469 Q 111.341 194.286 111.822 194.286 L 116.593 194.286 Q 117.075 194.286 117.51 194.469 Q 117.946 194.653 118.279 194.985 Q 118.611 195.318 118.795 195.754 Q 118.978 196.189 118.978 196.671 Z  M 115.813 202.038 L 115.813 197.405 Q 115.813 197.176 115.584 197.176 L 112.832 197.176 Q 112.602 197.176 112.602 197.405 L 112.602 202.038 Q 112.602 202.267 112.832 202.267 L 115.584 202.267 Q 115.813 202.267 115.813 202.038 Z  M 124.896 205.157 L 121.731 205.157 L 121.731 194.286 L 124.781 194.286 L 124.781 195.089 Q 125.148 194.951 125.664 194.767 Q 126.18 194.584 126.731 194.423 Q 127.281 194.263 127.797 194.16 Q 128.313 194.056 128.634 194.056 Q 129.781 194.056 130.4 194.722 Q 131.02 195.387 131.02 196.442 L 131.02 205.157 L 127.855 205.157 L 127.855 197.497 Q 127.855 197.267 127.625 197.267 Q 127.533 197.267 127.178 197.371 Q 126.822 197.474 126.41 197.6 Q 125.997 197.726 125.618 197.852 Q 125.24 197.978 125.125 198.024 Q 124.896 198.093 124.896 198.322 L 124.896 205.157 L 124.896 205.157 Z  M 21.913 177.634 L 21.913 162.359 L 25.239 162.359 L 25.239 174.607 L 31.317 174.607 L 31.317 177.634 L 21.913 177.634 L 21.913 177.634 Z  M 33.267 175.478 L 33.267 173.758 Q 33.267 172.703 33.886 172.038 Q 34.505 171.373 35.652 171.373 Q 36.294 171.373 37.28 171.476 Q 38.267 171.579 39.207 171.763 L 39.207 169.767 Q 39.207 169.538 38.978 169.538 L 36.615 169.538 Q 36.386 169.538 36.386 169.767 L 36.386 170.478 L 33.404 169.974 L 33.404 169.148 Q 33.404 168.666 33.588 168.23 Q 33.771 167.795 34.104 167.462 Q 34.436 167.13 34.872 166.946 Q 35.308 166.763 35.79 166.763 L 39.987 166.763 Q 40.469 166.763 40.904 166.946 Q 41.34 167.13 41.673 167.462 Q 42.005 167.795 42.189 168.23 Q 42.372 168.666 42.372 169.148 L 42.372 177.634 L 39.322 177.634 L 39.322 177.107 Q 38.955 177.244 38.462 177.382 Q 37.969 177.52 37.453 177.623 Q 36.936 177.726 36.455 177.795 Q 35.973 177.864 35.652 177.864 Q 34.505 177.864 33.886 177.198 Q 33.267 176.533 33.267 175.478 L 33.267 175.478 Z  M 39.207 174.698 L 39.207 174.079 Q 39.207 173.827 38.978 173.781 Q 38.657 173.758 38.29 173.724 Q 37.923 173.689 37.579 173.666 Q 37.235 173.643 36.959 173.632 Q 36.684 173.62 36.592 173.62 Q 36.363 173.62 36.363 173.85 L 36.363 175.249 Q 36.363 175.478 36.592 175.478 Q 36.684 175.478 37.028 175.421 Q 37.372 175.364 37.762 175.283 Q 38.152 175.203 38.508 175.123 Q 38.863 175.042 38.978 174.997 Q 39.207 174.928 39.207 174.698 L 39.207 174.698 Z  M 48.404 177.634 L 45.239 177.634 L 45.239 166.763 L 48.29 166.763 L 48.29 167.565 Q 48.657 167.428 49.173 167.244 Q 49.689 167.061 50.239 166.9 Q 50.79 166.74 51.306 166.636 Q 51.822 166.533 52.143 166.533 Q 53.29 166.533 53.909 167.198 Q 54.528 167.864 54.528 168.919 L 54.528 177.634 L 51.363 177.634 L 51.363 169.974 Q 51.363 169.744 51.134 169.744 Q 51.042 169.744 50.687 169.847 Q 50.331 169.951 49.918 170.077 Q 49.505 170.203 49.127 170.329 Q 48.748 170.455 48.634 170.501 Q 48.404 170.57 48.404 170.799 L 48.404 177.634 L 48.404 177.634 Z  M 58.244 181.992 L 58.244 179.4 L 63.106 179.4 Q 63.29 179.4 63.336 179.217 L 63.336 176.419 Q 62.969 176.556 62.453 176.728 Q 61.937 176.9 61.398 177.049 Q 60.859 177.198 60.366 177.302 Q 59.872 177.405 59.551 177.405 Q 58.405 177.405 57.785 176.74 Q 57.166 176.075 57.166 175.02 L 57.166 168.919 Q 57.166 167.864 57.785 167.198 Q 58.405 166.533 59.551 166.533 Q 59.872 166.533 60.388 166.636 Q 60.905 166.74 61.466 166.9 Q 62.028 167.061 62.556 167.244 Q 63.083 167.428 63.45 167.565 L 63.45 166.763 L 66.501 166.763 L 66.501 179.607 Q 66.501 180.088 66.317 180.524 Q 66.134 180.96 65.801 181.293 Q 65.469 181.625 65.033 181.809 Q 64.597 181.992 64.116 181.992 L 58.244 181.992 L 58.244 181.992 Z  M 63.336 173.414 L 63.336 170.524 Q 63.336 170.295 63.106 170.226 Q 62.992 170.18 62.602 170.054 Q 62.212 169.928 61.788 169.802 Q 61.363 169.675 60.985 169.572 Q 60.606 169.469 60.515 169.469 Q 60.285 169.469 60.285 169.698 L 60.285 174.24 Q 60.285 174.469 60.515 174.469 Q 60.606 174.469 60.985 174.366 Q 61.363 174.263 61.788 174.137 Q 62.212 174.01 62.602 173.884 Q 62.992 173.758 63.106 173.712 Q 63.336 173.643 63.336 173.414 L 63.336 173.414 Z  M 75.377 166.763 L 78.542 166.763 L 78.542 177.634 L 75.492 177.634 L 75.492 176.831 Q 75.125 176.969 74.597 177.153 Q 74.07 177.336 73.519 177.497 Q 72.969 177.657 72.464 177.76 Q 71.96 177.864 71.639 177.864 Q 70.492 177.864 69.872 177.198 Q 69.253 176.533 69.253 175.478 L 69.253 166.763 L 72.418 166.763 L 72.418 174.515 Q 72.418 174.744 72.648 174.744 Q 72.739 174.744 73.095 174.641 Q 73.451 174.538 73.863 174.412 Q 74.276 174.286 74.655 174.159 Q 75.033 174.033 75.148 173.987 Q 75.377 173.919 75.377 173.689 L 75.377 166.763 L 75.377 166.763 Z  M 81.295 175.478 L 81.295 173.758 Q 81.295 172.703 81.914 172.038 Q 82.533 171.373 83.68 171.373 Q 84.322 171.373 85.308 171.476 Q 86.295 171.579 87.235 171.763 L 87.235 169.767 Q 87.235 169.538 87.006 169.538 L 84.643 169.538 Q 84.414 169.538 84.414 169.767 L 84.414 170.478 L 81.432 169.974 L 81.432 169.148 Q 81.432 168.666 81.616 168.23 Q 81.799 167.795 82.132 167.462 Q 82.464 167.13 82.9 166.946 Q 83.336 166.763 83.818 166.763 L 88.015 166.763 Q 88.496 166.763 88.932 166.946 Q 89.368 167.13 89.701 167.462 Q 90.033 167.795 90.217 168.23 Q 90.4 168.666 90.4 169.148 L 90.4 177.634 L 87.35 177.634 L 87.35 177.107 Q 86.983 177.244 86.49 177.382 Q 85.996 177.52 85.48 177.623 Q 84.964 177.726 84.483 177.795 Q 84.001 177.864 83.68 177.864 Q 82.533 177.864 81.914 177.198 Q 81.295 176.533 81.295 175.478 L 81.295 175.478 Z  M 87.235 174.698 L 87.235 174.079 Q 87.235 173.827 87.006 173.781 Q 86.685 173.758 86.318 173.724 Q 85.951 173.689 85.607 173.666 Q 85.263 173.643 84.987 173.632 Q 84.712 173.62 84.62 173.62 Q 84.391 173.62 84.391 173.85 L 84.391 175.249 Q 84.391 175.478 84.62 175.478 Q 84.712 175.478 85.056 175.421 Q 85.4 175.364 85.79 175.283 Q 86.18 175.203 86.535 175.123 Q 86.891 175.042 87.006 174.997 Q 87.235 174.928 87.235 174.698 L 87.235 174.698 Z  M 94.116 181.992 L 94.116 179.4 L 98.978 179.4 Q 99.162 179.4 99.208 179.217 L 99.208 176.419 Q 98.841 176.556 98.325 176.728 Q 97.808 176.9 97.269 177.049 Q 96.731 177.198 96.237 177.302 Q 95.744 177.405 95.423 177.405 Q 94.276 177.405 93.657 176.74 Q 93.038 176.075 93.038 175.02 L 93.038 168.919 Q 93.038 167.864 93.657 167.198 Q 94.276 166.533 95.423 166.533 Q 95.744 166.533 96.26 166.636 Q 96.776 166.74 97.338 166.9 Q 97.9 167.061 98.428 167.244 Q 98.955 167.428 99.322 167.565 L 99.322 166.763 L 102.373 166.763 L 102.373 179.607 Q 102.373 180.088 102.189 180.524 Q 102.006 180.96 101.673 181.293 Q 101.341 181.625 100.905 181.809 Q 100.469 181.992 99.987 181.992 L 94.116 181.992 L 94.116 181.992 Z  M 99.208 173.414 L 99.208 170.524 Q 99.208 170.295 98.978 170.226 Q 98.864 170.18 98.474 170.054 Q 98.084 169.928 97.659 169.802 Q 97.235 169.675 96.857 169.572 Q 96.478 169.469 96.386 169.469 Q 96.157 169.469 96.157 169.698 L 96.157 174.24 Q 96.157 174.469 96.386 174.469 Q 96.478 174.469 96.857 174.366 Q 97.235 174.263 97.659 174.137 Q 98.084 174.01 98.474 173.884 Q 98.864 173.758 98.978 173.712 Q 99.208 173.643 99.208 173.414 L 99.208 173.414 Z  M 111.02 173.987 L 114.07 174.538 L 114.07 175.249 Q 114.07 175.731 113.887 176.166 Q 113.703 176.602 113.371 176.935 Q 113.038 177.267 112.602 177.451 Q 112.166 177.634 111.685 177.634 L 107.396 177.634 Q 106.914 177.634 106.478 177.451 Q 106.043 177.267 105.71 176.935 Q 105.377 176.602 105.194 176.166 Q 105.01 175.731 105.01 175.249 L 105.01 169.148 Q 105.01 168.666 105.194 168.23 Q 105.377 167.795 105.71 167.462 Q 106.043 167.13 106.478 166.946 Q 106.914 166.763 107.396 166.763 L 111.593 166.763 Q 112.075 166.763 112.51 166.946 Q 112.946 167.13 113.279 167.462 Q 113.611 167.795 113.795 168.23 Q 113.978 168.666 113.978 169.148 L 113.978 173.139 L 108.176 173.139 L 108.176 174.675 Q 108.176 174.905 108.405 174.905 L 110.79 174.905 Q 111.02 174.905 111.02 174.675 L 111.02 173.987 L 111.02 173.987 Z  M 108.176 169.744 L 108.176 170.868 L 110.997 170.868 L 110.997 169.744 Q 110.997 169.515 110.767 169.515 L 108.405 169.515 Q 108.176 169.515 108.176 169.744 Z  M 27.556 147.749 L 25.124 142.083 L 25.124 150.111 L 21.913 150.111 L 21.913 134.836 L 25.124 134.836 L 28.955 143.987 L 32.785 134.836 L 35.996 134.836 L 35.996 150.111 L 32.785 150.111 L 32.785 142.083 L 30.354 147.749 L 27.556 147.749 Z  M 45.102 139.239 L 48.267 139.239 L 48.267 150.111 L 45.216 150.111 L 45.216 149.308 Q 44.849 149.446 44.322 149.629 Q 43.794 149.813 43.244 149.973 Q 42.693 150.134 42.189 150.237 Q 41.684 150.34 41.363 150.34 Q 40.216 150.34 39.597 149.675 Q 38.978 149.01 38.978 147.955 L 38.978 139.239 L 42.143 139.239 L 42.143 146.992 Q 42.143 147.221 42.372 147.221 Q 42.464 147.221 42.82 147.118 Q 43.175 147.015 43.588 146.889 Q 44.001 146.762 44.379 146.636 Q 44.758 146.51 44.872 146.464 Q 45.102 146.395 45.102 146.166 L 45.102 139.239 L 45.102 139.239 Z  M 51.248 150.111 L 51.248 134.836 L 54.414 134.285 L 54.414 150.111 L 51.248 150.111 Z  M 56.134 141.946 L 56.134 139.239 L 57.739 139.239 L 57.739 136.808 L 60.905 136.258 L 60.905 139.239 L 63.473 139.239 L 62.946 141.946 L 60.905 141.946 L 60.905 147.129 Q 60.905 147.359 61.134 147.359 L 63.061 147.359 L 63.061 150.111 L 60.125 150.111 Q 59.643 150.111 59.207 149.928 Q 58.771 149.744 58.439 149.412 Q 58.106 149.079 57.923 148.643 Q 57.739 148.207 57.739 147.726 L 57.739 141.946 L 56.134 141.946 L 56.134 141.946 Z  M 65.423 150.111 L 65.423 139.239 L 68.588 139.239 L 68.588 150.111 L 65.423 150.111 Z  M 65.423 137.886 L 65.423 134.469 L 68.588 134.469 L 68.588 137.886 L 65.423 137.886 Z  M 32.487 109.836 L 32.487 120.065 Q 32.487 120.593 32.292 121.051 Q 32.097 121.51 31.753 121.854 Q 31.409 122.198 30.95 122.393 Q 30.491 122.588 29.964 122.588 L 24.322 122.588 Q 23.794 122.588 23.335 122.393 Q 22.877 122.198 22.533 121.854 Q 22.189 121.51 21.994 121.051 Q 21.799 120.593 21.799 120.065 L 21.799 109.836 Q 21.799 109.308 21.994 108.849 Q 22.189 108.391 22.533 108.047 Q 22.877 107.702 23.335 107.508 Q 23.794 107.313 24.322 107.313 L 29.964 107.313 Q 30.491 107.313 30.95 107.508 Q 31.409 107.702 31.753 108.047 Q 32.097 108.391 32.292 108.849 Q 32.487 109.308 32.487 109.836 Z  M 29.161 119.331 L 29.161 110.569 Q 29.161 110.34 28.932 110.34 L 25.354 110.34 Q 25.124 110.34 25.124 110.569 L 25.124 119.331 Q 25.124 119.56 25.354 119.56 L 28.932 119.56 Q 29.161 119.56 29.161 119.331 Z  M 34.551 114.423 L 34.551 111.716 L 35.996 111.716 L 35.996 109.491 Q 35.996 109.01 36.18 108.574 Q 36.363 108.138 36.696 107.806 Q 37.028 107.473 37.464 107.29 Q 37.9 107.106 38.381 107.106 L 41.707 107.106 L 41.707 109.858 L 39.391 109.858 Q 39.161 109.858 39.161 110.088 L 39.161 111.716 L 41.57 111.716 L 41.225 114.423 L 39.161 114.423 L 39.161 122.588 L 35.996 122.588 L 35.996 114.423 L 34.551 114.423 Z  M 42.625 114.423 L 42.625 111.716 L 44.07 111.716 L 44.07 109.491 Q 44.07 109.01 44.253 108.574 Q 44.437 108.138 44.769 107.806 Q 45.102 107.473 45.537 107.29 Q 45.973 107.106 46.455 107.106 L 49.781 107.106 L 49.781 109.858 L 47.464 109.858 Q 47.235 109.858 47.235 110.088 L 47.235 111.716 L 49.643 111.716 L 49.299 114.423 L 47.235 114.423 L 47.235 122.588 L 44.07 122.588 L 44.07 114.423 L 42.625 114.423 Z  M 51.615 122.588 L 51.615 107.313 L 54.781 106.762 L 54.781 122.588 L 51.615 122.588 Z  M 57.762 122.588 L 57.762 111.716 L 60.927 111.716 L 60.927 122.588 L 57.762 122.588 Z  M 57.762 110.363 L 57.762 106.946 L 60.927 106.946 L 60.927 110.363 L 57.762 110.363 Z  M 67.074 122.588 L 63.909 122.588 L 63.909 111.716 L 66.96 111.716 L 66.96 112.519 Q 67.327 112.381 67.843 112.198 Q 68.359 112.014 68.909 111.854 Q 69.46 111.693 69.976 111.59 Q 70.492 111.487 70.813 111.487 Q 71.96 111.487 72.579 112.152 Q 73.198 112.817 73.198 113.872 L 73.198 122.588 L 70.033 122.588 L 70.033 114.927 Q 70.033 114.698 69.804 114.698 Q 69.712 114.698 69.356 114.801 Q 69.001 114.904 68.588 115.031 Q 68.175 115.157 67.797 115.283 Q 67.418 115.409 67.304 115.455 Q 67.074 115.524 67.074 115.753 L 67.074 122.588 Z  M 81.845 118.941 L 84.896 119.492 L 84.896 120.203 Q 84.896 120.684 84.712 121.12 Q 84.529 121.556 84.196 121.888 Q 83.863 122.221 83.428 122.404 Q 82.992 122.588 82.51 122.588 L 78.221 122.588 Q 77.74 122.588 77.304 122.404 Q 76.868 122.221 76.535 121.888 Q 76.203 121.556 76.019 121.12 Q 75.836 120.684 75.836 120.203 L 75.836 114.102 Q 75.836 113.62 76.019 113.184 Q 76.203 112.748 76.535 112.416 Q 76.868 112.083 77.304 111.9 Q 77.74 111.716 78.221 111.716 L 82.418 111.716 Q 82.9 111.716 83.336 111.9 Q 83.772 112.083 84.104 112.416 Q 84.437 112.748 84.62 113.184 Q 84.804 113.62 84.804 114.102 L 84.804 118.092 L 79.001 118.092 L 79.001 119.629 Q 79.001 119.859 79.23 119.859 L 81.616 119.859 Q 81.845 119.859 81.845 119.629 L 81.845 118.941 Z  M 79.001 114.698 L 79.001 115.822 L 81.822 115.822 L 81.822 114.698 Q 81.822 114.469 81.593 114.469 L 79.23 114.469 Q 79.001 114.469 79.001 114.698 Z  M 20.881 82.817 L 20.881 79.789 L 32.097 79.789 L 32.097 82.817 L 28.152 82.817 L 28.152 95.065 L 24.826 95.065 L 24.826 82.817 L 20.881 82.817 Z  M 43.45 95.065 L 40.285 95.065 L 40.285 87.404 Q 40.285 87.175 40.056 87.175 Q 39.964 87.175 39.608 87.278 Q 39.253 87.381 38.84 87.507 Q 38.427 87.634 38.049 87.76 Q 37.67 87.886 37.556 87.932 Q 37.326 88.001 37.326 88.23 L 37.326 95.065 L 34.161 95.065 L 34.161 79.789 L 37.326 79.239 L 37.326 84.95 Q 37.693 84.812 38.209 84.64 Q 38.725 84.468 39.253 84.319 Q 39.781 84.17 40.262 84.067 Q 40.744 83.964 41.065 83.964 Q 42.212 83.964 42.831 84.629 Q 43.45 85.294 43.45 86.349 L 43.45 95.065 L 43.45 95.065 Z  M 52.097 91.418 L 55.148 91.968 L 55.148 92.679 Q 55.148 93.161 54.964 93.597 Q 54.781 94.033 54.448 94.365 Q 54.115 94.698 53.68 94.881 Q 53.244 95.065 52.762 95.065 L 48.473 95.065 Q 47.992 95.065 47.556 94.881 Q 47.12 94.698 46.787 94.365 Q 46.455 94.033 46.271 93.597 Q 46.088 93.161 46.088 92.679 L 46.088 86.578 Q 46.088 86.097 46.271 85.661 Q 46.455 85.225 46.787 84.893 Q 47.12 84.56 47.556 84.377 Q 47.992 84.193 48.473 84.193 L 52.671 84.193 Q 53.152 84.193 53.588 84.377 Q 54.024 84.56 54.356 84.893 Q 54.689 85.225 54.872 85.661 Q 55.056 86.097 55.056 86.578 L 55.056 90.569 L 49.253 90.569 L 49.253 92.106 Q 49.253 92.335 49.482 92.335 L 51.868 92.335 Q 52.097 92.335 52.097 92.106 L 52.097 91.418 Z  M 49.253 87.175 L 49.253 88.299 L 52.074 88.299 L 52.074 87.175 Q 52.074 86.945 51.845 86.945 L 49.482 86.945 Q 49.253 86.945 49.253 87.175 Z " fill-rule="evenodd" fill="rgb(255,255,255)"/><path d=" M 0 227.926 L 179.187 227.926 L 179.187 388 L 0 388 L 0 227.926 Z " fill="rgb(13,105,151)"/></g></g></g></g><path d=" M 70.5 142.88 L 70.5 140.52 L 71.76 140.52 L 71.76 138.58 L 71.76 138.58 Q 71.76 138.16 71.92 137.78 L 71.92 137.78 L 71.92 137.78 Q 72.08 137.4 72.37 137.11 L 72.37 137.11 L 72.37 137.11 Q 72.66 136.82 73.04 136.66 L 73.04 136.66 L 73.04 136.66 Q 73.42 136.5 73.84 136.5 L 73.84 136.5 L 76.74 136.5 L 76.74 138.9 L 74.72 138.9 L 74.72 138.9 Q 74.52 138.9 74.52 139.1 L 74.52 139.1 L 74.52 140.52 L 76.62 140.52 L 76.32 142.88 L 74.52 142.88 L 74.52 150 L 71.76 150 L 71.76 142.88 L 70.5 142.88 L 70.5 142.88 Z  M 83.58 140.52 L 86.34 140.52 L 86.34 150 L 83.68 150 L 83.68 149.3 L 83.68 149.3 Q 83.36 149.42 82.9 149.58 L 82.9 149.58 L 82.9 149.58 Q 82.44 149.74 81.96 149.88 L 81.96 149.88 L 81.96 149.88 Q 81.48 150.02 81.04 150.11 L 81.04 150.11 L 81.04 150.11 Q 80.6 150.2 80.32 150.2 L 80.32 150.2 L 80.32 150.2 Q 79.32 150.2 78.78 149.62 L 78.78 149.62 L 78.78 149.62 Q 78.24 149.04 78.24 148.12 L 78.24 148.12 L 78.24 140.52 L 81 140.52 L 81 147.28 L 81 147.28 Q 81 147.48 81.2 147.48 L 81.2 147.48 L 81.2 147.48 Q 81.28 147.48 81.59 147.39 L 81.59 147.39 L 81.59 147.39 Q 81.9 147.3 82.26 147.19 L 82.26 147.19 L 82.26 147.19 Q 82.62 147.08 82.95 146.97 L 82.95 146.97 L 82.95 146.97 Q 83.28 146.86 83.38 146.82 L 83.38 146.82 L 83.38 146.82 Q 83.58 146.76 83.58 146.56 L 83.58 146.56 L 83.58 140.52 L 83.58 140.52 Z  M 91.7 150 L 88.94 150 L 88.94 140.52 L 91.6 140.52 L 91.6 141.22 L 91.6 141.22 Q 91.92 141.1 92.37 140.94 L 92.37 140.94 L 92.37 140.94 Q 92.82 140.78 93.3 140.64 L 93.3 140.64 L 93.3 140.64 Q 93.78 140.5 94.23 140.41 L 94.23 140.41 L 94.23 140.41 Q 94.68 140.32 94.96 140.32 L 94.96 140.32 L 94.96 140.32 Q 95.96 140.32 96.5 140.9 L 96.5 140.9 L 96.5 140.9 Q 97.04 141.48 97.04 142.4 L 97.04 142.4 L 97.04 150 L 94.28 150 L 94.28 143.32 L 94.28 143.32 Q 94.28 143.12 94.08 143.12 L 94.08 143.12 L 94.08 143.12 Q 94 143.12 93.69 143.21 L 93.69 143.21 L 93.69 143.21 Q 93.38 143.3 93.02 143.41 L 93.02 143.41 L 93.02 143.41 Q 92.66 143.52 92.33 143.63 L 92.33 143.63 L 92.33 143.63 Q 92 143.74 91.9 143.78 L 91.9 143.78 L 91.9 143.78 Q 91.7 143.84 91.7 144.04 L 91.7 144.04 L 91.7 150 L 91.7 150 Z  M 104.54 146.22 L 107.24 146.7 L 107.24 147.92 L 107.24 147.92 Q 107.24 148.34 107.08 148.72 L 107.08 148.72 L 107.08 148.72 Q 106.92 149.1 106.63 149.39 L 106.63 149.39 L 106.63 149.39 Q 106.34 149.68 105.96 149.84 L 105.96 149.84 L 105.96 149.84 Q 105.58 150 105.16 150 L 105.16 150 L 101.42 150 L 101.42 150 Q 101 150 100.62 149.84 L 100.62 149.84 L 100.62 149.84 Q 100.24 149.68 99.95 149.39 L 99.95 149.39 L 99.95 149.39 Q 99.66 149.1 99.5 148.72 L 99.5 148.72 L 99.5 148.72 Q 99.34 148.34 99.34 147.92 L 99.34 147.92 L 99.34 142.6 L 99.34 142.6 Q 99.34 142.18 99.5 141.8 L 99.5 141.8 L 99.5 141.8 Q 99.66 141.42 99.95 141.13 L 99.95 141.13 L 99.95 141.13 Q 100.24 140.84 100.62 140.68 L 100.62 140.68 L 100.62 140.68 Q 101 140.52 101.42 140.52 L 101.42 140.52 L 105.16 140.52 L 105.16 140.52 Q 105.58 140.52 105.96 140.68 L 105.96 140.68 L 105.96 140.68 Q 106.34 140.84 106.63 141.13 L 106.63 141.13 L 106.63 141.13 Q 106.92 141.42 107.08 141.8 L 107.08 141.8 L 107.08 141.8 Q 107.24 142.18 107.24 142.6 L 107.24 142.6 L 107.24 143.66 L 104.54 144.16 L 104.54 143.24 L 104.54 143.24 Q 104.54 143.04 104.34 143.04 L 104.34 143.04 L 102.3 143.04 L 102.3 143.04 Q 102.1 143.04 102.1 143.24 L 102.1 143.24 L 102.1 147.28 L 102.1 147.28 Q 102.1 147.48 102.3 147.48 L 102.3 147.48 L 104.34 147.48 L 104.34 147.48 Q 104.54 147.48 104.54 147.28 L 104.54 147.28 L 104.54 146.22 L 104.54 146.22 Z  M 108.28 142.88 L 108.28 140.52 L 109.68 140.52 L 109.68 138.4 L 112.44 137.92 L 112.44 140.52 L 114.68 140.52 L 114.22 142.88 L 112.44 142.88 L 112.44 147.4 L 112.44 147.4 Q 112.44 147.6 112.64 147.6 L 112.64 147.6 L 114.32 147.6 L 114.32 150 L 111.76 150 L 111.76 150 Q 111.34 150 110.96 149.84 L 110.96 149.84 L 110.96 149.84 Q 110.58 149.68 110.29 149.39 L 110.29 149.39 L 110.29 149.39 Q 110 149.1 109.84 148.72 L 109.84 148.72 L 109.84 148.72 Q 109.68 148.34 109.68 147.92 L 109.68 147.92 L 109.68 142.88 L 108.28 142.88 L 108.28 142.88 Z  M 116.38 150 L 116.38 140.52 L 119.14 140.52 L 119.14 150 L 116.38 150 L 116.38 150 Z  M 116.38 139.34 L 116.38 136.36 L 119.14 136.36 L 119.14 139.34 L 116.38 139.34 L 116.38 139.34 Z  M 129.86 142.6 L 129.86 147.92 L 129.86 147.92 Q 129.86 148.34 129.7 148.72 L 129.7 148.72 L 129.7 148.72 Q 129.54 149.1 129.25 149.39 L 129.25 149.39 L 129.25 149.39 Q 128.96 149.68 128.58 149.84 L 128.58 149.84 L 128.58 149.84 Q 128.2 150 127.78 150 L 127.78 150 L 123.62 150 L 123.62 150 Q 123.2 150 122.82 149.84 L 122.82 149.84 L 122.82 149.84 Q 122.44 149.68 122.15 149.39 L 122.15 149.39 L 122.15 149.39 Q 121.86 149.1 121.7 148.72 L 121.7 148.72 L 121.7 148.72 Q 121.54 148.34 121.54 147.92 L 121.54 147.92 L 121.54 142.6 L 121.54 142.6 Q 121.54 142.18 121.7 141.8 L 121.7 141.8 L 121.7 141.8 Q 121.86 141.42 122.15 141.13 L 122.15 141.13 L 122.15 141.13 Q 122.44 140.84 122.82 140.68 L 122.82 140.68 L 122.82 140.68 Q 123.2 140.52 123.62 140.52 L 123.62 140.52 L 127.78 140.52 L 127.78 140.52 Q 128.2 140.52 128.58 140.68 L 128.58 140.68 L 128.58 140.68 Q 128.96 140.84 129.25 141.13 L 129.25 141.13 L 129.25 141.13 Q 129.54 141.42 129.7 141.8 L 129.7 141.8 L 129.7 141.8 Q 129.86 142.18 129.86 142.6 L 129.86 142.6 L 129.86 142.6 Z  M 127.1 147.28 L 127.1 143.24 L 127.1 143.24 Q 127.1 143.04 126.9 143.04 L 126.9 143.04 L 124.5 143.04 L 124.5 143.04 Q 124.3 143.04 124.3 143.24 L 124.3 143.24 L 124.3 147.28 L 124.3 147.28 Q 124.3 147.48 124.5 147.48 L 124.5 147.48 L 126.9 147.48 L 126.9 147.48 Q 127.1 147.48 127.1 147.28 L 127.1 147.28 L 127.1 147.28 Z  M 135.02 150 L 132.26 150 L 132.26 140.52 L 134.92 140.52 L 134.92 141.22 L 134.92 141.22 Q 135.24 141.1 135.69 140.94 L 135.69 140.94 L 135.69 140.94 Q 136.14 140.78 136.62 140.64 L 136.62 140.64 L 136.62 140.64 Q 137.1 140.5 137.55 140.41 L 137.55 140.41 L 137.55 140.41 Q 138 140.32 138.28 140.32 L 138.28 140.32 L 138.28 140.32 Q 139.28 140.32 139.82 140.9 L 139.82 140.9 L 139.82 140.9 Q 140.36 141.48 140.36 142.4 L 140.36 142.4 L 140.36 150 L 137.6 150 L 137.6 143.32 L 137.6 143.32 Q 137.6 143.12 137.4 143.12 L 137.4 143.12 L 137.4 143.12 Q 137.32 143.12 137.01 143.21 L 137.01 143.21 L 137.01 143.21 Q 136.7 143.3 136.34 143.41 L 136.34 143.41 L 136.34 143.41 Q 135.98 143.52 135.65 143.63 L 135.65 143.63 L 135.65 143.63 Q 135.32 143.74 135.22 143.78 L 135.22 143.78 L 135.22 143.78 Q 135.02 143.84 135.02 144.04 L 135.02 144.04 L 135.02 150 L 135.02 150 Z  M 142.66 148.12 L 142.66 146.62 L 142.66 146.62 Q 142.66 145.7 143.2 145.12 L 143.2 145.12 L 143.2 145.12 Q 143.74 144.54 144.74 144.54 L 144.74 144.54 L 144.74 144.54 Q 145.3 144.54 146.16 144.63 L 146.16 144.63 L 146.16 144.63 Q 147.02 144.72 147.84 144.88 L 147.84 144.88 L 147.84 143.14 L 147.84 143.14 Q 147.84 142.94 147.64 142.94 L 147.64 142.94 L 145.58 142.94 L 145.58 142.94 Q 145.38 142.94 145.38 143.14 L 145.38 143.14 L 145.38 143.76 L 142.78 143.32 L 142.78 142.6 L 142.78 142.6 Q 142.78 142.18 142.94 141.8 L 142.94 141.8 L 142.94 141.8 Q 143.1 141.42 143.39 141.13 L 143.39 141.13 L 143.39 141.13 Q 143.68 140.84 144.06 140.68 L 144.06 140.68 L 144.06 140.68 Q 144.44 140.52 144.86 140.52 L 144.86 140.52 L 148.52 140.52 L 148.52 140.52 Q 148.94 140.52 149.32 140.68 L 149.32 140.68 L 149.32 140.68 Q 149.7 140.84 149.99 141.13 L 149.99 141.13 L 149.99 141.13 Q 150.28 141.42 150.44 141.8 L 150.44 141.8 L 150.44 141.8 Q 150.6 142.18 150.6 142.6 L 150.6 142.6 L 150.6 150 L 147.94 150 L 147.94 149.54 L 147.94 149.54 Q 147.62 149.66 147.19 149.78 L 147.19 149.78 L 147.19 149.78 Q 146.76 149.9 146.31 149.99 L 146.31 149.99 L 146.31 149.99 Q 145.86 150.08 145.44 150.14 L 145.44 150.14 L 145.44 150.14 Q 145.02 150.2 144.74 150.2 L 144.74 150.2 L 144.74 150.2 Q 143.74 150.2 143.2 149.62 L 143.2 149.62 L 143.2 149.62 Q 142.66 149.04 142.66 148.12 L 142.66 148.12 L 142.66 148.12 Z  M 147.84 147.44 L 147.84 146.9 L 147.84 146.9 Q 147.84 146.68 147.64 146.64 L 147.64 146.64 L 147.64 146.64 Q 147.36 146.62 147.04 146.59 L 147.04 146.59 L 147.04 146.59 Q 146.72 146.56 146.42 146.54 L 146.42 146.54 L 146.42 146.54 Q 146.12 146.52 145.88 146.51 L 145.88 146.51 L 145.88 146.51 Q 145.64 146.5 145.56 146.5 L 145.56 146.5 L 145.56 146.5 Q 145.36 146.5 145.36 146.7 L 145.36 146.7 L 145.36 147.92 L 145.36 147.92 Q 145.36 148.12 145.56 148.12 L 145.56 148.12 L 145.56 148.12 Q 145.64 148.12 145.94 148.07 L 145.94 148.07 L 145.94 148.07 Q 146.24 148.02 146.58 147.95 L 146.58 147.95 L 146.58 147.95 Q 146.92 147.88 147.23 147.81 L 147.23 147.81 L 147.23 147.81 Q 147.54 147.74 147.64 147.7 L 147.64 147.7 L 147.64 147.7 Q 147.84 147.64 147.84 147.44 L 147.84 147.44 L 147.84 147.44 Z  M 153.1 150 L 153.1 136.68 L 155.86 136.2 L 155.86 150 L 153.1 150 L 153.1 150 Z " fill-rule="evenodd" fill="rgb(255,255,255)"/><path d=" M 20.6 248.784 L 20.6 245.616 L 32.336 245.616 L 32.336 248.784 L 28.208 248.784 L 28.208 261.6 L 24.728 261.6 L 24.728 248.784 L 20.6 248.784 L 20.6 248.784 Z  M 45.68 248.256 L 45.68 258.96 L 45.68 258.96 Q 45.68 259.512 45.476 259.992 L 45.476 259.992 L 45.476 259.992 Q 45.272 260.472 44.912 260.832 L 44.912 260.832 L 44.912 260.832 Q 44.552 261.192 44.072 261.396 L 44.072 261.396 L 44.072 261.396 Q 43.592 261.6 43.04 261.6 L 43.04 261.6 L 37.136 261.6 L 37.136 261.6 Q 36.584 261.6 36.104 261.396 L 36.104 261.396 L 36.104 261.396 Q 35.624 261.192 35.264 260.832 L 35.264 260.832 L 35.264 260.832 Q 34.904 260.472 34.7 259.992 L 34.7 259.992 L 34.7 259.992 Q 34.496 259.512 34.496 258.96 L 34.496 258.96 L 34.496 248.256 L 34.496 248.256 Q 34.496 247.704 34.7 247.224 L 34.7 247.224 L 34.7 247.224 Q 34.904 246.744 35.264 246.384 L 35.264 246.384 L 35.264 246.384 Q 35.624 246.024 36.104 245.82 L 36.104 245.82 L 36.104 245.82 Q 36.584 245.616 37.136 245.616 L 37.136 245.616 L 43.04 245.616 L 43.04 245.616 Q 43.592 245.616 44.072 245.82 L 44.072 245.82 L 44.072 245.82 Q 44.552 246.024 44.912 246.384 L 44.912 246.384 L 44.912 246.384 Q 45.272 246.744 45.476 247.224 L 45.476 247.224 L 45.476 247.224 Q 45.68 247.704 45.68 248.256 L 45.68 248.256 L 45.68 248.256 Z  M 42.2 258.192 L 42.2 249.024 L 42.2 249.024 Q 42.2 248.784 41.96 248.784 L 41.96 248.784 L 38.216 248.784 L 38.216 248.784 Q 37.976 248.784 37.976 249.024 L 37.976 249.024 L 37.976 258.192 L 37.976 258.192 Q 37.976 258.432 38.216 258.432 L 38.216 258.432 L 41.96 258.432 L 41.96 258.432 Q 42.2 258.432 42.2 258.192 L 42.2 258.192 L 42.2 258.192 Z  M 54.824 259.128 L 52.28 253.2 L 52.28 261.6 L 48.92 261.6 L 48.92 245.616 L 52.28 245.616 L 56.288 255.192 L 60.296 245.616 L 63.656 245.616 L 63.656 261.6 L 60.296 261.6 L 60.296 253.2 L 57.752 259.128 L 54.824 259.128 L 54.824 259.128 Z  M 67.016 261.6 L 67.016 245.616 L 70.496 245.616 L 70.496 258.432 L 76.856 258.432 L 76.856 261.6 L 67.016 261.6 L 67.016 261.6 Z  M 86.744 245.616 L 92 261.6 L 88.448 261.6 L 87.44 258.432 L 82.52 258.432 L 81.56 261.6 L 78.008 261.6 L 83.24 245.616 L 86.744 245.616 L 86.744 245.616 Z  M 84.992 250.032 L 83.552 255.36 L 86.432 255.36 L 84.992 250.032 L 84.992 250.032 Z " fill-rule="evenodd" fill="rgb(255,255,255)"/></g></svg>