<svg xmlns="http://www.w3.org/2000/svg" style="isolation:isolate" width="179.187" height="388"><defs><clipPath id="a"><path d="M0 0h179.187v388H0z"/></clipPath></defs><g clip-path="url(#a)"><clipPath id="b"><path fill="#FFF" d="M0 0h179.187v388H0z"/></clipPath><g clip-path="url(#b)"><path fill="#FFF" d="M0 0h179.187v63.074H0z"/><path fill="#DF6E22" d="M0 63.074h179.187v170.108H0z"/><path fill="none" d="M20.308 0H178.75v63.074H20.308z"/><path fill="#154273" d="M20.308 0h25.23v50.459h-25.23z"/><path fill="#FFF" d="M33.377 39.035h-.439v-1.216h.439v1.216zm1.983-5.369h-.439V32.45h.439v1.216zm-8.134-2.099c-.035 0-.262 0-.262.045 0 .046.105.026.262.051.353.061.489.237.737.237.221 0 .454-.151.363-.474-.015-.055-.045-.041-.056-.005-.035.146-.212.227-.399.227-.231 0-.277-.081-.645-.081zm-2.417 1.216c.04.056.454.591-.182.798-.03.01-.035.035.005.055.469.197.696-.167.696-.167.238.546-.126.843-.126.843.051.096.278.263.616.339.131-.071.313-.203.389-.404 0 0 .091.237.01.464.958.086 1.297-.681 2.038-.54.02.005.03-.01.03-.03 0-.475-.287-1.337-1.205-1.514-.914-.177-.666-.55-.666-.55.383-.015.605.151.605.151.071-.116-.031-.237-.031-.237.036-.046.056-.202.056-.202-.434 0-.545-.096-.545-.096-.065-.257.111-.621.757-.232.162-.141.146-.363.146-.363.051-.026.081-.101.081-.131 0-.106-.515-.394-.646-.429-.03-.156-.232-.379-.837-.298-.288.035-.495-.04-.399-.207.015-.03-.035-.035-.06-.005-.066.066-.157.253.09.379.278.141.293.418.298.459.005.06-.065.066-.081.005-.126-.469-.772-.57-1.15-.323.02.252.293.419.439.419.085 0 .202-.086.202-.202 0-.056.03-.05.045-.005.061.166-.186.515-.55.302-.373.374-.222.838-.186 1.005.065.302-.081.6-.359.464-.015-.005-.03-.01-.03.02.005.182.252.399.55.232zm2.059-1.882c-.177.197-.46.151-.53-.172.363-.02.514.016.53.172zm11.136.747c-.187 0-.363-.081-.399-.227-.01-.036-.04-.05-.055.005-.091.323.141.474.363.474.247 0 .383-.176.737-.237.156-.025.262 0 .262-.051 0-.045-.227-.045-.262-.045-.364 0-.414.081-.646.081zm3.613.893c0-.03-.015-.025-.03-.02-.278.136-.425-.156-.359-.464.036-.172.187-.631-.186-1.005-.369.213-.616-.136-.55-.302.015-.045.045-.051.045.005 0 .116.116.202.202.202.146 0 .419-.167.439-.419-.379-.247-1.025-.146-1.151.323-.015.06-.085.055-.08-.005 0-.041.02-.318.297-.46.253-.126.162-.312.091-.378-.025-.025-.08-.02-.06.005.096.166-.111.242-.394.207-.606-.081-.802.146-.838.298-.131.035-.645.323-.645.429 0 .03.03.111.08.131 0 0-.01.217.147.363.64-.389.822-.025.757.232 0 0-.117.091-.55.096 0 0 .02.156.055.202 0 0-.101.126-.03.237 0 0 .222-.166.605-.151 0 0 .247.373-.666.55-.913.176-1.206 1.039-1.206 1.514 0 .025.01.035.03.03.742-.136 1.08.63 2.039.54-.086-.227.01-.464.01-.464.076.201.257.338.389.403.343-.076.565-.237.615-.338 0 0-.363-.298-.126-.843 0 0 .227.364.696.167.041-.02.031-.045.005-.055-.636-.207-.222-.742-.181-.798.298.177.55-.04.55-.232zm-2.079-1.812c-.071.323-.353.369-.53.172.015-.156.171-.192.53-.172zm-6.767-5.393c0 .08.036.151.061.191.055.081.045.126.02.152-.025.025-.071.035-.152-.02-.04-.031-.11-.061-.191-.061-.136 0-.207.091-.207.166 0 .076.071.167.207.167.081 0 .151-.035.191-.061.081-.055.127-.045.152-.02.025.026-.01.303-.045.525-.227.051-.338.232-.338.338 0 .277.292.434.469.53.171-.091.469-.253.469-.53 0-.106-.111-.293-.338-.338-.03-.217-.071-.499-.046-.525.026-.025.071-.035.152.02.04.03.111.061.192.061.136 0 .206-.091.206-.167 0-.075-.07-.166-.206-.166-.081 0-.152.035-.192.061-.081.055-.126.045-.152.02-.025-.026-.035-.071.021-.152.03-.04.06-.111.06-.191 0-.137-.091-.207-.166-.207-.076 0-.167.07-.167.207zm.167 2.048c-.187 0-.338.152-.338.338 0 .187.151.338.338.338.186 0 .338-.151.338-.338 0-.186-.152-.338-.338-.338zm0 3.235c1.347 0 2.104.257 2.104.257.005-.681.005-1.06.394-1.004-.213-.57.706-.797.706-1.539 0-.49-.348-.545-.449-.545-.303 0-.257.197-.515.197-.03 0-.065-.01-.065.015 0 .086.07.232.191.232.162 0 .162-.162.283-.162.05 0 .126.041.126.207 0 .318-.207.666-.454.939-.056-.076-.131-.127-.227-.127-.146 0-.273.152-.273.339 0 .071.01.121.036.177-.081.045-.157.07-.207.07-.111 0-.278-.046-.278-.288 0-.539.722-1.014.722-1.7 0-.328-.217-.651-.676-.651-.49 0-.399.444-.823.444-.02 0-.035.005-.035.025 0 .031.075.278.292.278.233 0 .298-.404.51-.404.076 0 .192.046.192.318 0 .212-.106.56-.257.888-.056-.056-.132-.096-.212-.096-.182 0-.313.177-.313.384 0 .131.05.262.141.343-.106.136-.217.247-.363.247-.293 0-.419-.167-.419-.348 0-.197.358-.267.358-.57 0-.207-.136-.323-.262-.323-.142 0-.212.091-.227.091-.015 0-.086-.091-.227-.091-.131 0-.263.116-.263.323 0 .303.359.378.359.57 0 .181-.131.348-.419.348-.147 0-.258-.111-.364-.247.091-.086.142-.212.142-.343 0-.212-.132-.384-.313-.384-.086 0-.156.04-.212.096-.151-.333-.257-.676-.257-.888 0-.272.116-.318.191-.318.207 0 .273.404.51.404.217 0 .293-.247.293-.278 0-.015-.015-.025-.035-.025-.424 0-.333-.444-.823-.444-.454 0-.676.323-.676.651 0 .686.721 1.161.721 1.7 0 .242-.166.288-.277.288-.056 0-.126-.025-.207-.07.025-.061.035-.106.035-.177 0-.187-.126-.339-.272-.339-.091 0-.167.051-.222.127-.248-.273-.455-.621-.455-.939 0-.161.076-.207.127-.207.116 0 .121.162.283.162.12 0 .191-.146.191-.232 0-.025-.035-.015-.065-.015-.258 0-.213-.197-.515-.197-.101 0-.449.055-.449.545 0 .746.918.969.706 1.539.389-.056.384.323.394 1.004-.005 0 .751-.257 2.099-.257zm-2.468 1.004c-.368.08-.63.156-.746.192.005-.162.065-.313.211-.344.021-.005.026-.03.006-.04-.328-.217-.5.197-.505.212-.116-.01-.293.025-.293.182 0 .469-1.069.726-1.317.767.439.166.621.721.621.721.318-.318.686-.595.772-.595.086 0 .116.106.121.166 0 .021.02.025.035.01.167-.247.086-.302.071-.378-.01-.056.005-.273.247-.247v3.123l-.126.025c-.056.01-.515-.378-1.034-.742-.525-.363-.802-.146-1.398.177-.782.424-1.569.04-1.569.04-.671.48-.904 1.872-.904 1.872-.136.056-.358.117-.564.117-.516 0-.606-.313-.606-.495 0-.792.994-1.13.994-1.912 0-.192-.086-.959-1.04-.959h-.852c-.359 0-.445-.257-.495-.353-.02-.041-.055-.015-.04.015.025.065-.04.166-.04.363 0 .318.186.51.534.51.157 0 .308-.046.353-.076.031-.02.051.01.036.03-.151.177-.162.51-.101.586.015.02.035.015.035 0 .086-.333.399-.651.823-.651.519 0 .514.439.514.545 0 .636-1.115 1.1-1.115 1.978 0 .888.939 1.075 1.479.938-.031.888-1.05 1.191-1.08.555 0-.03-.025-.035-.041.005-.126.313-.075.591.319.677.025.004.014.02-.01.04-.394.247-.183 1.226-.162 1.513.03.414-.384.364-.419.354-.015-.005-.035 0-.005.035.293.358.656.031.656.031.273.085.106.317-.081.439-.03.02-.025.04.005.04.041.005.465.04.54-.298.187.222.464.142.52.111.081-.04.479-.186.515.258 0 .03.02.01.035-.006.298-.378-.02-.61-.202-.635.015-.02.252-.222.469.055.015.02.031.026.031-.015.025-.479-.364-.52-.616-.313-.01-.05-.096-.318.283-.308.01 0 .025-.015.01-.03-.293-.313-.535-.03-.596.041-.131.156-.459.09-.489.09.101-1.66 1.564-1.069 1.766-1.877.01-.04.03-.025.03-.01.056.197.55.222.641-.161.005-.026 0-.041-.015-.026-.424.424-1.378-.898-.076-1.973 1.11-.913 2.104-.403 2.483-.105.02.131-.061.176-.111.191-.02.006-.026.02.005.036.106.04.252.025.323-.071.237.167.035.378-.061.434-.025.015-.015.03.005.035.217.041.399-.181.409-.313l.035.021v.943c0 1.342 1.55 1.529 3.25 2.664 1.7-1.14 3.244-1.322 3.244-2.664v-.943l.036-.021c.01.126.186.354.409.313.02-.005.03-.02.004-.035-.095-.06-.302-.267-.06-.434.07.101.217.111.323.071.03-.01.025-.03.005-.036-.051-.015-.131-.06-.111-.191.379-.303 1.372-.813 2.482.105 1.303 1.075.349 2.392-.075 1.973-.021-.02-.021 0-.015.026.09.388.585.358.64.161.006-.015.026-.03.031.01.202.808 1.66.217 1.766 1.877-.031.005-.358.066-.49-.09-.055-.066-.297-.354-.595-.041-.02.02 0 .03.01.03.378-.01.298.258.283.308-.252-.207-.641-.166-.616.313 0 .035.015.035.03.015.217-.277.454-.075.47-.055-.177.025-.5.257-.202.635.015.016.03.036.035.006.041-.444.434-.303.515-.258.055.031.333.111.519-.111.076.338.5.303.54.298.031 0 .031-.02.005-.04-.181-.122-.353-.354-.081-.439 0 0 .364.327.657-.031.025-.03.01-.04-.005-.035-.036.01-.449.06-.419-.354.02-.287.232-1.266-.162-1.513-.025-.015-.035-.03-.01-.04.394-.086.444-.364.318-.677-.015-.04-.04-.03-.04-.005-.03.636-1.045.333-1.08-.555.545.141 1.478-.05 1.478-.938 0-.873-1.115-1.342-1.115-1.978 0-.106-.005-.545.515-.545.424 0 .736.318.822.651.005.015.021.02.036 0 .06-.081.05-.409-.101-.586-.015-.015 0-.05.035-.03.046.03.197.076.353.076.348 0 .535-.192.535-.51 0-.197-.071-.298-.04-.363.015-.03-.025-.051-.041-.015-.05.101-.141.353-.494.353h-.853c-.953 0-1.039.772-1.039.959 0 .782.994 1.12.994 1.912 0 .187-.096.495-.606.495-.212 0-.434-.061-.565-.117 0 0-.227-1.387-.903-1.872 0 0-.787.384-1.569-.04-.596-.323-.878-.54-1.403-.177-.525.364-.979.752-1.034.742l-.127-.025v-3.123c.243-.026.258.191.247.247-.014.07-.09.131.071.378.015.021.03.011.036-.01.005-.06.04-.166.12-.166.081 0 .455.277.773.595 0 0 .181-.55.62-.721-.247-.041-1.317-.298-1.317-.767 0-.157-.176-.192-.292-.182-.005-.015-.182-.429-.505-.212-.015.01-.015.035.005.04.146.036.207.182.212.344-.313-.096-1.64-.47-3.214-.47-.767 0-1.468.091-2.028.192v1.08h-.44v-.994zm-2.906 11.09c-.116-.045-.192-.12-.192-.277v-.671c-.191-.066-.717-.268-1.771-.268-.873 0-1.146.197-1.16.268l-.233 1.277s.354-.323 1.62-.243c1.524.097 3.103 1 3.103.036v-.565c-1.19.005-1.367.388-1.367.443zm9.38-.438v.565c0 .959 1.58.06 3.104-.036 1.266-.08 1.619.242 1.619.242l-.232-1.281c-.01-.071-.287-.268-1.16-.268-1.05 0-1.575.202-1.772.268v.671c0 .151-.075.227-.191.277.005-.055-.172-.438-1.368-.438zm-4.006-.581c2.457 0 4.95.126 5.273.5.025.03.035 0 .035-.025v-1.302c0-.379-2.573-.601-5.313-.601-2.74 0-5.314.222-5.314.601v1.302c0 .02.011.05.036.025.338-.368 2.831-.5 5.283-.5zm-2.19-6.136l-.247-.065-.021.03-.287-.126h.257c.025 0 .025-.015.015-.025-.116-.116-.222-.217-.222-.217s.117.045.283.106c.02.005.025-.005.015-.02-.081-.116-.192-.278-.192-.278s.232.157.278.187c.015.01.025 0 .02-.015-.06-.152-.131-.328-.131-.328l.252.242c.01.01.025.005.02-.01-.025-.116-.071-.328-.071-.328l.187.272c.01.015.026.011.026-.005 0-.055.004-.297.004-.297s.081.181.117.272c.01.02.02.02.03-.005.01-.03.096-.232.096-.232l.01.313-.04.01-.051.373c.368-.085.833-.721 1.186-.721.424 0 .575.494 1.352.242.197.292.268.545.343.893.303.282.722.187.722-.111 0-.404-.439-.48-.439-.903 0-.187.131-.46.489-.46.192 0 .47.081.631.081.192 0 .232-.136.252-.196.015-.041.071-.031.066.004-.005.041.02.097.02.187 0 .268-.388.303-.434.268-.02-.015-.035.005-.02.02.061.045.045.207-.025.308-.01.01-.02.01-.02 0-.041-.192-.268-.429-.465-.429-.071 0-.217.04-.217.212 0 .237.48.459.48.954 0 .514-.51.64-1.024.509.014.49.746.777.761.429 0-.025.015-.01.021 0 .105.151.06.262-.081.323.126.055.151.312.186.469.056.232.298.101.313.096.016-.01.02 0 .01.015-.09.237-.337.146-.337.146-.127.091.024.172.14.207.016.005.016.015.006.026-.086.03-.268.09-.359-.066-.065.162-.201.156-.252.156-.096 0-.156.096-.136.227 0 .011-.005.016-.015.011-.222-.147-.096-.323-.005-.369-.015-.01-.172-.076-.238.106-.004.015-.014.015-.02 0-.095-.262.116-.338.268-.272-.01-.036-.091-.167-.293-.121-.01.005-.015 0-.01-.016.035-.08.131-.196.318-.08.096.06.257-.026.273-.036-.329-.65-.959-.106-1.106-.615-.004-.01-.015-.02-.025.01-.035.106-.313.116-.363-.096-.005-.015 0-.02.015-.01.04.04.126.076.242-.086.076-.111.086-.257.086-.353 0-.394-.394-1.06-1.009-1.06-.389 0-.808.152-1.12.379l.287.065c-.025.293-.307.465-.565.389l.045-.333c-.045.015-.156.055-.216.141-.006.005-.016.005-.016-.005-.05-.192.106-.287.152-.308.005-.005.005-.005-.006-.005-.141-.005-.217.096-.241.131-.006.006-.011.006-.011 0 .015-.04-.01-.136.056-.207zm.863 2.261c-.111.136-.207.005-.354.005-.136 0-.161.116-.161.162 0 .01-.005.01-.01.005-.156-.212.02-.328.121-.344-.015-.015-.167-.116-.263.026-.004.01-.014.005-.014-.005-.006-.263.201-.283.343-.167.025-.101-.041-.167-.152-.171-.015 0-.015-.01-.01-.016.046-.05.091-.07.136-.07.147 0 .167.187.263.187.141 0 .348-.192.363-.212-.005-.011-.141-.384-.116-.606 0-.01-.005-.01-.01-.005-.071.04-.242.036-.242-.177 0-.014.005-.02.015-.004.076.105.202-.016.262-.086.066-.076.429-.601.908-.601.107 0 .243.061.354.137-.167.201 0 .393.121.368.015-.005.015.01.005.015-.636.237-.918.333-.918.868 0 .277.095.434.257.393.01-.004.015 0 .005.01-.061.071-.126.096-.182.096-.131 0-.156-.07-.227-.07-.071 0-.308.141-.308.257 0 .046.03.106.111.156.005.006 0 .011 0 .011-.07 0-.257.015-.297-.162zm1.67-5.172c-.197-.01-.328.031-.318.096.096.101.222.091.318-.096zm-.732.49c.141-.036.293-.021.313-.016.021.005.021.041-.005.046-.293.035-.308.171-.494.171-.122 0-.258-.126-.207-.307.005-.026.025-.026.03 0 .02.08.136.166.363.106zm-3.799 6.489c.191.247.378.015.635.015.126 0 .278.04.303.292 0 .016.01.016.026 0 .277-.378-.041-.59-.223-.62.041-.036.308-.202.485.045.01.015.03.01.03-.01 0-.479-.358-.515-.621-.308-.05-.186.092-.307.273-.307.02 0 .03-.016.02-.026-.323-.343-.56.091-.615.157-.126.171-.586-.152-.772-.344 0 0 .403-.423.403-.812 0-.025-.005-.055-.005-.071 0-.01.005-.015.015-.01.04.026.096.041.152.041.091 0 .267-.031.267-.358 0-.026-.01-.026-.02-.01-.051.07-.101.085-.142.085-.327 0-1.009-1.09-1.816-1.09-.212 0-.61.152-.807.369.096.055.116.176.106.262-.016.136-.126.207-.237.237-.021.005-.021.02 0 .031.408.156 1.145.433 1.317.58.196.171.161.494.045.943-.111.429-.348.374-.439.359-.015 0-.015.004-.01.015.106.131.232.176.343.176.212 0 .293-.131.398-.131.182 0 .571.262.571.464 0 .111-.086.217-.202.288-.005.005-.005.015.005.015.086.015.444.046.515-.277zm8.896.277c.01 0 .015-.01.005-.015-.112-.076-.202-.177-.202-.288 0-.202.383-.464.57-.464.111 0 .187.131.399.131.111 0 .237-.045.343-.176.01-.011.005-.021-.01-.015-.086.015-.328.07-.439-.359-.116-.449-.157-.772.045-.943.167-.147.908-.424 1.317-.58.021-.011.021-.026 0-.031-.111-.03-.222-.101-.237-.237-.01-.086.01-.202.106-.262-.202-.217-.601-.369-.812-.369-.808 0-1.489 1.09-1.817 1.09-.041 0-.096-.015-.141-.085-.01-.016-.021-.016-.021.01 0 .327.177.358.268.358.05 0 .111-.015.152-.041.01-.005.014 0 .014.01 0 .016-.004.046-.004.071 0 .389.403.812.403.812-.182.192-.641.51-.772.344-.055-.071-.293-.5-.616-.157-.01.015-.005.026.021.026.181 0 .323.121.272.307-.262-.207-.621-.171-.621.308 0 .02.021.025.031.01.171-.247.444-.081.479-.045-.182.025-.494.242-.222.62.01.016.02.016.025 0 .031-.247.182-.292.303-.292.252 0 .439.232.636-.015.081.323.439.292.525.277zm-6.515-6.292c-.025.035-.111 0-.141-.016-.005-.004-.01 0-.005.006.02.045.101.181.222.181.056 0 .136-.03.156-.07 0 0 .475.156.707.216-.091.122-.146.268-.162.424-.186-.115-.943-.519-.943-.519l-.232.323c-.041.05-.227-.086-.187-.136l.177-.248c-.061-.06-.202-.025-.243-.01-.005 0-.01 0-.005-.01.026-.05.112-.197.333-.131 0-.136-.201-.091-.257-.076-.005 0-.01 0-.005-.005.055-.06.222-.192.404-.081l.08-.111-.161-.171.101-.142.116.152.873-1.196c.02-.03.197-.081.257-.096.005.066.015.247-.005.278l-.858 1.206.182.06-.101.142-.212-.101-.091.131zm3.063-.197c0 .111.066.273.212.222.005-.005.015 0 .01.005-.02.121-.242.232-.338.091-.091.186-.065.363.121.464.01.005.01.02 0 .03-.116.081-.292.066-.373-.095-.156.116-.136.368-.04.454 0 0-.434.257-.828.076-.262-.127-.474-.288-.812-.258.045-.475.282-.595.716-.666.348-.056.388-.217.343-.338-.116-.031-.333.076-.333.076-.04-.066.015-.132.015-.132-.02-.025-.03-.111-.03-.111.242 0 .288-.055.288-.055.045-.252-.212-.278-.409-.142-.091-.08-.076-.186-.076-.186-.025-.015-.045-.056-.045-.076 0-.061.288-.222.363-.242.02-.086.121-.202.429-.172.036-.08-.025-.378-.061-.454-.01-.025.006-.035.031-.02.106.066.212.318.287.323 0 0 .343-.182.359-.172.015.011.065.394.065.394.045.055.313 0 .429.051.03.014.03.035 0 .04-.086.015-.363.136-.408.212.161.237.085.585.085.681z"/><g><path d="M51.305 32.536c.288-.086.439-.227.459-.464l.343-3.996-.454-.132v-.227c.353-.045.782-.055 1.065-.055H53l1.226 3.794h.01l1.192-3.794h.337c.283 0 .636.01.949.055v.227l-.484.116.343 4.305.454.085v.172c-.187.086-.454.131-.757.131-.358 0-.585-.015-.863-.081v-.146c.328-.081.48-.272.465-.595l-.197-3.553h-.016l-1.392 4.34-.303.04-1.408-4.375-.01.01-.242 3.921.51.131v.172c-.338.101-.525.131-.898.131-.182 0-.409-.03-.601-.081v-.131h-.01zM57.582 32.546c.212-.075.414-.232.414-.424v-2.644l-.5-.212V29.1c.353-.101.712-.147.934-.147h.252l-.04.424v2.972l.439.116v.147c-.268.096-.51.131-.909.131-.181 0-.408-.015-.585-.071v-.126h-.005zm.328-4.758c0-.242.171-.459.444-.459.217 0 .409.166.409.424 0 .272-.187.484-.439.484-.232-.005-.414-.192-.414-.449zM59.686 32.546c.202-.075.414-.232.414-.424v-2.644l-.505-.212v-.171c.359-.101.712-.142.939-.142h.187v.424c.267-.267.701-.439 1.155-.439.651 0 1.095.414 1.095 1.221v2.19l.409.116v.147c-.212.086-.485.131-.823.131-.166 0-.353-.015-.509-.071v-.126c.196-.086.282-.232.282-.514v-1.494c0-.767-.323-1.055-.782-1.055-.323 0-.631.111-.807.242v2.63l.439.11v.147c-.268.096-.515.131-.909.131-.186 0-.408-.015-.585-.071v-.126zM63.965 32.546c.212-.075.414-.232.414-.424v-2.644l-.499-.212V29.1c.353-.101.711-.147.933-.147h.252l-.04.424v2.972l.439.116v.147c-.268.096-.51.131-.908.131-.182 0-.409-.015-.586-.071v-.126h-.005zm.328-4.758c0-.242.172-.459.444-.459.217 0 .409.166.409.424 0 .272-.187.484-.439.484-.232-.005-.414-.192-.414-.449zM66.024 31.829c.353.329.686.495 1.105.495.439 0 .666-.212.666-.484 0-.273-.156-.444-.671-.666l-.388-.167c-.455-.197-.707-.525-.707-.969 0-.615.545-1.15 1.362-1.15.626 0 .878.187.878.484 0 .116-.015.217-.04.328-.253-.171-.596-.298-.893-.298-.5 0-.737.217-.737.485 0 .282.141.439.611.615l.423.167c.566.217.777.51.777.969 0 .6-.58 1.15-1.453 1.15-.686 0-.994-.217-.994-.64-.01-.106.01-.233.061-.319zM69.273 30.543l.026-1.04h-.429v-.257l.842-.837.258-.031-.031.707h1.035l-.056.424h-.999l-.015.983c-.01.328-.01.626-.01.914 0 .636.187.852.479.852.228 0 .424-.08.581-.201l.081.03c-.031.459-.303.696-.843.696-.626 0-.929-.328-.929-1.09-.01-.378.006-.792.01-1.15zM72.906 28.898c.843 0 1.353.565 1.353 1.463 0 .147 0 .303-.011.5h-2.306c0 .878.51 1.382 1.156 1.382.384 0 .807-.131 1.105-.338.015.04.031.127.031.202 0 .353-.515.681-1.348.681-.893 0-1.62-.696-1.62-1.791.006-1.358.828-2.099 1.64-2.099zm.727 1.559c0-.767-.328-1.135-.792-1.135-.429 0-.883.514-.883 1.135h1.675zM74.859 32.546c.202-.075.414-.232.414-.424v-2.644l-.505-.212v-.171c.359-.101.712-.142.939-.142h.187v.546h.01l.217-.243c.212-.227.423-.343.686-.343.273 0 .409.116.409.338 0 .147-.046.323-.126.469-.147-.115-.319-.181-.485-.181-.242 0-.469.111-.686.323v2.487l.54.116v.147c-.268.096-.525.131-.969.131-.227 0-.444-.015-.626-.071v-.126h-.005zM77.463 32.546c.212-.075.414-.232.414-.424v-2.644l-.5-.212V29.1c.353-.101.712-.147.934-.147h.252l-.04.424v2.972l.438.116v.147c-.267.096-.509.131-.908.131-.182 0-.409-.015-.585-.071v-.126h-.005zm.328-4.758c0-.242.172-.459.444-.459.217 0 .409.166.409.424 0 .272-.187.484-.44.484-.231-.005-.413-.192-.413-.449zM80.94 28.898c.842 0 1.352.565 1.352 1.463 0 .147 0 .303-.01.5h-2.306c0 .878.51 1.382 1.155 1.382.384 0 .808-.131 1.105-.338.016.04.031.127.031.202 0 .353-.515.681-1.347.681-.894 0-1.62-.696-1.62-1.791.005-1.358.822-2.099 1.64-2.099zm.726 1.559c0-.767-.328-1.135-.792-1.135-.429 0-.883.514-.883 1.135h1.675zM84.199 29.367l-.323-.227v-.187h1.494v.187l-.444.187.843 2.478h.01l.867-2.458-.444-.212v-.186h1.206v.186l-.216.182-1.393 3.451-.267.015-1.333-3.416zM89.694 30.649v-.212c0-.843-.202-1.024-.696-1.024-.429 0-.843.181-1.176.509-.015-.076-.025-.146-.025-.237 0-.499.368-.792 1.281-.792.793 0 1.262.399 1.262 1.049 0 .172-.025.566-.03.793l-.025 1.266c.055.141.171.288.313.399-.117.141-.329.298-.53.398-.147-.096-.268-.217-.359-.383-.217.212-.641.373-1.054.373-.586 0-.994-.368-.994-.867 0-.682.751-1.272 2.033-1.272zm-.746 1.675c.242 0 .554-.096.751-.212v-1.095c-.883 0-1.362.368-1.362.792 0 .313.212.515.611.515zM91.213 32.546c.202-.075.414-.232.414-.424v-2.644l-.505-.212v-.171c.359-.101.712-.142.939-.142h.186v.424c.268-.267.702-.439 1.156-.439.651 0 1.095.414 1.095 1.221v2.19l.409.116v.147c-.212.086-.485.131-.823.131-.166 0-.353-.015-.51-.071v-.126c.197-.086.283-.232.283-.514v-1.494c0-.767-.323-1.055-.782-1.055-.318 0-.636.111-.807.242v2.63l.439.116v.146c-.268.095-.515.131-.909.131-.187 0-.408-.015-.585-.07v-.132zM97.011 32.526c.282-.086.454-.237.454-.595v-3.835l-.495-.167v-.171c.51-.086.949-.112 1.59-.112 1.645 0 2.73.838 2.73 2.342 0 1.72-1.312 2.76-2.846 2.76-.616 0-.939-.01-1.433-.081v-.141zm1.509-.232c1.105 0 2.008-.772 2.008-2.165 0-1.297-.868-2.018-1.988-2.018-.127 0-.268.01-.409.025v4.133c.146.01.257.025.389.025zM103.53 28.898c.843 0 1.352.565 1.352 1.463 0 .147 0 .303-.004.5h-2.306c0 .878.509 1.382 1.155 1.382.383 0 .807-.131 1.105-.338.015.04.03.127.03.202 0 .353-.514.681-1.347.681-.893 0-1.62-.696-1.62-1.791 0-1.358.823-2.099 1.635-2.099zm.732 1.559c0-.767-.328-1.135-.793-1.135-.428 0-.883.514-.883 1.135h1.676zM105.478 32.546c.202-.075.414-.232.414-.424v-2.613h-.429v-.273l.429-.171v-.581c-.011-.828.539-1.423 1.503-1.423.555 0 .772.147.772.374 0 .07-.015.181-.04.257-.288-.101-.726-.166-1.039-.166-.318 0-.581.297-.581.852 0 .116.015.53.031.707h.999l-.086.424h-.923v2.84l.494.116v.147c-.268.096-.53.131-.964.131-.187 0-.409-.015-.585-.071v-.126h.005zM109.368 28.898c.843 0 1.352.565 1.352 1.463 0 .147 0 .303-.01.5h-2.306c0 .878.51 1.382 1.156 1.382.384 0 .807-.131 1.105-.338.015.04.03.127.03.202 0 .353-.514.681-1.347.681-.893 0-1.62-.696-1.62-1.791.006-1.358.823-2.099 1.64-2.099zm.727 1.559c0-.767-.328-1.135-.792-1.135-.429 0-.883.514-.883 1.135h1.675zM111.321 32.546c.202-.075.414-.232.414-.424v-2.644l-.505-.212v-.171c.358-.101.712-.142.939-.142h.187v.424c.267-.267.701-.439 1.155-.439.651 0 1.095.414 1.095 1.221v2.19l.409.116v.147c-.212.086-.485.131-.823.131-.166 0-.353-.015-.509-.071v-.126c.196-.086.282-.232.282-.514v-1.494c0-.767-.323-1.055-.782-1.055-.318 0-.636.111-.807.242v2.63l.438.116v.146c-.267.095-.514.131-.908.131-.186 0-.409-.015-.585-.07v-.132zM115.555 31.829c.353.329.686.495 1.104.495.44 0 .667-.212.667-.484 0-.273-.157-.444-.671-.666l-.389-.167c-.454-.197-.707-.525-.707-.969 0-.615.546-1.15 1.363-1.15.626 0 .878.187.878.484 0 .116-.015.217-.041.328-.252-.171-.595-.298-.893-.298-.499 0-.736.217-.736.485 0 .282.141.439.61.615l.424.167c.565.217.777.51.777.969 0 .6-.58 1.15-1.453 1.15-.686 0-.994-.217-.994-.64-.01-.106.01-.233.061-.319zM118.471 32.546c.212-.075.414-.232.414-.424v-2.644l-.5-.212V29.1c.354-.101.712-.147.929-.147h.252l-.04.424v2.972l.439.116v.147c-.268.096-.51.131-.909.131-.181 0-.408-.015-.585-.071v-.126zm.328-4.758c0-.242.172-.459.444-.459.217 0 .409.166.409.424 0 .272-.187.484-.439.484-.237-.005-.414-.192-.414-.449zM122.139 28.898c.843 0 1.353.565 1.353 1.463 0 .147 0 .303-.011.5h-2.306c0 .878.51 1.382 1.156 1.382.384 0 .807-.131 1.105-.338.015.04.031.127.031.202 0 .353-.515.681-1.348.681-.893 0-1.62-.696-1.62-1.791.006-1.358.828-2.099 1.64-2.099zm.727 1.559c0-.767-.328-1.135-.792-1.135-.429 0-.883.514-.883 1.135h1.675z"/><g><path fill="none" d="M20.308 0H178.75v63.074H20.308z"/></g></g><path fill="#FFF" fill-rule="evenodd" d="M29.069 189.882l5.023 15.275h-3.394l-.963-3.027h-4.702l-.918 3.027h-3.394l5-15.275h3.348zm-1.674 4.22l-1.376 5.092h2.752l-1.376-5.092zm17.936 2.34v6.559q0 1.055-.619 1.721-.62.665-1.766.665-.321 0-.815-.103-.493-.104-1.032-.253-.539-.149-1.055-.321-.516-.172-.883-.309v5.114l-3.165.551v-15.78h3.051v.803q.367-.138.894-.322.528-.183 1.09-.344.561-.16 1.078-.263.516-.104.837-.104 1.146 0 1.766.666.619.665.619 1.72zm-6.17 1.605v3.349q0 .229.23.298.114.046.493.172.378.126.802.252.425.127.792.23.367.103.458.103.23 0 .23-.229v-5q0-.23-.23-.23-.091 0-.458.103-.367.104-.792.23-.424.126-.802.252-.379.126-.493.172-.23.069-.23.298zm18.257-1.605v6.559q0 1.055-.619 1.721-.619.665-1.766.665-.321 0-.814-.103-.493-.104-1.032-.253-.539-.149-1.055-.321-.517-.172-.884-.309v5.114l-3.165.551v-15.78h3.051v.803q.367-.138.894-.322.528-.183 1.09-.344.562-.16 1.078-.263.516-.104.837-.104 1.147 0 1.766.666.619.665.619 1.72zm-6.17 1.605v3.349q0 .229.23.298.115.046.493.172t.803.252q.424.127.791.23.367.103.459.103.229 0 .229-.229v-5q0-.23-.229-.23-.092 0-.459.103-.367.104-.791.23-.425.126-.803.252-.378.126-.493.172-.23.069-.23.298zm8.923 7.11v-15.275l3.165-.55v15.825h-3.165zm6.146 0v-10.871h3.166v10.871h-3.166zm0-12.224v-3.418h3.166v3.418h-3.166zm11.881 7.889l3.097.551v1.399q0 .482-.184.917-.183.436-.516.769-.333.332-.768.516-.436.183-.918.183H74.62q-.481 0-.917-.183-.436-.184-.769-.516-.332-.333-.516-.769-.183-.435-.183-.917v-6.101q0-.482.183-.917.184-.436.516-.769.333-.332.769-.516.436-.183.917-.183h4.289q.482 0 .918.183.435.184.768.516.333.333.516.769.184.435.184.917v1.216l-3.097.573v-1.055q0-.229-.229-.229h-2.34q-.229 0-.229.229v4.633q0 .229.229.229h2.34q.229 0 .229-.229v-1.216zm5.321 2.179v-1.72q0-1.055.62-1.72.619-.665 1.766-.665.642 0 1.628.103.986.103 1.927.287v-1.996q0-.229-.23-.229h-2.362q-.229 0-.229.229v.711l-2.982-.504v-.826q0-.482.183-.917.184-.436.517-.769.332-.332.768-.516.436-.183.917-.183h4.198q.481 0 .917.183.436.184.768.516.333.333.516.769.184.435.184.917v8.486h-3.051v-.527q-.366.137-.86.275-.493.138-1.009.241-.516.103-.998.172-.481.069-.802.069-1.147 0-1.766-.665-.62-.666-.62-1.721zm5.941-.779v-.62q0-.252-.23-.298-.321-.023-.688-.057-.367-.035-.711-.058-.344-.022-.619-.034-.275-.011-.367-.011-.229 0-.229.229v1.399q0 .229.229.229.092 0 .436-.057t.734-.138q.39-.08.745-.16.356-.08.47-.126.23-.069.23-.298zm4.77-5.23v-2.706h1.606v-2.431l3.165-.551v2.982h2.569l-.528 2.706h-2.041v5.184q0 .229.23.229h1.926v2.752h-2.936q-.481 0-.917-.183-.436-.184-.768-.516-.333-.333-.517-.769-.183-.435-.183-.917v-5.78H94.23zm9.29 8.165v-10.871h3.165v10.871h-3.165zm0-12.224v-3.418h3.165v3.418h-3.165zm15.458 3.738v6.101q0 .482-.183.917-.184.436-.516.769-.333.332-.769.516-.435.183-.917.183h-4.771q-.481 0-.917-.183-.436-.184-.768-.516-.333-.333-.516-.769-.184-.435-.184-.917v-6.101q0-.482.184-.917.183-.436.516-.769.332-.332.768-.516.436-.183.917-.183h4.771q.482 0 .917.183.436.184.769.516.332.333.516.769.183.435.183.917zm-3.165 5.367v-4.633q0-.229-.229-.229h-2.752q-.23 0-.23.229v4.633q0 .229.23.229h2.752q.229 0 .229-.229zm9.083 3.119h-3.165v-10.871h3.05v.803q.367-.138.883-.322.516-.183 1.067-.344.55-.16 1.066-.263.516-.104.837-.104 1.147 0 1.766.666.62.665.62 1.72v8.715h-3.165v-7.66q0-.23-.23-.23-.092 0-.447.104-.356.103-.768.229-.413.126-.792.252-.378.126-.493.172-.229.069-.229.298v6.835zM21.913 177.634v-15.275h3.326v12.248h6.078v3.027h-9.404zm11.354-2.156v-1.72q0-1.055.619-1.72t1.766-.665q.642 0 1.628.103.987.103 1.927.287v-1.996q0-.229-.229-.229h-2.363q-.229 0-.229.229v.711l-2.982-.504v-.826q0-.482.184-.918.183-.435.516-.768.332-.332.768-.516.436-.183.918-.183h4.197q.482 0 .917.183.436.184.769.516.332.333.516.768.183.436.183.918v8.486h-3.05v-.527q-.367.137-.86.275t-1.009.241q-.517.103-.998.172-.482.069-.803.069-1.147 0-1.766-.666-.619-.665-.619-1.72zm5.94-.78v-.619q0-.252-.229-.298-.321-.023-.688-.057-.367-.035-.711-.058t-.62-.034q-.275-.012-.367-.012-.229 0-.229.23v1.399q0 .229.229.229.092 0 .436-.057t.734-.138q.39-.08.746-.16.355-.081.47-.126.229-.069.229-.299zm9.197 2.936h-3.165v-10.871h3.051v.802q.367-.137.883-.321.516-.183 1.066-.344.551-.16 1.067-.264.516-.103.837-.103 1.147 0 1.766.665.619.666.619 1.721v8.715h-3.165v-7.66q0-.23-.229-.23-.092 0-.447.103-.356.104-.769.23-.413.126-.791.252-.379.126-.493.172-.23.069-.23.298v6.835zm9.84 4.358V179.4h4.862q.184 0 .23-.183v-2.798q-.367.137-.883.309t-1.055.321q-.539.149-1.032.253-.494.103-.815.103-1.146 0-1.766-.665-.619-.665-.619-1.72v-6.101q0-1.055.619-1.721.62-.665 1.766-.665.321 0 .837.103.517.104 1.078.264.562.161 1.09.344.527.184.894.321v-.802h3.051v12.844q0 .481-.184.917-.183.436-.516.769-.332.332-.768.516-.436.183-.917.183h-5.872zm5.092-8.578v-2.89q0-.229-.23-.298-.114-.046-.504-.172t-.814-.252q-.425-.127-.803-.23-.379-.103-.47-.103-.23 0-.23.229v4.542q0 .229.23.229.091 0 .47-.103.378-.103.803-.229.424-.127.814-.253.39-.126.504-.172.23-.069.23-.298zm12.041-6.651h3.165v10.871h-3.05v-.803q-.367.138-.895.322-.527.183-1.078.344-.55.16-1.055.263-.504.104-.825.104-1.147 0-1.767-.666-.619-.665-.619-1.72v-8.715h3.165v7.752q0 .229.23.229.091 0 .447-.103t.768-.229q.413-.126.792-.253.378-.126.493-.172.229-.068.229-.298v-6.926zm5.918 8.715v-1.72q0-1.055.619-1.72t1.766-.665q.642 0 1.628.103.987.103 1.927.287v-1.996q0-.229-.229-.229h-2.363q-.229 0-.229.229v.711l-2.982-.504v-.826q0-.482.184-.918.183-.435.516-.768.332-.332.768-.516.436-.183.918-.183h4.197q.481 0 .917.183.436.184.769.516.332.333.516.768.183.436.183.918v8.486h-3.05v-.527q-.367.137-.86.275-.494.138-1.01.241-.516.103-.997.172-.482.069-.803.069-1.147 0-1.766-.666-.619-.665-.619-1.72zm5.94-.78v-.619q0-.252-.229-.298-.321-.023-.688-.057-.367-.035-.711-.058t-.62-.034q-.275-.012-.367-.012-.229 0-.229.23v1.399q0 .229.229.229.092 0 .436-.057t.734-.138q.39-.08.745-.16.356-.081.471-.126.229-.069.229-.299zm6.881 7.294V179.4h4.862q.184 0 .23-.183v-2.798q-.367.137-.883.309-.517.172-1.056.321-.538.149-1.032.253-.493.103-.814.103-1.147 0-1.766-.665t-.619-1.72v-6.101q0-1.055.619-1.721.619-.665 1.766-.665.321 0 .837.103.516.104 1.078.264.562.161 1.09.344.527.184.894.321v-.802h3.051v12.844q0 .481-.184.917-.183.436-.516.769-.332.332-.768.516-.436.183-.918.183h-5.871zm5.092-8.578v-2.89q0-.229-.23-.298-.114-.046-.504-.172t-.815-.252q-.424-.127-.802-.23-.379-.103-.471-.103-.229 0-.229.229v4.542q0 .229.229.229.092 0 .471-.103.378-.103.802-.229.425-.127.815-.253.39-.126.504-.172.23-.069.23-.298zm11.812.573l3.05.551v.711q0 .482-.183.917-.184.436-.516.769-.333.332-.769.516-.436.183-.917.183h-4.289q-.482 0-.918-.183-.435-.184-.768-.516-.333-.333-.516-.769-.184-.435-.184-.917v-6.101q0-.482.184-.918.183-.435.516-.768.333-.332.768-.516.436-.183.918-.183h4.197q.482 0 .917.183.436.184.769.516.332.333.516.768.183.436.183.918v3.991h-5.802v1.536q0 .23.229.23h2.385q.23 0 .23-.23v-.688zm-2.844-4.243v1.124h2.821v-1.124q0-.229-.23-.229h-2.362q-.229 0-.229.229zm-80.62-21.995l-2.432-5.666v8.028h-3.211v-15.275h3.211l3.831 9.151 3.83-9.151h3.211v15.275h-3.211v-8.028l-2.431 5.666h-2.798zm17.546-8.51h3.165v10.872h-3.051v-.803q-.367.138-.894.321-.528.184-1.078.344-.551.161-1.055.264-.505.103-.826.103-1.147 0-1.766-.665t-.619-1.72v-8.716h3.165v7.753q0 .229.229.229.092 0 .448-.103.355-.103.768-.229.413-.127.791-.253.379-.126.493-.172.23-.069.23-.298v-6.927zm6.146 10.872v-15.275l3.166-.551v15.826h-3.166zm4.886-8.165v-2.707h1.605v-2.431l3.166-.55v2.981h2.568l-.527 2.707h-2.041v5.183q0 .23.229.23h1.927v2.752h-2.936q-.482 0-.918-.183-.436-.184-.768-.516-.333-.333-.516-.769-.184-.436-.184-.917v-5.78h-1.605zm9.289 8.165v-10.872h3.165v10.872h-3.165zm0-12.225v-3.417h3.165v3.417h-3.165zm-32.936-28.05v10.229q0 .528-.195.986-.195.459-.539.803-.344.344-.803.539-.459.195-.986.195h-5.642q-.528 0-.987-.195-.458-.195-.802-.539-.344-.344-.539-.803-.195-.458-.195-.986v-10.229q0-.528.195-.987.195-.458.539-.802.344-.345.802-.539.459-.195.987-.195h5.642q.527 0 .986.195.459.194.803.539.344.344.539.802.195.459.195.987zm-3.326 9.495v-8.762q0-.229-.229-.229h-3.578q-.23 0-.23.229v8.762q0 .229.23.229h3.578q.229 0 .229-.229zm5.39-4.908v-2.707h1.445v-2.225q0-.481.184-.917.183-.436.516-.768.332-.333.768-.516.436-.184.917-.184h3.326v2.752h-2.316q-.23 0-.23.23v1.628h2.409l-.345 2.707h-2.064v8.165h-3.165v-8.165h-1.445zm8.074 0v-2.707h1.445v-2.225q0-.481.183-.917.184-.436.516-.768.333-.333.768-.516.436-.184.918-.184h3.326v2.752h-2.317q-.229 0-.229.23v1.628h2.408l-.344 2.707h-2.064v8.165H44.07v-8.165h-1.445zm8.99 8.165v-15.275l3.166-.551v15.826h-3.166zm6.147 0v-10.872h3.165v10.872h-3.165zm0-12.225v-3.417h3.165v3.417h-3.165zm9.312 12.225h-3.165v-10.872h3.051v.803q.367-.138.883-.321.516-.184 1.066-.344.551-.161 1.067-.264.516-.103.837-.103 1.147 0 1.766.665t.619 1.72v8.716h-3.165v-7.661q0-.229-.229-.229-.092 0-.448.103-.355.103-.768.23-.413.126-.791.252-.379.126-.493.172-.23.069-.23.298v6.835zm14.771-3.647l3.051.551v.711q0 .481-.184.917-.183.436-.516.768-.333.333-.768.516-.436.184-.918.184h-4.289q-.481 0-.917-.184-.436-.183-.769-.516-.332-.332-.516-.768-.183-.436-.183-.917v-6.101q0-.482.183-.918.184-.436.516-.768.333-.333.769-.516.436-.184.917-.184h4.197q.482 0 .918.184.436.183.768.516.333.332.516.768.184.436.184.918v3.99h-5.803v1.537q0 .23.229.23h2.386q.229 0 .229-.23v-.688zm-2.844-4.243v1.124h2.821v-1.124q0-.229-.229-.229H79.23q-.229 0-.229.229zm-58.12-31.881v-3.028h11.216v3.028h-3.945v12.248h-3.326V82.817h-3.945zM43.45 95.065h-3.165v-7.661q0-.229-.229-.229-.092 0-.448.103-.355.103-.768.229-.413.127-.791.253-.379.126-.493.172-.23.069-.23.298v6.835h-3.165V79.789l3.165-.55v5.711q.367-.138.883-.31t1.044-.321q.528-.149 1.009-.252.482-.103.803-.103 1.147 0 1.766.665t.619 1.72v8.716zm8.647-3.647l3.051.55v.711q0 .482-.184.918-.183.436-.516.768-.333.333-.768.516-.436.184-.918.184h-4.289q-.481 0-.917-.184-.436-.183-.769-.516-.332-.332-.516-.768-.183-.436-.183-.918v-6.101q0-.481.183-.917.184-.436.516-.768.333-.333.769-.516.436-.184.917-.184h4.198q.481 0 .917.184.436.183.768.516.333.332.516.768.184.436.184.917v3.991h-5.803v1.537q0 .229.229.229h2.386q.229 0 .229-.229v-.688zm-2.844-4.243v1.124h2.821v-1.124q0-.23-.229-.23h-2.363q-.229 0-.229.23z"/><path fill="#0D6997" d="M0 227.926h179.187V388H0z"/></g></g></svg>