<?xml version="1.0" standalone="no"?><!-- Generator: Gravit.io --><svg xmlns="http://www.w3.org/2000/svg" xmlns:xlink="http://www.w3.org/1999/xlink" style="isolation:isolate" viewBox="0 0 375 812" width="375" height="812"><defs><clipPath id="_clipPath_zZEbYn3YadwFliAibGGf2AEnQ6I6nQlC"><rect width="375" height="812"/></clipPath></defs><g clip-path="url(#_clipPath_zZEbYn3YadwFliAibGGf2AEnQ6I6nQlC)"><rect x="0" y="0" width="375" height="132" transform="matrix(1,0,0,1,0,0)" fill="rgb(255,255,255)"/><rect x="0" y="132" width="375" height="356" transform="matrix(1,0,0,1,0,0)" fill="rgb(41,62,85)"/><g><g><g><rect x="42.5" y="0" width="331.584" height="132" transform="matrix(1,0,0,1,0,0)" fill="none"/><rect x="42.5" y="0" width="52.8" height="105.6" transform="matrix(1,0,0,1,0,0)" fill="rgb(21,66,115)"/></g><path d=" M 69.85 81.692 L 68.932 81.692 L 68.932 79.147 L 69.85 79.147 L 69.85 81.692 Z  M 74 70.456 L 73.082 70.456 L 73.082 67.911 L 74 67.911 L 74 70.456 Z  M 56.978 66.063 C 56.904 66.063 56.429 66.063 56.429 66.158 C 56.429 66.253 56.65 66.211 56.978 66.264 C 57.717 66.391 58.002 66.76 58.52 66.76 C 58.984 66.76 59.47 66.444 59.28 65.768 C 59.248 65.652 59.185 65.683 59.164 65.757 C 59.09 66.063 58.72 66.232 58.329 66.232 C 57.844 66.232 57.749 66.063 56.978 66.063 Z  M 51.92 68.608 C 52.004 68.724 52.87 69.844 51.539 70.277 C 51.476 70.298 51.465 70.351 51.55 70.393 C 52.532 70.805 53.007 70.044 53.007 70.044 C 53.504 71.185 52.743 71.808 52.743 71.808 C 52.849 72.009 53.324 72.357 54.032 72.516 C 54.306 72.368 54.686 72.093 54.845 71.671 C 54.845 71.671 55.035 72.167 54.866 72.642 C 56.872 72.822 57.58 71.217 59.132 71.512 C 59.174 71.523 59.195 71.491 59.195 71.449 C 59.195 70.456 58.593 68.651 56.672 68.281 C 54.76 67.911 55.278 67.13 55.278 67.13 C 56.08 67.098 56.545 67.447 56.545 67.447 C 56.693 67.204 56.481 66.95 56.481 66.95 C 56.555 66.855 56.598 66.528 56.598 66.528 C 55.689 66.528 55.457 66.327 55.457 66.327 C 55.32 65.789 55.689 65.028 57.041 65.842 C 57.379 65.546 57.347 65.081 57.347 65.081 C 57.453 65.028 57.516 64.87 57.516 64.807 C 57.516 64.585 56.439 63.983 56.165 63.909 C 56.101 63.582 55.679 63.117 54.412 63.286 C 53.81 63.36 53.377 63.202 53.577 62.853 C 53.609 62.79 53.504 62.779 53.451 62.843 C 53.313 62.98 53.123 63.371 53.641 63.635 C 54.222 63.93 54.253 64.511 54.264 64.596 C 54.274 64.722 54.127 64.733 54.095 64.606 C 53.831 63.624 52.479 63.413 51.687 63.93 C 51.729 64.458 52.3 64.807 52.606 64.807 C 52.785 64.807 53.028 64.627 53.028 64.384 C 53.028 64.268 53.092 64.279 53.123 64.374 C 53.25 64.722 52.733 65.451 51.972 65.007 C 51.191 65.789 51.508 66.76 51.582 67.109 C 51.719 67.742 51.413 68.365 50.832 68.08 C 50.8 68.07 50.768 68.059 50.768 68.123 C 50.779 68.503 51.296 68.957 51.92 68.608 Z  M 56.228 64.669 C 55.858 65.081 55.267 64.986 55.119 64.31 C 55.88 64.268 56.196 64.342 56.228 64.669 Z  M 79.534 66.232 C 79.143 66.232 78.774 66.063 78.7 65.757 C 78.679 65.683 78.615 65.652 78.584 65.768 C 78.393 66.444 78.879 66.76 79.344 66.76 C 79.861 66.76 80.146 66.391 80.886 66.264 C 81.213 66.211 81.435 66.264 81.435 66.158 C 81.435 66.063 80.96 66.063 80.886 66.063 C 80.125 66.063 80.02 66.232 79.534 66.232 Z  M 87.095 68.101 C 87.095 68.038 87.063 68.049 87.032 68.059 C 86.451 68.344 86.144 67.732 86.282 67.088 C 86.356 66.729 86.672 65.768 85.891 64.986 C 85.12 65.43 84.603 64.701 84.74 64.353 C 84.772 64.258 84.835 64.247 84.835 64.363 C 84.835 64.606 85.078 64.786 85.257 64.786 C 85.564 64.786 86.134 64.437 86.176 63.909 C 85.384 63.392 84.032 63.603 83.768 64.585 C 83.737 64.712 83.589 64.701 83.6 64.574 C 83.6 64.49 83.642 63.909 84.223 63.613 C 84.751 63.349 84.56 62.959 84.413 62.821 C 84.36 62.769 84.244 62.779 84.286 62.832 C 84.487 63.18 84.054 63.339 83.462 63.265 C 82.195 63.096 81.783 63.571 81.709 63.888 C 81.435 63.962 80.358 64.564 80.358 64.786 C 80.358 64.849 80.421 65.018 80.527 65.06 C 80.527 65.06 80.505 65.514 80.833 65.82 C 82.174 65.007 82.554 65.768 82.417 66.306 C 82.417 66.306 82.174 66.496 81.266 66.507 C 81.266 66.507 81.308 66.834 81.382 66.929 C 81.382 66.929 81.171 67.193 81.319 67.426 C 81.319 67.426 81.783 67.077 82.586 67.109 C 82.586 67.109 83.103 67.89 81.192 68.26 C 79.28 68.629 78.668 70.435 78.668 71.428 C 78.668 71.481 78.689 71.502 78.731 71.491 C 80.284 71.206 80.991 72.811 82.998 72.621 C 82.818 72.146 83.019 71.65 83.019 71.65 C 83.177 72.072 83.557 72.357 83.832 72.494 C 84.55 72.336 85.015 71.998 85.12 71.787 C 85.12 71.787 84.36 71.164 84.856 70.023 C 84.856 70.023 85.331 70.784 86.313 70.372 C 86.398 70.33 86.377 70.277 86.324 70.256 C 84.993 69.823 85.859 68.703 85.944 68.587 C 86.567 68.957 87.095 68.503 87.095 68.101 Z  M 82.744 64.31 C 82.596 64.986 82.005 65.081 81.635 64.669 C 81.667 64.342 81.994 64.268 82.744 64.31 Z  M 68.583 53.022 C 68.583 53.191 68.657 53.339 68.71 53.423 C 68.826 53.592 68.805 53.687 68.752 53.74 C 68.699 53.793 68.604 53.814 68.435 53.698 C 68.351 53.634 68.203 53.571 68.034 53.571 C 67.749 53.571 67.601 53.761 67.601 53.919 C 67.601 54.078 67.749 54.268 68.034 54.268 C 68.203 54.268 68.351 54.194 68.435 54.141 C 68.604 54.025 68.699 54.046 68.752 54.099 C 68.805 54.152 68.731 54.732 68.657 55.197 C 68.182 55.303 67.95 55.683 67.95 55.905 C 67.95 56.485 68.562 56.813 68.932 57.013 C 69.291 56.823 69.914 56.485 69.914 55.905 C 69.914 55.683 69.681 55.292 69.206 55.197 C 69.143 54.743 69.058 54.152 69.111 54.099 C 69.164 54.046 69.259 54.025 69.428 54.141 C 69.512 54.204 69.66 54.268 69.829 54.268 C 70.114 54.268 70.262 54.078 70.262 53.919 C 70.262 53.761 70.114 53.571 69.829 53.571 C 69.66 53.571 69.512 53.645 69.428 53.698 C 69.259 53.814 69.164 53.793 69.111 53.74 C 69.058 53.687 69.037 53.592 69.153 53.423 C 69.217 53.339 69.28 53.191 69.28 53.022 C 69.28 52.737 69.09 52.589 68.932 52.589 C 68.773 52.589 68.583 52.737 68.583 53.022 Z  M 68.932 57.309 C 68.541 57.309 68.224 57.626 68.224 58.017 C 68.224 58.407 68.541 58.724 68.932 58.724 C 69.322 58.724 69.639 58.407 69.639 58.017 C 69.639 57.626 69.322 57.309 68.932 57.309 Z  M 68.932 64.078 C 71.751 64.078 73.335 64.617 73.335 64.617 C 73.346 63.191 73.346 62.399 74.159 62.515 C 73.715 61.322 75.637 60.847 75.637 59.294 C 75.637 58.27 74.909 58.154 74.697 58.154 C 74.064 58.154 74.159 58.566 73.62 58.566 C 73.557 58.566 73.483 58.545 73.483 58.597 C 73.483 58.777 73.631 59.083 73.884 59.083 C 74.222 59.083 74.222 58.745 74.476 58.745 C 74.581 58.745 74.74 58.83 74.74 59.178 C 74.74 59.844 74.307 60.572 73.789 61.142 C 73.673 60.984 73.515 60.878 73.314 60.878 C 73.008 60.878 72.744 61.195 72.744 61.586 C 72.744 61.734 72.765 61.839 72.818 61.956 C 72.649 62.051 72.49 62.103 72.385 62.103 C 72.152 62.103 71.804 62.008 71.804 61.501 C 71.804 60.372 73.314 59.379 73.314 57.943 C 73.314 57.256 72.86 56.58 71.899 56.58 C 70.875 56.58 71.065 57.51 70.178 57.51 C 70.136 57.51 70.104 57.52 70.104 57.563 C 70.104 57.626 70.262 58.143 70.716 58.143 C 71.202 58.143 71.339 57.299 71.783 57.299 C 71.941 57.299 72.184 57.394 72.184 57.964 C 72.184 58.407 71.962 59.136 71.646 59.822 C 71.529 59.706 71.371 59.622 71.202 59.622 C 70.822 59.622 70.547 59.991 70.547 60.424 C 70.547 60.699 70.653 60.973 70.843 61.142 C 70.621 61.428 70.389 61.66 70.083 61.66 C 69.47 61.66 69.206 61.311 69.206 60.931 C 69.206 60.519 69.956 60.372 69.956 59.738 C 69.956 59.305 69.671 59.062 69.407 59.062 C 69.111 59.062 68.963 59.252 68.932 59.252 C 68.9 59.252 68.752 59.062 68.456 59.062 C 68.182 59.062 67.907 59.305 67.907 59.738 C 67.907 60.372 68.657 60.53 68.657 60.931 C 68.657 61.311 68.383 61.66 67.781 61.66 C 67.474 61.66 67.242 61.428 67.02 61.142 C 67.21 60.963 67.316 60.699 67.316 60.424 C 67.316 59.981 67.041 59.622 66.661 59.622 C 66.482 59.622 66.334 59.706 66.218 59.822 C 65.901 59.125 65.679 58.407 65.679 57.964 C 65.679 57.394 65.922 57.299 66.08 57.299 C 66.513 57.299 66.651 58.143 67.147 58.143 C 67.601 58.143 67.76 57.626 67.76 57.563 C 67.76 57.531 67.728 57.51 67.686 57.51 C 66.799 57.51 66.989 56.58 65.964 56.58 C 65.014 56.58 64.549 57.256 64.549 57.943 C 64.549 59.379 66.059 60.372 66.059 61.501 C 66.059 62.008 65.711 62.103 65.479 62.103 C 65.362 62.103 65.215 62.051 65.046 61.956 C 65.098 61.829 65.12 61.734 65.12 61.586 C 65.12 61.195 64.856 60.878 64.549 60.878 C 64.359 60.878 64.201 60.984 64.085 61.142 C 63.567 60.572 63.134 59.844 63.134 59.178 C 63.134 58.84 63.293 58.745 63.398 58.745 C 63.641 58.745 63.652 59.083 63.99 59.083 C 64.243 59.083 64.391 58.777 64.391 58.597 C 64.391 58.545 64.317 58.566 64.254 58.566 C 63.715 58.566 63.81 58.154 63.176 58.154 C 62.965 58.154 62.237 58.27 62.237 59.294 C 62.237 60.857 64.159 61.322 63.715 62.515 C 64.528 62.399 64.518 63.191 64.539 64.617 C 64.528 64.617 66.112 64.078 68.932 64.078 Z  M 63.768 66.18 C 62.997 66.348 62.448 66.507 62.205 66.581 C 62.216 66.243 62.342 65.926 62.648 65.863 C 62.691 65.852 62.701 65.799 62.659 65.778 C 61.973 65.324 61.614 66.19 61.603 66.222 C 61.36 66.201 60.991 66.275 60.991 66.602 C 60.991 67.584 58.752 68.123 58.234 68.207 C 59.153 68.556 59.533 69.717 59.533 69.717 C 60.199 69.052 60.969 68.471 61.149 68.471 C 61.328 68.471 61.392 68.693 61.402 68.82 C 61.402 68.862 61.445 68.872 61.476 68.841 C 61.825 68.323 61.656 68.207 61.624 68.049 C 61.603 67.932 61.635 67.478 62.142 67.531 L 62.142 74.068 L 61.878 74.121 C 61.761 74.142 60.8 73.329 59.713 72.568 C 58.615 71.808 58.034 72.262 56.788 72.938 C 55.151 73.825 53.504 73.022 53.504 73.022 C 52.099 74.026 51.613 76.94 51.613 76.94 C 51.328 77.056 50.864 77.183 50.431 77.183 C 49.353 77.183 49.163 76.528 49.163 76.148 C 49.163 74.49 51.244 73.783 51.244 72.146 C 51.244 71.745 51.064 70.14 49.068 70.14 C 48.815 70.14 47.294 70.14 47.284 70.14 C 46.534 70.14 46.354 69.601 46.249 69.4 C 46.207 69.316 46.133 69.369 46.164 69.432 C 46.217 69.569 46.08 69.78 46.08 70.192 C 46.08 70.858 46.471 71.259 47.199 71.259 C 47.527 71.259 47.843 71.164 47.938 71.1 C 48.002 71.058 48.044 71.122 48.012 71.164 C 47.696 71.533 47.674 72.23 47.801 72.389 C 47.833 72.431 47.875 72.42 47.875 72.389 C 48.055 71.692 48.709 71.027 49.596 71.027 C 50.684 71.027 50.673 71.945 50.673 72.167 C 50.673 73.498 48.34 74.469 48.34 76.307 C 48.34 78.165 50.304 78.556 51.434 78.271 C 51.37 80.129 49.237 80.763 49.174 79.432 C 49.174 79.369 49.121 79.358 49.089 79.443 C 48.825 80.098 48.931 80.678 49.755 80.858 C 49.808 80.868 49.786 80.9 49.734 80.942 C 48.91 81.46 49.353 83.508 49.396 84.11 C 49.459 84.976 48.593 84.871 48.519 84.85 C 48.488 84.839 48.445 84.85 48.509 84.924 C 49.121 85.673 49.881 84.987 49.881 84.987 C 50.452 85.166 50.103 85.652 49.712 85.906 C 49.649 85.948 49.66 85.99 49.723 85.99 C 49.808 86.001 50.695 86.075 50.853 85.367 C 51.244 85.832 51.824 85.663 51.941 85.599 C 52.11 85.515 52.944 85.209 53.018 86.138 C 53.018 86.201 53.06 86.159 53.092 86.127 C 53.715 85.335 53.049 84.85 52.669 84.797 C 52.701 84.755 53.197 84.332 53.651 84.913 C 53.683 84.955 53.715 84.966 53.715 84.881 C 53.768 83.878 52.954 83.794 52.426 84.227 C 52.405 84.121 52.226 83.561 53.018 83.582 C 53.039 83.582 53.071 83.551 53.039 83.519 C 52.426 82.864 51.92 83.456 51.793 83.604 C 51.518 83.931 50.832 83.794 50.768 83.794 C 50.98 80.319 54.042 81.555 54.464 79.865 C 54.486 79.781 54.528 79.812 54.528 79.844 C 54.644 80.256 55.679 80.309 55.869 79.506 C 55.88 79.453 55.869 79.422 55.837 79.453 C 54.95 80.34 52.954 77.574 55.679 75.324 C 58.002 73.413 60.082 74.48 60.874 75.103 C 60.917 75.377 60.748 75.472 60.642 75.504 C 60.6 75.515 60.589 75.546 60.653 75.578 C 60.874 75.662 61.181 75.631 61.328 75.43 C 61.825 75.779 61.402 76.222 61.202 76.338 C 61.149 76.37 61.17 76.402 61.212 76.412 C 61.666 76.497 62.047 76.032 62.068 75.757 L 62.142 75.8 L 62.142 77.774 C 62.142 80.583 65.384 80.974 68.942 83.35 C 72.501 80.964 75.732 80.583 75.732 77.774 L 75.732 75.8 L 75.806 75.757 C 75.827 76.021 76.197 76.497 76.662 76.412 C 76.704 76.402 76.725 76.37 76.672 76.338 C 76.472 76.212 76.039 75.779 76.545 75.43 C 76.693 75.641 77 75.662 77.221 75.578 C 77.285 75.557 77.274 75.515 77.232 75.504 C 77.126 75.472 76.957 75.377 77 75.103 C 77.792 74.469 79.872 73.403 82.195 75.324 C 84.92 77.574 82.924 80.33 82.037 79.453 C 81.994 79.411 81.994 79.453 82.005 79.506 C 82.195 80.319 83.23 80.256 83.346 79.844 C 83.357 79.812 83.399 79.781 83.409 79.865 C 83.832 81.555 86.884 80.319 87.105 83.794 C 87.042 83.804 86.356 83.931 86.081 83.604 C 85.965 83.466 85.458 82.864 84.835 83.519 C 84.793 83.561 84.835 83.582 84.856 83.582 C 85.648 83.561 85.479 84.121 85.448 84.227 C 84.92 83.794 84.106 83.878 84.159 84.881 C 84.159 84.955 84.191 84.955 84.223 84.913 C 84.677 84.332 85.173 84.755 85.205 84.797 C 84.835 84.85 84.159 85.335 84.782 86.127 C 84.814 86.159 84.846 86.201 84.856 86.138 C 84.941 85.209 85.764 85.504 85.933 85.599 C 86.049 85.663 86.63 85.832 87.021 85.367 C 87.179 86.075 88.066 86.001 88.151 85.99 C 88.214 85.99 88.214 85.948 88.161 85.906 C 87.781 85.652 87.422 85.166 87.992 84.987 C 87.992 84.987 88.753 85.673 89.365 84.924 C 89.418 84.86 89.386 84.839 89.355 84.85 C 89.281 84.871 88.415 84.976 88.478 84.11 C 88.52 83.508 88.964 81.46 88.14 80.942 C 88.088 80.911 88.066 80.879 88.119 80.858 C 88.943 80.678 89.048 80.098 88.784 79.443 C 88.753 79.358 88.7 79.38 88.7 79.432 C 88.637 80.763 86.514 80.129 86.44 78.271 C 87.581 78.566 89.534 78.165 89.534 76.307 C 89.534 74.48 87.2 73.498 87.2 72.167 C 87.2 71.945 87.19 71.027 88.278 71.027 C 89.165 71.027 89.819 71.692 89.999 72.389 C 90.009 72.42 90.041 72.431 90.073 72.389 C 90.2 72.22 90.178 71.533 89.862 71.164 C 89.83 71.132 89.862 71.058 89.936 71.1 C 90.031 71.164 90.347 71.259 90.675 71.259 C 91.403 71.259 91.794 70.858 91.794 70.192 C 91.794 69.78 91.646 69.569 91.71 69.432 C 91.741 69.369 91.657 69.326 91.625 69.4 C 91.52 69.612 91.329 70.14 90.59 70.14 C 90.58 70.14 89.059 70.14 88.806 70.14 C 86.81 70.14 86.63 71.755 86.63 72.146 C 86.63 73.783 88.711 74.49 88.711 76.148 C 88.711 76.539 88.51 77.183 87.443 77.183 C 87 77.183 86.535 77.056 86.261 76.94 C 86.261 76.94 85.785 74.036 84.37 73.022 C 84.37 73.022 82.723 73.825 81.086 72.938 C 79.84 72.262 79.249 71.808 78.151 72.568 C 77.052 73.329 76.102 74.142 75.986 74.121 L 75.722 74.068 L 75.722 67.531 C 76.229 67.478 76.26 67.932 76.239 68.049 C 76.208 68.196 76.049 68.323 76.387 68.841 C 76.419 68.883 76.45 68.862 76.461 68.82 C 76.472 68.693 76.545 68.471 76.714 68.471 C 76.883 68.471 77.665 69.052 78.33 69.717 C 78.33 69.717 78.71 68.566 79.629 68.207 C 79.112 68.123 76.873 67.584 76.873 66.602 C 76.873 66.275 76.503 66.201 76.26 66.222 C 76.25 66.19 75.88 65.324 75.204 65.778 C 75.173 65.799 75.173 65.852 75.215 65.863 C 75.521 65.937 75.648 66.243 75.658 66.581 C 75.004 66.38 72.226 65.599 68.932 65.599 C 67.327 65.599 65.859 65.789 64.687 66 L 64.687 68.26 L 63.768 68.26 L 63.768 66.18 L 63.768 66.18 Z  M 57.685 89.39 C 57.442 89.295 57.284 89.137 57.284 88.81 L 57.284 87.405 C 56.883 87.268 55.784 86.845 53.577 86.845 C 51.751 86.845 51.18 87.257 51.149 87.405 L 50.663 90.077 C 50.663 90.077 51.402 89.401 54.053 89.57 C 57.242 89.771 60.547 91.661 60.547 89.644 L 60.547 88.461 C 58.055 88.472 57.685 89.274 57.685 89.39 Z  M 77.316 88.472 L 77.316 89.654 C 77.316 91.661 80.622 89.781 83.811 89.58 C 86.461 89.412 87.2 90.087 87.2 90.087 L 86.715 87.405 C 86.694 87.257 86.113 86.845 84.286 86.845 C 82.089 86.845 80.991 87.268 80.579 87.405 L 80.579 88.81 C 80.579 89.126 80.421 89.285 80.178 89.39 C 80.189 89.274 79.819 88.472 77.316 88.472 Z  M 68.932 87.257 C 74.074 87.257 79.291 87.521 79.967 88.303 C 80.02 88.366 80.041 88.303 80.041 88.25 L 80.041 85.525 C 80.041 84.733 74.655 84.269 68.921 84.269 C 63.187 84.269 57.801 84.733 57.801 85.525 L 57.801 88.25 C 57.801 88.292 57.823 88.356 57.875 88.303 C 58.583 87.532 63.8 87.257 68.932 87.257 Z  M 64.349 74.416 L 63.831 74.279 L 63.789 74.342 L 63.187 74.078 C 63.187 74.078 63.631 74.078 63.726 74.078 C 63.778 74.078 63.778 74.047 63.757 74.026 C 63.514 73.783 63.293 73.572 63.293 73.572 C 63.293 73.572 63.536 73.667 63.884 73.793 C 63.926 73.804 63.937 73.783 63.916 73.751 C 63.747 73.508 63.514 73.17 63.514 73.17 C 63.514 73.17 64 73.498 64.095 73.561 C 64.127 73.582 64.148 73.561 64.137 73.529 C 64.011 73.212 63.863 72.843 63.863 72.843 L 64.391 73.35 C 64.412 73.371 64.444 73.36 64.433 73.329 C 64.38 73.086 64.285 72.642 64.285 72.642 L 64.676 73.212 C 64.697 73.244 64.729 73.234 64.729 73.202 C 64.729 73.086 64.739 72.579 64.739 72.579 C 64.739 72.579 64.908 72.959 64.982 73.149 C 65.003 73.191 65.024 73.191 65.046 73.139 C 65.067 73.075 65.246 72.653 65.246 72.653 L 65.267 73.308 L 65.183 73.329 L 65.077 74.11 C 65.848 73.931 66.82 72.6 67.559 72.6 C 68.446 72.6 68.763 73.635 70.389 73.107 C 70.801 73.719 70.949 74.247 71.107 74.976 C 71.741 75.567 72.617 75.367 72.617 74.744 C 72.617 73.899 71.698 73.74 71.698 72.853 C 71.698 72.463 71.973 71.892 72.723 71.892 C 73.124 71.892 73.705 72.061 74.043 72.061 C 74.444 72.061 74.528 71.776 74.571 71.65 C 74.602 71.565 74.719 71.586 74.708 71.66 C 74.697 71.745 74.75 71.861 74.75 72.051 C 74.75 72.611 73.937 72.684 73.842 72.611 C 73.8 72.579 73.768 72.621 73.8 72.653 C 73.927 72.748 73.895 73.086 73.747 73.297 C 73.726 73.318 73.705 73.318 73.705 73.297 C 73.62 72.896 73.145 72.399 72.733 72.399 C 72.585 72.399 72.279 72.484 72.279 72.843 C 72.279 73.339 73.282 73.804 73.282 74.839 C 73.282 75.916 72.216 76.18 71.139 75.905 C 71.17 76.93 72.702 77.532 72.733 76.803 C 72.733 76.75 72.765 76.782 72.776 76.803 C 72.997 77.12 72.902 77.352 72.607 77.479 C 72.871 77.595 72.923 78.133 72.997 78.461 C 73.113 78.947 73.62 78.672 73.652 78.661 C 73.684 78.64 73.694 78.661 73.673 78.693 C 73.483 79.189 72.966 78.999 72.966 78.999 C 72.702 79.189 73.018 79.358 73.261 79.432 C 73.293 79.443 73.293 79.464 73.272 79.485 C 73.092 79.548 72.712 79.675 72.522 79.348 C 72.385 79.686 72.1 79.675 71.994 79.675 C 71.793 79.675 71.667 79.876 71.709 80.15 C 71.709 80.172 71.698 80.182 71.677 80.172 C 71.213 79.865 71.477 79.496 71.667 79.401 C 71.635 79.38 71.308 79.242 71.17 79.622 C 71.16 79.654 71.139 79.654 71.128 79.622 C 70.928 79.073 71.371 78.915 71.688 79.052 C 71.667 78.978 71.498 78.704 71.075 78.799 C 71.054 78.809 71.044 78.799 71.054 78.767 C 71.128 78.598 71.329 78.355 71.72 78.598 C 71.92 78.725 72.258 78.545 72.29 78.524 C 71.603 77.162 70.283 78.302 69.977 77.236 C 69.967 77.215 69.945 77.194 69.924 77.257 C 69.85 77.479 69.27 77.5 69.164 77.056 C 69.153 77.025 69.164 77.014 69.196 77.035 C 69.28 77.12 69.46 77.194 69.703 76.856 C 69.861 76.623 69.882 76.317 69.882 76.116 C 69.882 75.293 69.058 73.899 67.77 73.899 C 66.957 73.899 66.08 74.216 65.426 74.691 L 66.028 74.828 C 65.975 75.441 65.384 75.8 64.845 75.641 L 64.94 74.944 C 64.845 74.976 64.613 75.06 64.486 75.24 C 64.475 75.251 64.454 75.251 64.454 75.229 C 64.349 74.828 64.676 74.628 64.771 74.585 C 64.782 74.575 64.782 74.575 64.76 74.575 C 64.465 74.564 64.306 74.775 64.254 74.849 C 64.243 74.86 64.232 74.86 64.232 74.849 C 64.264 74.765 64.211 74.564 64.349 74.416 Z  M 66.154 79.147 C 65.922 79.432 65.721 79.158 65.415 79.158 C 65.13 79.158 65.077 79.401 65.077 79.496 C 65.077 79.517 65.067 79.517 65.056 79.506 C 64.729 79.063 65.098 78.82 65.31 78.788 C 65.278 78.756 64.961 78.545 64.76 78.841 C 64.75 78.862 64.729 78.852 64.729 78.83 C 64.718 78.281 65.151 78.239 65.447 78.482 C 65.5 78.271 65.362 78.133 65.13 78.123 C 65.098 78.123 65.098 78.102 65.109 78.091 C 65.204 77.986 65.299 77.943 65.394 77.943 C 65.7 77.943 65.743 78.334 65.943 78.334 C 66.239 78.334 66.672 77.933 66.704 77.891 C 66.693 77.869 66.408 77.088 66.461 76.623 C 66.461 76.602 66.45 76.602 66.44 76.613 C 66.292 76.697 65.933 76.687 65.933 76.243 C 65.933 76.212 65.943 76.201 65.964 76.233 C 66.123 76.454 66.387 76.201 66.513 76.053 C 66.651 75.895 67.411 74.796 68.414 74.796 C 68.636 74.796 68.921 74.923 69.153 75.082 C 68.805 75.504 69.153 75.905 69.407 75.852 C 69.439 75.842 69.439 75.874 69.417 75.884 C 68.087 76.38 67.496 76.581 67.496 77.7 C 67.496 78.281 67.696 78.609 68.034 78.524 C 68.055 78.514 68.066 78.524 68.045 78.545 C 67.918 78.693 67.781 78.746 67.664 78.746 C 67.39 78.746 67.337 78.598 67.189 78.598 C 67.041 78.598 66.545 78.894 66.545 79.137 C 66.545 79.232 66.608 79.358 66.777 79.464 C 66.788 79.475 66.777 79.485 66.777 79.485 C 66.63 79.485 66.239 79.517 66.154 79.147 Z  M 69.65 68.323 C 69.238 68.302 68.963 68.387 68.984 68.524 C 69.185 68.735 69.449 68.714 69.65 68.323 Z  M 68.119 69.348 C 68.414 69.274 68.731 69.305 68.773 69.316 C 68.816 69.326 68.816 69.4 68.763 69.411 C 68.15 69.485 68.119 69.77 67.728 69.77 C 67.474 69.77 67.189 69.506 67.295 69.126 C 67.305 69.073 67.348 69.073 67.358 69.126 C 67.4 69.295 67.643 69.474 68.119 69.348 Z  M 60.167 82.928 C 60.568 83.445 60.959 82.959 61.497 82.959 C 61.761 82.959 62.078 83.044 62.131 83.572 C 62.131 83.604 62.152 83.604 62.184 83.572 C 62.765 82.78 62.099 82.336 61.719 82.273 C 61.804 82.199 62.363 81.851 62.733 82.368 C 62.754 82.4 62.796 82.389 62.796 82.347 C 62.796 81.344 62.047 81.27 61.497 81.703 C 61.392 81.312 61.688 81.059 62.068 81.059 C 62.11 81.059 62.131 81.027 62.11 81.006 C 61.434 80.288 60.938 81.196 60.822 81.333 C 60.558 81.692 59.597 81.016 59.206 80.615 C 59.206 80.615 60.051 79.728 60.051 78.915 C 60.051 78.862 60.04 78.799 60.04 78.767 C 60.04 78.746 60.051 78.735 60.072 78.746 C 60.156 78.799 60.272 78.83 60.389 78.83 C 60.579 78.83 60.948 78.767 60.948 78.081 C 60.948 78.028 60.927 78.028 60.906 78.06 C 60.8 78.207 60.695 78.239 60.61 78.239 C 59.924 78.239 58.498 75.958 56.809 75.958 C 56.365 75.958 55.531 76.275 55.119 76.729 C 55.32 76.845 55.362 77.099 55.341 77.278 C 55.309 77.563 55.077 77.711 54.845 77.774 C 54.802 77.785 54.802 77.817 54.845 77.838 C 55.7 78.165 57.242 78.746 57.601 79.052 C 58.013 79.411 57.939 80.087 57.696 81.027 C 57.464 81.924 56.967 81.808 56.777 81.777 C 56.745 81.777 56.745 81.787 56.756 81.808 C 56.978 82.083 57.242 82.178 57.474 82.178 C 57.918 82.178 58.087 81.903 58.308 81.903 C 58.688 81.903 59.502 82.452 59.502 82.875 C 59.502 83.107 59.322 83.329 59.079 83.477 C 59.069 83.487 59.069 83.508 59.09 83.508 C 59.269 83.54 60.019 83.604 60.167 82.928 Z  M 78.784 83.508 C 78.805 83.508 78.816 83.487 78.795 83.477 C 78.562 83.318 78.372 83.107 78.372 82.875 C 78.372 82.452 79.175 81.903 79.566 81.903 C 79.798 81.903 79.956 82.178 80.4 82.178 C 80.632 82.178 80.896 82.083 81.118 81.808 C 81.139 81.787 81.128 81.766 81.097 81.777 C 80.917 81.808 80.41 81.924 80.178 81.027 C 79.935 80.087 79.851 79.411 80.273 79.052 C 80.622 78.746 82.174 78.165 83.029 77.838 C 83.072 77.817 83.072 77.785 83.029 77.774 C 82.797 77.711 82.565 77.563 82.533 77.278 C 82.512 77.099 82.554 76.856 82.755 76.729 C 82.332 76.275 81.498 75.958 81.055 75.958 C 79.365 75.958 77.939 78.239 77.253 78.239 C 77.168 78.239 77.052 78.207 76.957 78.06 C 76.936 78.028 76.915 78.028 76.915 78.081 C 76.915 78.767 77.285 78.83 77.475 78.83 C 77.58 78.83 77.707 78.799 77.792 78.746 C 77.813 78.735 77.823 78.746 77.823 78.767 C 77.823 78.799 77.813 78.862 77.813 78.915 C 77.813 79.728 78.657 80.615 78.657 80.615 C 78.277 81.016 77.316 81.682 77.042 81.333 C 76.926 81.185 76.429 80.288 75.753 81.006 C 75.732 81.037 75.743 81.059 75.796 81.059 C 76.176 81.059 76.472 81.312 76.366 81.703 C 75.817 81.27 75.067 81.344 75.067 82.347 C 75.067 82.389 75.109 82.4 75.13 82.368 C 75.489 81.851 76.06 82.199 76.134 82.273 C 75.753 82.326 75.099 82.78 75.669 83.572 C 75.69 83.604 75.711 83.604 75.722 83.572 C 75.785 83.054 76.102 82.959 76.355 82.959 C 76.883 82.959 77.274 83.445 77.686 82.928 C 77.855 83.604 78.605 83.54 78.784 83.508 Z  M 65.151 70.34 C 65.098 70.414 64.919 70.34 64.856 70.308 C 64.845 70.298 64.834 70.308 64.845 70.319 C 64.887 70.414 65.056 70.699 65.31 70.699 C 65.426 70.699 65.595 70.636 65.637 70.551 C 65.637 70.551 66.63 70.879 67.115 71.005 C 66.925 71.259 66.809 71.565 66.777 71.892 C 66.387 71.65 64.803 70.805 64.803 70.805 L 64.317 71.481 C 64.232 71.586 63.842 71.301 63.926 71.196 L 64.296 70.678 C 64.169 70.551 63.873 70.625 63.789 70.657 C 63.778 70.657 63.768 70.657 63.778 70.636 C 63.831 70.53 64.011 70.224 64.475 70.361 C 64.475 70.076 64.053 70.171 63.937 70.203 C 63.926 70.203 63.916 70.203 63.926 70.192 C 64.042 70.066 64.391 69.791 64.771 70.023 L 64.94 69.791 L 64.602 69.432 L 64.813 69.136 L 65.056 69.453 L 66.883 66.95 C 66.925 66.887 67.295 66.781 67.422 66.75 C 67.432 66.887 67.453 67.267 67.411 67.331 L 65.616 69.854 L 65.996 69.981 L 65.785 70.277 L 65.341 70.066 L 65.151 70.34 Z  M 71.561 69.928 C 71.561 70.161 71.698 70.499 72.005 70.393 C 72.015 70.382 72.036 70.393 72.026 70.404 C 71.984 70.657 71.519 70.889 71.318 70.594 C 71.128 70.984 71.181 71.354 71.572 71.565 C 71.593 71.576 71.593 71.607 71.572 71.628 C 71.329 71.797 70.959 71.766 70.79 71.428 C 70.463 71.671 70.505 72.199 70.706 72.378 C 70.706 72.378 69.798 72.917 68.974 72.537 C 68.425 72.273 67.981 71.935 67.274 71.998 C 67.369 71.005 67.865 70.752 68.773 70.604 C 69.502 70.488 69.586 70.15 69.491 69.897 C 69.248 69.833 68.794 70.055 68.794 70.055 C 68.71 69.918 68.826 69.78 68.826 69.78 C 68.784 69.728 68.763 69.548 68.763 69.548 C 69.27 69.548 69.365 69.432 69.365 69.432 C 69.46 68.904 68.921 68.851 68.509 69.136 C 68.319 68.967 68.351 68.746 68.351 68.746 C 68.298 68.714 68.256 68.629 68.256 68.587 C 68.256 68.46 68.858 68.123 69.016 68.08 C 69.058 67.901 69.27 67.658 69.914 67.721 C 69.988 67.552 69.861 66.929 69.787 66.771 C 69.766 66.718 69.798 66.697 69.85 66.729 C 70.072 66.866 70.294 67.394 70.452 67.404 C 70.452 67.404 71.17 67.024 71.202 67.045 C 71.234 67.067 71.339 67.869 71.339 67.869 C 71.434 67.985 71.994 67.869 72.237 67.975 C 72.3 68.006 72.3 68.049 72.237 68.059 C 72.057 68.091 71.477 68.344 71.382 68.503 C 71.72 68.999 71.561 69.728 71.561 69.928 Z " fill="rgb(255,255,255)"/></g><g><g><path d=" M 107.37 68.091 C 107.972 67.911 108.289 67.616 108.331 67.119 L 109.049 58.756 L 108.099 58.481 L 108.099 58.006 C 108.838 57.911 109.736 57.89 110.327 57.89 L 110.918 57.89 L 113.484 65.831 L 113.505 65.831 L 115.998 57.89 L 116.705 57.89 C 117.296 57.89 118.036 57.911 118.69 58.006 L 118.69 58.481 L 117.677 58.724 L 118.395 67.732 L 119.345 67.911 L 119.345 68.27 C 118.954 68.45 118.395 68.545 117.761 68.545 C 117.011 68.545 116.536 68.513 115.955 68.376 L 115.955 68.07 C 116.642 67.901 116.959 67.5 116.927 66.824 L 116.515 59.389 L 116.483 59.389 L 113.569 68.471 L 112.935 68.556 L 109.989 59.4 L 109.968 59.421 L 109.461 67.626 L 110.528 67.901 L 110.528 68.26 C 109.82 68.471 109.429 68.534 108.648 68.534 C 108.268 68.534 107.792 68.471 107.391 68.365 L 107.391 68.091 L 107.37 68.091 Z " fill="rgb(0,0,0)"/><path d=" M 120.507 68.112 C 120.95 67.954 121.373 67.626 121.373 67.225 L 121.373 61.692 L 120.327 61.248 L 120.327 60.9 C 121.066 60.688 121.816 60.593 122.281 60.593 L 122.809 60.593 L 122.724 61.48 L 122.724 67.7 L 123.643 67.943 L 123.643 68.249 C 123.083 68.45 122.576 68.524 121.742 68.524 C 121.362 68.524 120.887 68.492 120.517 68.376 L 120.517 68.112 L 120.507 68.112 Z  M 121.193 58.154 C 121.193 57.647 121.552 57.193 122.122 57.193 C 122.576 57.193 122.978 57.541 122.978 58.08 C 122.978 58.65 122.587 59.094 122.059 59.094 C 121.573 59.083 121.193 58.692 121.193 58.154 Z " fill="rgb(0,0,0)"/><path d=" M 124.91 68.112 C 125.333 67.954 125.776 67.626 125.776 67.225 L 125.776 61.692 L 124.72 61.248 L 124.72 60.889 C 125.47 60.678 126.209 60.593 126.684 60.593 L 127.075 60.593 L 127.075 61.48 C 127.635 60.921 128.543 60.562 129.493 60.562 C 130.856 60.562 131.785 61.428 131.785 63.117 L 131.785 67.7 L 132.64 67.943 L 132.64 68.249 C 132.197 68.429 131.626 68.524 130.919 68.524 C 130.57 68.524 130.18 68.492 129.852 68.376 L 129.852 68.112 C 130.264 67.932 130.444 67.626 130.444 67.035 L 130.444 63.909 C 130.444 62.304 129.768 61.702 128.807 61.702 C 128.131 61.702 127.487 61.934 127.117 62.209 L 127.117 67.711 L 128.036 67.943 L 128.036 68.249 C 127.476 68.45 126.959 68.524 126.135 68.524 C 125.744 68.524 125.28 68.492 124.91 68.376 L 124.91 68.112 Z " fill="rgb(0,0,0)"/><path d=" M 133.865 68.112 C 134.309 67.954 134.731 67.626 134.731 67.225 L 134.731 61.692 L 133.686 61.248 L 133.686 60.9 C 134.425 60.688 135.175 60.593 135.639 60.593 L 136.167 60.593 L 136.083 61.48 L 136.083 67.7 L 137.001 67.943 L 137.001 68.249 C 136.442 68.45 135.935 68.524 135.101 68.524 C 134.72 68.524 134.245 68.492 133.876 68.376 L 133.876 68.112 L 133.865 68.112 Z  M 134.552 58.154 C 134.552 57.647 134.911 57.193 135.481 57.193 C 135.935 57.193 136.336 57.541 136.336 58.08 C 136.336 58.65 135.945 59.094 135.417 59.094 C 134.932 59.083 134.552 58.692 134.552 58.154 Z " fill="rgb(0,0,0)"/><path d=" M 138.174 66.612 C 138.913 67.299 139.61 67.647 140.486 67.647 C 141.405 67.647 141.88 67.204 141.88 66.634 C 141.88 66.063 141.553 65.704 140.476 65.24 L 139.663 64.891 C 138.712 64.479 138.184 63.793 138.184 62.864 C 138.184 61.575 139.325 60.456 141.035 60.456 C 142.345 60.456 142.873 60.847 142.873 61.47 C 142.873 61.713 142.841 61.924 142.788 62.156 C 142.26 61.797 141.542 61.533 140.919 61.533 C 139.874 61.533 139.377 61.987 139.377 62.547 C 139.377 63.138 139.673 63.466 140.655 63.835 L 141.542 64.184 C 142.725 64.638 143.168 65.25 143.168 66.211 C 143.168 67.468 141.954 68.619 140.127 68.619 C 138.691 68.619 138.047 68.165 138.047 67.278 C 138.026 67.056 138.068 66.792 138.174 66.612 Z " fill="rgb(0,0,0)"/><path d=" M 144.974 63.92 L 145.027 61.744 L 144.129 61.744 L 144.129 61.206 L 145.893 59.453 L 146.432 59.389 L 146.368 60.868 L 148.533 60.868 L 148.417 61.755 L 146.326 61.755 L 146.294 63.814 C 146.273 64.5 146.273 65.124 146.273 65.725 C 146.273 67.056 146.664 67.51 147.276 67.51 C 147.752 67.51 148.163 67.341 148.491 67.088 L 148.66 67.151 C 148.596 68.112 148.026 68.608 146.896 68.608 C 145.587 68.608 144.953 67.922 144.953 66.327 C 144.932 65.535 144.964 64.669 144.974 63.92 Z " fill="rgb(0,0,0)"/><path d=" M 152.577 60.477 C 154.341 60.477 155.408 61.66 155.408 63.54 C 155.408 63.846 155.408 64.173 155.386 64.585 L 150.56 64.585 C 150.56 66.422 151.627 67.478 152.979 67.478 C 153.781 67.478 154.668 67.204 155.291 66.771 C 155.323 66.855 155.355 67.035 155.355 67.193 C 155.355 67.932 154.278 68.619 152.535 68.619 C 150.666 68.619 149.145 67.162 149.145 64.87 C 149.156 62.029 150.877 60.477 152.577 60.477 Z  M 154.098 63.74 C 154.098 62.135 153.412 61.364 152.44 61.364 C 151.543 61.364 150.592 62.441 150.592 63.74 L 154.098 63.74 Z " fill="rgb(0,0,0)"/><path d=" M 156.664 68.112 C 157.087 67.954 157.53 67.626 157.53 67.225 L 157.53 61.692 L 156.474 61.248 L 156.474 60.889 C 157.224 60.678 157.963 60.593 158.438 60.593 L 158.829 60.593 L 158.829 61.734 L 158.85 61.734 L 159.304 61.227 C 159.748 60.752 160.191 60.509 160.74 60.509 C 161.311 60.509 161.596 60.752 161.596 61.216 C 161.596 61.523 161.501 61.892 161.332 62.198 C 161.025 61.956 160.666 61.818 160.318 61.818 C 159.811 61.818 159.336 62.051 158.882 62.494 L 158.882 67.7 L 160.012 67.943 L 160.012 68.249 C 159.452 68.45 158.913 68.524 157.984 68.524 C 157.509 68.524 157.055 68.492 156.675 68.376 L 156.675 68.112 L 156.664 68.112 Z " fill="rgb(0,0,0)"/><path d=" M 162.113 68.112 C 162.557 67.954 162.979 67.626 162.979 67.225 L 162.979 61.692 L 161.934 61.248 L 161.934 60.9 C 162.673 60.688 163.423 60.593 163.887 60.593 L 164.415 60.593 L 164.331 61.48 L 164.331 67.7 L 165.249 67.943 L 165.249 68.249 C 164.69 68.45 164.183 68.524 163.349 68.524 C 162.968 68.524 162.493 68.492 162.124 68.376 L 162.124 68.112 L 162.113 68.112 Z  M 162.8 58.154 C 162.8 57.647 163.159 57.193 163.729 57.193 C 164.183 57.193 164.584 57.541 164.584 58.08 C 164.584 58.65 164.193 59.094 163.665 59.094 C 163.18 59.083 162.8 58.692 162.8 58.154 Z " fill="rgb(0,0,0)"/><path d=" M 169.389 60.477 C 171.152 60.477 172.219 61.66 172.219 63.54 C 172.219 63.846 172.219 64.173 172.198 64.585 L 167.372 64.585 C 167.372 66.422 168.439 67.478 169.79 67.478 C 170.593 67.478 171.48 67.204 172.103 66.771 C 172.135 66.855 172.166 67.035 172.166 67.193 C 172.166 67.932 171.089 68.619 169.347 68.619 C 167.478 68.619 165.957 67.162 165.957 64.87 C 165.968 62.029 167.678 60.477 169.389 60.477 Z  M 170.91 63.74 C 170.91 62.135 170.223 61.364 169.252 61.364 C 168.354 61.364 167.404 62.441 167.404 63.74 L 170.91 63.74 Z " fill="rgb(0,0,0)"/><path d=" M 176.211 61.459 L 175.535 60.984 L 175.535 60.593 L 178.661 60.593 L 178.661 60.984 L 177.731 61.375 L 179.495 66.56 L 179.516 66.56 L 181.332 61.417 L 180.403 60.973 L 180.403 60.583 L 182.927 60.583 L 182.927 60.973 L 182.473 61.354 L 179.558 68.577 L 178.999 68.608 L 176.211 61.459 Z " fill="rgb(0,0,0)"/><path d=" M 187.711 64.141 L 187.711 63.698 C 187.711 61.934 187.288 61.554 186.253 61.554 C 185.356 61.554 184.49 61.934 183.793 62.621 C 183.761 62.462 183.74 62.315 183.74 62.124 C 183.74 61.079 184.511 60.467 186.422 60.467 C 188.08 60.467 189.062 61.301 189.062 62.663 C 189.062 63.022 189.009 63.846 188.999 64.321 L 188.946 66.972 C 189.062 67.267 189.305 67.573 189.601 67.806 C 189.358 68.101 188.914 68.429 188.492 68.64 C 188.186 68.439 187.932 68.186 187.742 67.837 C 187.288 68.281 186.401 68.619 185.535 68.619 C 184.31 68.619 183.455 67.848 183.455 66.803 C 183.455 65.377 185.028 64.141 187.711 64.141 Z  M 186.148 67.647 C 186.655 67.647 187.309 67.447 187.721 67.204 L 187.721 64.912 C 185.873 64.912 184.87 65.683 184.87 66.57 C 184.87 67.225 185.313 67.647 186.148 67.647 Z " fill="rgb(0,0,0)"/><path d=" M 190.889 68.112 C 191.312 67.954 191.755 67.626 191.755 67.225 L 191.755 61.692 L 190.699 61.248 L 190.699 60.889 C 191.449 60.678 192.188 60.593 192.663 60.593 L 193.054 60.593 L 193.054 61.48 C 193.614 60.921 194.522 60.562 195.472 60.562 C 196.834 60.562 197.764 61.428 197.764 63.117 L 197.764 67.7 L 198.619 67.943 L 198.619 68.249 C 198.176 68.429 197.605 68.524 196.898 68.524 C 196.549 68.524 196.159 68.492 195.831 68.376 L 195.831 68.112 C 196.243 67.932 196.423 67.626 196.423 67.035 L 196.423 63.909 C 196.423 62.304 195.747 61.702 194.786 61.702 C 194.12 61.702 193.455 61.934 193.096 62.209 L 193.096 67.711 L 194.015 67.954 L 194.015 68.26 C 193.455 68.46 192.938 68.534 192.114 68.534 C 191.723 68.534 191.259 68.503 190.889 68.387 L 190.889 68.112 Z " fill="rgb(0,0,0)"/><path d=" M 203.023 68.07 C 203.614 67.89 203.973 67.573 203.973 66.824 L 203.973 58.798 L 202.938 58.45 L 202.938 58.091 C 204.005 57.911 204.923 57.858 206.264 57.858 C 209.707 57.858 211.977 59.611 211.977 62.758 C 211.977 66.359 209.232 68.534 206.022 68.534 C 204.733 68.534 204.057 68.513 203.023 68.365 L 203.023 68.07 L 203.023 68.07 Z  M 206.18 67.584 C 208.493 67.584 210.383 65.968 210.383 63.054 C 210.383 60.34 208.567 58.83 206.222 58.83 C 205.958 58.83 205.663 58.851 205.367 58.883 L 205.367 67.531 C 205.673 67.552 205.905 67.584 206.18 67.584 Z " fill="rgb(0,0,0)"/><path d=" M 216.666 60.477 C 218.43 60.477 219.496 61.66 219.496 63.54 C 219.496 63.846 219.496 64.173 219.486 64.585 L 214.66 64.585 C 214.66 66.422 215.726 67.478 217.078 67.478 C 217.88 67.478 218.768 67.204 219.391 66.771 C 219.422 66.855 219.454 67.035 219.454 67.193 C 219.454 67.932 218.377 68.619 216.634 68.619 C 214.765 68.619 213.245 67.162 213.245 64.87 C 213.245 62.029 214.966 60.477 216.666 60.477 Z  M 218.197 63.74 C 218.197 62.135 217.511 61.364 216.539 61.364 C 215.642 61.364 214.691 62.441 214.691 63.74 L 218.197 63.74 Z " fill="rgb(0,0,0)"/><path d=" M 220.742 68.112 C 221.165 67.954 221.608 67.626 221.608 67.225 L 221.608 61.755 L 220.711 61.755 L 220.711 61.185 L 221.608 60.826 L 221.608 59.611 C 221.587 57.879 222.738 56.633 224.755 56.633 C 225.917 56.633 226.371 56.94 226.371 57.415 C 226.371 57.563 226.339 57.795 226.286 57.953 C 225.684 57.742 224.766 57.605 224.111 57.605 C 223.446 57.605 222.896 58.228 222.896 59.389 C 222.896 59.632 222.928 60.498 222.96 60.868 L 225.051 60.868 L 224.871 61.755 L 222.939 61.755 L 222.939 67.7 L 223.974 67.943 L 223.974 68.249 C 223.414 68.45 222.865 68.524 221.957 68.524 C 221.566 68.524 221.101 68.492 220.732 68.376 L 220.732 68.112 L 220.742 68.112 Z " fill="rgb(0,0,0)"/><path d=" M 228.884 60.477 C 230.648 60.477 231.714 61.66 231.714 63.54 C 231.714 63.846 231.714 64.173 231.693 64.585 L 226.867 64.585 C 226.867 66.422 227.934 67.478 229.285 67.478 C 230.088 67.478 230.975 67.204 231.598 66.771 C 231.63 66.855 231.661 67.035 231.661 67.193 C 231.661 67.932 230.584 68.619 228.842 68.619 C 226.973 68.619 225.452 67.162 225.452 64.87 C 225.463 62.029 227.173 60.477 228.884 60.477 Z  M 230.405 63.74 C 230.405 62.135 229.718 61.364 228.747 61.364 C 227.849 61.364 226.899 62.441 226.899 63.74 L 230.405 63.74 Z " fill="rgb(0,0,0)"/><path d=" M 232.971 68.112 C 233.393 67.954 233.837 67.626 233.837 67.225 L 233.837 61.692 L 232.781 61.248 L 232.781 60.889 C 233.53 60.678 234.27 60.593 234.745 60.593 L 235.136 60.593 L 235.136 61.48 C 235.695 60.921 236.603 60.562 237.554 60.562 C 238.916 60.562 239.845 61.428 239.845 63.117 L 239.845 67.7 L 240.701 67.943 L 240.701 68.249 C 240.257 68.429 239.687 68.524 238.979 68.524 C 238.631 68.524 238.24 68.492 237.913 68.376 L 237.913 68.112 C 238.325 67.932 238.504 67.626 238.504 67.035 L 238.504 63.909 C 238.504 62.304 237.828 61.702 236.867 61.702 C 236.202 61.702 235.537 61.934 235.178 62.209 L 235.178 67.711 L 236.096 67.954 L 236.096 68.26 C 235.537 68.46 235.019 68.534 234.196 68.534 C 233.805 68.534 233.34 68.503 232.971 68.387 L 232.971 68.112 Z " fill="rgb(0,0,0)"/><path d=" M 241.831 66.612 C 242.57 67.299 243.267 67.647 244.143 67.647 C 245.062 67.647 245.537 67.204 245.537 66.634 C 245.537 66.063 245.21 65.704 244.133 65.24 L 243.32 64.891 C 242.369 64.479 241.841 63.793 241.841 62.864 C 241.841 61.575 242.982 60.456 244.692 60.456 C 246.002 60.456 246.53 60.847 246.53 61.47 C 246.53 61.713 246.498 61.924 246.445 62.156 C 245.917 61.797 245.199 61.533 244.576 61.533 C 243.531 61.533 243.034 61.987 243.034 62.547 C 243.034 63.138 243.33 63.466 244.312 63.835 L 245.199 64.184 C 246.382 64.638 246.825 65.25 246.825 66.211 C 246.825 67.468 245.611 68.619 243.784 68.619 C 242.348 68.619 241.704 68.165 241.704 67.278 C 241.683 67.056 241.725 66.792 241.831 66.612 Z " fill="rgb(0,0,0)"/><path d=" M 247.934 68.112 C 248.378 67.954 248.8 67.626 248.8 67.225 L 248.8 61.692 L 247.755 61.248 L 247.755 60.9 C 248.494 60.688 249.244 60.593 249.698 60.593 L 250.226 60.593 L 250.141 61.48 L 250.141 67.7 L 251.06 67.943 L 251.06 68.249 C 250.5 68.45 249.993 68.524 249.159 68.524 C 248.779 68.524 248.304 68.492 247.934 68.376 L 247.934 68.112 Z  M 248.621 58.154 C 248.621 57.647 248.98 57.193 249.55 57.193 C 250.004 57.193 250.405 57.541 250.405 58.08 C 250.405 58.65 250.015 59.094 249.487 59.094 C 248.99 59.083 248.621 58.692 248.621 58.154 Z " fill="rgb(0,0,0)"/><path d=" M 255.611 60.477 C 257.375 60.477 258.441 61.66 258.441 63.54 C 258.441 63.846 258.441 64.173 258.42 64.585 L 253.594 64.585 C 253.594 66.422 254.661 67.478 256.013 67.478 C 256.815 67.478 257.702 67.204 258.325 66.771 C 258.357 66.855 258.389 67.035 258.389 67.193 C 258.389 67.932 257.312 68.619 255.569 68.619 C 253.7 68.619 252.179 67.162 252.179 64.87 C 252.19 62.029 253.911 60.477 255.611 60.477 Z  M 257.132 63.74 C 257.132 62.135 256.446 61.364 255.474 61.364 C 254.576 61.364 253.626 62.441 253.626 63.74 L 257.132 63.74 Z " fill="rgb(0,0,0)"/></g><g><rect x="42.5" y="0" width="331.584" height="132" transform="matrix(1,0,0,1,0,0)" fill="none"/></g></g></g><path d=" M 60.836 397.382 L 71.348 429.35 L 64.244 429.35 L 62.228 423.014 L 52.388 423.014 L 50.468 429.35 L 43.364 429.35 L 53.828 397.382 L 60.836 397.382 L 60.836 397.382 Z  M 57.332 406.214 L 54.452 416.87 L 60.212 416.87 L 57.332 406.214 L 57.332 406.214 Z  M 94.868 411.11 L 94.868 424.838 L 94.868 424.838 Q 94.868 427.046 93.572 428.438 L 93.572 428.438 L 93.572 428.438 Q 92.276 429.83 89.876 429.83 L 89.876 429.83 L 89.876 429.83 Q 89.204 429.83 88.172 429.614 L 88.172 429.614 L 88.172 429.614 Q 87.14 429.398 86.012 429.086 L 86.012 429.086 L 86.012 429.086 Q 84.884 428.774 83.804 428.414 L 83.804 428.414 L 83.804 428.414 Q 82.724 428.054 81.956 427.766 L 81.956 427.766 L 81.956 438.47 L 75.332 439.622 L 75.332 406.598 L 81.716 406.598 L 81.716 408.278 L 81.716 408.278 Q 82.484 407.99 83.588 407.606 L 83.588 407.606 L 83.588 407.606 Q 84.692 407.222 85.868 406.886 L 85.868 406.886 L 85.868 406.886 Q 87.044 406.55 88.124 406.334 L 88.124 406.334 L 88.124 406.334 Q 89.204 406.118 89.876 406.118 L 89.876 406.118 L 89.876 406.118 Q 92.276 406.118 93.572 407.51 L 93.572 407.51 L 93.572 407.51 Q 94.868 408.902 94.868 411.11 L 94.868 411.11 L 94.868 411.11 Z  M 81.956 414.47 L 81.956 421.478 L 81.956 421.478 Q 81.956 421.958 82.436 422.102 L 82.436 422.102 L 82.436 422.102 Q 82.676 422.198 83.468 422.462 L 83.468 422.462 L 83.468 422.462 Q 84.26 422.726 85.148 422.99 L 85.148 422.99 L 85.148 422.99 Q 86.036 423.254 86.804 423.47 L 86.804 423.47 L 86.804 423.47 Q 87.572 423.686 87.764 423.686 L 87.764 423.686 L 87.764 423.686 Q 88.244 423.686 88.244 423.206 L 88.244 423.206 L 88.244 412.742 L 88.244 412.742 Q 88.244 412.262 87.764 412.262 L 87.764 412.262 L 87.764 412.262 Q 87.572 412.262 86.804 412.478 L 86.804 412.478 L 86.804 412.478 Q 86.036 412.694 85.148 412.958 L 85.148 412.958 L 85.148 412.958 Q 84.26 413.222 83.468 413.486 L 83.468 413.486 L 83.468 413.486 Q 82.676 413.75 82.436 413.846 L 82.436 413.846 L 82.436 413.846 Q 81.956 413.99 81.956 414.47 L 81.956 414.47 L 81.956 414.47 Z  M 120.164 411.11 L 120.164 424.838 L 120.164 424.838 Q 120.164 427.046 118.868 428.438 L 118.868 428.438 L 118.868 428.438 Q 117.572 429.83 115.172 429.83 L 115.172 429.83 L 115.172 429.83 Q 114.5 429.83 113.468 429.614 L 113.468 429.614 L 113.468 429.614 Q 112.436 429.398 111.308 429.086 L 111.308 429.086 L 111.308 429.086 Q 110.18 428.774 109.1 428.414 L 109.1 428.414 L 109.1 428.414 Q 108.02 428.054 107.252 427.766 L 107.252 427.766 L 107.252 438.47 L 100.628 439.622 L 100.628 406.598 L 107.012 406.598 L 107.012 408.278 L 107.012 408.278 Q 107.78 407.99 108.884 407.606 L 108.884 407.606 L 108.884 407.606 Q 109.988 407.222 111.164 406.886 L 111.164 406.886 L 111.164 406.886 Q 112.34 406.55 113.42 406.334 L 113.42 406.334 L 113.42 406.334 Q 114.5 406.118 115.172 406.118 L 115.172 406.118 L 115.172 406.118 Q 117.572 406.118 118.868 407.51 L 118.868 407.51 L 118.868 407.51 Q 120.164 408.902 120.164 411.11 L 120.164 411.11 L 120.164 411.11 Z  M 107.252 414.47 L 107.252 421.478 L 107.252 421.478 Q 107.252 421.958 107.732 422.102 L 107.732 422.102 L 107.732 422.102 Q 107.972 422.198 108.764 422.462 L 108.764 422.462 L 108.764 422.462 Q 109.556 422.726 110.444 422.99 L 110.444 422.99 L 110.444 422.99 Q 111.332 423.254 112.1 423.47 L 112.1 423.47 L 112.1 423.47 Q 112.868 423.686 113.06 423.686 L 113.06 423.686 L 113.06 423.686 Q 113.54 423.686 113.54 423.206 L 113.54 423.206 L 113.54 412.742 L 113.54 412.742 Q 113.54 412.262 113.06 412.262 L 113.06 412.262 L 113.06 412.262 Q 112.868 412.262 112.1 412.478 L 112.1 412.478 L 112.1 412.478 Q 111.332 412.694 110.444 412.958 L 110.444 412.958 L 110.444 412.958 Q 109.556 413.222 108.764 413.486 L 108.764 413.486 L 108.764 413.486 Q 107.972 413.75 107.732 413.846 L 107.732 413.846 L 107.732 413.846 Q 107.252 413.99 107.252 414.47 L 107.252 414.47 L 107.252 414.47 Z  M 125.924 429.35 L 125.924 397.382 L 132.548 396.23 L 132.548 429.35 L 125.924 429.35 L 125.924 429.35 Z  M 138.788 429.35 L 138.788 406.598 L 145.412 406.598 L 145.412 429.35 L 138.788 429.35 L 138.788 429.35 Z  M 138.788 403.766 L 138.788 396.614 L 145.412 396.614 L 145.412 403.766 L 138.788 403.766 L 138.788 403.766 Z  M 163.652 420.278 L 170.132 421.43 L 170.132 424.358 L 170.132 424.358 Q 170.132 425.366 169.748 426.278 L 169.748 426.278 L 169.748 426.278 Q 169.364 427.19 168.668 427.886 L 168.668 427.886 L 168.668 427.886 Q 167.972 428.582 167.06 428.966 L 167.06 428.966 L 167.06 428.966 Q 166.148 429.35 165.14 429.35 L 165.14 429.35 L 156.164 429.35 L 156.164 429.35 Q 155.156 429.35 154.244 428.966 L 154.244 428.966 L 154.244 428.966 Q 153.332 428.582 152.636 427.886 L 152.636 427.886 L 152.636 427.886 Q 151.94 427.19 151.556 426.278 L 151.556 426.278 L 151.556 426.278 Q 151.172 425.366 151.172 424.358 L 151.172 424.358 L 151.172 411.59 L 151.172 411.59 Q 151.172 410.582 151.556 409.67 L 151.556 409.67 L 151.556 409.67 Q 151.94 408.758 152.636 408.062 L 152.636 408.062 L 152.636 408.062 Q 153.332 407.366 154.244 406.982 L 154.244 406.982 L 154.244 406.982 Q 155.156 406.598 156.164 406.598 L 156.164 406.598 L 165.14 406.598 L 165.14 406.598 Q 166.148 406.598 167.06 406.982 L 167.06 406.982 L 167.06 406.982 Q 167.972 407.366 168.668 408.062 L 168.668 408.062 L 168.668 408.062 Q 169.364 408.758 169.748 409.67 L 169.748 409.67 L 169.748 409.67 Q 170.132 410.582 170.132 411.59 L 170.132 411.59 L 170.132 414.134 L 163.652 415.334 L 163.652 413.126 L 163.652 413.126 Q 163.652 412.646 163.172 412.646 L 163.172 412.646 L 158.276 412.646 L 158.276 412.646 Q 157.796 412.646 157.796 413.126 L 157.796 413.126 L 157.796 422.822 L 157.796 422.822 Q 157.796 423.302 158.276 423.302 L 158.276 423.302 L 163.172 423.302 L 163.172 423.302 Q 163.652 423.302 163.652 422.822 L 163.652 422.822 L 163.652 420.278 L 163.652 420.278 Z  M 174.788 424.838 L 174.788 421.238 L 174.788 421.238 Q 174.788 419.03 176.084 417.638 L 176.084 417.638 L 176.084 417.638 Q 177.38 416.246 179.78 416.246 L 179.78 416.246 L 179.78 416.246 Q 181.124 416.246 183.188 416.462 L 183.188 416.462 L 183.188 416.462 Q 185.252 416.678 187.22 417.062 L 187.22 417.062 L 187.22 412.886 L 187.22 412.886 Q 187.22 412.406 186.74 412.406 L 186.74 412.406 L 181.796 412.406 L 181.796 412.406 Q 181.316 412.406 181.316 412.886 L 181.316 412.886 L 181.316 414.374 L 175.076 413.318 L 175.076 411.59 L 175.076 411.59 Q 175.076 410.582 175.46 409.67 L 175.46 409.67 L 175.46 409.67 Q 175.844 408.758 176.54 408.062 L 176.54 408.062 L 176.54 408.062 Q 177.236 407.366 178.148 406.982 L 178.148 406.982 L 178.148 406.982 Q 179.06 406.598 180.068 406.598 L 180.068 406.598 L 188.852 406.598 L 188.852 406.598 Q 189.86 406.598 190.772 406.982 L 190.772 406.982 L 190.772 406.982 Q 191.684 407.366 192.38 408.062 L 192.38 408.062 L 192.38 408.062 Q 193.076 408.758 193.46 409.67 L 193.46 409.67 L 193.46 409.67 Q 193.844 410.582 193.844 411.59 L 193.844 411.59 L 193.844 429.35 L 187.46 429.35 L 187.46 428.246 L 187.46 428.246 Q 186.692 428.534 185.66 428.822 L 185.66 428.822 L 185.66 428.822 Q 184.628 429.11 183.548 429.326 L 183.548 429.326 L 183.548 429.326 Q 182.468 429.542 181.46 429.686 L 181.46 429.686 L 181.46 429.686 Q 180.452 429.83 179.78 429.83 L 179.78 429.83 L 179.78 429.83 Q 177.38 429.83 176.084 428.438 L 176.084 428.438 L 176.084 428.438 Q 174.788 427.046 174.788 424.838 L 174.788 424.838 L 174.788 424.838 Z  M 187.22 423.206 L 187.22 421.91 L 187.22 421.91 Q 187.22 421.382 186.74 421.286 L 186.74 421.286 L 186.74 421.286 Q 186.068 421.238 185.3 421.166 L 185.3 421.166 L 185.3 421.166 Q 184.532 421.094 183.812 421.046 L 183.812 421.046 L 183.812 421.046 Q 183.092 420.998 182.516 420.974 L 182.516 420.974 L 182.516 420.974 Q 181.94 420.95 181.748 420.95 L 181.748 420.95 L 181.748 420.95 Q 181.268 420.95 181.268 421.43 L 181.268 421.43 L 181.268 424.358 L 181.268 424.358 Q 181.268 424.838 181.748 424.838 L 181.748 424.838 L 181.748 424.838 Q 181.94 424.838 182.66 424.718 L 182.66 424.718 L 182.66 424.718 Q 183.38 424.598 184.196 424.43 L 184.196 424.43 L 184.196 424.43 Q 185.012 424.262 185.756 424.094 L 185.756 424.094 L 185.756 424.094 Q 186.5 423.926 186.74 423.83 L 186.74 423.83 L 186.74 423.83 Q 187.22 423.686 187.22 423.206 L 187.22 423.206 L 187.22 423.206 Z  M 197.204 412.262 L 197.204 406.598 L 200.564 406.598 L 200.564 401.51 L 207.188 400.358 L 207.188 406.598 L 212.564 406.598 L 211.46 412.262 L 207.188 412.262 L 207.188 423.11 L 207.188 423.11 Q 207.188 423.59 207.668 423.59 L 207.668 423.59 L 211.7 423.59 L 211.7 429.35 L 205.556 429.35 L 205.556 429.35 Q 204.548 429.35 203.636 428.966 L 203.636 428.966 L 203.636 428.966 Q 202.724 428.582 202.028 427.886 L 202.028 427.886 L 202.028 427.886 Q 201.332 427.19 200.948 426.278 L 200.948 426.278 L 200.948 426.278 Q 200.564 425.366 200.564 424.358 L 200.564 424.358 L 200.564 412.262 L 197.204 412.262 L 197.204 412.262 Z  M 216.644 429.35 L 216.644 406.598 L 223.268 406.598 L 223.268 429.35 L 216.644 429.35 L 216.644 429.35 Z  M 216.644 403.766 L 216.644 396.614 L 223.268 396.614 L 223.268 403.766 L 216.644 403.766 L 216.644 403.766 Z  M 248.996 411.59 L 248.996 424.358 L 248.996 424.358 Q 248.996 425.366 248.612 426.278 L 248.612 426.278 L 248.612 426.278 Q 248.228 427.19 247.532 427.886 L 247.532 427.886 L 247.532 427.886 Q 246.836 428.582 245.924 428.966 L 245.924 428.966 L 245.924 428.966 Q 245.012 429.35 244.004 429.35 L 244.004 429.35 L 234.02 429.35 L 234.02 429.35 Q 233.012 429.35 232.1 428.966 L 232.1 428.966 L 232.1 428.966 Q 231.188 428.582 230.492 427.886 L 230.492 427.886 L 230.492 427.886 Q 229.796 427.19 229.412 426.278 L 229.412 426.278 L 229.412 426.278 Q 229.028 425.366 229.028 424.358 L 229.028 424.358 L 229.028 411.59 L 229.028 411.59 Q 229.028 410.582 229.412 409.67 L 229.412 409.67 L 229.412 409.67 Q 229.796 408.758 230.492 408.062 L 230.492 408.062 L 230.492 408.062 Q 231.188 407.366 232.1 406.982 L 232.1 406.982 L 232.1 406.982 Q 233.012 406.598 234.02 406.598 L 234.02 406.598 L 244.004 406.598 L 244.004 406.598 Q 245.012 406.598 245.924 406.982 L 245.924 406.982 L 245.924 406.982 Q 246.836 407.366 247.532 408.062 L 247.532 408.062 L 247.532 408.062 Q 248.228 408.758 248.612 409.67 L 248.612 409.67 L 248.612 409.67 Q 248.996 410.582 248.996 411.59 L 248.996 411.59 L 248.996 411.59 Z  M 242.372 422.822 L 242.372 413.126 L 242.372 413.126 Q 242.372 412.646 241.892 412.646 L 241.892 412.646 L 236.132 412.646 L 236.132 412.646 Q 235.652 412.646 235.652 413.126 L 235.652 413.126 L 235.652 422.822 L 235.652 422.822 Q 235.652 423.302 236.132 423.302 L 236.132 423.302 L 241.892 423.302 L 241.892 423.302 Q 242.372 423.302 242.372 422.822 L 242.372 422.822 L 242.372 422.822 Z  M 261.38 429.35 L 254.756 429.35 L 254.756 406.598 L 261.14 406.598 L 261.14 408.278 L 261.14 408.278 Q 261.908 407.99 262.988 407.606 L 262.988 407.606 L 262.988 407.606 Q 264.068 407.222 265.22 406.886 L 265.22 406.886 L 265.22 406.886 Q 266.372 406.55 267.452 406.334 L 267.452 406.334 L 267.452 406.334 Q 268.532 406.118 269.204 406.118 L 269.204 406.118 L 269.204 406.118 Q 271.604 406.118 272.9 407.51 L 272.9 407.51 L 272.9 407.51 Q 274.196 408.902 274.196 411.11 L 274.196 411.11 L 274.196 429.35 L 267.572 429.35 L 267.572 413.318 L 267.572 413.318 Q 267.572 412.838 267.092 412.838 L 267.092 412.838 L 267.092 412.838 Q 266.9 412.838 266.156 413.054 L 266.156 413.054 L 266.156 413.054 Q 265.412 413.27 264.548 413.534 L 264.548 413.534 L 264.548 413.534 Q 263.684 413.798 262.892 414.062 L 262.892 414.062 L 262.892 414.062 Q 262.1 414.326 261.86 414.422 L 261.86 414.422 L 261.86 414.422 Q 261.38 414.566 261.38 415.046 L 261.38 415.046 L 261.38 429.35 L 261.38 429.35 Z  M 45.86 371.75 L 45.86 339.782 L 52.82 339.782 L 52.82 365.414 L 65.54 365.414 L 65.54 371.75 L 45.86 371.75 L 45.86 371.75 Z  M 69.62 367.238 L 69.62 363.638 L 69.62 363.638 Q 69.62 361.43 70.916 360.038 L 70.916 360.038 L 70.916 360.038 Q 72.212 358.646 74.612 358.646 L 74.612 358.646 L 74.612 358.646 Q 75.956 358.646 78.02 358.862 L 78.02 358.862 L 78.02 358.862 Q 80.084 359.078 82.052 359.462 L 82.052 359.462 L 82.052 355.286 L 82.052 355.286 Q 82.052 354.806 81.572 354.806 L 81.572 354.806 L 76.628 354.806 L 76.628 354.806 Q 76.148 354.806 76.148 355.286 L 76.148 355.286 L 76.148 356.774 L 69.908 355.718 L 69.908 353.99 L 69.908 353.99 Q 69.908 352.982 70.292 352.07 L 70.292 352.07 L 70.292 352.07 Q 70.676 351.158 71.372 350.462 L 71.372 350.462 L 71.372 350.462 Q 72.068 349.766 72.98 349.382 L 72.98 349.382 L 72.98 349.382 Q 73.892 348.998 74.9 348.998 L 74.9 348.998 L 83.684 348.998 L 83.684 348.998 Q 84.692 348.998 85.604 349.382 L 85.604 349.382 L 85.604 349.382 Q 86.516 349.766 87.212 350.462 L 87.212 350.462 L 87.212 350.462 Q 87.908 351.158 88.292 352.07 L 88.292 352.07 L 88.292 352.07 Q 88.676 352.982 88.676 353.99 L 88.676 353.99 L 88.676 371.75 L 82.292 371.75 L 82.292 370.646 L 82.292 370.646 Q 81.524 370.934 80.492 371.222 L 80.492 371.222 L 80.492 371.222 Q 79.46 371.51 78.38 371.726 L 78.38 371.726 L 78.38 371.726 Q 77.3 371.942 76.292 372.086 L 76.292 372.086 L 76.292 372.086 Q 75.284 372.23 74.612 372.23 L 74.612 372.23 L 74.612 372.23 Q 72.212 372.23 70.916 370.838 L 70.916 370.838 L 70.916 370.838 Q 69.62 369.446 69.62 367.238 L 69.62 367.238 L 69.62 367.238 Z  M 82.052 365.606 L 82.052 364.31 L 82.052 364.31 Q 82.052 363.782 81.572 363.686 L 81.572 363.686 L 81.572 363.686 Q 80.9 363.638 80.132 363.566 L 80.132 363.566 L 80.132 363.566 Q 79.364 363.494 78.644 363.446 L 78.644 363.446 L 78.644 363.446 Q 77.924 363.398 77.348 363.374 L 77.348 363.374 L 77.348 363.374 Q 76.772 363.35 76.58 363.35 L 76.58 363.35 L 76.58 363.35 Q 76.1 363.35 76.1 363.83 L 76.1 363.83 L 76.1 366.758 L 76.1 366.758 Q 76.1 367.238 76.58 367.238 L 76.58 367.238 L 76.58 367.238 Q 76.772 367.238 77.492 367.118 L 77.492 367.118 L 77.492 367.118 Q 78.212 366.998 79.028 366.83 L 79.028 366.83 L 79.028 366.83 Q 79.844 366.662 80.588 366.494 L 80.588 366.494 L 80.588 366.494 Q 81.332 366.326 81.572 366.23 L 81.572 366.23 L 81.572 366.23 Q 82.052 366.086 82.052 365.606 L 82.052 365.606 L 82.052 365.606 Z  M 101.3 371.75 L 94.676 371.75 L 94.676 348.998 L 101.06 348.998 L 101.06 350.678 L 101.06 350.678 Q 101.828 350.39 102.908 350.006 L 102.908 350.006 L 102.908 350.006 Q 103.988 349.622 105.14 349.286 L 105.14 349.286 L 105.14 349.286 Q 106.292 348.95 107.372 348.734 L 107.372 348.734 L 107.372 348.734 Q 108.452 348.518 109.124 348.518 L 109.124 348.518 L 109.124 348.518 Q 111.524 348.518 112.82 349.91 L 112.82 349.91 L 112.82 349.91 Q 114.116 351.302 114.116 353.51 L 114.116 353.51 L 114.116 371.75 L 107.492 371.75 L 107.492 355.718 L 107.492 355.718 Q 107.492 355.238 107.012 355.238 L 107.012 355.238 L 107.012 355.238 Q 106.82 355.238 106.076 355.454 L 106.076 355.454 L 106.076 355.454 Q 105.332 355.67 104.468 355.934 L 104.468 355.934 L 104.468 355.934 Q 103.604 356.198 102.812 356.462 L 102.812 356.462 L 102.812 356.462 Q 102.02 356.726 101.78 356.822 L 101.78 356.822 L 101.78 356.822 Q 101.3 356.966 101.3 357.446 L 101.3 357.446 L 101.3 371.75 L 101.3 371.75 Z  M 121.892 380.87 L 121.892 375.446 L 132.068 375.446 L 132.068 375.446 Q 132.452 375.446 132.548 375.062 L 132.548 375.062 L 132.548 369.206 L 132.548 369.206 Q 131.78 369.494 130.7 369.854 L 130.7 369.854 L 130.7 369.854 Q 129.62 370.214 128.492 370.526 L 128.492 370.526 L 128.492 370.526 Q 127.364 370.838 126.332 371.054 L 126.332 371.054 L 126.332 371.054 Q 125.3 371.27 124.628 371.27 L 124.628 371.27 L 124.628 371.27 Q 122.228 371.27 120.932 369.878 L 120.932 369.878 L 120.932 369.878 Q 119.636 368.486 119.636 366.278 L 119.636 366.278 L 119.636 353.51 L 119.636 353.51 Q 119.636 351.302 120.932 349.91 L 120.932 349.91 L 120.932 349.91 Q 122.228 348.518 124.628 348.518 L 124.628 348.518 L 124.628 348.518 Q 125.3 348.518 126.38 348.734 L 126.38 348.734 L 126.38 348.734 Q 127.46 348.95 128.636 349.286 L 128.636 349.286 L 128.636 349.286 Q 129.812 349.622 130.916 350.006 L 130.916 350.006 L 130.916 350.006 Q 132.02 350.39 132.788 350.678 L 132.788 350.678 L 132.788 348.998 L 139.172 348.998 L 139.172 375.878 L 139.172 375.878 Q 139.172 376.886 138.788 377.798 L 138.788 377.798 L 138.788 377.798 Q 138.404 378.71 137.708 379.406 L 137.708 379.406 L 137.708 379.406 Q 137.012 380.102 136.1 380.486 L 136.1 380.486 L 136.1 380.486 Q 135.188 380.87 134.18 380.87 L 134.18 380.87 L 121.892 380.87 L 121.892 380.87 Z  M 132.548 362.918 L 132.548 356.87 L 132.548 356.87 Q 132.548 356.39 132.068 356.246 L 132.068 356.246 L 132.068 356.246 Q 131.828 356.15 131.012 355.886 L 131.012 355.886 L 131.012 355.886 Q 130.196 355.622 129.308 355.358 L 129.308 355.358 L 129.308 355.358 Q 128.42 355.094 127.628 354.878 L 127.628 354.878 L 127.628 354.878 Q 126.836 354.662 126.644 354.662 L 126.644 354.662 L 126.644 354.662 Q 126.164 354.662 126.164 355.142 L 126.164 355.142 L 126.164 364.646 L 126.164 364.646 Q 126.164 365.126 126.644 365.126 L 126.644 365.126 L 126.644 365.126 Q 126.836 365.126 127.628 364.91 L 127.628 364.91 L 127.628 364.91 Q 128.42 364.694 129.308 364.43 L 129.308 364.43 L 129.308 364.43 Q 130.196 364.166 131.012 363.902 L 131.012 363.902 L 131.012 363.902 Q 131.828 363.638 132.068 363.542 L 132.068 363.542 L 132.068 363.542 Q 132.548 363.398 132.548 362.918 L 132.548 362.918 L 132.548 362.918 Z  M 157.748 348.998 L 164.372 348.998 L 164.372 371.75 L 157.988 371.75 L 157.988 370.07 L 157.988 370.07 Q 157.22 370.358 156.116 370.742 L 156.116 370.742 L 156.116 370.742 Q 155.012 371.126 153.86 371.462 L 153.86 371.462 L 153.86 371.462 Q 152.708 371.798 151.652 372.014 L 151.652 372.014 L 151.652 372.014 Q 150.596 372.23 149.924 372.23 L 149.924 372.23 L 149.924 372.23 Q 147.524 372.23 146.228 370.838 L 146.228 370.838 L 146.228 370.838 Q 144.932 369.446 144.932 367.238 L 144.932 367.238 L 144.932 348.998 L 151.556 348.998 L 151.556 365.222 L 151.556 365.222 Q 151.556 365.702 152.036 365.702 L 152.036 365.702 L 152.036 365.702 Q 152.228 365.702 152.972 365.486 L 152.972 365.486 L 152.972 365.486 Q 153.716 365.27 154.58 365.006 L 154.58 365.006 L 154.58 365.006 Q 155.444 364.742 156.236 364.478 L 156.236 364.478 L 156.236 364.478 Q 157.028 364.214 157.268 364.118 L 157.268 364.118 L 157.268 364.118 Q 157.748 363.974 157.748 363.494 L 157.748 363.494 L 157.748 348.998 L 157.748 348.998 Z  M 170.132 367.238 L 170.132 363.638 L 170.132 363.638 Q 170.132 361.43 171.428 360.038 L 171.428 360.038 L 171.428 360.038 Q 172.724 358.646 175.124 358.646 L 175.124 358.646 L 175.124 358.646 Q 176.468 358.646 178.532 358.862 L 178.532 358.862 L 178.532 358.862 Q 180.596 359.078 182.564 359.462 L 182.564 359.462 L 182.564 355.286 L 182.564 355.286 Q 182.564 354.806 182.084 354.806 L 182.084 354.806 L 177.14 354.806 L 177.14 354.806 Q 176.66 354.806 176.66 355.286 L 176.66 355.286 L 176.66 356.774 L 170.42 355.718 L 170.42 353.99 L 170.42 353.99 Q 170.42 352.982 170.804 352.07 L 170.804 352.07 L 170.804 352.07 Q 171.188 351.158 171.884 350.462 L 171.884 350.462 L 171.884 350.462 Q 172.58 349.766 173.492 349.382 L 173.492 349.382 L 173.492 349.382 Q 174.404 348.998 175.412 348.998 L 175.412 348.998 L 184.196 348.998 L 184.196 348.998 Q 185.204 348.998 186.116 349.382 L 186.116 349.382 L 186.116 349.382 Q 187.028 349.766 187.724 350.462 L 187.724 350.462 L 187.724 350.462 Q 188.42 351.158 188.804 352.07 L 188.804 352.07 L 188.804 352.07 Q 189.188 352.982 189.188 353.99 L 189.188 353.99 L 189.188 371.75 L 182.804 371.75 L 182.804 370.646 L 182.804 370.646 Q 182.036 370.934 181.004 371.222 L 181.004 371.222 L 181.004 371.222 Q 179.972 371.51 178.892 371.726 L 178.892 371.726 L 178.892 371.726 Q 177.812 371.942 176.804 372.086 L 176.804 372.086 L 176.804 372.086 Q 175.796 372.23 175.124 372.23 L 175.124 372.23 L 175.124 372.23 Q 172.724 372.23 171.428 370.838 L 171.428 370.838 L 171.428 370.838 Q 170.132 369.446 170.132 367.238 L 170.132 367.238 L 170.132 367.238 Z  M 182.564 365.606 L 182.564 364.31 L 182.564 364.31 Q 182.564 363.782 182.084 363.686 L 182.084 363.686 L 182.084 363.686 Q 181.412 363.638 180.644 363.566 L 180.644 363.566 L 180.644 363.566 Q 179.876 363.494 179.156 363.446 L 179.156 363.446 L 179.156 363.446 Q 178.436 363.398 177.86 363.374 L 177.86 363.374 L 177.86 363.374 Q 177.284 363.35 177.092 363.35 L 177.092 363.35 L 177.092 363.35 Q 176.612 363.35 176.612 363.83 L 176.612 363.83 L 176.612 366.758 L 176.612 366.758 Q 176.612 367.238 177.092 367.238 L 177.092 367.238 L 177.092 367.238 Q 177.284 367.238 178.004 367.118 L 178.004 367.118 L 178.004 367.118 Q 178.724 366.998 179.54 366.83 L 179.54 366.83 L 179.54 366.83 Q 180.356 366.662 181.1 366.494 L 181.1 366.494 L 181.1 366.494 Q 181.844 366.326 182.084 366.23 L 182.084 366.23 L 182.084 366.23 Q 182.564 366.086 182.564 365.606 L 182.564 365.606 L 182.564 365.606 Z  M 196.964 380.87 L 196.964 375.446 L 207.14 375.446 L 207.14 375.446 Q 207.524 375.446 207.62 375.062 L 207.62 375.062 L 207.62 369.206 L 207.62 369.206 Q 206.852 369.494 205.772 369.854 L 205.772 369.854 L 205.772 369.854 Q 204.692 370.214 203.564 370.526 L 203.564 370.526 L 203.564 370.526 Q 202.436 370.838 201.404 371.054 L 201.404 371.054 L 201.404 371.054 Q 200.372 371.27 199.7 371.27 L 199.7 371.27 L 199.7 371.27 Q 197.3 371.27 196.004 369.878 L 196.004 369.878 L 196.004 369.878 Q 194.708 368.486 194.708 366.278 L 194.708 366.278 L 194.708 353.51 L 194.708 353.51 Q 194.708 351.302 196.004 349.91 L 196.004 349.91 L 196.004 349.91 Q 197.3 348.518 199.7 348.518 L 199.7 348.518 L 199.7 348.518 Q 200.372 348.518 201.452 348.734 L 201.452 348.734 L 201.452 348.734 Q 202.532 348.95 203.708 349.286 L 203.708 349.286 L 203.708 349.286 Q 204.884 349.622 205.988 350.006 L 205.988 350.006 L 205.988 350.006 Q 207.092 350.39 207.86 350.678 L 207.86 350.678 L 207.86 348.998 L 214.244 348.998 L 214.244 375.878 L 214.244 375.878 Q 214.244 376.886 213.86 377.798 L 213.86 377.798 L 213.86 377.798 Q 213.476 378.71 212.78 379.406 L 212.78 379.406 L 212.78 379.406 Q 212.084 380.102 211.172 380.486 L 211.172 380.486 L 211.172 380.486 Q 210.26 380.87 209.252 380.87 L 209.252 380.87 L 196.964 380.87 L 196.964 380.87 Z  M 207.62 362.918 L 207.62 356.87 L 207.62 356.87 Q 207.62 356.39 207.14 356.246 L 207.14 356.246 L 207.14 356.246 Q 206.9 356.15 206.084 355.886 L 206.084 355.886 L 206.084 355.886 Q 205.268 355.622 204.38 355.358 L 204.38 355.358 L 204.38 355.358 Q 203.492 355.094 202.7 354.878 L 202.7 354.878 L 202.7 354.878 Q 201.908 354.662 201.716 354.662 L 201.716 354.662 L 201.716 354.662 Q 201.236 354.662 201.236 355.142 L 201.236 355.142 L 201.236 364.646 L 201.236 364.646 Q 201.236 365.126 201.716 365.126 L 201.716 365.126 L 201.716 365.126 Q 201.908 365.126 202.7 364.91 L 202.7 364.91 L 202.7 364.91 Q 203.492 364.694 204.38 364.43 L 204.38 364.43 L 204.38 364.43 Q 205.268 364.166 206.084 363.902 L 206.084 363.902 L 206.084 363.902 Q 206.9 363.638 207.14 363.542 L 207.14 363.542 L 207.14 363.542 Q 207.62 363.398 207.62 362.918 L 207.62 362.918 L 207.62 362.918 Z  M 232.34 364.118 L 238.724 365.27 L 238.724 366.758 L 238.724 366.758 Q 238.724 367.766 238.34 368.678 L 238.34 368.678 L 238.34 368.678 Q 237.956 369.59 237.26 370.286 L 237.26 370.286 L 237.26 370.286 Q 236.564 370.982 235.652 371.366 L 235.652 371.366 L 235.652 371.366 Q 234.74 371.75 233.732 371.75 L 233.732 371.75 L 224.756 371.75 L 224.756 371.75 Q 223.748 371.75 222.836 371.366 L 222.836 371.366 L 222.836 371.366 Q 221.924 370.982 221.228 370.286 L 221.228 370.286 L 221.228 370.286 Q 220.532 369.59 220.148 368.678 L 220.148 368.678 L 220.148 368.678 Q 219.764 367.766 219.764 366.758 L 219.764 366.758 L 219.764 353.99 L 219.764 353.99 Q 219.764 352.982 220.148 352.07 L 220.148 352.07 L 220.148 352.07 Q 220.532 351.158 221.228 350.462 L 221.228 350.462 L 221.228 350.462 Q 221.924 349.766 222.836 349.382 L 222.836 349.382 L 222.836 349.382 Q 223.748 348.998 224.756 348.998 L 224.756 348.998 L 233.54 348.998 L 233.54 348.998 Q 234.548 348.998 235.46 349.382 L 235.46 349.382 L 235.46 349.382 Q 236.372 349.766 237.068 350.462 L 237.068 350.462 L 237.068 350.462 Q 237.764 351.158 238.148 352.07 L 238.148 352.07 L 238.148 352.07 Q 238.532 352.982 238.532 353.99 L 238.532 353.99 L 238.532 362.342 L 226.388 362.342 L 226.388 365.558 L 226.388 365.558 Q 226.388 366.038 226.868 366.038 L 226.868 366.038 L 231.86 366.038 L 231.86 366.038 Q 232.34 366.038 232.34 365.558 L 232.34 365.558 L 232.34 364.118 L 232.34 364.118 Z  M 226.388 355.238 L 226.388 357.59 L 232.292 357.59 L 232.292 355.238 L 232.292 355.238 Q 232.292 354.758 231.812 354.758 L 231.812 354.758 L 226.868 354.758 L 226.868 354.758 Q 226.388 354.758 226.388 355.238 L 226.388 355.238 L 226.388 355.238 Z  M 57.668 309.206 L 52.58 297.35 L 52.58 314.15 L 45.86 314.15 L 45.86 282.182 L 52.58 282.182 L 60.596 301.334 L 68.612 282.182 L 75.332 282.182 L 75.332 314.15 L 68.612 314.15 L 68.612 297.35 L 63.524 309.206 L 57.668 309.206 L 57.668 309.206 Z  M 94.388 291.398 L 101.012 291.398 L 101.012 314.15 L 94.628 314.15 L 94.628 312.47 L 94.628 312.47 Q 93.86 312.758 92.756 313.142 L 92.756 313.142 L 92.756 313.142 Q 91.652 313.526 90.5 313.862 L 90.5 313.862 L 90.5 313.862 Q 89.348 314.198 88.292 314.414 L 88.292 314.414 L 88.292 314.414 Q 87.236 314.63 86.564 314.63 L 86.564 314.63 L 86.564 314.63 Q 84.164 314.63 82.868 313.238 L 82.868 313.238 L 82.868 313.238 Q 81.572 311.846 81.572 309.638 L 81.572 309.638 L 81.572 291.398 L 88.196 291.398 L 88.196 307.622 L 88.196 307.622 Q 88.196 308.102 88.676 308.102 L 88.676 308.102 L 88.676 308.102 Q 88.868 308.102 89.612 307.886 L 89.612 307.886 L 89.612 307.886 Q 90.356 307.67 91.22 307.406 L 91.22 307.406 L 91.22 307.406 Q 92.084 307.142 92.876 306.878 L 92.876 306.878 L 92.876 306.878 Q 93.668 306.614 93.908 306.518 L 93.908 306.518 L 93.908 306.518 Q 94.388 306.374 94.388 305.894 L 94.388 305.894 L 94.388 291.398 L 94.388 291.398 Z  M 107.252 314.15 L 107.252 282.182 L 113.876 281.03 L 113.876 314.15 L 107.252 314.15 L 107.252 314.15 Z  M 117.476 297.062 L 117.476 291.398 L 120.836 291.398 L 120.836 286.31 L 127.46 285.158 L 127.46 291.398 L 132.836 291.398 L 131.732 297.062 L 127.46 297.062 L 127.46 307.91 L 127.46 307.91 Q 127.46 308.39 127.94 308.39 L 127.94 308.39 L 131.972 308.39 L 131.972 314.15 L 125.828 314.15 L 125.828 314.15 Q 124.82 314.15 123.908 313.766 L 123.908 313.766 L 123.908 313.766 Q 122.996 313.382 122.3 312.686 L 122.3 312.686 L 122.3 312.686 Q 121.604 311.99 121.22 311.078 L 121.22 311.078 L 121.22 311.078 Q 120.836 310.166 120.836 309.158 L 120.836 309.158 L 120.836 297.062 L 117.476 297.062 L 117.476 297.062 Z  M 136.916 314.15 L 136.916 291.398 L 143.54 291.398 L 143.54 314.15 L 136.916 314.15 L 136.916 314.15 Z  M 136.916 288.566 L 136.916 281.414 L 143.54 281.414 L 143.54 288.566 L 136.916 288.566 L 136.916 288.566 Z  M 67.988 229.862 L 67.988 251.27 L 67.988 251.27 Q 67.988 252.374 67.58 253.334 L 67.58 253.334 L 67.58 253.334 Q 67.172 254.294 66.452 255.014 L 66.452 255.014 L 66.452 255.014 Q 65.732 255.734 64.772 256.142 L 64.772 256.142 L 64.772 256.142 Q 63.812 256.55 62.708 256.55 L 62.708 256.55 L 50.9 256.55 L 50.9 256.55 Q 49.796 256.55 48.836 256.142 L 48.836 256.142 L 48.836 256.142 Q 47.876 255.734 47.156 255.014 L 47.156 255.014 L 47.156 255.014 Q 46.436 254.294 46.028 253.334 L 46.028 253.334 L 46.028 253.334 Q 45.62 252.374 45.62 251.27 L 45.62 251.27 L 45.62 229.862 L 45.62 229.862 Q 45.62 228.758 46.028 227.798 L 46.028 227.798 L 46.028 227.798 Q 46.436 226.838 47.156 226.118 L 47.156 226.118 L 47.156 226.118 Q 47.876 225.398 48.836 224.99 L 48.836 224.99 L 48.836 224.99 Q 49.796 224.582 50.9 224.582 L 50.9 224.582 L 62.708 224.582 L 62.708 224.582 Q 63.812 224.582 64.772 224.99 L 64.772 224.99 L 64.772 224.99 Q 65.732 225.398 66.452 226.118 L 66.452 226.118 L 66.452 226.118 Q 67.172 226.838 67.58 227.798 L 67.58 227.798 L 67.58 227.798 Q 67.988 228.758 67.988 229.862 L 67.988 229.862 L 67.988 229.862 Z  M 61.028 249.734 L 61.028 231.398 L 61.028 231.398 Q 61.028 230.918 60.548 230.918 L 60.548 230.918 L 53.06 230.918 L 53.06 230.918 Q 52.58 230.918 52.58 231.398 L 52.58 231.398 L 52.58 249.734 L 52.58 249.734 Q 52.58 250.214 53.06 250.214 L 53.06 250.214 L 60.548 250.214 L 60.548 250.214 Q 61.028 250.214 61.028 249.734 L 61.028 249.734 L 61.028 249.734 Z  M 72.308 239.462 L 72.308 233.798 L 75.332 233.798 L 75.332 229.142 L 75.332 229.142 Q 75.332 228.134 75.716 227.222 L 75.716 227.222 L 75.716 227.222 Q 76.1 226.31 76.796 225.614 L 76.796 225.614 L 76.796 225.614 Q 77.492 224.918 78.404 224.534 L 78.404 224.534 L 78.404 224.534 Q 79.316 224.15 80.324 224.15 L 80.324 224.15 L 87.284 224.15 L 87.284 229.91 L 82.436 229.91 L 82.436 229.91 Q 81.956 229.91 81.956 230.39 L 81.956 230.39 L 81.956 233.798 L 86.996 233.798 L 86.276 239.462 L 81.956 239.462 L 81.956 256.55 L 75.332 256.55 L 75.332 239.462 L 72.308 239.462 L 72.308 239.462 Z  M 89.204 239.462 L 89.204 233.798 L 92.228 233.798 L 92.228 229.142 L 92.228 229.142 Q 92.228 228.134 92.612 227.222 L 92.612 227.222 L 92.612 227.222 Q 92.996 226.31 93.692 225.614 L 93.692 225.614 L 93.692 225.614 Q 94.388 224.918 95.3 224.534 L 95.3 224.534 L 95.3 224.534 Q 96.212 224.15 97.22 224.15 L 97.22 224.15 L 104.18 224.15 L 104.18 229.91 L 99.332 229.91 L 99.332 229.91 Q 98.852 229.91 98.852 230.39 L 98.852 230.39 L 98.852 233.798 L 103.892 233.798 L 103.172 239.462 L 98.852 239.462 L 98.852 256.55 L 92.228 256.55 L 92.228 239.462 L 89.204 239.462 L 89.204 239.462 Z  M 108.02 256.55 L 108.02 224.582 L 114.644 223.43 L 114.644 256.55 L 108.02 256.55 L 108.02 256.55 Z  M 120.884 256.55 L 120.884 233.798 L 127.508 233.798 L 127.508 256.55 L 120.884 256.55 L 120.884 256.55 Z  M 120.884 230.966 L 120.884 223.814 L 127.508 223.814 L 127.508 230.966 L 120.884 230.966 L 120.884 230.966 Z  M 140.372 256.55 L 133.748 256.55 L 133.748 233.798 L 140.132 233.798 L 140.132 235.478 L 140.132 235.478 Q 140.9 235.19 141.98 234.806 L 141.98 234.806 L 141.98 234.806 Q 143.06 234.422 144.212 234.086 L 144.212 234.086 L 144.212 234.086 Q 145.364 233.75 146.444 233.534 L 146.444 233.534 L 146.444 233.534 Q 147.524 233.318 148.196 233.318 L 148.196 233.318 L 148.196 233.318 Q 150.596 233.318 151.892 234.71 L 151.892 234.71 L 151.892 234.71 Q 153.188 236.102 153.188 238.31 L 153.188 238.31 L 153.188 256.55 L 146.564 256.55 L 146.564 240.518 L 146.564 240.518 Q 146.564 240.038 146.084 240.038 L 146.084 240.038 L 146.084 240.038 Q 145.892 240.038 145.148 240.254 L 145.148 240.254 L 145.148 240.254 Q 144.404 240.47 143.54 240.734 L 143.54 240.734 L 143.54 240.734 Q 142.676 240.998 141.884 241.262 L 141.884 241.262 L 141.884 241.262 Q 141.092 241.526 140.852 241.622 L 140.852 241.622 L 140.852 241.622 Q 140.372 241.766 140.372 242.246 L 140.372 242.246 L 140.372 256.55 L 140.372 256.55 Z  M 171.284 248.918 L 177.668 250.07 L 177.668 251.558 L 177.668 251.558 Q 177.668 252.566 177.284 253.478 L 177.284 253.478 L 177.284 253.478 Q 176.9 254.39 176.204 255.086 L 176.204 255.086 L 176.204 255.086 Q 175.508 255.782 174.596 256.166 L 174.596 256.166 L 174.596 256.166 Q 173.684 256.55 172.676 256.55 L 172.676 256.55 L 163.7 256.55 L 163.7 256.55 Q 162.692 256.55 161.78 256.166 L 161.78 256.166 L 161.78 256.166 Q 160.868 255.782 160.172 255.086 L 160.172 255.086 L 160.172 255.086 Q 159.476 254.39 159.092 253.478 L 159.092 253.478 L 159.092 253.478 Q 158.708 252.566 158.708 251.558 L 158.708 251.558 L 158.708 238.79 L 158.708 238.79 Q 158.708 237.782 159.092 236.87 L 159.092 236.87 L 159.092 236.87 Q 159.476 235.958 160.172 235.262 L 160.172 235.262 L 160.172 235.262 Q 160.868 234.566 161.78 234.182 L 161.78 234.182 L 161.78 234.182 Q 162.692 233.798 163.7 233.798 L 163.7 233.798 L 172.484 233.798 L 172.484 233.798 Q 173.492 233.798 174.404 234.182 L 174.404 234.182 L 174.404 234.182 Q 175.316 234.566 176.012 235.262 L 176.012 235.262 L 176.012 235.262 Q 176.708 235.958 177.092 236.87 L 177.092 236.87 L 177.092 236.87 Q 177.476 237.782 177.476 238.79 L 177.476 238.79 L 177.476 247.142 L 165.332 247.142 L 165.332 250.358 L 165.332 250.358 Q 165.332 250.838 165.812 250.838 L 165.812 250.838 L 170.804 250.838 L 170.804 250.838 Q 171.284 250.838 171.284 250.358 L 171.284 250.358 L 171.284 248.918 L 171.284 248.918 Z  M 165.332 240.038 L 165.332 242.39 L 171.236 242.39 L 171.236 240.038 L 171.236 240.038 Q 171.236 239.558 170.756 239.558 L 170.756 239.558 L 165.812 239.558 L 165.812 239.558 Q 165.332 239.558 165.332 240.038 L 165.332 240.038 L 165.332 240.038 Z  M 43.7 173.318 L 43.7 166.982 L 67.172 166.982 L 67.172 173.318 L 58.916 173.318 L 58.916 198.95 L 51.956 198.95 L 51.956 173.318 L 43.7 173.318 L 43.7 173.318 Z  M 90.932 198.95 L 84.308 198.95 L 84.308 182.918 L 84.308 182.918 Q 84.308 182.438 83.828 182.438 L 83.828 182.438 L 83.828 182.438 Q 83.636 182.438 82.892 182.654 L 82.892 182.654 L 82.892 182.654 Q 82.148 182.87 81.284 183.134 L 81.284 183.134 L 81.284 183.134 Q 80.42 183.398 79.628 183.662 L 79.628 183.662 L 79.628 183.662 Q 78.836 183.926 78.596 184.022 L 78.596 184.022 L 78.596 184.022 Q 78.116 184.166 78.116 184.646 L 78.116 184.646 L 78.116 198.95 L 71.492 198.95 L 71.492 166.982 L 78.116 165.83 L 78.116 177.782 L 78.116 177.782 Q 78.884 177.494 79.964 177.134 L 79.964 177.134 L 79.964 177.134 Q 81.044 176.774 82.148 176.462 L 82.148 176.462 L 82.148 176.462 Q 83.252 176.15 84.26 175.934 L 84.26 175.934 L 84.26 175.934 Q 85.268 175.718 85.94 175.718 L 85.94 175.718 L 85.94 175.718 Q 88.34 175.718 89.636 177.11 L 89.636 177.11 L 89.636 177.11 Q 90.932 178.502 90.932 180.71 L 90.932 180.71 L 90.932 198.95 L 90.932 198.95 Z  M 109.028 191.318 L 115.412 192.47 L 115.412 193.958 L 115.412 193.958 Q 115.412 194.966 115.028 195.878 L 115.028 195.878 L 115.028 195.878 Q 114.644 196.79 113.948 197.486 L 113.948 197.486 L 113.948 197.486 Q 113.252 198.182 112.34 198.566 L 112.34 198.566 L 112.34 198.566 Q 111.428 198.95 110.42 198.95 L 110.42 198.95 L 101.444 198.95 L 101.444 198.95 Q 100.436 198.95 99.524 198.566 L 99.524 198.566 L 99.524 198.566 Q 98.612 198.182 97.916 197.486 L 97.916 197.486 L 97.916 197.486 Q 97.22 196.79 96.836 195.878 L 96.836 195.878 L 96.836 195.878 Q 96.452 194.966 96.452 193.958 L 96.452 193.958 L 96.452 181.19 L 96.452 181.19 Q 96.452 180.182 96.836 179.27 L 96.836 179.27 L 96.836 179.27 Q 97.22 178.358 97.916 177.662 L 97.916 177.662 L 97.916 177.662 Q 98.612 176.966 99.524 176.582 L 99.524 176.582 L 99.524 176.582 Q 100.436 176.198 101.444 176.198 L 101.444 176.198 L 110.228 176.198 L 110.228 176.198 Q 111.236 176.198 112.148 176.582 L 112.148 176.582 L 112.148 176.582 Q 113.06 176.966 113.756 177.662 L 113.756 177.662 L 113.756 177.662 Q 114.452 178.358 114.836 179.27 L 114.836 179.27 L 114.836 179.27 Q 115.22 180.182 115.22 181.19 L 115.22 181.19 L 115.22 189.542 L 103.076 189.542 L 103.076 192.758 L 103.076 192.758 Q 103.076 193.238 103.556 193.238 L 103.556 193.238 L 108.548 193.238 L 108.548 193.238 Q 109.028 193.238 109.028 192.758 L 109.028 192.758 L 109.028 191.318 L 109.028 191.318 Z  M 103.076 182.438 L 103.076 184.79 L 108.98 184.79 L 108.98 182.438 L 108.98 182.438 Q 108.98 181.958 108.5 181.958 L 108.5 181.958 L 103.556 181.958 L 103.556 181.958 Q 103.076 181.958 103.076 182.438 L 103.076 182.438 L 103.076 182.438 Z " fill-rule="evenodd" fill="rgb(255,255,255)"/><rect x="0" y="477" width="375" height="335" transform="matrix(1,0,0,1,0,0)" fill="rgb(0,0,0)"/><path d=" M 224.84 756.584 L 224.84 752.336 L 227.36 752.336 L 227.36 748.52 L 232.328 747.656 L 232.328 752.336 L 236.36 752.336 L 235.532 756.584 L 232.328 756.584 L 232.328 764.72 L 232.328 764.72 Q 232.328 765.08 232.688 765.08 L 232.688 765.08 L 235.712 765.08 L 235.712 769.4 L 231.104 769.4 L 231.104 769.4 Q 230.348 769.4 229.664 769.112 L 229.664 769.112 L 229.664 769.112 Q 228.98 768.824 228.458 768.302 L 228.458 768.302 L 228.458 768.302 Q 227.936 767.78 227.648 767.096 L 227.648 767.096 L 227.648 767.096 Q 227.36 766.412 227.36 765.656 L 227.36 765.656 L 227.36 756.584 L 224.84 756.584 L 224.84 756.584 Z  M 254 769.4 L 249.032 769.4 L 249.032 757.376 L 249.032 757.376 Q 249.032 757.016 248.672 757.016 L 248.672 757.016 L 248.672 757.016 Q 248.528 757.016 247.97 757.178 L 247.97 757.178 L 247.97 757.178 Q 247.412 757.34 246.764 757.538 L 246.764 757.538 L 246.764 757.538 Q 246.116 757.736 245.522 757.934 L 245.522 757.934 L 245.522 757.934 Q 244.928 758.132 244.748 758.204 L 244.748 758.204 L 244.748 758.204 Q 244.388 758.312 244.388 758.672 L 244.388 758.672 L 244.388 769.4 L 239.42 769.4 L 239.42 745.424 L 244.388 744.56 L 244.388 753.524 L 244.388 753.524 Q 244.964 753.308 245.774 753.038 L 245.774 753.038 L 245.774 753.038 Q 246.584 752.768 247.412 752.534 L 247.412 752.534 L 247.412 752.534 Q 248.24 752.3 248.996 752.138 L 248.996 752.138 L 248.996 752.138 Q 249.752 751.976 250.256 751.976 L 250.256 751.976 L 250.256 751.976 Q 252.056 751.976 253.028 753.02 L 253.028 753.02 L 253.028 753.02 Q 254 754.064 254 755.72 L 254 755.72 L 254 769.4 L 254 769.4 Z  M 267.572 763.676 L 272.36 764.54 L 272.36 765.656 L 272.36 765.656 Q 272.36 766.412 272.072 767.096 L 272.072 767.096 L 272.072 767.096 Q 271.784 767.78 271.262 768.302 L 271.262 768.302 L 271.262 768.302 Q 270.74 768.824 270.056 769.112 L 270.056 769.112 L 270.056 769.112 Q 269.372 769.4 268.616 769.4 L 268.616 769.4 L 261.884 769.4 L 261.884 769.4 Q 261.128 769.4 260.444 769.112 L 260.444 769.112 L 260.444 769.112 Q 259.76 768.824 259.238 768.302 L 259.238 768.302 L 259.238 768.302 Q 258.716 767.78 258.428 767.096 L 258.428 767.096 L 258.428 767.096 Q 258.14 766.412 258.14 765.656 L 258.14 765.656 L 258.14 756.08 L 258.14 756.08 Q 258.14 755.324 258.428 754.64 L 258.428 754.64 L 258.428 754.64 Q 258.716 753.956 259.238 753.434 L 259.238 753.434 L 259.238 753.434 Q 259.76 752.912 260.444 752.624 L 260.444 752.624 L 260.444 752.624 Q 261.128 752.336 261.884 752.336 L 261.884 752.336 L 268.472 752.336 L 268.472 752.336 Q 269.228 752.336 269.912 752.624 L 269.912 752.624 L 269.912 752.624 Q 270.596 752.912 271.118 753.434 L 271.118 753.434 L 271.118 753.434 Q 271.64 753.956 271.928 754.64 L 271.928 754.64 L 271.928 754.64 Q 272.216 755.324 272.216 756.08 L 272.216 756.08 L 272.216 762.344 L 263.108 762.344 L 263.108 764.756 L 263.108 764.756 Q 263.108 765.116 263.468 765.116 L 263.468 765.116 L 267.212 765.116 L 267.212 765.116 Q 267.572 765.116 267.572 764.756 L 267.572 764.756 L 267.572 763.676 L 267.572 763.676 Z  M 263.108 757.016 L 263.108 758.78 L 267.536 758.78 L 267.536 757.016 L 267.536 757.016 Q 267.536 756.656 267.176 756.656 L 267.176 756.656 L 263.468 756.656 L 263.468 756.656 Q 263.108 756.656 263.108 757.016 L 263.108 757.016 L 263.108 757.016 Z  M 291.44 758.204 L 291.44 758.204 L 291.44 758.204 Q 291.08 758.312 291.08 758.672 L 291.08 758.672 L 291.08 769.4 L 286.112 769.4 L 286.112 757.376 L 286.112 757.376 Q 286.112 757.016 285.752 757.016 L 285.752 757.016 L 285.752 757.016 Q 285.608 757.016 285.05 757.178 L 285.05 757.178 L 285.05 757.178 Q 284.492 757.34 283.844 757.538 L 283.844 757.538 L 283.844 757.538 Q 283.196 757.736 282.602 757.934 L 282.602 757.934 L 282.602 757.934 Q 282.008 758.132 281.828 758.204 L 281.828 758.204 L 281.828 758.204 Q 281.468 758.312 281.468 758.672 L 281.468 758.672 L 281.468 769.4 L 276.5 769.4 L 276.5 752.336 L 281.288 752.336 L 281.288 753.596 L 281.288 753.596 Q 281.864 753.38 282.674 753.092 L 282.674 753.092 L 282.674 753.092 Q 283.484 752.804 284.348 752.552 L 284.348 752.552 L 284.348 752.552 Q 285.212 752.3 286.022 752.138 L 286.022 752.138 L 286.022 752.138 Q 286.832 751.976 287.336 751.976 L 287.336 751.976 L 287.336 751.976 Q 288.452 751.976 289.262 752.408 L 289.262 752.408 L 289.262 752.408 Q 290.072 752.84 290.54 753.596 L 290.54 753.596 L 290.54 753.596 Q 291.116 753.344 291.998 753.056 L 291.998 753.056 L 291.998 753.056 Q 292.88 752.768 293.816 752.516 L 293.816 752.516 L 293.816 752.516 Q 294.752 752.264 295.598 752.12 L 295.598 752.12 L 295.598 752.12 Q 296.444 751.976 296.948 751.976 L 296.948 751.976 L 296.948 751.976 Q 298.748 751.976 299.72 753.02 L 299.72 753.02 L 299.72 753.02 Q 300.692 754.064 300.692 755.72 L 300.692 755.72 L 300.692 769.4 L 295.724 769.4 L 295.724 757.376 L 295.724 757.376 Q 295.724 757.016 295.364 757.016 L 295.364 757.016 L 295.364 757.016 Q 295.22 757.016 294.662 757.178 L 294.662 757.178 L 294.662 757.178 Q 294.104 757.34 293.456 757.538 L 293.456 757.538 L 293.456 757.538 Q 292.808 757.736 292.214 757.934 L 292.214 757.934 L 292.214 757.934 Q 291.62 758.132 291.44 758.204 Z  M 314.264 763.676 L 319.052 764.54 L 319.052 765.656 L 319.052 765.656 Q 319.052 766.412 318.764 767.096 L 318.764 767.096 L 318.764 767.096 Q 318.476 767.78 317.954 768.302 L 317.954 768.302 L 317.954 768.302 Q 317.432 768.824 316.748 769.112 L 316.748 769.112 L 316.748 769.112 Q 316.064 769.4 315.308 769.4 L 315.308 769.4 L 308.576 769.4 L 308.576 769.4 Q 307.82 769.4 307.136 769.112 L 307.136 769.112 L 307.136 769.112 Q 306.452 768.824 305.93 768.302 L 305.93 768.302 L 305.93 768.302 Q 305.408 767.78 305.12 767.096 L 305.12 767.096 L 305.12 767.096 Q 304.832 766.412 304.832 765.656 L 304.832 765.656 L 304.832 756.08 L 304.832 756.08 Q 304.832 755.324 305.12 754.64 L 305.12 754.64 L 305.12 754.64 Q 305.408 753.956 305.93 753.434 L 305.93 753.434 L 305.93 753.434 Q 306.452 752.912 307.136 752.624 L 307.136 752.624 L 307.136 752.624 Q 307.82 752.336 308.576 752.336 L 308.576 752.336 L 315.164 752.336 L 315.164 752.336 Q 315.92 752.336 316.604 752.624 L 316.604 752.624 L 316.604 752.624 Q 317.288 752.912 317.81 753.434 L 317.81 753.434 L 317.81 753.434 Q 318.332 753.956 318.62 754.64 L 318.62 754.64 L 318.62 754.64 Q 318.908 755.324 318.908 756.08 L 318.908 756.08 L 318.908 762.344 L 309.8 762.344 L 309.8 764.756 L 309.8 764.756 Q 309.8 765.116 310.16 765.116 L 310.16 765.116 L 313.904 765.116 L 313.904 765.116 Q 314.264 765.116 314.264 764.756 L 314.264 764.756 L 314.264 763.676 L 314.264 763.676 Z  M 309.8 757.016 L 309.8 758.78 L 314.228 758.78 L 314.228 757.016 L 314.228 757.016 Q 314.228 756.656 313.868 756.656 L 313.868 756.656 L 310.16 756.656 L 310.16 756.656 Q 309.8 756.656 309.8 757.016 L 309.8 757.016 L 309.8 757.016 Z  M 63.092 745.424 L 63.092 769.4 L 58.052 769.4 L 50.06 755.432 L 50.06 769.4 L 45.02 769.4 L 45.02 745.424 L 50.06 745.424 L 58.052 759.464 L 58.052 745.424 L 63.092 745.424 L 63.092 745.424 Z  M 67.952 769.4 L 67.952 752.336 L 72.92 752.336 L 72.92 769.4 L 67.952 769.4 L 67.952 769.4 Z  M 67.952 750.212 L 67.952 744.848 L 72.92 744.848 L 72.92 750.212 L 67.952 750.212 L 67.952 750.212 Z  M 78.932 776.24 L 78.932 772.172 L 86.564 772.172 L 86.564 772.172 Q 86.852 772.172 86.924 771.884 L 86.924 771.884 L 86.924 767.492 L 86.924 767.492 Q 86.348 767.708 85.538 767.978 L 85.538 767.978 L 85.538 767.978 Q 84.728 768.248 83.882 768.482 L 83.882 768.482 L 83.882 768.482 Q 83.036 768.716 82.262 768.878 L 82.262 768.878 L 82.262 768.878 Q 81.488 769.04 80.984 769.04 L 80.984 769.04 L 80.984 769.04 Q 79.184 769.04 78.212 767.996 L 78.212 767.996 L 78.212 767.996 Q 77.24 766.952 77.24 765.296 L 77.24 765.296 L 77.24 755.72 L 77.24 755.72 Q 77.24 754.064 78.212 753.02 L 78.212 753.02 L 78.212 753.02 Q 79.184 751.976 80.984 751.976 L 80.984 751.976 L 80.984 751.976 Q 81.488 751.976 82.298 752.138 L 82.298 752.138 L 82.298 752.138 Q 83.108 752.3 83.99 752.552 L 83.99 752.552 L 83.99 752.552 Q 84.872 752.804 85.7 753.092 L 85.7 753.092 L 85.7 753.092 Q 86.528 753.38 87.104 753.596 L 87.104 753.596 L 87.104 752.336 L 91.892 752.336 L 91.892 772.496 L 91.892 772.496 Q 91.892 773.252 91.604 773.936 L 91.604 773.936 L 91.604 773.936 Q 91.316 774.62 90.794 775.142 L 90.794 775.142 L 90.794 775.142 Q 90.272 775.664 89.588 775.952 L 89.588 775.952 L 89.588 775.952 Q 88.904 776.24 88.148 776.24 L 88.148 776.24 L 78.932 776.24 L 78.932 776.24 Z  M 86.924 762.776 L 86.924 758.24 L 86.924 758.24 Q 86.924 757.88 86.564 757.772 L 86.564 757.772 L 86.564 757.772 Q 86.384 757.7 85.772 757.502 L 85.772 757.502 L 85.772 757.502 Q 85.16 757.304 84.494 757.106 L 84.494 757.106 L 84.494 757.106 Q 83.828 756.908 83.234 756.746 L 83.234 756.746 L 83.234 756.746 Q 82.64 756.584 82.496 756.584 L 82.496 756.584 L 82.496 756.584 Q 82.136 756.584 82.136 756.944 L 82.136 756.944 L 82.136 764.072 L 82.136 764.072 Q 82.136 764.432 82.496 764.432 L 82.496 764.432 L 82.496 764.432 Q 82.64 764.432 83.234 764.27 L 83.234 764.27 L 83.234 764.27 Q 83.828 764.108 84.494 763.91 L 84.494 763.91 L 84.494 763.91 Q 85.16 763.712 85.772 763.514 L 85.772 763.514 L 85.772 763.514 Q 86.384 763.316 86.564 763.244 L 86.564 763.244 L 86.564 763.244 Q 86.924 763.136 86.924 762.776 L 86.924 762.776 L 86.924 762.776 Z  M 110.972 769.4 L 106.004 769.4 L 106.004 757.376 L 106.004 757.376 Q 106.004 757.016 105.644 757.016 L 105.644 757.016 L 105.644 757.016 Q 105.5 757.016 104.942 757.178 L 104.942 757.178 L 104.942 757.178 Q 104.384 757.34 103.736 757.538 L 103.736 757.538 L 103.736 757.538 Q 103.088 757.736 102.494 757.934 L 102.494 757.934 L 102.494 757.934 Q 101.9 758.132 101.72 758.204 L 101.72 758.204 L 101.72 758.204 Q 101.36 758.312 101.36 758.672 L 101.36 758.672 L 101.36 769.4 L 96.392 769.4 L 96.392 745.424 L 101.36 744.56 L 101.36 753.524 L 101.36 753.524 Q 101.936 753.308 102.746 753.038 L 102.746 753.038 L 102.746 753.038 Q 103.556 752.768 104.384 752.534 L 104.384 752.534 L 104.384 752.534 Q 105.212 752.3 105.968 752.138 L 105.968 752.138 L 105.968 752.138 Q 106.724 751.976 107.228 751.976 L 107.228 751.976 L 107.228 751.976 Q 109.028 751.976 110 753.02 L 110 753.02 L 110 753.02 Q 110.972 754.064 110.972 755.72 L 110.972 755.72 L 110.972 769.4 L 110.972 769.4 Z  M 113.492 756.584 L 113.492 752.336 L 116.012 752.336 L 116.012 748.52 L 120.98 747.656 L 120.98 752.336 L 125.012 752.336 L 124.184 756.584 L 120.98 756.584 L 120.98 764.72 L 120.98 764.72 Q 120.98 765.08 121.34 765.08 L 121.34 765.08 L 124.364 765.08 L 124.364 769.4 L 119.756 769.4 L 119.756 769.4 Q 119 769.4 118.316 769.112 L 118.316 769.112 L 118.316 769.112 Q 117.632 768.824 117.11 768.302 L 117.11 768.302 L 117.11 768.302 Q 116.588 767.78 116.3 767.096 L 116.3 767.096 L 116.3 767.096 Q 116.012 766.412 116.012 765.656 L 116.012 765.656 L 116.012 756.584 L 113.492 756.584 L 113.492 756.584 Z  M 131.132 769.4 L 125.804 752.336 L 130.772 752.336 L 133.94 763.856 L 137.108 752.336 L 142.076 752.336 L 136.748 769.4 L 131.132 769.4 L 131.132 769.4 Z  M 144.488 769.4 L 144.488 752.336 L 149.456 752.336 L 149.456 769.4 L 144.488 769.4 L 144.488 769.4 Z  M 144.488 750.212 L 144.488 744.848 L 149.456 744.848 L 149.456 750.212 L 144.488 750.212 L 144.488 750.212 Z  M 153.668 758.384 L 153.668 756.08 L 153.668 756.08 Q 153.668 755.324 153.956 754.64 L 153.956 754.64 L 153.956 754.64 Q 154.244 753.956 154.766 753.434 L 154.766 753.434 L 154.766 753.434 Q 155.288 752.912 155.972 752.624 L 155.972 752.624 L 155.972 752.624 Q 156.656 752.336 157.412 752.336 L 157.412 752.336 L 163.784 752.336 L 163.784 752.336 Q 164.54 752.336 165.224 752.624 L 165.224 752.624 L 165.224 752.624 Q 165.908 752.912 166.43 753.434 L 166.43 753.434 L 166.43 753.434 Q 166.952 753.956 167.24 754.64 L 167.24 754.64 L 167.24 754.64 Q 167.528 755.324 167.528 756.08 L 167.528 756.08 L 167.528 757.34 L 162.884 758.024 L 162.884 756.908 L 162.884 756.908 Q 162.884 756.548 162.524 756.548 L 162.524 756.548 L 158.852 756.548 L 158.852 756.548 Q 158.492 756.548 158.492 756.908 L 158.492 756.908 L 158.492 757.664 L 158.492 757.664 Q 158.492 757.916 158.744 758.024 L 158.744 758.024 L 165.224 759.968 L 165.224 759.968 Q 166.556 760.364 167.114 761.12 L 167.114 761.12 L 167.114 761.12 Q 167.672 761.876 167.672 763.244 L 167.672 763.244 L 167.672 765.656 L 167.672 765.656 Q 167.672 767.204 166.664 768.302 L 166.664 768.302 L 166.664 768.302 Q 165.656 769.4 163.928 769.4 L 163.928 769.4 L 157.34 769.4 L 157.34 769.4 Q 156.512 769.4 155.828 769.112 L 155.828 769.112 L 155.828 769.112 Q 155.144 768.824 154.658 768.302 L 154.658 768.302 L 154.658 768.302 Q 154.172 767.78 153.884 767.096 L 153.884 767.096 L 153.884 767.096 Q 153.596 766.412 153.596 765.656 L 153.596 765.656 L 153.596 764.504 L 158.384 763.82 L 158.384 764.828 L 158.384 764.828 Q 158.384 765.188 158.744 765.188 L 158.744 765.188 L 162.524 765.188 L 162.524 765.188 Q 162.848 765.188 162.848 764.864 L 162.848 764.864 L 162.848 763.964 L 162.848 763.964 Q 162.848 763.712 162.596 763.604 L 162.596 763.604 L 162.596 763.604 Q 162.38 763.532 162.038 763.424 L 162.038 763.424 L 162.038 763.424 Q 161.696 763.316 160.976 763.1 L 160.976 763.1 L 160.976 763.1 Q 160.256 762.884 159.086 762.524 L 159.086 762.524 L 159.086 762.524 Q 157.916 762.164 156.044 761.588 L 156.044 761.588 L 156.044 761.588 Q 155 761.264 154.334 760.4 L 154.334 760.4 L 154.334 760.4 Q 153.668 759.536 153.668 758.384 L 153.668 758.384 L 153.668 758.384 Z  M 171.452 769.4 L 171.452 752.336 L 176.42 752.336 L 176.42 769.4 L 171.452 769.4 L 171.452 769.4 Z  M 171.452 750.212 L 171.452 744.848 L 176.42 744.848 L 176.42 750.212 L 171.452 750.212 L 171.452 750.212 Z  M 195.716 756.08 L 195.716 765.656 L 195.716 765.656 Q 195.716 766.412 195.428 767.096 L 195.428 767.096 L 195.428 767.096 Q 195.14 767.78 194.618 768.302 L 194.618 768.302 L 194.618 768.302 Q 194.096 768.824 193.412 769.112 L 193.412 769.112 L 193.412 769.112 Q 192.728 769.4 191.972 769.4 L 191.972 769.4 L 184.484 769.4 L 184.484 769.4 Q 183.728 769.4 183.044 769.112 L 183.044 769.112 L 183.044 769.112 Q 182.36 768.824 181.838 768.302 L 181.838 768.302 L 181.838 768.302 Q 181.316 767.78 181.028 767.096 L 181.028 767.096 L 181.028 767.096 Q 180.74 766.412 180.74 765.656 L 180.74 765.656 L 180.74 756.08 L 180.74 756.08 Q 180.74 755.324 181.028 754.64 L 181.028 754.64 L 181.028 754.64 Q 181.316 753.956 181.838 753.434 L 181.838 753.434 L 181.838 753.434 Q 182.36 752.912 183.044 752.624 L 183.044 752.624 L 183.044 752.624 Q 183.728 752.336 184.484 752.336 L 184.484 752.336 L 191.972 752.336 L 191.972 752.336 Q 192.728 752.336 193.412 752.624 L 193.412 752.624 L 193.412 752.624 Q 194.096 752.912 194.618 753.434 L 194.618 753.434 L 194.618 753.434 Q 195.14 753.956 195.428 754.64 L 195.428 754.64 L 195.428 754.64 Q 195.716 755.324 195.716 756.08 L 195.716 756.08 L 195.716 756.08 Z  M 190.748 764.504 L 190.748 757.232 L 190.748 757.232 Q 190.748 756.872 190.388 756.872 L 190.388 756.872 L 186.068 756.872 L 186.068 756.872 Q 185.708 756.872 185.708 757.232 L 185.708 757.232 L 185.708 764.504 L 185.708 764.504 Q 185.708 764.864 186.068 764.864 L 186.068 764.864 L 190.388 764.864 L 190.388 764.864 Q 190.748 764.864 190.748 764.504 L 190.748 764.504 L 190.748 764.504 Z  M 205.004 769.4 L 200.036 769.4 L 200.036 752.336 L 204.824 752.336 L 204.824 753.596 L 204.824 753.596 Q 205.4 753.38 206.21 753.092 L 206.21 753.092 L 206.21 753.092 Q 207.02 752.804 207.884 752.552 L 207.884 752.552 L 207.884 752.552 Q 208.748 752.3 209.558 752.138 L 209.558 752.138 L 209.558 752.138 Q 210.368 751.976 210.872 751.976 L 210.872 751.976 L 210.872 751.976 Q 212.672 751.976 213.644 753.02 L 213.644 753.02 L 213.644 753.02 Q 214.616 754.064 214.616 755.72 L 214.616 755.72 L 214.616 769.4 L 209.648 769.4 L 209.648 757.376 L 209.648 757.376 Q 209.648 757.016 209.288 757.016 L 209.288 757.016 L 209.288 757.016 Q 209.144 757.016 208.586 757.178 L 208.586 757.178 L 208.586 757.178 Q 208.028 757.34 207.38 757.538 L 207.38 757.538 L 207.38 757.538 Q 206.732 757.736 206.138 757.934 L 206.138 757.934 L 206.138 757.934 Q 205.544 758.132 205.364 758.204 L 205.364 758.204 L 205.364 758.204 Q 205.004 758.312 205.004 758.672 L 205.004 758.672 L 205.004 769.4 L 205.004 769.4 Z " fill-rule="evenodd" fill="rgb(255,255,255)"/></g></svg>