<?xml version="1.0" standalone="no"?><!-- Generator: Gravit.io --><svg xmlns="http://www.w3.org/2000/svg" xmlns:xlink="http://www.w3.org/1999/xlink" style="isolation:isolate" viewBox="0 0 375 812" width="375" height="812"><defs><clipPath id="_clipPath_AtcfPWq3TGdhurKCIoVJ7KF1jdXNFh7z"><rect width="375" height="812"/></clipPath></defs><g clip-path="url(#_clipPath_AtcfPWq3TGdhurKCIoVJ7KF1jdXNFh7z)"><rect x="0" y="132" width="375" height="356" transform="matrix(1,0,0,1,0,0)" fill="rgb(41,62,85)"/><path d=" M 39.586 408.382 L 50.098 440.35 L 42.994 440.35 L 40.978 434.014 L 31.138 434.014 L 29.218 440.35 L 22.114 440.35 L 32.578 408.382 L 39.586 408.382 L 39.586 408.382 Z  M 36.082 417.214 L 33.202 427.87 L 38.962 427.87 L 36.082 417.214 L 36.082 417.214 Z  M 73.618 422.11 L 73.618 435.838 L 73.618 435.838 Q 73.618 438.046 72.322 439.438 L 72.322 439.438 L 72.322 439.438 Q 71.026 440.83 68.626 440.83 L 68.626 440.83 L 68.626 440.83 Q 67.954 440.83 66.922 440.614 L 66.922 440.614 L 66.922 440.614 Q 65.89 440.398 64.762 440.086 L 64.762 440.086 L 64.762 440.086 Q 63.634 439.774 62.554 439.414 L 62.554 439.414 L 62.554 439.414 Q 61.474 439.054 60.706 438.766 L 60.706 438.766 L 60.706 449.47 L 54.082 450.622 L 54.082 417.598 L 60.466 417.598 L 60.466 419.278 L 60.466 419.278 Q 61.234 418.99 62.338 418.606 L 62.338 418.606 L 62.338 418.606 Q 63.442 418.222 64.618 417.886 L 64.618 417.886 L 64.618 417.886 Q 65.794 417.55 66.874 417.334 L 66.874 417.334 L 66.874 417.334 Q 67.954 417.118 68.626 417.118 L 68.626 417.118 L 68.626 417.118 Q 71.026 417.118 72.322 418.51 L 72.322 418.51 L 72.322 418.51 Q 73.618 419.902 73.618 422.11 L 73.618 422.11 L 73.618 422.11 Z  M 60.706 425.47 L 60.706 432.478 L 60.706 432.478 Q 60.706 432.958 61.186 433.102 L 61.186 433.102 L 61.186 433.102 Q 61.426 433.198 62.218 433.462 L 62.218 433.462 L 62.218 433.462 Q 63.01 433.726 63.898 433.99 L 63.898 433.99 L 63.898 433.99 Q 64.786 434.254 65.554 434.47 L 65.554 434.47 L 65.554 434.47 Q 66.322 434.686 66.514 434.686 L 66.514 434.686 L 66.514 434.686 Q 66.994 434.686 66.994 434.206 L 66.994 434.206 L 66.994 423.742 L 66.994 423.742 Q 66.994 423.262 66.514 423.262 L 66.514 423.262 L 66.514 423.262 Q 66.322 423.262 65.554 423.478 L 65.554 423.478 L 65.554 423.478 Q 64.786 423.694 63.898 423.958 L 63.898 423.958 L 63.898 423.958 Q 63.01 424.222 62.218 424.486 L 62.218 424.486 L 62.218 424.486 Q 61.426 424.75 61.186 424.846 L 61.186 424.846 L 61.186 424.846 Q 60.706 424.99 60.706 425.47 L 60.706 425.47 L 60.706 425.47 Z  M 98.914 422.11 L 98.914 435.838 L 98.914 435.838 Q 98.914 438.046 97.618 439.438 L 97.618 439.438 L 97.618 439.438 Q 96.322 440.83 93.922 440.83 L 93.922 440.83 L 93.922 440.83 Q 93.25 440.83 92.218 440.614 L 92.218 440.614 L 92.218 440.614 Q 91.186 440.398 90.058 440.086 L 90.058 440.086 L 90.058 440.086 Q 88.93 439.774 87.85 439.414 L 87.85 439.414 L 87.85 439.414 Q 86.77 439.054 86.002 438.766 L 86.002 438.766 L 86.002 449.47 L 79.378 450.622 L 79.378 417.598 L 85.762 417.598 L 85.762 419.278 L 85.762 419.278 Q 86.53 418.99 87.634 418.606 L 87.634 418.606 L 87.634 418.606 Q 88.738 418.222 89.914 417.886 L 89.914 417.886 L 89.914 417.886 Q 91.09 417.55 92.17 417.334 L 92.17 417.334 L 92.17 417.334 Q 93.25 417.118 93.922 417.118 L 93.922 417.118 L 93.922 417.118 Q 96.322 417.118 97.618 418.51 L 97.618 418.51 L 97.618 418.51 Q 98.914 419.902 98.914 422.11 L 98.914 422.11 L 98.914 422.11 Z  M 86.002 425.47 L 86.002 432.478 L 86.002 432.478 Q 86.002 432.958 86.482 433.102 L 86.482 433.102 L 86.482 433.102 Q 86.722 433.198 87.514 433.462 L 87.514 433.462 L 87.514 433.462 Q 88.306 433.726 89.194 433.99 L 89.194 433.99 L 89.194 433.99 Q 90.082 434.254 90.85 434.47 L 90.85 434.47 L 90.85 434.47 Q 91.618 434.686 91.81 434.686 L 91.81 434.686 L 91.81 434.686 Q 92.29 434.686 92.29 434.206 L 92.29 434.206 L 92.29 423.742 L 92.29 423.742 Q 92.29 423.262 91.81 423.262 L 91.81 423.262 L 91.81 423.262 Q 91.618 423.262 90.85 423.478 L 90.85 423.478 L 90.85 423.478 Q 90.082 423.694 89.194 423.958 L 89.194 423.958 L 89.194 423.958 Q 88.306 424.222 87.514 424.486 L 87.514 424.486 L 87.514 424.486 Q 86.722 424.75 86.482 424.846 L 86.482 424.846 L 86.482 424.846 Q 86.002 424.99 86.002 425.47 L 86.002 425.47 L 86.002 425.47 Z  M 104.674 440.35 L 104.674 408.382 L 111.298 407.23 L 111.298 440.35 L 104.674 440.35 L 104.674 440.35 Z  M 117.538 440.35 L 117.538 417.598 L 124.162 417.598 L 124.162 440.35 L 117.538 440.35 L 117.538 440.35 Z  M 117.538 414.766 L 117.538 407.614 L 124.162 407.614 L 124.162 414.766 L 117.538 414.766 L 117.538 414.766 Z  M 142.402 431.278 L 148.882 432.43 L 148.882 435.358 L 148.882 435.358 Q 148.882 436.366 148.498 437.278 L 148.498 437.278 L 148.498 437.278 Q 148.114 438.19 147.418 438.886 L 147.418 438.886 L 147.418 438.886 Q 146.722 439.582 145.81 439.966 L 145.81 439.966 L 145.81 439.966 Q 144.898 440.35 143.89 440.35 L 143.89 440.35 L 134.914 440.35 L 134.914 440.35 Q 133.906 440.35 132.994 439.966 L 132.994 439.966 L 132.994 439.966 Q 132.082 439.582 131.386 438.886 L 131.386 438.886 L 131.386 438.886 Q 130.69 438.19 130.306 437.278 L 130.306 437.278 L 130.306 437.278 Q 129.922 436.366 129.922 435.358 L 129.922 435.358 L 129.922 422.59 L 129.922 422.59 Q 129.922 421.582 130.306 420.67 L 130.306 420.67 L 130.306 420.67 Q 130.69 419.758 131.386 419.062 L 131.386 419.062 L 131.386 419.062 Q 132.082 418.366 132.994 417.982 L 132.994 417.982 L 132.994 417.982 Q 133.906 417.598 134.914 417.598 L 134.914 417.598 L 143.89 417.598 L 143.89 417.598 Q 144.898 417.598 145.81 417.982 L 145.81 417.982 L 145.81 417.982 Q 146.722 418.366 147.418 419.062 L 147.418 419.062 L 147.418 419.062 Q 148.114 419.758 148.498 420.67 L 148.498 420.67 L 148.498 420.67 Q 148.882 421.582 148.882 422.59 L 148.882 422.59 L 148.882 425.134 L 142.402 426.334 L 142.402 424.126 L 142.402 424.126 Q 142.402 423.646 141.922 423.646 L 141.922 423.646 L 137.026 423.646 L 137.026 423.646 Q 136.546 423.646 136.546 424.126 L 136.546 424.126 L 136.546 433.822 L 136.546 433.822 Q 136.546 434.302 137.026 434.302 L 137.026 434.302 L 141.922 434.302 L 141.922 434.302 Q 142.402 434.302 142.402 433.822 L 142.402 433.822 L 142.402 431.278 L 142.402 431.278 Z  M 153.538 435.838 L 153.538 432.238 L 153.538 432.238 Q 153.538 430.03 154.834 428.638 L 154.834 428.638 L 154.834 428.638 Q 156.13 427.246 158.53 427.246 L 158.53 427.246 L 158.53 427.246 Q 159.874 427.246 161.938 427.462 L 161.938 427.462 L 161.938 427.462 Q 164.002 427.678 165.97 428.062 L 165.97 428.062 L 165.97 423.886 L 165.97 423.886 Q 165.97 423.406 165.49 423.406 L 165.49 423.406 L 160.546 423.406 L 160.546 423.406 Q 160.066 423.406 160.066 423.886 L 160.066 423.886 L 160.066 425.374 L 153.826 424.318 L 153.826 422.59 L 153.826 422.59 Q 153.826 421.582 154.21 420.67 L 154.21 420.67 L 154.21 420.67 Q 154.594 419.758 155.29 419.062 L 155.29 419.062 L 155.29 419.062 Q 155.986 418.366 156.898 417.982 L 156.898 417.982 L 156.898 417.982 Q 157.81 417.598 158.818 417.598 L 158.818 417.598 L 167.602 417.598 L 167.602 417.598 Q 168.61 417.598 169.522 417.982 L 169.522 417.982 L 169.522 417.982 Q 170.434 418.366 171.13 419.062 L 171.13 419.062 L 171.13 419.062 Q 171.826 419.758 172.21 420.67 L 172.21 420.67 L 172.21 420.67 Q 172.594 421.582 172.594 422.59 L 172.594 422.59 L 172.594 440.35 L 166.21 440.35 L 166.21 439.246 L 166.21 439.246 Q 165.442 439.534 164.41 439.822 L 164.41 439.822 L 164.41 439.822 Q 163.378 440.11 162.298 440.326 L 162.298 440.326 L 162.298 440.326 Q 161.218 440.542 160.21 440.686 L 160.21 440.686 L 160.21 440.686 Q 159.202 440.83 158.53 440.83 L 158.53 440.83 L 158.53 440.83 Q 156.13 440.83 154.834 439.438 L 154.834 439.438 L 154.834 439.438 Q 153.538 438.046 153.538 435.838 L 153.538 435.838 L 153.538 435.838 Z  M 165.97 434.206 L 165.97 432.91 L 165.97 432.91 Q 165.97 432.382 165.49 432.286 L 165.49 432.286 L 165.49 432.286 Q 164.818 432.238 164.05 432.166 L 164.05 432.166 L 164.05 432.166 Q 163.282 432.094 162.562 432.046 L 162.562 432.046 L 162.562 432.046 Q 161.842 431.998 161.266 431.974 L 161.266 431.974 L 161.266 431.974 Q 160.69 431.95 160.498 431.95 L 160.498 431.95 L 160.498 431.95 Q 160.018 431.95 160.018 432.43 L 160.018 432.43 L 160.018 435.358 L 160.018 435.358 Q 160.018 435.838 160.498 435.838 L 160.498 435.838 L 160.498 435.838 Q 160.69 435.838 161.41 435.718 L 161.41 435.718 L 161.41 435.718 Q 162.13 435.598 162.946 435.43 L 162.946 435.43 L 162.946 435.43 Q 163.762 435.262 164.506 435.094 L 164.506 435.094 L 164.506 435.094 Q 165.25 434.926 165.49 434.83 L 165.49 434.83 L 165.49 434.83 Q 165.97 434.686 165.97 434.206 L 165.97 434.206 L 165.97 434.206 Z  M 175.954 423.262 L 175.954 417.598 L 179.314 417.598 L 179.314 412.51 L 185.938 411.358 L 185.938 417.598 L 191.314 417.598 L 190.21 423.262 L 185.938 423.262 L 185.938 434.11 L 185.938 434.11 Q 185.938 434.59 186.418 434.59 L 186.418 434.59 L 190.45 434.59 L 190.45 440.35 L 184.306 440.35 L 184.306 440.35 Q 183.298 440.35 182.386 439.966 L 182.386 439.966 L 182.386 439.966 Q 181.474 439.582 180.778 438.886 L 180.778 438.886 L 180.778 438.886 Q 180.082 438.19 179.698 437.278 L 179.698 437.278 L 179.698 437.278 Q 179.314 436.366 179.314 435.358 L 179.314 435.358 L 179.314 423.262 L 175.954 423.262 L 175.954 423.262 Z  M 195.394 440.35 L 195.394 417.598 L 202.018 417.598 L 202.018 440.35 L 195.394 440.35 L 195.394 440.35 Z  M 195.394 414.766 L 195.394 407.614 L 202.018 407.614 L 202.018 414.766 L 195.394 414.766 L 195.394 414.766 Z  M 227.746 422.59 L 227.746 435.358 L 227.746 435.358 Q 227.746 436.366 227.362 437.278 L 227.362 437.278 L 227.362 437.278 Q 226.978 438.19 226.282 438.886 L 226.282 438.886 L 226.282 438.886 Q 225.586 439.582 224.674 439.966 L 224.674 439.966 L 224.674 439.966 Q 223.762 440.35 222.754 440.35 L 222.754 440.35 L 212.77 440.35 L 212.77 440.35 Q 211.762 440.35 210.85 439.966 L 210.85 439.966 L 210.85 439.966 Q 209.938 439.582 209.242 438.886 L 209.242 438.886 L 209.242 438.886 Q 208.546 438.19 208.162 437.278 L 208.162 437.278 L 208.162 437.278 Q 207.778 436.366 207.778 435.358 L 207.778 435.358 L 207.778 422.59 L 207.778 422.59 Q 207.778 421.582 208.162 420.67 L 208.162 420.67 L 208.162 420.67 Q 208.546 419.758 209.242 419.062 L 209.242 419.062 L 209.242 419.062 Q 209.938 418.366 210.85 417.982 L 210.85 417.982 L 210.85 417.982 Q 211.762 417.598 212.77 417.598 L 212.77 417.598 L 222.754 417.598 L 222.754 417.598 Q 223.762 417.598 224.674 417.982 L 224.674 417.982 L 224.674 417.982 Q 225.586 418.366 226.282 419.062 L 226.282 419.062 L 226.282 419.062 Q 226.978 419.758 227.362 420.67 L 227.362 420.67 L 227.362 420.67 Q 227.746 421.582 227.746 422.59 L 227.746 422.59 L 227.746 422.59 Z  M 221.122 433.822 L 221.122 424.126 L 221.122 424.126 Q 221.122 423.646 220.642 423.646 L 220.642 423.646 L 214.882 423.646 L 214.882 423.646 Q 214.402 423.646 214.402 424.126 L 214.402 424.126 L 214.402 433.822 L 214.402 433.822 Q 214.402 434.302 214.882 434.302 L 214.882 434.302 L 220.642 434.302 L 220.642 434.302 Q 221.122 434.302 221.122 433.822 L 221.122 433.822 L 221.122 433.822 Z  M 240.13 440.35 L 233.506 440.35 L 233.506 417.598 L 239.89 417.598 L 239.89 419.278 L 239.89 419.278 Q 240.658 418.99 241.738 418.606 L 241.738 418.606 L 241.738 418.606 Q 242.818 418.222 243.97 417.886 L 243.97 417.886 L 243.97 417.886 Q 245.122 417.55 246.202 417.334 L 246.202 417.334 L 246.202 417.334 Q 247.282 417.118 247.954 417.118 L 247.954 417.118 L 247.954 417.118 Q 250.354 417.118 251.65 418.51 L 251.65 418.51 L 251.65 418.51 Q 252.946 419.902 252.946 422.11 L 252.946 422.11 L 252.946 440.35 L 246.322 440.35 L 246.322 424.318 L 246.322 424.318 Q 246.322 423.838 245.842 423.838 L 245.842 423.838 L 245.842 423.838 Q 245.65 423.838 244.906 424.054 L 244.906 424.054 L 244.906 424.054 Q 244.162 424.27 243.298 424.534 L 243.298 424.534 L 243.298 424.534 Q 242.434 424.798 241.642 425.062 L 241.642 425.062 L 241.642 425.062 Q 240.85 425.326 240.61 425.422 L 240.61 425.422 L 240.61 425.422 Q 240.13 425.566 240.13 426.046 L 240.13 426.046 L 240.13 440.35 L 240.13 440.35 Z  M 24.61 382.75 L 24.61 350.782 L 31.57 350.782 L 31.57 376.414 L 44.29 376.414 L 44.29 382.75 L 24.61 382.75 L 24.61 382.75 Z  M 48.37 378.238 L 48.37 374.638 L 48.37 374.638 Q 48.37 372.43 49.666 371.038 L 49.666 371.038 L 49.666 371.038 Q 50.962 369.646 53.362 369.646 L 53.362 369.646 L 53.362 369.646 Q 54.706 369.646 56.77 369.862 L 56.77 369.862 L 56.77 369.862 Q 58.834 370.078 60.802 370.462 L 60.802 370.462 L 60.802 366.286 L 60.802 366.286 Q 60.802 365.806 60.322 365.806 L 60.322 365.806 L 55.378 365.806 L 55.378 365.806 Q 54.898 365.806 54.898 366.286 L 54.898 366.286 L 54.898 367.774 L 48.658 366.718 L 48.658 364.99 L 48.658 364.99 Q 48.658 363.982 49.042 363.07 L 49.042 363.07 L 49.042 363.07 Q 49.426 362.158 50.122 361.462 L 50.122 361.462 L 50.122 361.462 Q 50.818 360.766 51.73 360.382 L 51.73 360.382 L 51.73 360.382 Q 52.642 359.998 53.65 359.998 L 53.65 359.998 L 62.434 359.998 L 62.434 359.998 Q 63.442 359.998 64.354 360.382 L 64.354 360.382 L 64.354 360.382 Q 65.266 360.766 65.962 361.462 L 65.962 361.462 L 65.962 361.462 Q 66.658 362.158 67.042 363.07 L 67.042 363.07 L 67.042 363.07 Q 67.426 363.982 67.426 364.99 L 67.426 364.99 L 67.426 382.75 L 61.042 382.75 L 61.042 381.646 L 61.042 381.646 Q 60.274 381.934 59.242 382.222 L 59.242 382.222 L 59.242 382.222 Q 58.21 382.51 57.13 382.726 L 57.13 382.726 L 57.13 382.726 Q 56.05 382.942 55.042 383.086 L 55.042 383.086 L 55.042 383.086 Q 54.034 383.23 53.362 383.23 L 53.362 383.23 L 53.362 383.23 Q 50.962 383.23 49.666 381.838 L 49.666 381.838 L 49.666 381.838 Q 48.37 380.446 48.37 378.238 L 48.37 378.238 L 48.37 378.238 Z  M 60.802 376.606 L 60.802 375.31 L 60.802 375.31 Q 60.802 374.782 60.322 374.686 L 60.322 374.686 L 60.322 374.686 Q 59.65 374.638 58.882 374.566 L 58.882 374.566 L 58.882 374.566 Q 58.114 374.494 57.394 374.446 L 57.394 374.446 L 57.394 374.446 Q 56.674 374.398 56.098 374.374 L 56.098 374.374 L 56.098 374.374 Q 55.522 374.35 55.33 374.35 L 55.33 374.35 L 55.33 374.35 Q 54.85 374.35 54.85 374.83 L 54.85 374.83 L 54.85 377.758 L 54.85 377.758 Q 54.85 378.238 55.33 378.238 L 55.33 378.238 L 55.33 378.238 Q 55.522 378.238 56.242 378.118 L 56.242 378.118 L 56.242 378.118 Q 56.962 377.998 57.778 377.83 L 57.778 377.83 L 57.778 377.83 Q 58.594 377.662 59.338 377.494 L 59.338 377.494 L 59.338 377.494 Q 60.082 377.326 60.322 377.23 L 60.322 377.23 L 60.322 377.23 Q 60.802 377.086 60.802 376.606 L 60.802 376.606 L 60.802 376.606 Z  M 80.05 382.75 L 73.426 382.75 L 73.426 359.998 L 79.81 359.998 L 79.81 361.678 L 79.81 361.678 Q 80.578 361.39 81.658 361.006 L 81.658 361.006 L 81.658 361.006 Q 82.738 360.622 83.89 360.286 L 83.89 360.286 L 83.89 360.286 Q 85.042 359.95 86.122 359.734 L 86.122 359.734 L 86.122 359.734 Q 87.202 359.518 87.874 359.518 L 87.874 359.518 L 87.874 359.518 Q 90.274 359.518 91.57 360.91 L 91.57 360.91 L 91.57 360.91 Q 92.866 362.302 92.866 364.51 L 92.866 364.51 L 92.866 382.75 L 86.242 382.75 L 86.242 366.718 L 86.242 366.718 Q 86.242 366.238 85.762 366.238 L 85.762 366.238 L 85.762 366.238 Q 85.57 366.238 84.826 366.454 L 84.826 366.454 L 84.826 366.454 Q 84.082 366.67 83.218 366.934 L 83.218 366.934 L 83.218 366.934 Q 82.354 367.198 81.562 367.462 L 81.562 367.462 L 81.562 367.462 Q 80.77 367.726 80.53 367.822 L 80.53 367.822 L 80.53 367.822 Q 80.05 367.966 80.05 368.446 L 80.05 368.446 L 80.05 382.75 L 80.05 382.75 Z  M 100.642 391.87 L 100.642 386.446 L 110.818 386.446 L 110.818 386.446 Q 111.202 386.446 111.298 386.062 L 111.298 386.062 L 111.298 380.206 L 111.298 380.206 Q 110.53 380.494 109.45 380.854 L 109.45 380.854 L 109.45 380.854 Q 108.37 381.214 107.242 381.526 L 107.242 381.526 L 107.242 381.526 Q 106.114 381.838 105.082 382.054 L 105.082 382.054 L 105.082 382.054 Q 104.05 382.27 103.378 382.27 L 103.378 382.27 L 103.378 382.27 Q 100.978 382.27 99.682 380.878 L 99.682 380.878 L 99.682 380.878 Q 98.386 379.486 98.386 377.278 L 98.386 377.278 L 98.386 364.51 L 98.386 364.51 Q 98.386 362.302 99.682 360.91 L 99.682 360.91 L 99.682 360.91 Q 100.978 359.518 103.378 359.518 L 103.378 359.518 L 103.378 359.518 Q 104.05 359.518 105.13 359.734 L 105.13 359.734 L 105.13 359.734 Q 106.21 359.95 107.386 360.286 L 107.386 360.286 L 107.386 360.286 Q 108.562 360.622 109.666 361.006 L 109.666 361.006 L 109.666 361.006 Q 110.77 361.39 111.538 361.678 L 111.538 361.678 L 111.538 359.998 L 117.922 359.998 L 117.922 386.878 L 117.922 386.878 Q 117.922 387.886 117.538 388.798 L 117.538 388.798 L 117.538 388.798 Q 117.154 389.71 116.458 390.406 L 116.458 390.406 L 116.458 390.406 Q 115.762 391.102 114.85 391.486 L 114.85 391.486 L 114.85 391.486 Q 113.938 391.87 112.93 391.87 L 112.93 391.87 L 100.642 391.87 L 100.642 391.87 Z  M 111.298 373.918 L 111.298 367.87 L 111.298 367.87 Q 111.298 367.39 110.818 367.246 L 110.818 367.246 L 110.818 367.246 Q 110.578 367.15 109.762 366.886 L 109.762 366.886 L 109.762 366.886 Q 108.946 366.622 108.058 366.358 L 108.058 366.358 L 108.058 366.358 Q 107.17 366.094 106.378 365.878 L 106.378 365.878 L 106.378 365.878 Q 105.586 365.662 105.394 365.662 L 105.394 365.662 L 105.394 365.662 Q 104.914 365.662 104.914 366.142 L 104.914 366.142 L 104.914 375.646 L 104.914 375.646 Q 104.914 376.126 105.394 376.126 L 105.394 376.126 L 105.394 376.126 Q 105.586 376.126 106.378 375.91 L 106.378 375.91 L 106.378 375.91 Q 107.17 375.694 108.058 375.43 L 108.058 375.43 L 108.058 375.43 Q 108.946 375.166 109.762 374.902 L 109.762 374.902 L 109.762 374.902 Q 110.578 374.638 110.818 374.542 L 110.818 374.542 L 110.818 374.542 Q 111.298 374.398 111.298 373.918 L 111.298 373.918 L 111.298 373.918 Z  M 136.498 359.998 L 143.122 359.998 L 143.122 382.75 L 136.738 382.75 L 136.738 381.07 L 136.738 381.07 Q 135.97 381.358 134.866 381.742 L 134.866 381.742 L 134.866 381.742 Q 133.762 382.126 132.61 382.462 L 132.61 382.462 L 132.61 382.462 Q 131.458 382.798 130.402 383.014 L 130.402 383.014 L 130.402 383.014 Q 129.346 383.23 128.674 383.23 L 128.674 383.23 L 128.674 383.23 Q 126.274 383.23 124.978 381.838 L 124.978 381.838 L 124.978 381.838 Q 123.682 380.446 123.682 378.238 L 123.682 378.238 L 123.682 359.998 L 130.306 359.998 L 130.306 376.222 L 130.306 376.222 Q 130.306 376.702 130.786 376.702 L 130.786 376.702 L 130.786 376.702 Q 130.978 376.702 131.722 376.486 L 131.722 376.486 L 131.722 376.486 Q 132.466 376.27 133.33 376.006 L 133.33 376.006 L 133.33 376.006 Q 134.194 375.742 134.986 375.478 L 134.986 375.478 L 134.986 375.478 Q 135.778 375.214 136.018 375.118 L 136.018 375.118 L 136.018 375.118 Q 136.498 374.974 136.498 374.494 L 136.498 374.494 L 136.498 359.998 L 136.498 359.998 Z  M 148.882 378.238 L 148.882 374.638 L 148.882 374.638 Q 148.882 372.43 150.178 371.038 L 150.178 371.038 L 150.178 371.038 Q 151.474 369.646 153.874 369.646 L 153.874 369.646 L 153.874 369.646 Q 155.218 369.646 157.282 369.862 L 157.282 369.862 L 157.282 369.862 Q 159.346 370.078 161.314 370.462 L 161.314 370.462 L 161.314 366.286 L 161.314 366.286 Q 161.314 365.806 160.834 365.806 L 160.834 365.806 L 155.89 365.806 L 155.89 365.806 Q 155.41 365.806 155.41 366.286 L 155.41 366.286 L 155.41 367.774 L 149.17 366.718 L 149.17 364.99 L 149.17 364.99 Q 149.17 363.982 149.554 363.07 L 149.554 363.07 L 149.554 363.07 Q 149.938 362.158 150.634 361.462 L 150.634 361.462 L 150.634 361.462 Q 151.33 360.766 152.242 360.382 L 152.242 360.382 L 152.242 360.382 Q 153.154 359.998 154.162 359.998 L 154.162 359.998 L 162.946 359.998 L 162.946 359.998 Q 163.954 359.998 164.866 360.382 L 164.866 360.382 L 164.866 360.382 Q 165.778 360.766 166.474 361.462 L 166.474 361.462 L 166.474 361.462 Q 167.17 362.158 167.554 363.07 L 167.554 363.07 L 167.554 363.07 Q 167.938 363.982 167.938 364.99 L 167.938 364.99 L 167.938 382.75 L 161.554 382.75 L 161.554 381.646 L 161.554 381.646 Q 160.786 381.934 159.754 382.222 L 159.754 382.222 L 159.754 382.222 Q 158.722 382.51 157.642 382.726 L 157.642 382.726 L 157.642 382.726 Q 156.562 382.942 155.554 383.086 L 155.554 383.086 L 155.554 383.086 Q 154.546 383.23 153.874 383.23 L 153.874 383.23 L 153.874 383.23 Q 151.474 383.23 150.178 381.838 L 150.178 381.838 L 150.178 381.838 Q 148.882 380.446 148.882 378.238 L 148.882 378.238 L 148.882 378.238 Z  M 161.314 376.606 L 161.314 375.31 L 161.314 375.31 Q 161.314 374.782 160.834 374.686 L 160.834 374.686 L 160.834 374.686 Q 160.162 374.638 159.394 374.566 L 159.394 374.566 L 159.394 374.566 Q 158.626 374.494 157.906 374.446 L 157.906 374.446 L 157.906 374.446 Q 157.186 374.398 156.61 374.374 L 156.61 374.374 L 156.61 374.374 Q 156.034 374.35 155.842 374.35 L 155.842 374.35 L 155.842 374.35 Q 155.362 374.35 155.362 374.83 L 155.362 374.83 L 155.362 377.758 L 155.362 377.758 Q 155.362 378.238 155.842 378.238 L 155.842 378.238 L 155.842 378.238 Q 156.034 378.238 156.754 378.118 L 156.754 378.118 L 156.754 378.118 Q 157.474 377.998 158.29 377.83 L 158.29 377.83 L 158.29 377.83 Q 159.106 377.662 159.85 377.494 L 159.85 377.494 L 159.85 377.494 Q 160.594 377.326 160.834 377.23 L 160.834 377.23 L 160.834 377.23 Q 161.314 377.086 161.314 376.606 L 161.314 376.606 L 161.314 376.606 Z  M 175.714 391.87 L 175.714 386.446 L 185.89 386.446 L 185.89 386.446 Q 186.274 386.446 186.37 386.062 L 186.37 386.062 L 186.37 380.206 L 186.37 380.206 Q 185.602 380.494 184.522 380.854 L 184.522 380.854 L 184.522 380.854 Q 183.442 381.214 182.314 381.526 L 182.314 381.526 L 182.314 381.526 Q 181.186 381.838 180.154 382.054 L 180.154 382.054 L 180.154 382.054 Q 179.122 382.27 178.45 382.27 L 178.45 382.27 L 178.45 382.27 Q 176.05 382.27 174.754 380.878 L 174.754 380.878 L 174.754 380.878 Q 173.458 379.486 173.458 377.278 L 173.458 377.278 L 173.458 364.51 L 173.458 364.51 Q 173.458 362.302 174.754 360.91 L 174.754 360.91 L 174.754 360.91 Q 176.05 359.518 178.45 359.518 L 178.45 359.518 L 178.45 359.518 Q 179.122 359.518 180.202 359.734 L 180.202 359.734 L 180.202 359.734 Q 181.282 359.95 182.458 360.286 L 182.458 360.286 L 182.458 360.286 Q 183.634 360.622 184.738 361.006 L 184.738 361.006 L 184.738 361.006 Q 185.842 361.39 186.61 361.678 L 186.61 361.678 L 186.61 359.998 L 192.994 359.998 L 192.994 386.878 L 192.994 386.878 Q 192.994 387.886 192.61 388.798 L 192.61 388.798 L 192.61 388.798 Q 192.226 389.71 191.53 390.406 L 191.53 390.406 L 191.53 390.406 Q 190.834 391.102 189.922 391.486 L 189.922 391.486 L 189.922 391.486 Q 189.01 391.87 188.002 391.87 L 188.002 391.87 L 175.714 391.87 L 175.714 391.87 Z  M 186.37 373.918 L 186.37 367.87 L 186.37 367.87 Q 186.37 367.39 185.89 367.246 L 185.89 367.246 L 185.89 367.246 Q 185.65 367.15 184.834 366.886 L 184.834 366.886 L 184.834 366.886 Q 184.018 366.622 183.13 366.358 L 183.13 366.358 L 183.13 366.358 Q 182.242 366.094 181.45 365.878 L 181.45 365.878 L 181.45 365.878 Q 180.658 365.662 180.466 365.662 L 180.466 365.662 L 180.466 365.662 Q 179.986 365.662 179.986 366.142 L 179.986 366.142 L 179.986 375.646 L 179.986 375.646 Q 179.986 376.126 180.466 376.126 L 180.466 376.126 L 180.466 376.126 Q 180.658 376.126 181.45 375.91 L 181.45 375.91 L 181.45 375.91 Q 182.242 375.694 183.13 375.43 L 183.13 375.43 L 183.13 375.43 Q 184.018 375.166 184.834 374.902 L 184.834 374.902 L 184.834 374.902 Q 185.65 374.638 185.89 374.542 L 185.89 374.542 L 185.89 374.542 Q 186.37 374.398 186.37 373.918 L 186.37 373.918 L 186.37 373.918 Z  M 211.09 375.118 L 217.474 376.27 L 217.474 377.758 L 217.474 377.758 Q 217.474 378.766 217.09 379.678 L 217.09 379.678 L 217.09 379.678 Q 216.706 380.59 216.01 381.286 L 216.01 381.286 L 216.01 381.286 Q 215.314 381.982 214.402 382.366 L 214.402 382.366 L 214.402 382.366 Q 213.49 382.75 212.482 382.75 L 212.482 382.75 L 203.506 382.75 L 203.506 382.75 Q 202.498 382.75 201.586 382.366 L 201.586 382.366 L 201.586 382.366 Q 200.674 381.982 199.978 381.286 L 199.978 381.286 L 199.978 381.286 Q 199.282 380.59 198.898 379.678 L 198.898 379.678 L 198.898 379.678 Q 198.514 378.766 198.514 377.758 L 198.514 377.758 L 198.514 364.99 L 198.514 364.99 Q 198.514 363.982 198.898 363.07 L 198.898 363.07 L 198.898 363.07 Q 199.282 362.158 199.978 361.462 L 199.978 361.462 L 199.978 361.462 Q 200.674 360.766 201.586 360.382 L 201.586 360.382 L 201.586 360.382 Q 202.498 359.998 203.506 359.998 L 203.506 359.998 L 212.29 359.998 L 212.29 359.998 Q 213.298 359.998 214.21 360.382 L 214.21 360.382 L 214.21 360.382 Q 215.122 360.766 215.818 361.462 L 215.818 361.462 L 215.818 361.462 Q 216.514 362.158 216.898 363.07 L 216.898 363.07 L 216.898 363.07 Q 217.282 363.982 217.282 364.99 L 217.282 364.99 L 217.282 373.342 L 205.138 373.342 L 205.138 376.558 L 205.138 376.558 Q 205.138 377.038 205.618 377.038 L 205.618 377.038 L 210.61 377.038 L 210.61 377.038 Q 211.09 377.038 211.09 376.558 L 211.09 376.558 L 211.09 375.118 L 211.09 375.118 Z  M 205.138 366.238 L 205.138 368.59 L 211.042 368.59 L 211.042 366.238 L 211.042 366.238 Q 211.042 365.758 210.562 365.758 L 210.562 365.758 L 205.618 365.758 L 205.618 365.758 Q 205.138 365.758 205.138 366.238 L 205.138 366.238 L 205.138 366.238 Z  M 36.418 320.206 L 31.33 308.35 L 31.33 325.15 L 24.61 325.15 L 24.61 293.182 L 31.33 293.182 L 39.346 312.334 L 47.362 293.182 L 54.082 293.182 L 54.082 325.15 L 47.362 325.15 L 47.362 308.35 L 42.274 320.206 L 36.418 320.206 L 36.418 320.206 Z  M 73.138 302.398 L 79.762 302.398 L 79.762 325.15 L 73.378 325.15 L 73.378 323.47 L 73.378 323.47 Q 72.61 323.758 71.506 324.142 L 71.506 324.142 L 71.506 324.142 Q 70.402 324.526 69.25 324.862 L 69.25 324.862 L 69.25 324.862 Q 68.098 325.198 67.042 325.414 L 67.042 325.414 L 67.042 325.414 Q 65.986 325.63 65.314 325.63 L 65.314 325.63 L 65.314 325.63 Q 62.914 325.63 61.618 324.238 L 61.618 324.238 L 61.618 324.238 Q 60.322 322.846 60.322 320.638 L 60.322 320.638 L 60.322 302.398 L 66.946 302.398 L 66.946 318.622 L 66.946 318.622 Q 66.946 319.102 67.426 319.102 L 67.426 319.102 L 67.426 319.102 Q 67.618 319.102 68.362 318.886 L 68.362 318.886 L 68.362 318.886 Q 69.106 318.67 69.97 318.406 L 69.97 318.406 L 69.97 318.406 Q 70.834 318.142 71.626 317.878 L 71.626 317.878 L 71.626 317.878 Q 72.418 317.614 72.658 317.518 L 72.658 317.518 L 72.658 317.518 Q 73.138 317.374 73.138 316.894 L 73.138 316.894 L 73.138 302.398 L 73.138 302.398 Z  M 86.002 325.15 L 86.002 293.182 L 92.626 292.03 L 92.626 325.15 L 86.002 325.15 L 86.002 325.15 Z  M 96.226 308.062 L 96.226 302.398 L 99.586 302.398 L 99.586 297.31 L 106.21 296.158 L 106.21 302.398 L 111.586 302.398 L 110.482 308.062 L 106.21 308.062 L 106.21 318.91 L 106.21 318.91 Q 106.21 319.39 106.69 319.39 L 106.69 319.39 L 110.722 319.39 L 110.722 325.15 L 104.578 325.15 L 104.578 325.15 Q 103.57 325.15 102.658 324.766 L 102.658 324.766 L 102.658 324.766 Q 101.746 324.382 101.05 323.686 L 101.05 323.686 L 101.05 323.686 Q 100.354 322.99 99.97 322.078 L 99.97 322.078 L 99.97 322.078 Q 99.586 321.166 99.586 320.158 L 99.586 320.158 L 99.586 308.062 L 96.226 308.062 L 96.226 308.062 Z  M 115.666 325.15 L 115.666 302.398 L 122.29 302.398 L 122.29 325.15 L 115.666 325.15 L 115.666 325.15 Z  M 115.666 299.566 L 115.666 292.414 L 122.29 292.414 L 122.29 299.566 L 115.666 299.566 L 115.666 299.566 Z  M 126.61 308.062 L 126.61 302.398 L 129.634 302.398 L 129.634 297.742 L 129.634 297.742 Q 129.634 296.734 130.018 295.822 L 130.018 295.822 L 130.018 295.822 Q 130.402 294.91 131.098 294.214 L 131.098 294.214 L 131.098 294.214 Q 131.794 293.518 132.706 293.134 L 132.706 293.134 L 132.706 293.134 Q 133.618 292.75 134.626 292.75 L 134.626 292.75 L 141.586 292.75 L 141.586 298.51 L 136.738 298.51 L 136.738 298.51 Q 136.258 298.51 136.258 298.99 L 136.258 298.99 L 136.258 302.398 L 141.298 302.398 L 140.578 308.062 L 136.258 308.062 L 136.258 325.15 L 129.634 325.15 L 129.634 308.062 L 126.61 308.062 L 126.61 308.062 Z  M 158.002 302.398 L 164.626 302.398 L 164.626 325.15 L 158.242 325.15 L 158.242 323.47 L 158.242 323.47 Q 157.474 323.758 156.37 324.142 L 156.37 324.142 L 156.37 324.142 Q 155.266 324.526 154.114 324.862 L 154.114 324.862 L 154.114 324.862 Q 152.962 325.198 151.906 325.414 L 151.906 325.414 L 151.906 325.414 Q 150.85 325.63 150.178 325.63 L 150.178 325.63 L 150.178 325.63 Q 147.778 325.63 146.482 324.238 L 146.482 324.238 L 146.482 324.238 Q 145.186 322.846 145.186 320.638 L 145.186 320.638 L 145.186 302.398 L 151.81 302.398 L 151.81 318.622 L 151.81 318.622 Q 151.81 319.102 152.29 319.102 L 152.29 319.102 L 152.29 319.102 Q 152.482 319.102 153.226 318.886 L 153.226 318.886 L 153.226 318.886 Q 153.97 318.67 154.834 318.406 L 154.834 318.406 L 154.834 318.406 Q 155.698 318.142 156.49 317.878 L 156.49 317.878 L 156.49 317.878 Q 157.282 317.614 157.522 317.518 L 157.522 317.518 L 157.522 317.518 Q 158.002 317.374 158.002 316.894 L 158.002 316.894 L 158.002 302.398 L 158.002 302.398 Z  M 177.49 325.15 L 170.866 325.15 L 170.866 302.398 L 177.25 302.398 L 177.25 304.078 L 177.25 304.078 Q 178.018 303.79 179.098 303.406 L 179.098 303.406 L 179.098 303.406 Q 180.178 303.022 181.33 302.686 L 181.33 302.686 L 181.33 302.686 Q 182.482 302.35 183.562 302.134 L 183.562 302.134 L 183.562 302.134 Q 184.642 301.918 185.314 301.918 L 185.314 301.918 L 185.314 301.918 Q 187.714 301.918 189.01 303.31 L 189.01 303.31 L 189.01 303.31 Q 190.306 304.702 190.306 306.91 L 190.306 306.91 L 190.306 325.15 L 183.682 325.15 L 183.682 309.118 L 183.682 309.118 Q 183.682 308.638 183.202 308.638 L 183.202 308.638 L 183.202 308.638 Q 183.01 308.638 182.266 308.854 L 182.266 308.854 L 182.266 308.854 Q 181.522 309.07 180.658 309.334 L 180.658 309.334 L 180.658 309.334 Q 179.794 309.598 179.002 309.862 L 179.002 309.862 L 179.002 309.862 Q 178.21 310.126 177.97 310.222 L 177.97 310.222 L 177.97 310.222 Q 177.49 310.366 177.49 310.846 L 177.49 310.846 L 177.49 325.15 L 177.49 325.15 Z  M 208.306 316.078 L 214.786 317.23 L 214.786 320.158 L 214.786 320.158 Q 214.786 321.166 214.402 322.078 L 214.402 322.078 L 214.402 322.078 Q 214.018 322.99 213.322 323.686 L 213.322 323.686 L 213.322 323.686 Q 212.626 324.382 211.714 324.766 L 211.714 324.766 L 211.714 324.766 Q 210.802 325.15 209.794 325.15 L 209.794 325.15 L 200.818 325.15 L 200.818 325.15 Q 199.81 325.15 198.898 324.766 L 198.898 324.766 L 198.898 324.766 Q 197.986 324.382 197.29 323.686 L 197.29 323.686 L 197.29 323.686 Q 196.594 322.99 196.21 322.078 L 196.21 322.078 L 196.21 322.078 Q 195.826 321.166 195.826 320.158 L 195.826 320.158 L 195.826 307.39 L 195.826 307.39 Q 195.826 306.382 196.21 305.47 L 196.21 305.47 L 196.21 305.47 Q 196.594 304.558 197.29 303.862 L 197.29 303.862 L 197.29 303.862 Q 197.986 303.166 198.898 302.782 L 198.898 302.782 L 198.898 302.782 Q 199.81 302.398 200.818 302.398 L 200.818 302.398 L 209.794 302.398 L 209.794 302.398 Q 210.802 302.398 211.714 302.782 L 211.714 302.782 L 211.714 302.782 Q 212.626 303.166 213.322 303.862 L 213.322 303.862 L 213.322 303.862 Q 214.018 304.558 214.402 305.47 L 214.402 305.47 L 214.402 305.47 Q 214.786 306.382 214.786 307.39 L 214.786 307.39 L 214.786 309.934 L 208.306 311.134 L 208.306 308.926 L 208.306 308.926 Q 208.306 308.446 207.826 308.446 L 207.826 308.446 L 202.93 308.446 L 202.93 308.446 Q 202.45 308.446 202.45 308.926 L 202.45 308.926 L 202.45 318.622 L 202.45 318.622 Q 202.45 319.102 202.93 319.102 L 202.93 319.102 L 207.826 319.102 L 207.826 319.102 Q 208.306 319.102 208.306 318.622 L 208.306 318.622 L 208.306 316.078 L 208.306 316.078 Z  M 217.282 308.062 L 217.282 302.398 L 220.642 302.398 L 220.642 297.31 L 227.266 296.158 L 227.266 302.398 L 232.642 302.398 L 231.538 308.062 L 227.266 308.062 L 227.266 318.91 L 227.266 318.91 Q 227.266 319.39 227.746 319.39 L 227.746 319.39 L 231.778 319.39 L 231.778 325.15 L 225.634 325.15 L 225.634 325.15 Q 224.626 325.15 223.714 324.766 L 223.714 324.766 L 223.714 324.766 Q 222.802 324.382 222.106 323.686 L 222.106 323.686 L 222.106 323.686 Q 221.41 322.99 221.026 322.078 L 221.026 322.078 L 221.026 322.078 Q 220.642 321.166 220.642 320.158 L 220.642 320.158 L 220.642 308.062 L 217.282 308.062 L 217.282 308.062 Z  M 236.722 325.15 L 236.722 302.398 L 243.346 302.398 L 243.346 325.15 L 236.722 325.15 L 236.722 325.15 Z  M 236.722 299.566 L 236.722 292.414 L 243.346 292.414 L 243.346 299.566 L 236.722 299.566 L 236.722 299.566 Z  M 269.074 307.39 L 269.074 320.158 L 269.074 320.158 Q 269.074 321.166 268.69 322.078 L 268.69 322.078 L 268.69 322.078 Q 268.306 322.99 267.61 323.686 L 267.61 323.686 L 267.61 323.686 Q 266.914 324.382 266.002 324.766 L 266.002 324.766 L 266.002 324.766 Q 265.09 325.15 264.082 325.15 L 264.082 325.15 L 254.098 325.15 L 254.098 325.15 Q 253.09 325.15 252.178 324.766 L 252.178 324.766 L 252.178 324.766 Q 251.266 324.382 250.57 323.686 L 250.57 323.686 L 250.57 323.686 Q 249.874 322.99 249.49 322.078 L 249.49 322.078 L 249.49 322.078 Q 249.106 321.166 249.106 320.158 L 249.106 320.158 L 249.106 307.39 L 249.106 307.39 Q 249.106 306.382 249.49 305.47 L 249.49 305.47 L 249.49 305.47 Q 249.874 304.558 250.57 303.862 L 250.57 303.862 L 250.57 303.862 Q 251.266 303.166 252.178 302.782 L 252.178 302.782 L 252.178 302.782 Q 253.09 302.398 254.098 302.398 L 254.098 302.398 L 264.082 302.398 L 264.082 302.398 Q 265.09 302.398 266.002 302.782 L 266.002 302.782 L 266.002 302.782 Q 266.914 303.166 267.61 303.862 L 267.61 303.862 L 267.61 303.862 Q 268.306 304.558 268.69 305.47 L 268.69 305.47 L 268.69 305.47 Q 269.074 306.382 269.074 307.39 L 269.074 307.39 L 269.074 307.39 Z  M 262.45 318.622 L 262.45 308.926 L 262.45 308.926 Q 262.45 308.446 261.97 308.446 L 261.97 308.446 L 256.21 308.446 L 256.21 308.446 Q 255.73 308.446 255.73 308.926 L 255.73 308.926 L 255.73 318.622 L 255.73 318.622 Q 255.73 319.102 256.21 319.102 L 256.21 319.102 L 261.97 319.102 L 261.97 319.102 Q 262.45 319.102 262.45 318.622 L 262.45 318.622 L 262.45 318.622 Z  M 281.458 325.15 L 274.834 325.15 L 274.834 302.398 L 281.218 302.398 L 281.218 304.078 L 281.218 304.078 Q 281.986 303.79 283.066 303.406 L 283.066 303.406 L 283.066 303.406 Q 284.146 303.022 285.298 302.686 L 285.298 302.686 L 285.298 302.686 Q 286.45 302.35 287.53 302.134 L 287.53 302.134 L 287.53 302.134 Q 288.61 301.918 289.282 301.918 L 289.282 301.918 L 289.282 301.918 Q 291.682 301.918 292.978 303.31 L 292.978 303.31 L 292.978 303.31 Q 294.274 304.702 294.274 306.91 L 294.274 306.91 L 294.274 325.15 L 287.65 325.15 L 287.65 309.118 L 287.65 309.118 Q 287.65 308.638 287.17 308.638 L 287.17 308.638 L 287.17 308.638 Q 286.978 308.638 286.234 308.854 L 286.234 308.854 L 286.234 308.854 Q 285.49 309.07 284.626 309.334 L 284.626 309.334 L 284.626 309.334 Q 283.762 309.598 282.97 309.862 L 282.97 309.862 L 282.97 309.862 Q 282.178 310.126 281.938 310.222 L 281.938 310.222 L 281.938 310.222 Q 281.458 310.366 281.458 310.846 L 281.458 310.846 L 281.458 325.15 L 281.458 325.15 Z  M 299.794 320.638 L 299.794 317.038 L 299.794 317.038 Q 299.794 314.83 301.09 313.438 L 301.09 313.438 L 301.09 313.438 Q 302.386 312.046 304.786 312.046 L 304.786 312.046 L 304.786 312.046 Q 306.13 312.046 308.194 312.262 L 308.194 312.262 L 308.194 312.262 Q 310.258 312.478 312.226 312.862 L 312.226 312.862 L 312.226 308.686 L 312.226 308.686 Q 312.226 308.206 311.746 308.206 L 311.746 308.206 L 306.802 308.206 L 306.802 308.206 Q 306.322 308.206 306.322 308.686 L 306.322 308.686 L 306.322 310.174 L 300.082 309.118 L 300.082 307.39 L 300.082 307.39 Q 300.082 306.382 300.466 305.47 L 300.466 305.47 L 300.466 305.47 Q 300.85 304.558 301.546 303.862 L 301.546 303.862 L 301.546 303.862 Q 302.242 303.166 303.154 302.782 L 303.154 302.782 L 303.154 302.782 Q 304.066 302.398 305.074 302.398 L 305.074 302.398 L 313.858 302.398 L 313.858 302.398 Q 314.866 302.398 315.778 302.782 L 315.778 302.782 L 315.778 302.782 Q 316.69 303.166 317.386 303.862 L 317.386 303.862 L 317.386 303.862 Q 318.082 304.558 318.466 305.47 L 318.466 305.47 L 318.466 305.47 Q 318.85 306.382 318.85 307.39 L 318.85 307.39 L 318.85 325.15 L 312.466 325.15 L 312.466 324.046 L 312.466 324.046 Q 311.698 324.334 310.666 324.622 L 310.666 324.622 L 310.666 324.622 Q 309.634 324.91 308.554 325.126 L 308.554 325.126 L 308.554 325.126 Q 307.474 325.342 306.466 325.486 L 306.466 325.486 L 306.466 325.486 Q 305.458 325.63 304.786 325.63 L 304.786 325.63 L 304.786 325.63 Q 302.386 325.63 301.09 324.238 L 301.09 324.238 L 301.09 324.238 Q 299.794 322.846 299.794 320.638 L 299.794 320.638 L 299.794 320.638 Z  M 312.226 319.006 L 312.226 317.71 L 312.226 317.71 Q 312.226 317.182 311.746 317.086 L 311.746 317.086 L 311.746 317.086 Q 311.074 317.038 310.306 316.966 L 310.306 316.966 L 310.306 316.966 Q 309.538 316.894 308.818 316.846 L 308.818 316.846 L 308.818 316.846 Q 308.098 316.798 307.522 316.774 L 307.522 316.774 L 307.522 316.774 Q 306.946 316.75 306.754 316.75 L 306.754 316.75 L 306.754 316.75 Q 306.274 316.75 306.274 317.23 L 306.274 317.23 L 306.274 320.158 L 306.274 320.158 Q 306.274 320.638 306.754 320.638 L 306.754 320.638 L 306.754 320.638 Q 306.946 320.638 307.666 320.518 L 307.666 320.518 L 307.666 320.518 Q 308.386 320.398 309.202 320.23 L 309.202 320.23 L 309.202 320.23 Q 310.018 320.062 310.762 319.894 L 310.762 319.894 L 310.762 319.894 Q 311.506 319.726 311.746 319.63 L 311.746 319.63 L 311.746 319.63 Q 312.226 319.486 312.226 319.006 L 312.226 319.006 L 312.226 319.006 Z  M 324.85 325.15 L 324.85 293.182 L 331.474 292.03 L 331.474 325.15 L 324.85 325.15 L 324.85 325.15 Z  M 46.738 240.862 L 46.738 262.27 L 46.738 262.27 Q 46.738 263.374 46.33 264.334 L 46.33 264.334 L 46.33 264.334 Q 45.922 265.294 45.202 266.014 L 45.202 266.014 L 45.202 266.014 Q 44.482 266.734 43.522 267.142 L 43.522 267.142 L 43.522 267.142 Q 42.562 267.55 41.458 267.55 L 41.458 267.55 L 29.65 267.55 L 29.65 267.55 Q 28.546 267.55 27.586 267.142 L 27.586 267.142 L 27.586 267.142 Q 26.626 266.734 25.906 266.014 L 25.906 266.014 L 25.906 266.014 Q 25.186 265.294 24.778 264.334 L 24.778 264.334 L 24.778 264.334 Q 24.37 263.374 24.37 262.27 L 24.37 262.27 L 24.37 240.862 L 24.37 240.862 Q 24.37 239.758 24.778 238.798 L 24.778 238.798 L 24.778 238.798 Q 25.186 237.838 25.906 237.118 L 25.906 237.118 L 25.906 237.118 Q 26.626 236.398 27.586 235.99 L 27.586 235.99 L 27.586 235.99 Q 28.546 235.582 29.65 235.582 L 29.65 235.582 L 41.458 235.582 L 41.458 235.582 Q 42.562 235.582 43.522 235.99 L 43.522 235.99 L 43.522 235.99 Q 44.482 236.398 45.202 237.118 L 45.202 237.118 L 45.202 237.118 Q 45.922 237.838 46.33 238.798 L 46.33 238.798 L 46.33 238.798 Q 46.738 239.758 46.738 240.862 L 46.738 240.862 L 46.738 240.862 Z  M 39.778 260.734 L 39.778 242.398 L 39.778 242.398 Q 39.778 241.918 39.298 241.918 L 39.298 241.918 L 31.81 241.918 L 31.81 241.918 Q 31.33 241.918 31.33 242.398 L 31.33 242.398 L 31.33 260.734 L 31.33 260.734 Q 31.33 261.214 31.81 261.214 L 31.81 261.214 L 39.298 261.214 L 39.298 261.214 Q 39.778 261.214 39.778 260.734 L 39.778 260.734 L 39.778 260.734 Z  M 51.058 250.462 L 51.058 244.798 L 54.082 244.798 L 54.082 240.142 L 54.082 240.142 Q 54.082 239.134 54.466 238.222 L 54.466 238.222 L 54.466 238.222 Q 54.85 237.31 55.546 236.614 L 55.546 236.614 L 55.546 236.614 Q 56.242 235.918 57.154 235.534 L 57.154 235.534 L 57.154 235.534 Q 58.066 235.15 59.074 235.15 L 59.074 235.15 L 66.034 235.15 L 66.034 240.91 L 61.186 240.91 L 61.186 240.91 Q 60.706 240.91 60.706 241.39 L 60.706 241.39 L 60.706 244.798 L 65.746 244.798 L 65.026 250.462 L 60.706 250.462 L 60.706 267.55 L 54.082 267.55 L 54.082 250.462 L 51.058 250.462 L 51.058 250.462 Z  M 67.954 250.462 L 67.954 244.798 L 70.978 244.798 L 70.978 240.142 L 70.978 240.142 Q 70.978 239.134 71.362 238.222 L 71.362 238.222 L 71.362 238.222 Q 71.746 237.31 72.442 236.614 L 72.442 236.614 L 72.442 236.614 Q 73.138 235.918 74.05 235.534 L 74.05 235.534 L 74.05 235.534 Q 74.962 235.15 75.97 235.15 L 75.97 235.15 L 82.93 235.15 L 82.93 240.91 L 78.082 240.91 L 78.082 240.91 Q 77.602 240.91 77.602 241.39 L 77.602 241.39 L 77.602 244.798 L 82.642 244.798 L 81.922 250.462 L 77.602 250.462 L 77.602 267.55 L 70.978 267.55 L 70.978 250.462 L 67.954 250.462 L 67.954 250.462 Z  M 86.77 267.55 L 86.77 235.582 L 93.394 234.43 L 93.394 267.55 L 86.77 267.55 L 86.77 267.55 Z  M 99.634 267.55 L 99.634 244.798 L 106.258 244.798 L 106.258 267.55 L 99.634 267.55 L 99.634 267.55 Z  M 99.634 241.966 L 99.634 234.814 L 106.258 234.814 L 106.258 241.966 L 99.634 241.966 L 99.634 241.966 Z  M 119.122 267.55 L 112.498 267.55 L 112.498 244.798 L 118.882 244.798 L 118.882 246.478 L 118.882 246.478 Q 119.65 246.19 120.73 245.806 L 120.73 245.806 L 120.73 245.806 Q 121.81 245.422 122.962 245.086 L 122.962 245.086 L 122.962 245.086 Q 124.114 244.75 125.194 244.534 L 125.194 244.534 L 125.194 244.534 Q 126.274 244.318 126.946 244.318 L 126.946 244.318 L 126.946 244.318 Q 129.346 244.318 130.642 245.71 L 130.642 245.71 L 130.642 245.71 Q 131.938 247.102 131.938 249.31 L 131.938 249.31 L 131.938 267.55 L 125.314 267.55 L 125.314 251.518 L 125.314 251.518 Q 125.314 251.038 124.834 251.038 L 124.834 251.038 L 124.834 251.038 Q 124.642 251.038 123.898 251.254 L 123.898 251.254 L 123.898 251.254 Q 123.154 251.47 122.29 251.734 L 122.29 251.734 L 122.29 251.734 Q 121.426 251.998 120.634 252.262 L 120.634 252.262 L 120.634 252.262 Q 119.842 252.526 119.602 252.622 L 119.602 252.622 L 119.602 252.622 Q 119.122 252.766 119.122 253.246 L 119.122 253.246 L 119.122 267.55 L 119.122 267.55 Z  M 150.034 259.918 L 156.418 261.07 L 156.418 262.558 L 156.418 262.558 Q 156.418 263.566 156.034 264.478 L 156.034 264.478 L 156.034 264.478 Q 155.65 265.39 154.954 266.086 L 154.954 266.086 L 154.954 266.086 Q 154.258 266.782 153.346 267.166 L 153.346 267.166 L 153.346 267.166 Q 152.434 267.55 151.426 267.55 L 151.426 267.55 L 142.45 267.55 L 142.45 267.55 Q 141.442 267.55 140.53 267.166 L 140.53 267.166 L 140.53 267.166 Q 139.618 266.782 138.922 266.086 L 138.922 266.086 L 138.922 266.086 Q 138.226 265.39 137.842 264.478 L 137.842 264.478 L 137.842 264.478 Q 137.458 263.566 137.458 262.558 L 137.458 262.558 L 137.458 249.79 L 137.458 249.79 Q 137.458 248.782 137.842 247.87 L 137.842 247.87 L 137.842 247.87 Q 138.226 246.958 138.922 246.262 L 138.922 246.262 L 138.922 246.262 Q 139.618 245.566 140.53 245.182 L 140.53 245.182 L 140.53 245.182 Q 141.442 244.798 142.45 244.798 L 142.45 244.798 L 151.234 244.798 L 151.234 244.798 Q 152.242 244.798 153.154 245.182 L 153.154 245.182 L 153.154 245.182 Q 154.066 245.566 154.762 246.262 L 154.762 246.262 L 154.762 246.262 Q 155.458 246.958 155.842 247.87 L 155.842 247.87 L 155.842 247.87 Q 156.226 248.782 156.226 249.79 L 156.226 249.79 L 156.226 258.142 L 144.082 258.142 L 144.082 261.358 L 144.082 261.358 Q 144.082 261.838 144.562 261.838 L 144.562 261.838 L 149.554 261.838 L 149.554 261.838 Q 150.034 261.838 150.034 261.358 L 150.034 261.358 L 150.034 259.918 L 150.034 259.918 Z  M 144.082 251.038 L 144.082 253.39 L 149.986 253.39 L 149.986 251.038 L 149.986 251.038 Q 149.986 250.558 149.506 250.558 L 149.506 250.558 L 144.562 250.558 L 144.562 250.558 Q 144.082 250.558 144.082 251.038 L 144.082 251.038 L 144.082 251.038 Z  M 22.45 184.318 L 22.45 177.982 L 45.922 177.982 L 45.922 184.318 L 37.666 184.318 L 37.666 209.95 L 30.706 209.95 L 30.706 184.318 L 22.45 184.318 L 22.45 184.318 Z  M 69.682 209.95 L 63.058 209.95 L 63.058 193.918 L 63.058 193.918 Q 63.058 193.438 62.578 193.438 L 62.578 193.438 L 62.578 193.438 Q 62.386 193.438 61.642 193.654 L 61.642 193.654 L 61.642 193.654 Q 60.898 193.87 60.034 194.134 L 60.034 194.134 L 60.034 194.134 Q 59.17 194.398 58.378 194.662 L 58.378 194.662 L 58.378 194.662 Q 57.586 194.926 57.346 195.022 L 57.346 195.022 L 57.346 195.022 Q 56.866 195.166 56.866 195.646 L 56.866 195.646 L 56.866 209.95 L 50.242 209.95 L 50.242 177.982 L 56.866 176.83 L 56.866 188.782 L 56.866 188.782 Q 57.634 188.494 58.714 188.134 L 58.714 188.134 L 58.714 188.134 Q 59.794 187.774 60.898 187.462 L 60.898 187.462 L 60.898 187.462 Q 62.002 187.15 63.01 186.934 L 63.01 186.934 L 63.01 186.934 Q 64.018 186.718 64.69 186.718 L 64.69 186.718 L 64.69 186.718 Q 67.09 186.718 68.386 188.11 L 68.386 188.11 L 68.386 188.11 Q 69.682 189.502 69.682 191.71 L 69.682 191.71 L 69.682 209.95 L 69.682 209.95 Z  M 87.778 202.318 L 94.162 203.47 L 94.162 204.958 L 94.162 204.958 Q 94.162 205.966 93.778 206.878 L 93.778 206.878 L 93.778 206.878 Q 93.394 207.79 92.698 208.486 L 92.698 208.486 L 92.698 208.486 Q 92.002 209.182 91.09 209.566 L 91.09 209.566 L 91.09 209.566 Q 90.178 209.95 89.17 209.95 L 89.17 209.95 L 80.194 209.95 L 80.194 209.95 Q 79.186 209.95 78.274 209.566 L 78.274 209.566 L 78.274 209.566 Q 77.362 209.182 76.666 208.486 L 76.666 208.486 L 76.666 208.486 Q 75.97 207.79 75.586 206.878 L 75.586 206.878 L 75.586 206.878 Q 75.202 205.966 75.202 204.958 L 75.202 204.958 L 75.202 192.19 L 75.202 192.19 Q 75.202 191.182 75.586 190.27 L 75.586 190.27 L 75.586 190.27 Q 75.97 189.358 76.666 188.662 L 76.666 188.662 L 76.666 188.662 Q 77.362 187.966 78.274 187.582 L 78.274 187.582 L 78.274 187.582 Q 79.186 187.198 80.194 187.198 L 80.194 187.198 L 88.978 187.198 L 88.978 187.198 Q 89.986 187.198 90.898 187.582 L 90.898 187.582 L 90.898 187.582 Q 91.81 187.966 92.506 188.662 L 92.506 188.662 L 92.506 188.662 Q 93.202 189.358 93.586 190.27 L 93.586 190.27 L 93.586 190.27 Q 93.97 191.182 93.97 192.19 L 93.97 192.19 L 93.97 200.542 L 81.826 200.542 L 81.826 203.758 L 81.826 203.758 Q 81.826 204.238 82.306 204.238 L 82.306 204.238 L 87.298 204.238 L 87.298 204.238 Q 87.778 204.238 87.778 203.758 L 87.778 203.758 L 87.778 202.318 L 87.778 202.318 Z  M 81.826 193.438 L 81.826 195.79 L 87.73 195.79 L 87.73 193.438 L 87.73 193.438 Q 87.73 192.958 87.25 192.958 L 87.25 192.958 L 82.306 192.958 L 82.306 192.958 Q 81.826 192.958 81.826 193.438 L 81.826 193.438 L 81.826 193.438 Z " fill-rule="evenodd" fill="rgb(255,255,255)"/><rect x="0" y="477" width="375" height="335" transform="matrix(1,0,0,1,0,0)" fill="rgb(0,0,0)"/><rect x="-0.5" y="0" width="375" height="132" transform="matrix(1,0,0,1,0,0)" fill="rgb(255,255,255)"/><g><g><g><rect x="78.208" y="0" width="218.584" height="105.6" transform="matrix(1,0,0,1,0,0)" fill="none"/><rect x="78.208" y="0" width="52.8" height="105.6" transform="matrix(1,0,0,1,0,0)" fill="rgb(21,66,115)"/></g><path d=" M 105.558 81.692 L 104.64 81.692 L 104.64 79.147 L 105.558 79.147 L 105.558 81.692 Z  M 109.708 70.456 L 108.79 70.456 L 108.79 67.911 L 109.708 67.911 L 109.708 70.456 Z  M 92.686 66.063 C 92.612 66.063 92.137 66.063 92.137 66.158 C 92.137 66.253 92.358 66.211 92.686 66.264 C 93.425 66.391 93.71 66.76 94.228 66.76 C 94.692 66.76 95.178 66.444 94.988 65.768 C 94.956 65.652 94.893 65.683 94.872 65.757 C 94.798 66.063 94.428 66.232 94.037 66.232 C 93.552 66.232 93.457 66.063 92.686 66.063 Z  M 87.628 68.608 C 87.712 68.724 88.578 69.844 87.247 70.277 C 87.184 70.298 87.173 70.351 87.258 70.393 C 88.24 70.805 88.715 70.044 88.715 70.044 C 89.212 71.185 88.451 71.808 88.451 71.808 C 88.557 72.009 89.032 72.357 89.74 72.516 C 90.014 72.368 90.394 72.093 90.553 71.671 C 90.553 71.671 90.743 72.167 90.574 72.642 C 92.58 72.822 93.288 71.217 94.84 71.512 C 94.882 71.523 94.903 71.491 94.903 71.449 C 94.903 70.456 94.301 68.651 92.38 68.281 C 90.468 67.911 90.986 67.13 90.986 67.13 C 91.788 67.098 92.253 67.447 92.253 67.447 C 92.401 67.204 92.189 66.95 92.189 66.95 C 92.263 66.855 92.306 66.528 92.306 66.528 C 91.397 66.528 91.165 66.327 91.165 66.327 C 91.028 65.789 91.397 65.028 92.749 65.842 C 93.087 65.546 93.055 65.081 93.055 65.081 C 93.161 65.028 93.224 64.87 93.224 64.807 C 93.224 64.585 92.147 63.983 91.873 63.909 C 91.809 63.582 91.387 63.117 90.12 63.286 C 89.518 63.36 89.085 63.202 89.285 62.853 C 89.317 62.79 89.212 62.779 89.159 62.843 C 89.021 62.98 88.831 63.371 89.349 63.635 C 89.93 63.93 89.961 64.511 89.972 64.596 C 89.982 64.722 89.835 64.733 89.803 64.606 C 89.539 63.624 88.187 63.413 87.395 63.93 C 87.437 64.458 88.008 64.807 88.314 64.807 C 88.493 64.807 88.736 64.627 88.736 64.384 C 88.736 64.268 88.8 64.279 88.831 64.374 C 88.958 64.722 88.441 65.451 87.68 65.007 C 86.899 65.789 87.216 66.76 87.29 67.109 C 87.427 67.742 87.121 68.365 86.54 68.08 C 86.508 68.07 86.476 68.059 86.476 68.123 C 86.487 68.503 87.004 68.957 87.628 68.608 Z  M 91.936 64.669 C 91.566 65.081 90.975 64.986 90.827 64.31 C 91.588 64.268 91.904 64.342 91.936 64.669 Z  M 115.242 66.232 C 114.851 66.232 114.482 66.063 114.408 65.757 C 114.387 65.683 114.323 65.652 114.292 65.768 C 114.101 66.444 114.587 66.76 115.052 66.76 C 115.569 66.76 115.854 66.391 116.594 66.264 C 116.921 66.211 117.143 66.264 117.143 66.158 C 117.143 66.063 116.668 66.063 116.594 66.063 C 115.833 66.063 115.728 66.232 115.242 66.232 Z  M 122.803 68.101 C 122.803 68.038 122.771 68.049 122.74 68.059 C 122.159 68.344 121.852 67.732 121.99 67.088 C 122.064 66.729 122.38 65.768 121.599 64.986 C 120.828 65.43 120.311 64.701 120.448 64.353 C 120.48 64.258 120.543 64.247 120.543 64.363 C 120.543 64.606 120.786 64.786 120.965 64.786 C 121.272 64.786 121.842 64.437 121.884 63.909 C 121.092 63.392 119.74 63.603 119.476 64.585 C 119.445 64.712 119.297 64.701 119.308 64.574 C 119.308 64.49 119.35 63.909 119.931 63.613 C 120.459 63.349 120.268 62.959 120.121 62.821 C 120.068 62.769 119.952 62.779 119.994 62.832 C 120.195 63.18 119.762 63.339 119.17 63.265 C 117.903 63.096 117.491 63.571 117.417 63.888 C 117.143 63.962 116.066 64.564 116.066 64.786 C 116.066 64.849 116.129 65.018 116.235 65.06 C 116.235 65.06 116.213 65.514 116.541 65.82 C 117.882 65.007 118.262 65.768 118.125 66.306 C 118.125 66.306 117.882 66.496 116.974 66.507 C 116.974 66.507 117.016 66.834 117.09 66.929 C 117.09 66.929 116.879 67.193 117.027 67.426 C 117.027 67.426 117.491 67.077 118.294 67.109 C 118.294 67.109 118.811 67.89 116.9 68.26 C 114.988 68.629 114.376 70.435 114.376 71.428 C 114.376 71.481 114.397 71.502 114.439 71.491 C 115.992 71.206 116.699 72.811 118.706 72.621 C 118.526 72.146 118.727 71.65 118.727 71.65 C 118.885 72.072 119.265 72.357 119.54 72.494 C 120.258 72.336 120.723 71.998 120.828 71.787 C 120.828 71.787 120.068 71.164 120.564 70.023 C 120.564 70.023 121.039 70.784 122.021 70.372 C 122.106 70.33 122.085 70.277 122.032 70.256 C 120.701 69.823 121.567 68.703 121.652 68.587 C 122.275 68.957 122.803 68.503 122.803 68.101 Z  M 118.452 64.31 C 118.304 64.986 117.713 65.081 117.343 64.669 C 117.375 64.342 117.702 64.268 118.452 64.31 Z  M 104.291 53.022 C 104.291 53.191 104.365 53.339 104.418 53.423 C 104.534 53.592 104.513 53.687 104.46 53.74 C 104.407 53.793 104.312 53.814 104.143 53.698 C 104.059 53.634 103.911 53.571 103.742 53.571 C 103.457 53.571 103.309 53.761 103.309 53.919 C 103.309 54.078 103.457 54.268 103.742 54.268 C 103.911 54.268 104.059 54.194 104.143 54.141 C 104.312 54.025 104.407 54.046 104.46 54.099 C 104.513 54.152 104.439 54.732 104.365 55.197 C 103.89 55.303 103.658 55.683 103.658 55.905 C 103.658 56.485 104.27 56.813 104.64 57.013 C 104.999 56.823 105.622 56.485 105.622 55.905 C 105.622 55.683 105.389 55.292 104.914 55.197 C 104.851 54.743 104.766 54.152 104.819 54.099 C 104.872 54.046 104.967 54.025 105.136 54.141 C 105.22 54.204 105.368 54.268 105.537 54.268 C 105.822 54.268 105.97 54.078 105.97 53.919 C 105.97 53.761 105.822 53.571 105.537 53.571 C 105.368 53.571 105.22 53.645 105.136 53.698 C 104.967 53.814 104.872 53.793 104.819 53.74 C 104.766 53.687 104.745 53.592 104.861 53.423 C 104.925 53.339 104.988 53.191 104.988 53.022 C 104.988 52.737 104.798 52.589 104.64 52.589 C 104.481 52.589 104.291 52.737 104.291 53.022 Z  M 104.64 57.309 C 104.249 57.309 103.932 57.626 103.932 58.017 C 103.932 58.407 104.249 58.724 104.64 58.724 C 105.03 58.724 105.347 58.407 105.347 58.017 C 105.347 57.626 105.03 57.309 104.64 57.309 Z  M 104.64 64.078 C 107.459 64.078 109.043 64.617 109.043 64.617 C 109.054 63.191 109.054 62.399 109.867 62.515 C 109.423 61.322 111.345 60.847 111.345 59.294 C 111.345 58.27 110.617 58.154 110.405 58.154 C 109.772 58.154 109.867 58.566 109.328 58.566 C 109.265 58.566 109.191 58.545 109.191 58.597 C 109.191 58.777 109.339 59.083 109.592 59.083 C 109.93 59.083 109.93 58.745 110.184 58.745 C 110.289 58.745 110.448 58.83 110.448 59.178 C 110.448 59.844 110.015 60.572 109.497 61.142 C 109.381 60.984 109.223 60.878 109.022 60.878 C 108.716 60.878 108.452 61.195 108.452 61.586 C 108.452 61.734 108.473 61.839 108.526 61.956 C 108.357 62.051 108.198 62.103 108.093 62.103 C 107.86 62.103 107.512 62.008 107.512 61.501 C 107.512 60.372 109.022 59.379 109.022 57.943 C 109.022 57.256 108.568 56.58 107.607 56.58 C 106.583 56.58 106.773 57.51 105.886 57.51 C 105.844 57.51 105.812 57.52 105.812 57.563 C 105.812 57.626 105.97 58.143 106.424 58.143 C 106.91 58.143 107.047 57.299 107.491 57.299 C 107.649 57.299 107.892 57.394 107.892 57.964 C 107.892 58.407 107.67 59.136 107.354 59.822 C 107.237 59.706 107.079 59.622 106.91 59.622 C 106.53 59.622 106.255 59.991 106.255 60.424 C 106.255 60.699 106.361 60.973 106.551 61.142 C 106.329 61.428 106.097 61.66 105.791 61.66 C 105.178 61.66 104.914 61.311 104.914 60.931 C 104.914 60.519 105.664 60.372 105.664 59.738 C 105.664 59.305 105.379 59.062 105.115 59.062 C 104.819 59.062 104.671 59.252 104.64 59.252 C 104.608 59.252 104.46 59.062 104.164 59.062 C 103.89 59.062 103.615 59.305 103.615 59.738 C 103.615 60.372 104.365 60.53 104.365 60.931 C 104.365 61.311 104.091 61.66 103.489 61.66 C 103.182 61.66 102.95 61.428 102.728 61.142 C 102.918 60.963 103.024 60.699 103.024 60.424 C 103.024 59.981 102.749 59.622 102.369 59.622 C 102.19 59.622 102.042 59.706 101.926 59.822 C 101.609 59.125 101.387 58.407 101.387 57.964 C 101.387 57.394 101.63 57.299 101.788 57.299 C 102.221 57.299 102.359 58.143 102.855 58.143 C 103.309 58.143 103.468 57.626 103.468 57.563 C 103.468 57.531 103.436 57.51 103.394 57.51 C 102.507 57.51 102.697 56.58 101.672 56.58 C 100.722 56.58 100.257 57.256 100.257 57.943 C 100.257 59.379 101.767 60.372 101.767 61.501 C 101.767 62.008 101.419 62.103 101.187 62.103 C 101.07 62.103 100.923 62.051 100.754 61.956 C 100.806 61.829 100.828 61.734 100.828 61.586 C 100.828 61.195 100.564 60.878 100.257 60.878 C 100.067 60.878 99.909 60.984 99.793 61.142 C 99.275 60.572 98.842 59.844 98.842 59.178 C 98.842 58.84 99.001 58.745 99.106 58.745 C 99.349 58.745 99.36 59.083 99.698 59.083 C 99.951 59.083 100.099 58.777 100.099 58.597 C 100.099 58.545 100.025 58.566 99.962 58.566 C 99.423 58.566 99.518 58.154 98.884 58.154 C 98.673 58.154 97.945 58.27 97.945 59.294 C 97.945 60.857 99.867 61.322 99.423 62.515 C 100.236 62.399 100.226 63.191 100.247 64.617 C 100.236 64.617 101.82 64.078 104.64 64.078 Z  M 99.476 66.18 C 98.705 66.348 98.156 66.507 97.913 66.581 C 97.924 66.243 98.05 65.926 98.356 65.863 C 98.399 65.852 98.409 65.799 98.367 65.778 C 97.681 65.324 97.322 66.19 97.311 66.222 C 97.068 66.201 96.699 66.275 96.699 66.602 C 96.699 67.584 94.46 68.123 93.942 68.207 C 94.861 68.556 95.241 69.717 95.241 69.717 C 95.907 69.052 96.677 68.471 96.857 68.471 C 97.036 68.471 97.1 68.693 97.11 68.82 C 97.11 68.862 97.153 68.872 97.184 68.841 C 97.533 68.323 97.364 68.207 97.332 68.049 C 97.311 67.932 97.343 67.478 97.85 67.531 L 97.85 74.068 L 97.586 74.121 C 97.469 74.142 96.508 73.329 95.421 72.568 C 94.323 71.808 93.742 72.262 92.496 72.938 C 90.859 73.825 89.212 73.022 89.212 73.022 C 87.807 74.026 87.321 76.94 87.321 76.94 C 87.036 77.056 86.572 77.183 86.139 77.183 C 85.061 77.183 84.871 76.528 84.871 76.148 C 84.871 74.49 86.952 73.783 86.952 72.146 C 86.952 71.745 86.772 70.14 84.776 70.14 C 84.523 70.14 83.002 70.14 82.992 70.14 C 82.242 70.14 82.062 69.601 81.957 69.4 C 81.915 69.316 81.841 69.369 81.872 69.432 C 81.925 69.569 81.788 69.78 81.788 70.192 C 81.788 70.858 82.179 71.259 82.907 71.259 C 83.235 71.259 83.551 71.164 83.646 71.1 C 83.71 71.058 83.752 71.122 83.72 71.164 C 83.404 71.533 83.382 72.23 83.509 72.389 C 83.541 72.431 83.583 72.42 83.583 72.389 C 83.763 71.692 84.417 71.027 85.304 71.027 C 86.392 71.027 86.381 71.945 86.381 72.167 C 86.381 73.498 84.048 74.469 84.048 76.307 C 84.048 78.165 86.012 78.556 87.142 78.271 C 87.078 80.129 84.945 80.763 84.882 79.432 C 84.882 79.369 84.829 79.358 84.797 79.443 C 84.533 80.098 84.639 80.678 85.463 80.858 C 85.516 80.868 85.494 80.9 85.442 80.942 C 84.618 81.46 85.061 83.508 85.104 84.11 C 85.167 84.976 84.301 84.871 84.227 84.85 C 84.196 84.839 84.153 84.85 84.217 84.924 C 84.829 85.673 85.589 84.987 85.589 84.987 C 86.16 85.166 85.811 85.652 85.42 85.906 C 85.357 85.948 85.368 85.99 85.431 85.99 C 85.516 86.001 86.403 86.075 86.561 85.367 C 86.952 85.832 87.532 85.663 87.649 85.599 C 87.818 85.515 88.652 85.209 88.726 86.138 C 88.726 86.201 88.768 86.159 88.8 86.127 C 89.423 85.335 88.757 84.85 88.377 84.797 C 88.409 84.755 88.905 84.332 89.359 84.913 C 89.391 84.955 89.423 84.966 89.423 84.881 C 89.476 83.878 88.662 83.794 88.134 84.227 C 88.113 84.121 87.934 83.561 88.726 83.582 C 88.747 83.582 88.779 83.551 88.747 83.519 C 88.134 82.864 87.628 83.456 87.501 83.604 C 87.226 83.931 86.54 83.794 86.476 83.794 C 86.688 80.319 89.75 81.555 90.172 79.865 C 90.194 79.781 90.236 79.812 90.236 79.844 C 90.352 80.256 91.387 80.309 91.577 79.506 C 91.588 79.453 91.577 79.422 91.545 79.453 C 90.658 80.34 88.662 77.574 91.387 75.324 C 93.71 73.413 95.79 74.48 96.582 75.103 C 96.625 75.377 96.456 75.472 96.35 75.504 C 96.308 75.515 96.297 75.546 96.361 75.578 C 96.582 75.662 96.889 75.631 97.036 75.43 C 97.533 75.779 97.11 76.222 96.91 76.338 C 96.857 76.37 96.878 76.402 96.92 76.412 C 97.374 76.497 97.755 76.032 97.776 75.757 L 97.85 75.8 L 97.85 77.774 C 97.85 80.583 101.092 80.974 104.65 83.35 C 108.209 80.964 111.44 80.583 111.44 77.774 L 111.44 75.8 L 111.514 75.757 C 111.535 76.021 111.905 76.497 112.37 76.412 C 112.412 76.402 112.433 76.37 112.38 76.338 C 112.18 76.212 111.747 75.779 112.253 75.43 C 112.401 75.641 112.708 75.662 112.929 75.578 C 112.993 75.557 112.982 75.515 112.94 75.504 C 112.834 75.472 112.665 75.377 112.708 75.103 C 113.5 74.469 115.58 73.403 117.903 75.324 C 120.628 77.574 118.632 80.33 117.745 79.453 C 117.702 79.411 117.702 79.453 117.713 79.506 C 117.903 80.319 118.938 80.256 119.054 79.844 C 119.065 79.812 119.107 79.781 119.117 79.865 C 119.54 81.555 122.592 80.319 122.813 83.794 C 122.75 83.804 122.064 83.931 121.789 83.604 C 121.673 83.466 121.166 82.864 120.543 83.519 C 120.501 83.561 120.543 83.582 120.564 83.582 C 121.356 83.561 121.187 84.121 121.156 84.227 C 120.628 83.794 119.814 83.878 119.867 84.881 C 119.867 84.955 119.899 84.955 119.931 84.913 C 120.385 84.332 120.881 84.755 120.913 84.797 C 120.543 84.85 119.867 85.335 120.49 86.127 C 120.522 86.159 120.554 86.201 120.564 86.138 C 120.649 85.209 121.472 85.504 121.641 85.599 C 121.757 85.663 122.338 85.832 122.729 85.367 C 122.887 86.075 123.774 86.001 123.859 85.99 C 123.922 85.99 123.922 85.948 123.869 85.906 C 123.489 85.652 123.13 85.166 123.7 84.987 C 123.7 84.987 124.461 85.673 125.073 84.924 C 125.126 84.86 125.094 84.839 125.063 84.85 C 124.989 84.871 124.123 84.976 124.186 84.11 C 124.228 83.508 124.672 81.46 123.848 80.942 C 123.796 80.911 123.774 80.879 123.827 80.858 C 124.651 80.678 124.756 80.098 124.492 79.443 C 124.461 79.358 124.408 79.38 124.408 79.432 C 124.345 80.763 122.222 80.129 122.148 78.271 C 123.289 78.566 125.242 78.165 125.242 76.307 C 125.242 74.48 122.908 73.498 122.908 72.167 C 122.908 71.945 122.898 71.027 123.986 71.027 C 124.873 71.027 125.527 71.692 125.707 72.389 C 125.717 72.42 125.749 72.431 125.781 72.389 C 125.908 72.22 125.886 71.533 125.57 71.164 C 125.538 71.132 125.57 71.058 125.644 71.1 C 125.739 71.164 126.055 71.259 126.383 71.259 C 127.111 71.259 127.502 70.858 127.502 70.192 C 127.502 69.78 127.354 69.569 127.418 69.432 C 127.449 69.369 127.365 69.326 127.333 69.4 C 127.228 69.612 127.037 70.14 126.298 70.14 C 126.288 70.14 124.767 70.14 124.514 70.14 C 122.518 70.14 122.338 71.755 122.338 72.146 C 122.338 73.783 124.419 74.49 124.419 76.148 C 124.419 76.539 124.218 77.183 123.151 77.183 C 122.708 77.183 122.243 77.056 121.969 76.94 C 121.969 76.94 121.493 74.036 120.078 73.022 C 120.078 73.022 118.431 73.825 116.794 72.938 C 115.548 72.262 114.957 71.808 113.859 72.568 C 112.76 73.329 111.81 74.142 111.694 74.121 L 111.43 74.068 L 111.43 67.531 C 111.937 67.478 111.968 67.932 111.947 68.049 C 111.916 68.196 111.757 68.323 112.095 68.841 C 112.127 68.883 112.158 68.862 112.169 68.82 C 112.18 68.693 112.253 68.471 112.422 68.471 C 112.591 68.471 113.373 69.052 114.038 69.717 C 114.038 69.717 114.418 68.566 115.337 68.207 C 114.82 68.123 112.581 67.584 112.581 66.602 C 112.581 66.275 112.211 66.201 111.968 66.222 C 111.958 66.19 111.588 65.324 110.912 65.778 C 110.881 65.799 110.881 65.852 110.923 65.863 C 111.229 65.937 111.356 66.243 111.366 66.581 C 110.712 66.38 107.934 65.599 104.64 65.599 C 103.035 65.599 101.567 65.789 100.395 66 L 100.395 68.26 L 99.476 68.26 L 99.476 66.18 L 99.476 66.18 Z  M 93.393 89.39 C 93.15 89.295 92.992 89.137 92.992 88.81 L 92.992 87.405 C 92.591 87.268 91.492 86.845 89.285 86.845 C 87.459 86.845 86.888 87.257 86.857 87.405 L 86.371 90.077 C 86.371 90.077 87.11 89.401 89.761 89.57 C 92.95 89.771 96.255 91.661 96.255 89.644 L 96.255 88.461 C 93.763 88.472 93.393 89.274 93.393 89.39 Z  M 113.024 88.472 L 113.024 89.654 C 113.024 91.661 116.33 89.781 119.519 89.58 C 122.169 89.412 122.908 90.087 122.908 90.087 L 122.423 87.405 C 122.402 87.257 121.821 86.845 119.994 86.845 C 117.797 86.845 116.699 87.268 116.287 87.405 L 116.287 88.81 C 116.287 89.126 116.129 89.285 115.886 89.39 C 115.897 89.274 115.527 88.472 113.024 88.472 Z  M 104.64 87.257 C 109.782 87.257 114.999 87.521 115.675 88.303 C 115.728 88.366 115.749 88.303 115.749 88.25 L 115.749 85.525 C 115.749 84.733 110.363 84.269 104.629 84.269 C 98.895 84.269 93.509 84.733 93.509 85.525 L 93.509 88.25 C 93.509 88.292 93.531 88.356 93.583 88.303 C 94.291 87.532 99.508 87.257 104.64 87.257 Z  M 100.057 74.416 L 99.539 74.279 L 99.497 74.342 L 98.895 74.078 C 98.895 74.078 99.339 74.078 99.434 74.078 C 99.486 74.078 99.486 74.047 99.465 74.026 C 99.222 73.783 99.001 73.572 99.001 73.572 C 99.001 73.572 99.244 73.667 99.592 73.793 C 99.634 73.804 99.645 73.783 99.624 73.751 C 99.455 73.508 99.222 73.17 99.222 73.17 C 99.222 73.17 99.708 73.498 99.803 73.561 C 99.835 73.582 99.856 73.561 99.845 73.529 C 99.719 73.212 99.571 72.843 99.571 72.843 L 100.099 73.35 C 100.12 73.371 100.152 73.36 100.141 73.329 C 100.088 73.086 99.993 72.642 99.993 72.642 L 100.384 73.212 C 100.405 73.244 100.437 73.234 100.437 73.202 C 100.437 73.086 100.447 72.579 100.447 72.579 C 100.447 72.579 100.616 72.959 100.69 73.149 C 100.711 73.191 100.732 73.191 100.754 73.139 C 100.775 73.075 100.954 72.653 100.954 72.653 L 100.975 73.308 L 100.891 73.329 L 100.785 74.11 C 101.556 73.931 102.528 72.6 103.267 72.6 C 104.154 72.6 104.471 73.635 106.097 73.107 C 106.509 73.719 106.657 74.247 106.815 74.976 C 107.449 75.567 108.325 75.367 108.325 74.744 C 108.325 73.899 107.406 73.74 107.406 72.853 C 107.406 72.463 107.681 71.892 108.431 71.892 C 108.832 71.892 109.413 72.061 109.751 72.061 C 110.152 72.061 110.236 71.776 110.279 71.65 C 110.31 71.565 110.427 71.586 110.416 71.66 C 110.405 71.745 110.458 71.861 110.458 72.051 C 110.458 72.611 109.645 72.684 109.55 72.611 C 109.508 72.579 109.476 72.621 109.508 72.653 C 109.635 72.748 109.603 73.086 109.455 73.297 C 109.434 73.318 109.413 73.318 109.413 73.297 C 109.328 72.896 108.853 72.399 108.441 72.399 C 108.293 72.399 107.987 72.484 107.987 72.843 C 107.987 73.339 108.99 73.804 108.99 74.839 C 108.99 75.916 107.924 76.18 106.847 75.905 C 106.878 76.93 108.41 77.532 108.441 76.803 C 108.441 76.75 108.473 76.782 108.484 76.803 C 108.705 77.12 108.61 77.352 108.315 77.479 C 108.579 77.595 108.631 78.133 108.705 78.461 C 108.821 78.947 109.328 78.672 109.36 78.661 C 109.392 78.64 109.402 78.661 109.381 78.693 C 109.191 79.189 108.674 78.999 108.674 78.999 C 108.41 79.189 108.726 79.358 108.969 79.432 C 109.001 79.443 109.001 79.464 108.98 79.485 C 108.8 79.548 108.42 79.675 108.23 79.348 C 108.093 79.686 107.808 79.675 107.702 79.675 C 107.501 79.675 107.375 79.876 107.417 80.15 C 107.417 80.172 107.406 80.182 107.385 80.172 C 106.921 79.865 107.185 79.496 107.375 79.401 C 107.343 79.38 107.016 79.242 106.878 79.622 C 106.868 79.654 106.847 79.654 106.836 79.622 C 106.636 79.073 107.079 78.915 107.396 79.052 C 107.375 78.978 107.206 78.704 106.783 78.799 C 106.762 78.809 106.752 78.799 106.762 78.767 C 106.836 78.598 107.037 78.355 107.428 78.598 C 107.628 78.725 107.966 78.545 107.998 78.524 C 107.311 77.162 105.991 78.302 105.685 77.236 C 105.675 77.215 105.653 77.194 105.632 77.257 C 105.558 77.479 104.978 77.5 104.872 77.056 C 104.861 77.025 104.872 77.014 104.904 77.035 C 104.988 77.12 105.168 77.194 105.411 76.856 C 105.569 76.623 105.59 76.317 105.59 76.116 C 105.59 75.293 104.766 73.899 103.478 73.899 C 102.665 73.899 101.788 74.216 101.134 74.691 L 101.736 74.828 C 101.683 75.441 101.092 75.8 100.553 75.641 L 100.648 74.944 C 100.553 74.976 100.321 75.06 100.194 75.24 C 100.183 75.251 100.162 75.251 100.162 75.229 C 100.057 74.828 100.384 74.628 100.479 74.585 C 100.49 74.575 100.49 74.575 100.468 74.575 C 100.173 74.564 100.014 74.775 99.962 74.849 C 99.951 74.86 99.94 74.86 99.94 74.849 C 99.972 74.765 99.919 74.564 100.057 74.416 Z  M 101.862 79.147 C 101.63 79.432 101.429 79.158 101.123 79.158 C 100.838 79.158 100.785 79.401 100.785 79.496 C 100.785 79.517 100.775 79.517 100.764 79.506 C 100.437 79.063 100.806 78.82 101.018 78.788 C 100.986 78.756 100.669 78.545 100.468 78.841 C 100.458 78.862 100.437 78.852 100.437 78.83 C 100.426 78.281 100.859 78.239 101.155 78.482 C 101.208 78.271 101.07 78.133 100.838 78.123 C 100.806 78.123 100.806 78.102 100.817 78.091 C 100.912 77.986 101.007 77.943 101.102 77.943 C 101.408 77.943 101.451 78.334 101.651 78.334 C 101.947 78.334 102.38 77.933 102.412 77.891 C 102.401 77.869 102.116 77.088 102.169 76.623 C 102.169 76.602 102.158 76.602 102.148 76.613 C 102 76.697 101.641 76.687 101.641 76.243 C 101.641 76.212 101.651 76.201 101.672 76.233 C 101.831 76.454 102.095 76.201 102.221 76.053 C 102.359 75.895 103.119 74.796 104.122 74.796 C 104.344 74.796 104.629 74.923 104.861 75.082 C 104.513 75.504 104.861 75.905 105.115 75.852 C 105.147 75.842 105.147 75.874 105.125 75.884 C 103.795 76.38 103.204 76.581 103.204 77.7 C 103.204 78.281 103.404 78.609 103.742 78.524 C 103.763 78.514 103.774 78.524 103.753 78.545 C 103.626 78.693 103.489 78.746 103.372 78.746 C 103.098 78.746 103.045 78.598 102.897 78.598 C 102.749 78.598 102.253 78.894 102.253 79.137 C 102.253 79.232 102.316 79.358 102.485 79.464 C 102.496 79.475 102.485 79.485 102.485 79.485 C 102.338 79.485 101.947 79.517 101.862 79.147 Z  M 105.358 68.323 C 104.946 68.302 104.671 68.387 104.692 68.524 C 104.893 68.735 105.157 68.714 105.358 68.323 Z  M 103.827 69.348 C 104.122 69.274 104.439 69.305 104.481 69.316 C 104.524 69.326 104.524 69.4 104.471 69.411 C 103.858 69.485 103.827 69.77 103.436 69.77 C 103.182 69.77 102.897 69.506 103.003 69.126 C 103.013 69.073 103.056 69.073 103.066 69.126 C 103.108 69.295 103.351 69.474 103.827 69.348 Z  M 95.875 82.928 C 96.276 83.445 96.667 82.959 97.205 82.959 C 97.469 82.959 97.786 83.044 97.839 83.572 C 97.839 83.604 97.86 83.604 97.892 83.572 C 98.473 82.78 97.807 82.336 97.427 82.273 C 97.512 82.199 98.071 81.851 98.441 82.368 C 98.462 82.4 98.504 82.389 98.504 82.347 C 98.504 81.344 97.755 81.27 97.205 81.703 C 97.1 81.312 97.396 81.059 97.776 81.059 C 97.818 81.059 97.839 81.027 97.818 81.006 C 97.142 80.288 96.646 81.196 96.53 81.333 C 96.266 81.692 95.305 81.016 94.914 80.615 C 94.914 80.615 95.759 79.728 95.759 78.915 C 95.759 78.862 95.748 78.799 95.748 78.767 C 95.748 78.746 95.759 78.735 95.78 78.746 C 95.864 78.799 95.98 78.83 96.097 78.83 C 96.287 78.83 96.656 78.767 96.656 78.081 C 96.656 78.028 96.635 78.028 96.614 78.06 C 96.508 78.207 96.403 78.239 96.318 78.239 C 95.632 78.239 94.206 75.958 92.517 75.958 C 92.073 75.958 91.239 76.275 90.827 76.729 C 91.028 76.845 91.07 77.099 91.049 77.278 C 91.017 77.563 90.785 77.711 90.553 77.774 C 90.51 77.785 90.51 77.817 90.553 77.838 C 91.408 78.165 92.95 78.746 93.309 79.052 C 93.721 79.411 93.647 80.087 93.404 81.027 C 93.172 81.924 92.675 81.808 92.485 81.777 C 92.453 81.777 92.453 81.787 92.464 81.808 C 92.686 82.083 92.95 82.178 93.182 82.178 C 93.626 82.178 93.795 81.903 94.016 81.903 C 94.396 81.903 95.21 82.452 95.21 82.875 C 95.21 83.107 95.03 83.329 94.787 83.477 C 94.777 83.487 94.777 83.508 94.798 83.508 C 94.977 83.54 95.727 83.604 95.875 82.928 Z  M 114.492 83.508 C 114.513 83.508 114.524 83.487 114.503 83.477 C 114.27 83.318 114.08 83.107 114.08 82.875 C 114.08 82.452 114.883 81.903 115.274 81.903 C 115.506 81.903 115.664 82.178 116.108 82.178 C 116.34 82.178 116.604 82.083 116.826 81.808 C 116.847 81.787 116.836 81.766 116.805 81.777 C 116.625 81.808 116.118 81.924 115.886 81.027 C 115.643 80.087 115.559 79.411 115.981 79.052 C 116.33 78.746 117.882 78.165 118.737 77.838 C 118.78 77.817 118.78 77.785 118.737 77.774 C 118.505 77.711 118.273 77.563 118.241 77.278 C 118.22 77.099 118.262 76.856 118.463 76.729 C 118.04 76.275 117.206 75.958 116.763 75.958 C 115.073 75.958 113.647 78.239 112.961 78.239 C 112.876 78.239 112.76 78.207 112.665 78.06 C 112.644 78.028 112.623 78.028 112.623 78.081 C 112.623 78.767 112.993 78.83 113.183 78.83 C 113.288 78.83 113.415 78.799 113.5 78.746 C 113.521 78.735 113.531 78.746 113.531 78.767 C 113.531 78.799 113.521 78.862 113.521 78.915 C 113.521 79.728 114.365 80.615 114.365 80.615 C 113.985 81.016 113.024 81.682 112.75 81.333 C 112.634 81.185 112.137 80.288 111.461 81.006 C 111.44 81.037 111.451 81.059 111.504 81.059 C 111.884 81.059 112.18 81.312 112.074 81.703 C 111.525 81.27 110.775 81.344 110.775 82.347 C 110.775 82.389 110.817 82.4 110.838 82.368 C 111.197 81.851 111.768 82.199 111.842 82.273 C 111.461 82.326 110.807 82.78 111.377 83.572 C 111.398 83.604 111.419 83.604 111.43 83.572 C 111.493 83.054 111.81 82.959 112.063 82.959 C 112.591 82.959 112.982 83.445 113.394 82.928 C 113.563 83.604 114.313 83.54 114.492 83.508 Z  M 100.859 70.34 C 100.806 70.414 100.627 70.34 100.564 70.308 C 100.553 70.298 100.542 70.308 100.553 70.319 C 100.595 70.414 100.764 70.699 101.018 70.699 C 101.134 70.699 101.303 70.636 101.345 70.551 C 101.345 70.551 102.338 70.879 102.823 71.005 C 102.633 71.259 102.517 71.565 102.485 71.892 C 102.095 71.65 100.511 70.805 100.511 70.805 L 100.025 71.481 C 99.94 71.586 99.55 71.301 99.634 71.196 L 100.004 70.678 C 99.877 70.551 99.581 70.625 99.497 70.657 C 99.486 70.657 99.476 70.657 99.486 70.636 C 99.539 70.53 99.719 70.224 100.183 70.361 C 100.183 70.076 99.761 70.171 99.645 70.203 C 99.634 70.203 99.624 70.203 99.634 70.192 C 99.75 70.066 100.099 69.791 100.479 70.023 L 100.648 69.791 L 100.31 69.432 L 100.521 69.136 L 100.764 69.453 L 102.591 66.95 C 102.633 66.887 103.003 66.781 103.13 66.75 C 103.14 66.887 103.161 67.267 103.119 67.331 L 101.324 69.854 L 101.704 69.981 L 101.493 70.277 L 101.049 70.066 L 100.859 70.34 Z  M 107.269 69.928 C 107.269 70.161 107.406 70.499 107.713 70.393 C 107.723 70.382 107.744 70.393 107.734 70.404 C 107.692 70.657 107.227 70.889 107.026 70.594 C 106.836 70.984 106.889 71.354 107.28 71.565 C 107.301 71.576 107.301 71.607 107.28 71.628 C 107.037 71.797 106.667 71.766 106.498 71.428 C 106.171 71.671 106.213 72.199 106.414 72.378 C 106.414 72.378 105.506 72.917 104.682 72.537 C 104.133 72.273 103.689 71.935 102.982 71.998 C 103.077 71.005 103.573 70.752 104.481 70.604 C 105.21 70.488 105.294 70.15 105.199 69.897 C 104.956 69.833 104.502 70.055 104.502 70.055 C 104.418 69.918 104.534 69.78 104.534 69.78 C 104.492 69.728 104.471 69.548 104.471 69.548 C 104.978 69.548 105.073 69.432 105.073 69.432 C 105.168 68.904 104.629 68.851 104.217 69.136 C 104.027 68.967 104.059 68.746 104.059 68.746 C 104.006 68.714 103.964 68.629 103.964 68.587 C 103.964 68.46 104.566 68.123 104.724 68.08 C 104.766 67.901 104.978 67.658 105.622 67.721 C 105.696 67.552 105.569 66.929 105.495 66.771 C 105.474 66.718 105.506 66.697 105.558 66.729 C 105.78 66.866 106.002 67.394 106.16 67.404 C 106.16 67.404 106.878 67.024 106.91 67.045 C 106.942 67.067 107.047 67.869 107.047 67.869 C 107.142 67.985 107.702 67.869 107.945 67.975 C 108.008 68.006 108.008 68.049 107.945 68.059 C 107.765 68.091 107.185 68.344 107.09 68.503 C 107.428 68.999 107.269 69.728 107.269 69.928 Z " fill="rgb(255,255,255)"/></g><g><g><path d=" M 143.078 68.091 C 143.68 67.911 143.997 67.616 144.039 67.119 L 144.757 58.756 L 143.807 58.481 L 143.807 58.006 C 144.546 57.911 145.444 57.89 146.035 57.89 L 146.626 57.89 L 149.192 65.831 L 149.213 65.831 L 151.706 57.89 L 152.413 57.89 C 153.004 57.89 153.744 57.911 154.398 58.006 L 154.398 58.481 L 153.385 58.724 L 154.103 67.732 L 155.053 67.911 L 155.053 68.27 C 154.662 68.45 154.103 68.545 153.469 68.545 C 152.719 68.545 152.244 68.513 151.663 68.376 L 151.663 68.07 C 152.35 67.901 152.667 67.5 152.635 66.824 L 152.223 59.389 L 152.191 59.389 L 149.277 68.471 L 148.643 68.556 L 145.697 59.4 L 145.676 59.421 L 145.169 67.626 L 146.236 67.901 L 146.236 68.26 C 145.528 68.471 145.137 68.534 144.356 68.534 C 143.976 68.534 143.5 68.471 143.099 68.365 L 143.099 68.091 L 143.078 68.091 Z " fill="rgb(0,0,0)"/><path d=" M 156.215 68.112 C 156.658 67.954 157.081 67.626 157.081 67.225 L 157.081 61.692 L 156.035 61.248 L 156.035 60.9 C 156.774 60.688 157.524 60.593 157.989 60.593 L 158.517 60.593 L 158.432 61.48 L 158.432 67.7 L 159.351 67.943 L 159.351 68.249 C 158.791 68.45 158.284 68.524 157.45 68.524 C 157.07 68.524 156.595 68.492 156.225 68.376 L 156.225 68.112 L 156.215 68.112 Z  M 156.901 58.154 C 156.901 57.647 157.26 57.193 157.83 57.193 C 158.284 57.193 158.686 57.541 158.686 58.08 C 158.686 58.65 158.295 59.094 157.767 59.094 C 157.281 59.083 156.901 58.692 156.901 58.154 Z " fill="rgb(0,0,0)"/><path d=" M 160.618 68.112 C 161.041 67.954 161.484 67.626 161.484 67.225 L 161.484 61.692 L 160.428 61.248 L 160.428 60.889 C 161.178 60.678 161.917 60.593 162.392 60.593 L 162.783 60.593 L 162.783 61.48 C 163.343 60.921 164.251 60.562 165.201 60.562 C 166.564 60.562 167.493 61.428 167.493 63.117 L 167.493 67.7 L 168.348 67.943 L 168.348 68.249 C 167.905 68.429 167.334 68.524 166.627 68.524 C 166.278 68.524 165.888 68.492 165.56 68.376 L 165.56 68.112 C 165.972 67.932 166.152 67.626 166.152 67.035 L 166.152 63.909 C 166.152 62.304 165.476 61.702 164.515 61.702 C 163.839 61.702 163.195 61.934 162.825 62.209 L 162.825 67.711 L 163.744 67.943 L 163.744 68.249 C 163.184 68.45 162.667 68.524 161.843 68.524 C 161.452 68.524 160.988 68.492 160.618 68.376 L 160.618 68.112 Z " fill="rgb(0,0,0)"/><path d=" M 169.573 68.112 C 170.017 67.954 170.439 67.626 170.439 67.225 L 170.439 61.692 L 169.394 61.248 L 169.394 60.9 C 170.133 60.688 170.883 60.593 171.347 60.593 L 171.875 60.593 L 171.791 61.48 L 171.791 67.7 L 172.709 67.943 L 172.709 68.249 C 172.15 68.45 171.643 68.524 170.809 68.524 C 170.428 68.524 169.953 68.492 169.584 68.376 L 169.584 68.112 L 169.573 68.112 Z  M 170.26 58.154 C 170.26 57.647 170.619 57.193 171.189 57.193 C 171.643 57.193 172.044 57.541 172.044 58.08 C 172.044 58.65 171.653 59.094 171.125 59.094 C 170.64 59.083 170.26 58.692 170.26 58.154 Z " fill="rgb(0,0,0)"/><path d=" M 173.882 66.612 C 174.621 67.299 175.318 67.647 176.194 67.647 C 177.113 67.647 177.588 67.204 177.588 66.634 C 177.588 66.063 177.261 65.704 176.184 65.24 L 175.371 64.891 C 174.42 64.479 173.892 63.793 173.892 62.864 C 173.892 61.575 175.033 60.456 176.743 60.456 C 178.053 60.456 178.581 60.847 178.581 61.47 C 178.581 61.713 178.549 61.924 178.496 62.156 C 177.968 61.797 177.25 61.533 176.627 61.533 C 175.582 61.533 175.085 61.987 175.085 62.547 C 175.085 63.138 175.381 63.466 176.363 63.835 L 177.25 64.184 C 178.433 64.638 178.876 65.25 178.876 66.211 C 178.876 67.468 177.662 68.619 175.835 68.619 C 174.399 68.619 173.755 68.165 173.755 67.278 C 173.734 67.056 173.776 66.792 173.882 66.612 Z " fill="rgb(0,0,0)"/><path d=" M 180.682 63.92 L 180.735 61.744 L 179.837 61.744 L 179.837 61.206 L 181.601 59.453 L 182.14 59.389 L 182.076 60.868 L 184.241 60.868 L 184.125 61.755 L 182.034 61.755 L 182.002 63.814 C 181.981 64.5 181.981 65.124 181.981 65.725 C 181.981 67.056 182.372 67.51 182.984 67.51 C 183.46 67.51 183.871 67.341 184.199 67.088 L 184.368 67.151 C 184.304 68.112 183.734 68.608 182.604 68.608 C 181.295 68.608 180.661 67.922 180.661 66.327 C 180.64 65.535 180.672 64.669 180.682 63.92 Z " fill="rgb(0,0,0)"/><path d=" M 188.285 60.477 C 190.049 60.477 191.116 61.66 191.116 63.54 C 191.116 63.846 191.116 64.173 191.094 64.585 L 186.268 64.585 C 186.268 66.422 187.335 67.478 188.687 67.478 C 189.489 67.478 190.376 67.204 190.999 66.771 C 191.031 66.855 191.063 67.035 191.063 67.193 C 191.063 67.932 189.986 68.619 188.243 68.619 C 186.374 68.619 184.853 67.162 184.853 64.87 C 184.864 62.029 186.585 60.477 188.285 60.477 Z  M 189.806 63.74 C 189.806 62.135 189.12 61.364 188.148 61.364 C 187.251 61.364 186.3 62.441 186.3 63.74 L 189.806 63.74 Z " fill="rgb(0,0,0)"/><path d=" M 192.372 68.112 C 192.795 67.954 193.238 67.626 193.238 67.225 L 193.238 61.692 L 192.182 61.248 L 192.182 60.889 C 192.932 60.678 193.671 60.593 194.146 60.593 L 194.537 60.593 L 194.537 61.734 L 194.558 61.734 L 195.012 61.227 C 195.456 60.752 195.899 60.509 196.448 60.509 C 197.019 60.509 197.304 60.752 197.304 61.216 C 197.304 61.523 197.209 61.892 197.04 62.198 C 196.733 61.956 196.374 61.818 196.026 61.818 C 195.519 61.818 195.044 62.051 194.59 62.494 L 194.59 67.7 L 195.72 67.943 L 195.72 68.249 C 195.16 68.45 194.621 68.524 193.692 68.524 C 193.217 68.524 192.763 68.492 192.383 68.376 L 192.383 68.112 L 192.372 68.112 Z " fill="rgb(0,0,0)"/><path d=" M 197.821 68.112 C 198.265 67.954 198.687 67.626 198.687 67.225 L 198.687 61.692 L 197.642 61.248 L 197.642 60.9 C 198.381 60.688 199.131 60.593 199.595 60.593 L 200.123 60.593 L 200.039 61.48 L 200.039 67.7 L 200.957 67.943 L 200.957 68.249 C 200.398 68.45 199.891 68.524 199.057 68.524 C 198.676 68.524 198.201 68.492 197.832 68.376 L 197.832 68.112 L 197.821 68.112 Z  M 198.508 58.154 C 198.508 57.647 198.867 57.193 199.437 57.193 C 199.891 57.193 200.292 57.541 200.292 58.08 C 200.292 58.65 199.901 59.094 199.373 59.094 C 198.888 59.083 198.508 58.692 198.508 58.154 Z " fill="rgb(0,0,0)"/><path d=" M 205.097 60.477 C 206.86 60.477 207.927 61.66 207.927 63.54 C 207.927 63.846 207.927 64.173 207.906 64.585 L 203.08 64.585 C 203.08 66.422 204.147 67.478 205.498 67.478 C 206.301 67.478 207.188 67.204 207.811 66.771 C 207.843 66.855 207.874 67.035 207.874 67.193 C 207.874 67.932 206.797 68.619 205.055 68.619 C 203.186 68.619 201.665 67.162 201.665 64.87 C 201.676 62.029 203.386 60.477 205.097 60.477 Z  M 206.618 63.74 C 206.618 62.135 205.931 61.364 204.96 61.364 C 204.062 61.364 203.112 62.441 203.112 63.74 L 206.618 63.74 Z " fill="rgb(0,0,0)"/><path d=" M 211.919 61.459 L 211.243 60.984 L 211.243 60.593 L 214.369 60.593 L 214.369 60.984 L 213.439 61.375 L 215.203 66.56 L 215.224 66.56 L 217.04 61.417 L 216.111 60.973 L 216.111 60.583 L 218.635 60.583 L 218.635 60.973 L 218.181 61.354 L 215.266 68.577 L 214.707 68.608 L 211.919 61.459 Z " fill="rgb(0,0,0)"/><path d=" M 223.419 64.141 L 223.419 63.698 C 223.419 61.934 222.996 61.554 221.961 61.554 C 221.064 61.554 220.198 61.934 219.501 62.621 C 219.469 62.462 219.448 62.315 219.448 62.124 C 219.448 61.079 220.219 60.467 222.13 60.467 C 223.788 60.467 224.77 61.301 224.77 62.663 C 224.77 63.022 224.717 63.846 224.707 64.321 L 224.654 66.972 C 224.77 67.267 225.013 67.573 225.309 67.806 C 225.066 68.101 224.622 68.429 224.2 68.64 C 223.894 68.439 223.64 68.186 223.45 67.837 C 222.996 68.281 222.109 68.619 221.243 68.619 C 220.018 68.619 219.163 67.848 219.163 66.803 C 219.163 65.377 220.736 64.141 223.419 64.141 Z  M 221.856 67.647 C 222.363 67.647 223.017 67.447 223.429 67.204 L 223.429 64.912 C 221.581 64.912 220.578 65.683 220.578 66.57 C 220.578 67.225 221.021 67.647 221.856 67.647 Z " fill="rgb(0,0,0)"/><path d=" M 226.597 68.112 C 227.02 67.954 227.463 67.626 227.463 67.225 L 227.463 61.692 L 226.407 61.248 L 226.407 60.889 C 227.157 60.678 227.896 60.593 228.371 60.593 L 228.762 60.593 L 228.762 61.48 C 229.322 60.921 230.23 60.562 231.18 60.562 C 232.542 60.562 233.472 61.428 233.472 63.117 L 233.472 67.7 L 234.327 67.943 L 234.327 68.249 C 233.884 68.429 233.313 68.524 232.606 68.524 C 232.257 68.524 231.867 68.492 231.539 68.376 L 231.539 68.112 C 231.951 67.932 232.131 67.626 232.131 67.035 L 232.131 63.909 C 232.131 62.304 231.455 61.702 230.494 61.702 C 229.828 61.702 229.163 61.934 228.804 62.209 L 228.804 67.711 L 229.723 67.954 L 229.723 68.26 C 229.163 68.46 228.646 68.534 227.822 68.534 C 227.431 68.534 226.967 68.503 226.597 68.387 L 226.597 68.112 Z " fill="rgb(0,0,0)"/><path d=" M 238.731 68.07 C 239.322 67.89 239.681 67.573 239.681 66.824 L 239.681 58.798 L 238.646 58.45 L 238.646 58.091 C 239.713 57.911 240.631 57.858 241.972 57.858 C 245.415 57.858 247.685 59.611 247.685 62.758 C 247.685 66.359 244.94 68.534 241.73 68.534 C 240.441 68.534 239.765 68.513 238.731 68.365 L 238.731 68.07 L 238.731 68.07 Z  M 241.888 67.584 C 244.201 67.584 246.091 65.968 246.091 63.054 C 246.091 60.34 244.275 58.83 241.93 58.83 C 241.666 58.83 241.371 58.851 241.075 58.883 L 241.075 67.531 C 241.381 67.552 241.613 67.584 241.888 67.584 Z " fill="rgb(0,0,0)"/><path d=" M 252.374 60.477 C 254.138 60.477 255.204 61.66 255.204 63.54 C 255.204 63.846 255.204 64.173 255.194 64.585 L 250.368 64.585 C 250.368 66.422 251.434 67.478 252.786 67.478 C 253.588 67.478 254.476 67.204 255.099 66.771 C 255.13 66.855 255.162 67.035 255.162 67.193 C 255.162 67.932 254.085 68.619 252.342 68.619 C 250.473 68.619 248.953 67.162 248.953 64.87 C 248.953 62.029 250.674 60.477 252.374 60.477 Z  M 253.905 63.74 C 253.905 62.135 253.219 61.364 252.247 61.364 C 251.35 61.364 250.399 62.441 250.399 63.74 L 253.905 63.74 Z " fill="rgb(0,0,0)"/><path d=" M 256.45 68.112 C 256.873 67.954 257.316 67.626 257.316 67.225 L 257.316 61.755 L 256.419 61.755 L 256.419 61.185 L 257.316 60.826 L 257.316 59.611 C 257.295 57.879 258.446 56.633 260.463 56.633 C 261.625 56.633 262.079 56.94 262.079 57.415 C 262.079 57.563 262.047 57.795 261.994 57.953 C 261.392 57.742 260.474 57.605 259.819 57.605 C 259.154 57.605 258.604 58.228 258.604 59.389 C 258.604 59.632 258.636 60.498 258.668 60.868 L 260.759 60.868 L 260.579 61.755 L 258.647 61.755 L 258.647 67.7 L 259.682 67.943 L 259.682 68.249 C 259.122 68.45 258.573 68.524 257.665 68.524 C 257.274 68.524 256.809 68.492 256.44 68.376 L 256.44 68.112 L 256.45 68.112 Z " fill="rgb(0,0,0)"/><path d=" M 264.592 60.477 C 266.356 60.477 267.422 61.66 267.422 63.54 C 267.422 63.846 267.422 64.173 267.401 64.585 L 262.575 64.585 C 262.575 66.422 263.642 67.478 264.993 67.478 C 265.796 67.478 266.683 67.204 267.306 66.771 C 267.338 66.855 267.369 67.035 267.369 67.193 C 267.369 67.932 266.292 68.619 264.55 68.619 C 262.681 68.619 261.16 67.162 261.16 64.87 C 261.171 62.029 262.881 60.477 264.592 60.477 Z  M 266.113 63.74 C 266.113 62.135 265.426 61.364 264.455 61.364 C 263.557 61.364 262.607 62.441 262.607 63.74 L 266.113 63.74 Z " fill="rgb(0,0,0)"/><path d=" M 268.679 68.112 C 269.101 67.954 269.545 67.626 269.545 67.225 L 269.545 61.692 L 268.489 61.248 L 268.489 60.889 C 269.238 60.678 269.978 60.593 270.453 60.593 L 270.844 60.593 L 270.844 61.48 C 271.403 60.921 272.311 60.562 273.262 60.562 C 274.624 60.562 275.553 61.428 275.553 63.117 L 275.553 67.7 L 276.409 67.943 L 276.409 68.249 C 275.965 68.429 275.395 68.524 274.687 68.524 C 274.339 68.524 273.948 68.492 273.621 68.376 L 273.621 68.112 C 274.033 67.932 274.212 67.626 274.212 67.035 L 274.212 63.909 C 274.212 62.304 273.536 61.702 272.575 61.702 C 271.91 61.702 271.245 61.934 270.886 62.209 L 270.886 67.711 L 271.804 67.954 L 271.804 68.26 C 271.245 68.46 270.727 68.534 269.904 68.534 C 269.513 68.534 269.048 68.503 268.679 68.387 L 268.679 68.112 Z " fill="rgb(0,0,0)"/><path d=" M 277.539 66.612 C 278.278 67.299 278.975 67.647 279.851 67.647 C 280.77 67.647 281.245 67.204 281.245 66.634 C 281.245 66.063 280.918 65.704 279.841 65.24 L 279.028 64.891 C 278.077 64.479 277.549 63.793 277.549 62.864 C 277.549 61.575 278.69 60.456 280.4 60.456 C 281.71 60.456 282.238 60.847 282.238 61.47 C 282.238 61.713 282.206 61.924 282.153 62.156 C 281.625 61.797 280.907 61.533 280.284 61.533 C 279.239 61.533 278.742 61.987 278.742 62.547 C 278.742 63.138 279.038 63.466 280.02 63.835 L 280.907 64.184 C 282.09 64.638 282.533 65.25 282.533 66.211 C 282.533 67.468 281.319 68.619 279.492 68.619 C 278.056 68.619 277.412 68.165 277.412 67.278 C 277.391 67.056 277.433 66.792 277.539 66.612 Z " fill="rgb(0,0,0)"/><path d=" M 283.642 68.112 C 284.086 67.954 284.508 67.626 284.508 67.225 L 284.508 61.692 L 283.463 61.248 L 283.463 60.9 C 284.202 60.688 284.952 60.593 285.406 60.593 L 285.934 60.593 L 285.849 61.48 L 285.849 67.7 L 286.768 67.943 L 286.768 68.249 C 286.208 68.45 285.701 68.524 284.867 68.524 C 284.487 68.524 284.012 68.492 283.642 68.376 L 283.642 68.112 Z  M 284.329 58.154 C 284.329 57.647 284.688 57.193 285.258 57.193 C 285.712 57.193 286.113 57.541 286.113 58.08 C 286.113 58.65 285.723 59.094 285.195 59.094 C 284.698 59.083 284.329 58.692 284.329 58.154 Z " fill="rgb(0,0,0)"/><path d=" M 291.319 60.477 C 293.083 60.477 294.149 61.66 294.149 63.54 C 294.149 63.846 294.149 64.173 294.128 64.585 L 289.302 64.585 C 289.302 66.422 290.369 67.478 291.721 67.478 C 292.523 67.478 293.41 67.204 294.033 66.771 C 294.065 66.855 294.097 67.035 294.097 67.193 C 294.097 67.932 293.02 68.619 291.277 68.619 C 289.408 68.619 287.887 67.162 287.887 64.87 C 287.898 62.029 289.619 60.477 291.319 60.477 Z  M 292.84 63.74 C 292.84 62.135 292.154 61.364 291.182 61.364 C 290.284 61.364 289.334 62.441 289.334 63.74 L 292.84 63.74 Z " fill="rgb(0,0,0)"/></g></g></g></g></svg>