<?xml version="1.0" standalone="no"?><!-- Generator: Gravit.io --><svg xmlns="http://www.w3.org/2000/svg" xmlns:xlink="http://www.w3.org/1999/xlink" style="isolation:isolate" viewBox="0 0 375 812" width="375" height="812"><defs><clipPath id="_clipPath_BKau8hr2WsuXaWP7ZYgpDsDznWOJqlOZ"><rect width="375" height="812"/></clipPath></defs><g clip-path="url(#_clipPath_BKau8hr2WsuXaWP7ZYgpDsDznWOJqlOZ)"><rect x="0" y="132" width="375" height="356" transform="matrix(1,0,0,1,0,0)" fill="rgb(41,62,85)"/><path d=" M 60.836 397.382 L 71.348 429.35 L 64.244 429.35 L 62.228 423.014 L 52.388 423.014 L 50.468 429.35 L 43.364 429.35 L 53.828 397.382 L 60.836 397.382 L 60.836 397.382 Z  M 57.332 406.214 L 54.452 416.87 L 60.212 416.87 L 57.332 406.214 L 57.332 406.214 Z  M 94.868 411.11 L 94.868 424.838 L 94.868 424.838 Q 94.868 427.046 93.572 428.438 L 93.572 428.438 L 93.572 428.438 Q 92.276 429.83 89.876 429.83 L 89.876 429.83 L 89.876 429.83 Q 89.204 429.83 88.172 429.614 L 88.172 429.614 L 88.172 429.614 Q 87.14 429.398 86.012 429.086 L 86.012 429.086 L 86.012 429.086 Q 84.884 428.774 83.804 428.414 L 83.804 428.414 L 83.804 428.414 Q 82.724 428.054 81.956 427.766 L 81.956 427.766 L 81.956 438.47 L 75.332 439.622 L 75.332 406.598 L 81.716 406.598 L 81.716 408.278 L 81.716 408.278 Q 82.484 407.99 83.588 407.606 L 83.588 407.606 L 83.588 407.606 Q 84.692 407.222 85.868 406.886 L 85.868 406.886 L 85.868 406.886 Q 87.044 406.55 88.124 406.334 L 88.124 406.334 L 88.124 406.334 Q 89.204 406.118 89.876 406.118 L 89.876 406.118 L 89.876 406.118 Q 92.276 406.118 93.572 407.51 L 93.572 407.51 L 93.572 407.51 Q 94.868 408.902 94.868 411.11 L 94.868 411.11 L 94.868 411.11 Z  M 81.956 414.47 L 81.956 421.478 L 81.956 421.478 Q 81.956 421.958 82.436 422.102 L 82.436 422.102 L 82.436 422.102 Q 82.676 422.198 83.468 422.462 L 83.468 422.462 L 83.468 422.462 Q 84.26 422.726 85.148 422.99 L 85.148 422.99 L 85.148 422.99 Q 86.036 423.254 86.804 423.47 L 86.804 423.47 L 86.804 423.47 Q 87.572 423.686 87.764 423.686 L 87.764 423.686 L 87.764 423.686 Q 88.244 423.686 88.244 423.206 L 88.244 423.206 L 88.244 412.742 L 88.244 412.742 Q 88.244 412.262 87.764 412.262 L 87.764 412.262 L 87.764 412.262 Q 87.572 412.262 86.804 412.478 L 86.804 412.478 L 86.804 412.478 Q 86.036 412.694 85.148 412.958 L 85.148 412.958 L 85.148 412.958 Q 84.26 413.222 83.468 413.486 L 83.468 413.486 L 83.468 413.486 Q 82.676 413.75 82.436 413.846 L 82.436 413.846 L 82.436 413.846 Q 81.956 413.99 81.956 414.47 L 81.956 414.47 L 81.956 414.47 Z  M 120.164 411.11 L 120.164 424.838 L 120.164 424.838 Q 120.164 427.046 118.868 428.438 L 118.868 428.438 L 118.868 428.438 Q 117.572 429.83 115.172 429.83 L 115.172 429.83 L 115.172 429.83 Q 114.5 429.83 113.468 429.614 L 113.468 429.614 L 113.468 429.614 Q 112.436 429.398 111.308 429.086 L 111.308 429.086 L 111.308 429.086 Q 110.18 428.774 109.1 428.414 L 109.1 428.414 L 109.1 428.414 Q 108.02 428.054 107.252 427.766 L 107.252 427.766 L 107.252 438.47 L 100.628 439.622 L 100.628 406.598 L 107.012 406.598 L 107.012 408.278 L 107.012 408.278 Q 107.78 407.99 108.884 407.606 L 108.884 407.606 L 108.884 407.606 Q 109.988 407.222 111.164 406.886 L 111.164 406.886 L 111.164 406.886 Q 112.34 406.55 113.42 406.334 L 113.42 406.334 L 113.42 406.334 Q 114.5 406.118 115.172 406.118 L 115.172 406.118 L 115.172 406.118 Q 117.572 406.118 118.868 407.51 L 118.868 407.51 L 118.868 407.51 Q 120.164 408.902 120.164 411.11 L 120.164 411.11 L 120.164 411.11 Z  M 107.252 414.47 L 107.252 421.478 L 107.252 421.478 Q 107.252 421.958 107.732 422.102 L 107.732 422.102 L 107.732 422.102 Q 107.972 422.198 108.764 422.462 L 108.764 422.462 L 108.764 422.462 Q 109.556 422.726 110.444 422.99 L 110.444 422.99 L 110.444 422.99 Q 111.332 423.254 112.1 423.47 L 112.1 423.47 L 112.1 423.47 Q 112.868 423.686 113.06 423.686 L 113.06 423.686 L 113.06 423.686 Q 113.54 423.686 113.54 423.206 L 113.54 423.206 L 113.54 412.742 L 113.54 412.742 Q 113.54 412.262 113.06 412.262 L 113.06 412.262 L 113.06 412.262 Q 112.868 412.262 112.1 412.478 L 112.1 412.478 L 112.1 412.478 Q 111.332 412.694 110.444 412.958 L 110.444 412.958 L 110.444 412.958 Q 109.556 413.222 108.764 413.486 L 108.764 413.486 L 108.764 413.486 Q 107.972 413.75 107.732 413.846 L 107.732 413.846 L 107.732 413.846 Q 107.252 413.99 107.252 414.47 L 107.252 414.47 L 107.252 414.47 Z  M 125.924 429.35 L 125.924 397.382 L 132.548 396.23 L 132.548 429.35 L 125.924 429.35 L 125.924 429.35 Z  M 138.788 429.35 L 138.788 406.598 L 145.412 406.598 L 145.412 429.35 L 138.788 429.35 L 138.788 429.35 Z  M 138.788 403.766 L 138.788 396.614 L 145.412 396.614 L 145.412 403.766 L 138.788 403.766 L 138.788 403.766 Z  M 163.652 420.278 L 170.132 421.43 L 170.132 424.358 L 170.132 424.358 Q 170.132 425.366 169.748 426.278 L 169.748 426.278 L 169.748 426.278 Q 169.364 427.19 168.668 427.886 L 168.668 427.886 L 168.668 427.886 Q 167.972 428.582 167.06 428.966 L 167.06 428.966 L 167.06 428.966 Q 166.148 429.35 165.14 429.35 L 165.14 429.35 L 156.164 429.35 L 156.164 429.35 Q 155.156 429.35 154.244 428.966 L 154.244 428.966 L 154.244 428.966 Q 153.332 428.582 152.636 427.886 L 152.636 427.886 L 152.636 427.886 Q 151.94 427.19 151.556 426.278 L 151.556 426.278 L 151.556 426.278 Q 151.172 425.366 151.172 424.358 L 151.172 424.358 L 151.172 411.59 L 151.172 411.59 Q 151.172 410.582 151.556 409.67 L 151.556 409.67 L 151.556 409.67 Q 151.94 408.758 152.636 408.062 L 152.636 408.062 L 152.636 408.062 Q 153.332 407.366 154.244 406.982 L 154.244 406.982 L 154.244 406.982 Q 155.156 406.598 156.164 406.598 L 156.164 406.598 L 165.14 406.598 L 165.14 406.598 Q 166.148 406.598 167.06 406.982 L 167.06 406.982 L 167.06 406.982 Q 167.972 407.366 168.668 408.062 L 168.668 408.062 L 168.668 408.062 Q 169.364 408.758 169.748 409.67 L 169.748 409.67 L 169.748 409.67 Q 170.132 410.582 170.132 411.59 L 170.132 411.59 L 170.132 414.134 L 163.652 415.334 L 163.652 413.126 L 163.652 413.126 Q 163.652 412.646 163.172 412.646 L 163.172 412.646 L 158.276 412.646 L 158.276 412.646 Q 157.796 412.646 157.796 413.126 L 157.796 413.126 L 157.796 422.822 L 157.796 422.822 Q 157.796 423.302 158.276 423.302 L 158.276 423.302 L 163.172 423.302 L 163.172 423.302 Q 163.652 423.302 163.652 422.822 L 163.652 422.822 L 163.652 420.278 L 163.652 420.278 Z  M 174.788 424.838 L 174.788 421.238 L 174.788 421.238 Q 174.788 419.03 176.084 417.638 L 176.084 417.638 L 176.084 417.638 Q 177.38 416.246 179.78 416.246 L 179.78 416.246 L 179.78 416.246 Q 181.124 416.246 183.188 416.462 L 183.188 416.462 L 183.188 416.462 Q 185.252 416.678 187.22 417.062 L 187.22 417.062 L 187.22 412.886 L 187.22 412.886 Q 187.22 412.406 186.74 412.406 L 186.74 412.406 L 181.796 412.406 L 181.796 412.406 Q 181.316 412.406 181.316 412.886 L 181.316 412.886 L 181.316 414.374 L 175.076 413.318 L 175.076 411.59 L 175.076 411.59 Q 175.076 410.582 175.46 409.67 L 175.46 409.67 L 175.46 409.67 Q 175.844 408.758 176.54 408.062 L 176.54 408.062 L 176.54 408.062 Q 177.236 407.366 178.148 406.982 L 178.148 406.982 L 178.148 406.982 Q 179.06 406.598 180.068 406.598 L 180.068 406.598 L 188.852 406.598 L 188.852 406.598 Q 189.86 406.598 190.772 406.982 L 190.772 406.982 L 190.772 406.982 Q 191.684 407.366 192.38 408.062 L 192.38 408.062 L 192.38 408.062 Q 193.076 408.758 193.46 409.67 L 193.46 409.67 L 193.46 409.67 Q 193.844 410.582 193.844 411.59 L 193.844 411.59 L 193.844 429.35 L 187.46 429.35 L 187.46 428.246 L 187.46 428.246 Q 186.692 428.534 185.66 428.822 L 185.66 428.822 L 185.66 428.822 Q 184.628 429.11 183.548 429.326 L 183.548 429.326 L 183.548 429.326 Q 182.468 429.542 181.46 429.686 L 181.46 429.686 L 181.46 429.686 Q 180.452 429.83 179.78 429.83 L 179.78 429.83 L 179.78 429.83 Q 177.38 429.83 176.084 428.438 L 176.084 428.438 L 176.084 428.438 Q 174.788 427.046 174.788 424.838 L 174.788 424.838 L 174.788 424.838 Z  M 187.22 423.206 L 187.22 421.91 L 187.22 421.91 Q 187.22 421.382 186.74 421.286 L 186.74 421.286 L 186.74 421.286 Q 186.068 421.238 185.3 421.166 L 185.3 421.166 L 185.3 421.166 Q 184.532 421.094 183.812 421.046 L 183.812 421.046 L 183.812 421.046 Q 183.092 420.998 182.516 420.974 L 182.516 420.974 L 182.516 420.974 Q 181.94 420.95 181.748 420.95 L 181.748 420.95 L 181.748 420.95 Q 181.268 420.95 181.268 421.43 L 181.268 421.43 L 181.268 424.358 L 181.268 424.358 Q 181.268 424.838 181.748 424.838 L 181.748 424.838 L 181.748 424.838 Q 181.94 424.838 182.66 424.718 L 182.66 424.718 L 182.66 424.718 Q 183.38 424.598 184.196 424.43 L 184.196 424.43 L 184.196 424.43 Q 185.012 424.262 185.756 424.094 L 185.756 424.094 L 185.756 424.094 Q 186.5 423.926 186.74 423.83 L 186.74 423.83 L 186.74 423.83 Q 187.22 423.686 187.22 423.206 L 187.22 423.206 L 187.22 423.206 Z  M 197.204 412.262 L 197.204 406.598 L 200.564 406.598 L 200.564 401.51 L 207.188 400.358 L 207.188 406.598 L 212.564 406.598 L 211.46 412.262 L 207.188 412.262 L 207.188 423.11 L 207.188 423.11 Q 207.188 423.59 207.668 423.59 L 207.668 423.59 L 211.7 423.59 L 211.7 429.35 L 205.556 429.35 L 205.556 429.35 Q 204.548 429.35 203.636 428.966 L 203.636 428.966 L 203.636 428.966 Q 202.724 428.582 202.028 427.886 L 202.028 427.886 L 202.028 427.886 Q 201.332 427.19 200.948 426.278 L 200.948 426.278 L 200.948 426.278 Q 200.564 425.366 200.564 424.358 L 200.564 424.358 L 200.564 412.262 L 197.204 412.262 L 197.204 412.262 Z  M 216.644 429.35 L 216.644 406.598 L 223.268 406.598 L 223.268 429.35 L 216.644 429.35 L 216.644 429.35 Z  M 216.644 403.766 L 216.644 396.614 L 223.268 396.614 L 223.268 403.766 L 216.644 403.766 L 216.644 403.766 Z  M 248.996 411.59 L 248.996 424.358 L 248.996 424.358 Q 248.996 425.366 248.612 426.278 L 248.612 426.278 L 248.612 426.278 Q 248.228 427.19 247.532 427.886 L 247.532 427.886 L 247.532 427.886 Q 246.836 428.582 245.924 428.966 L 245.924 428.966 L 245.924 428.966 Q 245.012 429.35 244.004 429.35 L 244.004 429.35 L 234.02 429.35 L 234.02 429.35 Q 233.012 429.35 232.1 428.966 L 232.1 428.966 L 232.1 428.966 Q 231.188 428.582 230.492 427.886 L 230.492 427.886 L 230.492 427.886 Q 229.796 427.19 229.412 426.278 L 229.412 426.278 L 229.412 426.278 Q 229.028 425.366 229.028 424.358 L 229.028 424.358 L 229.028 411.59 L 229.028 411.59 Q 229.028 410.582 229.412 409.67 L 229.412 409.67 L 229.412 409.67 Q 229.796 408.758 230.492 408.062 L 230.492 408.062 L 230.492 408.062 Q 231.188 407.366 232.1 406.982 L 232.1 406.982 L 232.1 406.982 Q 233.012 406.598 234.02 406.598 L 234.02 406.598 L 244.004 406.598 L 244.004 406.598 Q 245.012 406.598 245.924 406.982 L 245.924 406.982 L 245.924 406.982 Q 246.836 407.366 247.532 408.062 L 247.532 408.062 L 247.532 408.062 Q 248.228 408.758 248.612 409.67 L 248.612 409.67 L 248.612 409.67 Q 248.996 410.582 248.996 411.59 L 248.996 411.59 L 248.996 411.59 Z  M 242.372 422.822 L 242.372 413.126 L 242.372 413.126 Q 242.372 412.646 241.892 412.646 L 241.892 412.646 L 236.132 412.646 L 236.132 412.646 Q 235.652 412.646 235.652 413.126 L 235.652 413.126 L 235.652 422.822 L 235.652 422.822 Q 235.652 423.302 236.132 423.302 L 236.132 423.302 L 241.892 423.302 L 241.892 423.302 Q 242.372 423.302 242.372 422.822 L 242.372 422.822 L 242.372 422.822 Z  M 261.38 429.35 L 254.756 429.35 L 254.756 406.598 L 261.14 406.598 L 261.14 408.278 L 261.14 408.278 Q 261.908 407.99 262.988 407.606 L 262.988 407.606 L 262.988 407.606 Q 264.068 407.222 265.22 406.886 L 265.22 406.886 L 265.22 406.886 Q 266.372 406.55 267.452 406.334 L 267.452 406.334 L 267.452 406.334 Q 268.532 406.118 269.204 406.118 L 269.204 406.118 L 269.204 406.118 Q 271.604 406.118 272.9 407.51 L 272.9 407.51 L 272.9 407.51 Q 274.196 408.902 274.196 411.11 L 274.196 411.11 L 274.196 429.35 L 267.572 429.35 L 267.572 413.318 L 267.572 413.318 Q 267.572 412.838 267.092 412.838 L 267.092 412.838 L 267.092 412.838 Q 266.9 412.838 266.156 413.054 L 266.156 413.054 L 266.156 413.054 Q 265.412 413.27 264.548 413.534 L 264.548 413.534 L 264.548 413.534 Q 263.684 413.798 262.892 414.062 L 262.892 414.062 L 262.892 414.062 Q 262.1 414.326 261.86 414.422 L 261.86 414.422 L 261.86 414.422 Q 261.38 414.566 261.38 415.046 L 261.38 415.046 L 261.38 429.35 L 261.38 429.35 Z  M 45.86 371.75 L 45.86 339.782 L 52.82 339.782 L 52.82 365.414 L 65.54 365.414 L 65.54 371.75 L 45.86 371.75 L 45.86 371.75 Z  M 69.62 367.238 L 69.62 363.638 L 69.62 363.638 Q 69.62 361.43 70.916 360.038 L 70.916 360.038 L 70.916 360.038 Q 72.212 358.646 74.612 358.646 L 74.612 358.646 L 74.612 358.646 Q 75.956 358.646 78.02 358.862 L 78.02 358.862 L 78.02 358.862 Q 80.084 359.078 82.052 359.462 L 82.052 359.462 L 82.052 355.286 L 82.052 355.286 Q 82.052 354.806 81.572 354.806 L 81.572 354.806 L 76.628 354.806 L 76.628 354.806 Q 76.148 354.806 76.148 355.286 L 76.148 355.286 L 76.148 356.774 L 69.908 355.718 L 69.908 353.99 L 69.908 353.99 Q 69.908 352.982 70.292 352.07 L 70.292 352.07 L 70.292 352.07 Q 70.676 351.158 71.372 350.462 L 71.372 350.462 L 71.372 350.462 Q 72.068 349.766 72.98 349.382 L 72.98 349.382 L 72.98 349.382 Q 73.892 348.998 74.9 348.998 L 74.9 348.998 L 83.684 348.998 L 83.684 348.998 Q 84.692 348.998 85.604 349.382 L 85.604 349.382 L 85.604 349.382 Q 86.516 349.766 87.212 350.462 L 87.212 350.462 L 87.212 350.462 Q 87.908 351.158 88.292 352.07 L 88.292 352.07 L 88.292 352.07 Q 88.676 352.982 88.676 353.99 L 88.676 353.99 L 88.676 371.75 L 82.292 371.75 L 82.292 370.646 L 82.292 370.646 Q 81.524 370.934 80.492 371.222 L 80.492 371.222 L 80.492 371.222 Q 79.46 371.51 78.38 371.726 L 78.38 371.726 L 78.38 371.726 Q 77.3 371.942 76.292 372.086 L 76.292 372.086 L 76.292 372.086 Q 75.284 372.23 74.612 372.23 L 74.612 372.23 L 74.612 372.23 Q 72.212 372.23 70.916 370.838 L 70.916 370.838 L 70.916 370.838 Q 69.62 369.446 69.62 367.238 L 69.62 367.238 L 69.62 367.238 Z  M 82.052 365.606 L 82.052 364.31 L 82.052 364.31 Q 82.052 363.782 81.572 363.686 L 81.572 363.686 L 81.572 363.686 Q 80.9 363.638 80.132 363.566 L 80.132 363.566 L 80.132 363.566 Q 79.364 363.494 78.644 363.446 L 78.644 363.446 L 78.644 363.446 Q 77.924 363.398 77.348 363.374 L 77.348 363.374 L 77.348 363.374 Q 76.772 363.35 76.58 363.35 L 76.58 363.35 L 76.58 363.35 Q 76.1 363.35 76.1 363.83 L 76.1 363.83 L 76.1 366.758 L 76.1 366.758 Q 76.1 367.238 76.58 367.238 L 76.58 367.238 L 76.58 367.238 Q 76.772 367.238 77.492 367.118 L 77.492 367.118 L 77.492 367.118 Q 78.212 366.998 79.028 366.83 L 79.028 366.83 L 79.028 366.83 Q 79.844 366.662 80.588 366.494 L 80.588 366.494 L 80.588 366.494 Q 81.332 366.326 81.572 366.23 L 81.572 366.23 L 81.572 366.23 Q 82.052 366.086 82.052 365.606 L 82.052 365.606 L 82.052 365.606 Z  M 101.3 371.75 L 94.676 371.75 L 94.676 348.998 L 101.06 348.998 L 101.06 350.678 L 101.06 350.678 Q 101.828 350.39 102.908 350.006 L 102.908 350.006 L 102.908 350.006 Q 103.988 349.622 105.14 349.286 L 105.14 349.286 L 105.14 349.286 Q 106.292 348.95 107.372 348.734 L 107.372 348.734 L 107.372 348.734 Q 108.452 348.518 109.124 348.518 L 109.124 348.518 L 109.124 348.518 Q 111.524 348.518 112.82 349.91 L 112.82 349.91 L 112.82 349.91 Q 114.116 351.302 114.116 353.51 L 114.116 353.51 L 114.116 371.75 L 107.492 371.75 L 107.492 355.718 L 107.492 355.718 Q 107.492 355.238 107.012 355.238 L 107.012 355.238 L 107.012 355.238 Q 106.82 355.238 106.076 355.454 L 106.076 355.454 L 106.076 355.454 Q 105.332 355.67 104.468 355.934 L 104.468 355.934 L 104.468 355.934 Q 103.604 356.198 102.812 356.462 L 102.812 356.462 L 102.812 356.462 Q 102.02 356.726 101.78 356.822 L 101.78 356.822 L 101.78 356.822 Q 101.3 356.966 101.3 357.446 L 101.3 357.446 L 101.3 371.75 L 101.3 371.75 Z  M 121.892 380.87 L 121.892 375.446 L 132.068 375.446 L 132.068 375.446 Q 132.452 375.446 132.548 375.062 L 132.548 375.062 L 132.548 369.206 L 132.548 369.206 Q 131.78 369.494 130.7 369.854 L 130.7 369.854 L 130.7 369.854 Q 129.62 370.214 128.492 370.526 L 128.492 370.526 L 128.492 370.526 Q 127.364 370.838 126.332 371.054 L 126.332 371.054 L 126.332 371.054 Q 125.3 371.27 124.628 371.27 L 124.628 371.27 L 124.628 371.27 Q 122.228 371.27 120.932 369.878 L 120.932 369.878 L 120.932 369.878 Q 119.636 368.486 119.636 366.278 L 119.636 366.278 L 119.636 353.51 L 119.636 353.51 Q 119.636 351.302 120.932 349.91 L 120.932 349.91 L 120.932 349.91 Q 122.228 348.518 124.628 348.518 L 124.628 348.518 L 124.628 348.518 Q 125.3 348.518 126.38 348.734 L 126.38 348.734 L 126.38 348.734 Q 127.46 348.95 128.636 349.286 L 128.636 349.286 L 128.636 349.286 Q 129.812 349.622 130.916 350.006 L 130.916 350.006 L 130.916 350.006 Q 132.02 350.39 132.788 350.678 L 132.788 350.678 L 132.788 348.998 L 139.172 348.998 L 139.172 375.878 L 139.172 375.878 Q 139.172 376.886 138.788 377.798 L 138.788 377.798 L 138.788 377.798 Q 138.404 378.71 137.708 379.406 L 137.708 379.406 L 137.708 379.406 Q 137.012 380.102 136.1 380.486 L 136.1 380.486 L 136.1 380.486 Q 135.188 380.87 134.18 380.87 L 134.18 380.87 L 121.892 380.87 L 121.892 380.87 Z  M 132.548 362.918 L 132.548 356.87 L 132.548 356.87 Q 132.548 356.39 132.068 356.246 L 132.068 356.246 L 132.068 356.246 Q 131.828 356.15 131.012 355.886 L 131.012 355.886 L 131.012 355.886 Q 130.196 355.622 129.308 355.358 L 129.308 355.358 L 129.308 355.358 Q 128.42 355.094 127.628 354.878 L 127.628 354.878 L 127.628 354.878 Q 126.836 354.662 126.644 354.662 L 126.644 354.662 L 126.644 354.662 Q 126.164 354.662 126.164 355.142 L 126.164 355.142 L 126.164 364.646 L 126.164 364.646 Q 126.164 365.126 126.644 365.126 L 126.644 365.126 L 126.644 365.126 Q 126.836 365.126 127.628 364.91 L 127.628 364.91 L 127.628 364.91 Q 128.42 364.694 129.308 364.43 L 129.308 364.43 L 129.308 364.43 Q 130.196 364.166 131.012 363.902 L 131.012 363.902 L 131.012 363.902 Q 131.828 363.638 132.068 363.542 L 132.068 363.542 L 132.068 363.542 Q 132.548 363.398 132.548 362.918 L 132.548 362.918 L 132.548 362.918 Z  M 157.748 348.998 L 164.372 348.998 L 164.372 371.75 L 157.988 371.75 L 157.988 370.07 L 157.988 370.07 Q 157.22 370.358 156.116 370.742 L 156.116 370.742 L 156.116 370.742 Q 155.012 371.126 153.86 371.462 L 153.86 371.462 L 153.86 371.462 Q 152.708 371.798 151.652 372.014 L 151.652 372.014 L 151.652 372.014 Q 150.596 372.23 149.924 372.23 L 149.924 372.23 L 149.924 372.23 Q 147.524 372.23 146.228 370.838 L 146.228 370.838 L 146.228 370.838 Q 144.932 369.446 144.932 367.238 L 144.932 367.238 L 144.932 348.998 L 151.556 348.998 L 151.556 365.222 L 151.556 365.222 Q 151.556 365.702 152.036 365.702 L 152.036 365.702 L 152.036 365.702 Q 152.228 365.702 152.972 365.486 L 152.972 365.486 L 152.972 365.486 Q 153.716 365.27 154.58 365.006 L 154.58 365.006 L 154.58 365.006 Q 155.444 364.742 156.236 364.478 L 156.236 364.478 L 156.236 364.478 Q 157.028 364.214 157.268 364.118 L 157.268 364.118 L 157.268 364.118 Q 157.748 363.974 157.748 363.494 L 157.748 363.494 L 157.748 348.998 L 157.748 348.998 Z  M 170.132 367.238 L 170.132 363.638 L 170.132 363.638 Q 170.132 361.43 171.428 360.038 L 171.428 360.038 L 171.428 360.038 Q 172.724 358.646 175.124 358.646 L 175.124 358.646 L 175.124 358.646 Q 176.468 358.646 178.532 358.862 L 178.532 358.862 L 178.532 358.862 Q 180.596 359.078 182.564 359.462 L 182.564 359.462 L 182.564 355.286 L 182.564 355.286 Q 182.564 354.806 182.084 354.806 L 182.084 354.806 L 177.14 354.806 L 177.14 354.806 Q 176.66 354.806 176.66 355.286 L 176.66 355.286 L 176.66 356.774 L 170.42 355.718 L 170.42 353.99 L 170.42 353.99 Q 170.42 352.982 170.804 352.07 L 170.804 352.07 L 170.804 352.07 Q 171.188 351.158 171.884 350.462 L 171.884 350.462 L 171.884 350.462 Q 172.58 349.766 173.492 349.382 L 173.492 349.382 L 173.492 349.382 Q 174.404 348.998 175.412 348.998 L 175.412 348.998 L 184.196 348.998 L 184.196 348.998 Q 185.204 348.998 186.116 349.382 L 186.116 349.382 L 186.116 349.382 Q 187.028 349.766 187.724 350.462 L 187.724 350.462 L 187.724 350.462 Q 188.42 351.158 188.804 352.07 L 188.804 352.07 L 188.804 352.07 Q 189.188 352.982 189.188 353.99 L 189.188 353.99 L 189.188 371.75 L 182.804 371.75 L 182.804 370.646 L 182.804 370.646 Q 182.036 370.934 181.004 371.222 L 181.004 371.222 L 181.004 371.222 Q 179.972 371.51 178.892 371.726 L 178.892 371.726 L 178.892 371.726 Q 177.812 371.942 176.804 372.086 L 176.804 372.086 L 176.804 372.086 Q 175.796 372.23 175.124 372.23 L 175.124 372.23 L 175.124 372.23 Q 172.724 372.23 171.428 370.838 L 171.428 370.838 L 171.428 370.838 Q 170.132 369.446 170.132 367.238 L 170.132 367.238 L 170.132 367.238 Z  M 182.564 365.606 L 182.564 364.31 L 182.564 364.31 Q 182.564 363.782 182.084 363.686 L 182.084 363.686 L 182.084 363.686 Q 181.412 363.638 180.644 363.566 L 180.644 363.566 L 180.644 363.566 Q 179.876 363.494 179.156 363.446 L 179.156 363.446 L 179.156 363.446 Q 178.436 363.398 177.86 363.374 L 177.86 363.374 L 177.86 363.374 Q 177.284 363.35 177.092 363.35 L 177.092 363.35 L 177.092 363.35 Q 176.612 363.35 176.612 363.83 L 176.612 363.83 L 176.612 366.758 L 176.612 366.758 Q 176.612 367.238 177.092 367.238 L 177.092 367.238 L 177.092 367.238 Q 177.284 367.238 178.004 367.118 L 178.004 367.118 L 178.004 367.118 Q 178.724 366.998 179.54 366.83 L 179.54 366.83 L 179.54 366.83 Q 180.356 366.662 181.1 366.494 L 181.1 366.494 L 181.1 366.494 Q 181.844 366.326 182.084 366.23 L 182.084 366.23 L 182.084 366.23 Q 182.564 366.086 182.564 365.606 L 182.564 365.606 L 182.564 365.606 Z  M 196.964 380.87 L 196.964 375.446 L 207.14 375.446 L 207.14 375.446 Q 207.524 375.446 207.62 375.062 L 207.62 375.062 L 207.62 369.206 L 207.62 369.206 Q 206.852 369.494 205.772 369.854 L 205.772 369.854 L 205.772 369.854 Q 204.692 370.214 203.564 370.526 L 203.564 370.526 L 203.564 370.526 Q 202.436 370.838 201.404 371.054 L 201.404 371.054 L 201.404 371.054 Q 200.372 371.27 199.7 371.27 L 199.7 371.27 L 199.7 371.27 Q 197.3 371.27 196.004 369.878 L 196.004 369.878 L 196.004 369.878 Q 194.708 368.486 194.708 366.278 L 194.708 366.278 L 194.708 353.51 L 194.708 353.51 Q 194.708 351.302 196.004 349.91 L 196.004 349.91 L 196.004 349.91 Q 197.3 348.518 199.7 348.518 L 199.7 348.518 L 199.7 348.518 Q 200.372 348.518 201.452 348.734 L 201.452 348.734 L 201.452 348.734 Q 202.532 348.95 203.708 349.286 L 203.708 349.286 L 203.708 349.286 Q 204.884 349.622 205.988 350.006 L 205.988 350.006 L 205.988 350.006 Q 207.092 350.39 207.86 350.678 L 207.86 350.678 L 207.86 348.998 L 214.244 348.998 L 214.244 375.878 L 214.244 375.878 Q 214.244 376.886 213.86 377.798 L 213.86 377.798 L 213.86 377.798 Q 213.476 378.71 212.78 379.406 L 212.78 379.406 L 212.78 379.406 Q 212.084 380.102 211.172 380.486 L 211.172 380.486 L 211.172 380.486 Q 210.26 380.87 209.252 380.87 L 209.252 380.87 L 196.964 380.87 L 196.964 380.87 Z  M 207.62 362.918 L 207.62 356.87 L 207.62 356.87 Q 207.62 356.39 207.14 356.246 L 207.14 356.246 L 207.14 356.246 Q 206.9 356.15 206.084 355.886 L 206.084 355.886 L 206.084 355.886 Q 205.268 355.622 204.38 355.358 L 204.38 355.358 L 204.38 355.358 Q 203.492 355.094 202.7 354.878 L 202.7 354.878 L 202.7 354.878 Q 201.908 354.662 201.716 354.662 L 201.716 354.662 L 201.716 354.662 Q 201.236 354.662 201.236 355.142 L 201.236 355.142 L 201.236 364.646 L 201.236 364.646 Q 201.236 365.126 201.716 365.126 L 201.716 365.126 L 201.716 365.126 Q 201.908 365.126 202.7 364.91 L 202.7 364.91 L 202.7 364.91 Q 203.492 364.694 204.38 364.43 L 204.38 364.43 L 204.38 364.43 Q 205.268 364.166 206.084 363.902 L 206.084 363.902 L 206.084 363.902 Q 206.9 363.638 207.14 363.542 L 207.14 363.542 L 207.14 363.542 Q 207.62 363.398 207.62 362.918 L 207.62 362.918 L 207.62 362.918 Z  M 232.34 364.118 L 238.724 365.27 L 238.724 366.758 L 238.724 366.758 Q 238.724 367.766 238.34 368.678 L 238.34 368.678 L 238.34 368.678 Q 237.956 369.59 237.26 370.286 L 237.26 370.286 L 237.26 370.286 Q 236.564 370.982 235.652 371.366 L 235.652 371.366 L 235.652 371.366 Q 234.74 371.75 233.732 371.75 L 233.732 371.75 L 224.756 371.75 L 224.756 371.75 Q 223.748 371.75 222.836 371.366 L 222.836 371.366 L 222.836 371.366 Q 221.924 370.982 221.228 370.286 L 221.228 370.286 L 221.228 370.286 Q 220.532 369.59 220.148 368.678 L 220.148 368.678 L 220.148 368.678 Q 219.764 367.766 219.764 366.758 L 219.764 366.758 L 219.764 353.99 L 219.764 353.99 Q 219.764 352.982 220.148 352.07 L 220.148 352.07 L 220.148 352.07 Q 220.532 351.158 221.228 350.462 L 221.228 350.462 L 221.228 350.462 Q 221.924 349.766 222.836 349.382 L 222.836 349.382 L 222.836 349.382 Q 223.748 348.998 224.756 348.998 L 224.756 348.998 L 233.54 348.998 L 233.54 348.998 Q 234.548 348.998 235.46 349.382 L 235.46 349.382 L 235.46 349.382 Q 236.372 349.766 237.068 350.462 L 237.068 350.462 L 237.068 350.462 Q 237.764 351.158 238.148 352.07 L 238.148 352.07 L 238.148 352.07 Q 238.532 352.982 238.532 353.99 L 238.532 353.99 L 238.532 362.342 L 226.388 362.342 L 226.388 365.558 L 226.388 365.558 Q 226.388 366.038 226.868 366.038 L 226.868 366.038 L 231.86 366.038 L 231.86 366.038 Q 232.34 366.038 232.34 365.558 L 232.34 365.558 L 232.34 364.118 L 232.34 364.118 Z  M 226.388 355.238 L 226.388 357.59 L 232.292 357.59 L 232.292 355.238 L 232.292 355.238 Q 232.292 354.758 231.812 354.758 L 231.812 354.758 L 226.868 354.758 L 226.868 354.758 Q 226.388 354.758 226.388 355.238 L 226.388 355.238 L 226.388 355.238 Z  M 57.668 309.206 L 52.58 297.35 L 52.58 314.15 L 45.86 314.15 L 45.86 282.182 L 52.58 282.182 L 60.596 301.334 L 68.612 282.182 L 75.332 282.182 L 75.332 314.15 L 68.612 314.15 L 68.612 297.35 L 63.524 309.206 L 57.668 309.206 L 57.668 309.206 Z  M 94.388 291.398 L 101.012 291.398 L 101.012 314.15 L 94.628 314.15 L 94.628 312.47 L 94.628 312.47 Q 93.86 312.758 92.756 313.142 L 92.756 313.142 L 92.756 313.142 Q 91.652 313.526 90.5 313.862 L 90.5 313.862 L 90.5 313.862 Q 89.348 314.198 88.292 314.414 L 88.292 314.414 L 88.292 314.414 Q 87.236 314.63 86.564 314.63 L 86.564 314.63 L 86.564 314.63 Q 84.164 314.63 82.868 313.238 L 82.868 313.238 L 82.868 313.238 Q 81.572 311.846 81.572 309.638 L 81.572 309.638 L 81.572 291.398 L 88.196 291.398 L 88.196 307.622 L 88.196 307.622 Q 88.196 308.102 88.676 308.102 L 88.676 308.102 L 88.676 308.102 Q 88.868 308.102 89.612 307.886 L 89.612 307.886 L 89.612 307.886 Q 90.356 307.67 91.22 307.406 L 91.22 307.406 L 91.22 307.406 Q 92.084 307.142 92.876 306.878 L 92.876 306.878 L 92.876 306.878 Q 93.668 306.614 93.908 306.518 L 93.908 306.518 L 93.908 306.518 Q 94.388 306.374 94.388 305.894 L 94.388 305.894 L 94.388 291.398 L 94.388 291.398 Z  M 107.252 314.15 L 107.252 282.182 L 113.876 281.03 L 113.876 314.15 L 107.252 314.15 L 107.252 314.15 Z  M 117.476 297.062 L 117.476 291.398 L 120.836 291.398 L 120.836 286.31 L 127.46 285.158 L 127.46 291.398 L 132.836 291.398 L 131.732 297.062 L 127.46 297.062 L 127.46 307.91 L 127.46 307.91 Q 127.46 308.39 127.94 308.39 L 127.94 308.39 L 131.972 308.39 L 131.972 314.15 L 125.828 314.15 L 125.828 314.15 Q 124.82 314.15 123.908 313.766 L 123.908 313.766 L 123.908 313.766 Q 122.996 313.382 122.3 312.686 L 122.3 312.686 L 122.3 312.686 Q 121.604 311.99 121.22 311.078 L 121.22 311.078 L 121.22 311.078 Q 120.836 310.166 120.836 309.158 L 120.836 309.158 L 120.836 297.062 L 117.476 297.062 L 117.476 297.062 Z  M 136.916 314.15 L 136.916 291.398 L 143.54 291.398 L 143.54 314.15 L 136.916 314.15 L 136.916 314.15 Z  M 136.916 288.566 L 136.916 281.414 L 143.54 281.414 L 143.54 288.566 L 136.916 288.566 L 136.916 288.566 Z  M 67.988 229.862 L 67.988 251.27 L 67.988 251.27 Q 67.988 252.374 67.58 253.334 L 67.58 253.334 L 67.58 253.334 Q 67.172 254.294 66.452 255.014 L 66.452 255.014 L 66.452 255.014 Q 65.732 255.734 64.772 256.142 L 64.772 256.142 L 64.772 256.142 Q 63.812 256.55 62.708 256.55 L 62.708 256.55 L 50.9 256.55 L 50.9 256.55 Q 49.796 256.55 48.836 256.142 L 48.836 256.142 L 48.836 256.142 Q 47.876 255.734 47.156 255.014 L 47.156 255.014 L 47.156 255.014 Q 46.436 254.294 46.028 253.334 L 46.028 253.334 L 46.028 253.334 Q 45.62 252.374 45.62 251.27 L 45.62 251.27 L 45.62 229.862 L 45.62 229.862 Q 45.62 228.758 46.028 227.798 L 46.028 227.798 L 46.028 227.798 Q 46.436 226.838 47.156 226.118 L 47.156 226.118 L 47.156 226.118 Q 47.876 225.398 48.836 224.99 L 48.836 224.99 L 48.836 224.99 Q 49.796 224.582 50.9 224.582 L 50.9 224.582 L 62.708 224.582 L 62.708 224.582 Q 63.812 224.582 64.772 224.99 L 64.772 224.99 L 64.772 224.99 Q 65.732 225.398 66.452 226.118 L 66.452 226.118 L 66.452 226.118 Q 67.172 226.838 67.58 227.798 L 67.58 227.798 L 67.58 227.798 Q 67.988 228.758 67.988 229.862 L 67.988 229.862 L 67.988 229.862 Z  M 61.028 249.734 L 61.028 231.398 L 61.028 231.398 Q 61.028 230.918 60.548 230.918 L 60.548 230.918 L 53.06 230.918 L 53.06 230.918 Q 52.58 230.918 52.58 231.398 L 52.58 231.398 L 52.58 249.734 L 52.58 249.734 Q 52.58 250.214 53.06 250.214 L 53.06 250.214 L 60.548 250.214 L 60.548 250.214 Q 61.028 250.214 61.028 249.734 L 61.028 249.734 L 61.028 249.734 Z  M 72.308 239.462 L 72.308 233.798 L 75.332 233.798 L 75.332 229.142 L 75.332 229.142 Q 75.332 228.134 75.716 227.222 L 75.716 227.222 L 75.716 227.222 Q 76.1 226.31 76.796 225.614 L 76.796 225.614 L 76.796 225.614 Q 77.492 224.918 78.404 224.534 L 78.404 224.534 L 78.404 224.534 Q 79.316 224.15 80.324 224.15 L 80.324 224.15 L 87.284 224.15 L 87.284 229.91 L 82.436 229.91 L 82.436 229.91 Q 81.956 229.91 81.956 230.39 L 81.956 230.39 L 81.956 233.798 L 86.996 233.798 L 86.276 239.462 L 81.956 239.462 L 81.956 256.55 L 75.332 256.55 L 75.332 239.462 L 72.308 239.462 L 72.308 239.462 Z  M 89.204 239.462 L 89.204 233.798 L 92.228 233.798 L 92.228 229.142 L 92.228 229.142 Q 92.228 228.134 92.612 227.222 L 92.612 227.222 L 92.612 227.222 Q 92.996 226.31 93.692 225.614 L 93.692 225.614 L 93.692 225.614 Q 94.388 224.918 95.3 224.534 L 95.3 224.534 L 95.3 224.534 Q 96.212 224.15 97.22 224.15 L 97.22 224.15 L 104.18 224.15 L 104.18 229.91 L 99.332 229.91 L 99.332 229.91 Q 98.852 229.91 98.852 230.39 L 98.852 230.39 L 98.852 233.798 L 103.892 233.798 L 103.172 239.462 L 98.852 239.462 L 98.852 256.55 L 92.228 256.55 L 92.228 239.462 L 89.204 239.462 L 89.204 239.462 Z  M 108.02 256.55 L 108.02 224.582 L 114.644 223.43 L 114.644 256.55 L 108.02 256.55 L 108.02 256.55 Z  M 120.884 256.55 L 120.884 233.798 L 127.508 233.798 L 127.508 256.55 L 120.884 256.55 L 120.884 256.55 Z  M 120.884 230.966 L 120.884 223.814 L 127.508 223.814 L 127.508 230.966 L 120.884 230.966 L 120.884 230.966 Z  M 140.372 256.55 L 133.748 256.55 L 133.748 233.798 L 140.132 233.798 L 140.132 235.478 L 140.132 235.478 Q 140.9 235.19 141.98 234.806 L 141.98 234.806 L 141.98 234.806 Q 143.06 234.422 144.212 234.086 L 144.212 234.086 L 144.212 234.086 Q 145.364 233.75 146.444 233.534 L 146.444 233.534 L 146.444 233.534 Q 147.524 233.318 148.196 233.318 L 148.196 233.318 L 148.196 233.318 Q 150.596 233.318 151.892 234.71 L 151.892 234.71 L 151.892 234.71 Q 153.188 236.102 153.188 238.31 L 153.188 238.31 L 153.188 256.55 L 146.564 256.55 L 146.564 240.518 L 146.564 240.518 Q 146.564 240.038 146.084 240.038 L 146.084 240.038 L 146.084 240.038 Q 145.892 240.038 145.148 240.254 L 145.148 240.254 L 145.148 240.254 Q 144.404 240.47 143.54 240.734 L 143.54 240.734 L 143.54 240.734 Q 142.676 240.998 141.884 241.262 L 141.884 241.262 L 141.884 241.262 Q 141.092 241.526 140.852 241.622 L 140.852 241.622 L 140.852 241.622 Q 140.372 241.766 140.372 242.246 L 140.372 242.246 L 140.372 256.55 L 140.372 256.55 Z  M 171.284 248.918 L 177.668 250.07 L 177.668 251.558 L 177.668 251.558 Q 177.668 252.566 177.284 253.478 L 177.284 253.478 L 177.284 253.478 Q 176.9 254.39 176.204 255.086 L 176.204 255.086 L 176.204 255.086 Q 175.508 255.782 174.596 256.166 L 174.596 256.166 L 174.596 256.166 Q 173.684 256.55 172.676 256.55 L 172.676 256.55 L 163.7 256.55 L 163.7 256.55 Q 162.692 256.55 161.78 256.166 L 161.78 256.166 L 161.78 256.166 Q 160.868 255.782 160.172 255.086 L 160.172 255.086 L 160.172 255.086 Q 159.476 254.39 159.092 253.478 L 159.092 253.478 L 159.092 253.478 Q 158.708 252.566 158.708 251.558 L 158.708 251.558 L 158.708 238.79 L 158.708 238.79 Q 158.708 237.782 159.092 236.87 L 159.092 236.87 L 159.092 236.87 Q 159.476 235.958 160.172 235.262 L 160.172 235.262 L 160.172 235.262 Q 160.868 234.566 161.78 234.182 L 161.78 234.182 L 161.78 234.182 Q 162.692 233.798 163.7 233.798 L 163.7 233.798 L 172.484 233.798 L 172.484 233.798 Q 173.492 233.798 174.404 234.182 L 174.404 234.182 L 174.404 234.182 Q 175.316 234.566 176.012 235.262 L 176.012 235.262 L 176.012 235.262 Q 176.708 235.958 177.092 236.87 L 177.092 236.87 L 177.092 236.87 Q 177.476 237.782 177.476 238.79 L 177.476 238.79 L 177.476 247.142 L 165.332 247.142 L 165.332 250.358 L 165.332 250.358 Q 165.332 250.838 165.812 250.838 L 165.812 250.838 L 170.804 250.838 L 170.804 250.838 Q 171.284 250.838 171.284 250.358 L 171.284 250.358 L 171.284 248.918 L 171.284 248.918 Z  M 165.332 240.038 L 165.332 242.39 L 171.236 242.39 L 171.236 240.038 L 171.236 240.038 Q 171.236 239.558 170.756 239.558 L 170.756 239.558 L 165.812 239.558 L 165.812 239.558 Q 165.332 239.558 165.332 240.038 L 165.332 240.038 L 165.332 240.038 Z  M 43.7 173.318 L 43.7 166.982 L 67.172 166.982 L 67.172 173.318 L 58.916 173.318 L 58.916 198.95 L 51.956 198.95 L 51.956 173.318 L 43.7 173.318 L 43.7 173.318 Z  M 90.932 198.95 L 84.308 198.95 L 84.308 182.918 L 84.308 182.918 Q 84.308 182.438 83.828 182.438 L 83.828 182.438 L 83.828 182.438 Q 83.636 182.438 82.892 182.654 L 82.892 182.654 L 82.892 182.654 Q 82.148 182.87 81.284 183.134 L 81.284 183.134 L 81.284 183.134 Q 80.42 183.398 79.628 183.662 L 79.628 183.662 L 79.628 183.662 Q 78.836 183.926 78.596 184.022 L 78.596 184.022 L 78.596 184.022 Q 78.116 184.166 78.116 184.646 L 78.116 184.646 L 78.116 198.95 L 71.492 198.95 L 71.492 166.982 L 78.116 165.83 L 78.116 177.782 L 78.116 177.782 Q 78.884 177.494 79.964 177.134 L 79.964 177.134 L 79.964 177.134 Q 81.044 176.774 82.148 176.462 L 82.148 176.462 L 82.148 176.462 Q 83.252 176.15 84.26 175.934 L 84.26 175.934 L 84.26 175.934 Q 85.268 175.718 85.94 175.718 L 85.94 175.718 L 85.94 175.718 Q 88.34 175.718 89.636 177.11 L 89.636 177.11 L 89.636 177.11 Q 90.932 178.502 90.932 180.71 L 90.932 180.71 L 90.932 198.95 L 90.932 198.95 Z  M 109.028 191.318 L 115.412 192.47 L 115.412 193.958 L 115.412 193.958 Q 115.412 194.966 115.028 195.878 L 115.028 195.878 L 115.028 195.878 Q 114.644 196.79 113.948 197.486 L 113.948 197.486 L 113.948 197.486 Q 113.252 198.182 112.34 198.566 L 112.34 198.566 L 112.34 198.566 Q 111.428 198.95 110.42 198.95 L 110.42 198.95 L 101.444 198.95 L 101.444 198.95 Q 100.436 198.95 99.524 198.566 L 99.524 198.566 L 99.524 198.566 Q 98.612 198.182 97.916 197.486 L 97.916 197.486 L 97.916 197.486 Q 97.22 196.79 96.836 195.878 L 96.836 195.878 L 96.836 195.878 Q 96.452 194.966 96.452 193.958 L 96.452 193.958 L 96.452 181.19 L 96.452 181.19 Q 96.452 180.182 96.836 179.27 L 96.836 179.27 L 96.836 179.27 Q 97.22 178.358 97.916 177.662 L 97.916 177.662 L 97.916 177.662 Q 98.612 176.966 99.524 176.582 L 99.524 176.582 L 99.524 176.582 Q 100.436 176.198 101.444 176.198 L 101.444 176.198 L 110.228 176.198 L 110.228 176.198 Q 111.236 176.198 112.148 176.582 L 112.148 176.582 L 112.148 176.582 Q 113.06 176.966 113.756 177.662 L 113.756 177.662 L 113.756 177.662 Q 114.452 178.358 114.836 179.27 L 114.836 179.27 L 114.836 179.27 Q 115.22 180.182 115.22 181.19 L 115.22 181.19 L 115.22 189.542 L 103.076 189.542 L 103.076 192.758 L 103.076 192.758 Q 103.076 193.238 103.556 193.238 L 103.556 193.238 L 108.548 193.238 L 108.548 193.238 Q 109.028 193.238 109.028 192.758 L 109.028 192.758 L 109.028 191.318 L 109.028 191.318 Z  M 103.076 182.438 L 103.076 184.79 L 108.98 184.79 L 108.98 182.438 L 108.98 182.438 Q 108.98 181.958 108.5 181.958 L 108.5 181.958 L 103.556 181.958 L 103.556 181.958 Q 103.076 181.958 103.076 182.438 L 103.076 182.438 L 103.076 182.438 Z " fill-rule="evenodd" fill="rgb(255,255,255)"/><rect x="0" y="477" width="375" height="335" transform="matrix(1,0,0,1,0,0)" fill="rgb(0,0,0)"/><rect x="-0.5" y="0" width="375" height="132" transform="matrix(1,0,0,1,0,0)" fill="rgb(255,255,255)"/><g><g><g><rect x="78.208" y="0" width="218.584" height="105.6" transform="matrix(1,0,0,1,0,0)" fill="none"/><rect x="78.208" y="0" width="52.8" height="105.6" transform="matrix(1,0,0,1,0,0)" fill="rgb(21,66,115)"/></g><path d=" M 105.558 81.692 L 104.64 81.692 L 104.64 79.147 L 105.558 79.147 L 105.558 81.692 Z  M 109.708 70.456 L 108.79 70.456 L 108.79 67.911 L 109.708 67.911 L 109.708 70.456 Z  M 92.686 66.063 C 92.612 66.063 92.137 66.063 92.137 66.158 C 92.137 66.253 92.358 66.211 92.686 66.264 C 93.425 66.391 93.71 66.76 94.228 66.76 C 94.692 66.76 95.178 66.444 94.988 65.768 C 94.956 65.652 94.893 65.683 94.872 65.757 C 94.798 66.063 94.428 66.232 94.037 66.232 C 93.552 66.232 93.457 66.063 92.686 66.063 Z  M 87.628 68.608 C 87.712 68.724 88.578 69.844 87.247 70.277 C 87.184 70.298 87.173 70.351 87.258 70.393 C 88.24 70.805 88.715 70.044 88.715 70.044 C 89.212 71.185 88.451 71.808 88.451 71.808 C 88.557 72.009 89.032 72.357 89.74 72.516 C 90.014 72.368 90.394 72.093 90.553 71.671 C 90.553 71.671 90.743 72.167 90.574 72.642 C 92.58 72.822 93.288 71.217 94.84 71.512 C 94.882 71.523 94.903 71.491 94.903 71.449 C 94.903 70.456 94.301 68.651 92.38 68.281 C 90.468 67.911 90.986 67.13 90.986 67.13 C 91.788 67.098 92.253 67.447 92.253 67.447 C 92.401 67.204 92.189 66.95 92.189 66.95 C 92.263 66.855 92.306 66.528 92.306 66.528 C 91.397 66.528 91.165 66.327 91.165 66.327 C 91.028 65.789 91.397 65.028 92.749 65.842 C 93.087 65.546 93.055 65.081 93.055 65.081 C 93.161 65.028 93.224 64.87 93.224 64.807 C 93.224 64.585 92.147 63.983 91.873 63.909 C 91.809 63.582 91.387 63.117 90.12 63.286 C 89.518 63.36 89.085 63.202 89.285 62.853 C 89.317 62.79 89.212 62.779 89.159 62.843 C 89.021 62.98 88.831 63.371 89.349 63.635 C 89.93 63.93 89.961 64.511 89.972 64.596 C 89.982 64.722 89.835 64.733 89.803 64.606 C 89.539 63.624 88.187 63.413 87.395 63.93 C 87.437 64.458 88.008 64.807 88.314 64.807 C 88.493 64.807 88.736 64.627 88.736 64.384 C 88.736 64.268 88.8 64.279 88.831 64.374 C 88.958 64.722 88.441 65.451 87.68 65.007 C 86.899 65.789 87.216 66.76 87.29 67.109 C 87.427 67.742 87.121 68.365 86.54 68.08 C 86.508 68.07 86.476 68.059 86.476 68.123 C 86.487 68.503 87.004 68.957 87.628 68.608 Z  M 91.936 64.669 C 91.566 65.081 90.975 64.986 90.827 64.31 C 91.588 64.268 91.904 64.342 91.936 64.669 Z  M 115.242 66.232 C 114.851 66.232 114.482 66.063 114.408 65.757 C 114.387 65.683 114.323 65.652 114.292 65.768 C 114.101 66.444 114.587 66.76 115.052 66.76 C 115.569 66.76 115.854 66.391 116.594 66.264 C 116.921 66.211 117.143 66.264 117.143 66.158 C 117.143 66.063 116.668 66.063 116.594 66.063 C 115.833 66.063 115.728 66.232 115.242 66.232 Z  M 122.803 68.101 C 122.803 68.038 122.771 68.049 122.74 68.059 C 122.159 68.344 121.852 67.732 121.99 67.088 C 122.064 66.729 122.38 65.768 121.599 64.986 C 120.828 65.43 120.311 64.701 120.448 64.353 C 120.48 64.258 120.543 64.247 120.543 64.363 C 120.543 64.606 120.786 64.786 120.965 64.786 C 121.272 64.786 121.842 64.437 121.884 63.909 C 121.092 63.392 119.74 63.603 119.476 64.585 C 119.445 64.712 119.297 64.701 119.308 64.574 C 119.308 64.49 119.35 63.909 119.931 63.613 C 120.459 63.349 120.268 62.959 120.121 62.821 C 120.068 62.769 119.952 62.779 119.994 62.832 C 120.195 63.18 119.762 63.339 119.17 63.265 C 117.903 63.096 117.491 63.571 117.417 63.888 C 117.143 63.962 116.066 64.564 116.066 64.786 C 116.066 64.849 116.129 65.018 116.235 65.06 C 116.235 65.06 116.213 65.514 116.541 65.82 C 117.882 65.007 118.262 65.768 118.125 66.306 C 118.125 66.306 117.882 66.496 116.974 66.507 C 116.974 66.507 117.016 66.834 117.09 66.929 C 117.09 66.929 116.879 67.193 117.027 67.426 C 117.027 67.426 117.491 67.077 118.294 67.109 C 118.294 67.109 118.811 67.89 116.9 68.26 C 114.988 68.629 114.376 70.435 114.376 71.428 C 114.376 71.481 114.397 71.502 114.439 71.491 C 115.992 71.206 116.699 72.811 118.706 72.621 C 118.526 72.146 118.727 71.65 118.727 71.65 C 118.885 72.072 119.265 72.357 119.54 72.494 C 120.258 72.336 120.723 71.998 120.828 71.787 C 120.828 71.787 120.068 71.164 120.564 70.023 C 120.564 70.023 121.039 70.784 122.021 70.372 C 122.106 70.33 122.085 70.277 122.032 70.256 C 120.701 69.823 121.567 68.703 121.652 68.587 C 122.275 68.957 122.803 68.503 122.803 68.101 Z  M 118.452 64.31 C 118.304 64.986 117.713 65.081 117.343 64.669 C 117.375 64.342 117.702 64.268 118.452 64.31 Z  M 104.291 53.022 C 104.291 53.191 104.365 53.339 104.418 53.423 C 104.534 53.592 104.513 53.687 104.46 53.74 C 104.407 53.793 104.312 53.814 104.143 53.698 C 104.059 53.634 103.911 53.571 103.742 53.571 C 103.457 53.571 103.309 53.761 103.309 53.919 C 103.309 54.078 103.457 54.268 103.742 54.268 C 103.911 54.268 104.059 54.194 104.143 54.141 C 104.312 54.025 104.407 54.046 104.46 54.099 C 104.513 54.152 104.439 54.732 104.365 55.197 C 103.89 55.303 103.658 55.683 103.658 55.905 C 103.658 56.485 104.27 56.813 104.64 57.013 C 104.999 56.823 105.622 56.485 105.622 55.905 C 105.622 55.683 105.389 55.292 104.914 55.197 C 104.851 54.743 104.766 54.152 104.819 54.099 C 104.872 54.046 104.967 54.025 105.136 54.141 C 105.22 54.204 105.368 54.268 105.537 54.268 C 105.822 54.268 105.97 54.078 105.97 53.919 C 105.97 53.761 105.822 53.571 105.537 53.571 C 105.368 53.571 105.22 53.645 105.136 53.698 C 104.967 53.814 104.872 53.793 104.819 53.74 C 104.766 53.687 104.745 53.592 104.861 53.423 C 104.925 53.339 104.988 53.191 104.988 53.022 C 104.988 52.737 104.798 52.589 104.64 52.589 C 104.481 52.589 104.291 52.737 104.291 53.022 Z  M 104.64 57.309 C 104.249 57.309 103.932 57.626 103.932 58.017 C 103.932 58.407 104.249 58.724 104.64 58.724 C 105.03 58.724 105.347 58.407 105.347 58.017 C 105.347 57.626 105.03 57.309 104.64 57.309 Z  M 104.64 64.078 C 107.459 64.078 109.043 64.617 109.043 64.617 C 109.054 63.191 109.054 62.399 109.867 62.515 C 109.423 61.322 111.345 60.847 111.345 59.294 C 111.345 58.27 110.617 58.154 110.405 58.154 C 109.772 58.154 109.867 58.566 109.328 58.566 C 109.265 58.566 109.191 58.545 109.191 58.597 C 109.191 58.777 109.339 59.083 109.592 59.083 C 109.93 59.083 109.93 58.745 110.184 58.745 C 110.289 58.745 110.448 58.83 110.448 59.178 C 110.448 59.844 110.015 60.572 109.497 61.142 C 109.381 60.984 109.223 60.878 109.022 60.878 C 108.716 60.878 108.452 61.195 108.452 61.586 C 108.452 61.734 108.473 61.839 108.526 61.956 C 108.357 62.051 108.198 62.103 108.093 62.103 C 107.86 62.103 107.512 62.008 107.512 61.501 C 107.512 60.372 109.022 59.379 109.022 57.943 C 109.022 57.256 108.568 56.58 107.607 56.58 C 106.583 56.58 106.773 57.51 105.886 57.51 C 105.844 57.51 105.812 57.52 105.812 57.563 C 105.812 57.626 105.97 58.143 106.424 58.143 C 106.91 58.143 107.047 57.299 107.491 57.299 C 107.649 57.299 107.892 57.394 107.892 57.964 C 107.892 58.407 107.67 59.136 107.354 59.822 C 107.237 59.706 107.079 59.622 106.91 59.622 C 106.53 59.622 106.255 59.991 106.255 60.424 C 106.255 60.699 106.361 60.973 106.551 61.142 C 106.329 61.428 106.097 61.66 105.791 61.66 C 105.178 61.66 104.914 61.311 104.914 60.931 C 104.914 60.519 105.664 60.372 105.664 59.738 C 105.664 59.305 105.379 59.062 105.115 59.062 C 104.819 59.062 104.671 59.252 104.64 59.252 C 104.608 59.252 104.46 59.062 104.164 59.062 C 103.89 59.062 103.615 59.305 103.615 59.738 C 103.615 60.372 104.365 60.53 104.365 60.931 C 104.365 61.311 104.091 61.66 103.489 61.66 C 103.182 61.66 102.95 61.428 102.728 61.142 C 102.918 60.963 103.024 60.699 103.024 60.424 C 103.024 59.981 102.749 59.622 102.369 59.622 C 102.19 59.622 102.042 59.706 101.926 59.822 C 101.609 59.125 101.387 58.407 101.387 57.964 C 101.387 57.394 101.63 57.299 101.788 57.299 C 102.221 57.299 102.359 58.143 102.855 58.143 C 103.309 58.143 103.468 57.626 103.468 57.563 C 103.468 57.531 103.436 57.51 103.394 57.51 C 102.507 57.51 102.697 56.58 101.672 56.58 C 100.722 56.58 100.257 57.256 100.257 57.943 C 100.257 59.379 101.767 60.372 101.767 61.501 C 101.767 62.008 101.419 62.103 101.187 62.103 C 101.07 62.103 100.923 62.051 100.754 61.956 C 100.806 61.829 100.828 61.734 100.828 61.586 C 100.828 61.195 100.564 60.878 100.257 60.878 C 100.067 60.878 99.909 60.984 99.793 61.142 C 99.275 60.572 98.842 59.844 98.842 59.178 C 98.842 58.84 99.001 58.745 99.106 58.745 C 99.349 58.745 99.36 59.083 99.698 59.083 C 99.951 59.083 100.099 58.777 100.099 58.597 C 100.099 58.545 100.025 58.566 99.962 58.566 C 99.423 58.566 99.518 58.154 98.884 58.154 C 98.673 58.154 97.945 58.27 97.945 59.294 C 97.945 60.857 99.867 61.322 99.423 62.515 C 100.236 62.399 100.226 63.191 100.247 64.617 C 100.236 64.617 101.82 64.078 104.64 64.078 Z  M 99.476 66.18 C 98.705 66.348 98.156 66.507 97.913 66.581 C 97.924 66.243 98.05 65.926 98.356 65.863 C 98.399 65.852 98.409 65.799 98.367 65.778 C 97.681 65.324 97.322 66.19 97.311 66.222 C 97.068 66.201 96.699 66.275 96.699 66.602 C 96.699 67.584 94.46 68.123 93.942 68.207 C 94.861 68.556 95.241 69.717 95.241 69.717 C 95.907 69.052 96.677 68.471 96.857 68.471 C 97.036 68.471 97.1 68.693 97.11 68.82 C 97.11 68.862 97.153 68.872 97.184 68.841 C 97.533 68.323 97.364 68.207 97.332 68.049 C 97.311 67.932 97.343 67.478 97.85 67.531 L 97.85 74.068 L 97.586 74.121 C 97.469 74.142 96.508 73.329 95.421 72.568 C 94.323 71.808 93.742 72.262 92.496 72.938 C 90.859 73.825 89.212 73.022 89.212 73.022 C 87.807 74.026 87.321 76.94 87.321 76.94 C 87.036 77.056 86.572 77.183 86.139 77.183 C 85.061 77.183 84.871 76.528 84.871 76.148 C 84.871 74.49 86.952 73.783 86.952 72.146 C 86.952 71.745 86.772 70.14 84.776 70.14 C 84.523 70.14 83.002 70.14 82.992 70.14 C 82.242 70.14 82.062 69.601 81.957 69.4 C 81.915 69.316 81.841 69.369 81.872 69.432 C 81.925 69.569 81.788 69.78 81.788 70.192 C 81.788 70.858 82.179 71.259 82.907 71.259 C 83.235 71.259 83.551 71.164 83.646 71.1 C 83.71 71.058 83.752 71.122 83.72 71.164 C 83.404 71.533 83.382 72.23 83.509 72.389 C 83.541 72.431 83.583 72.42 83.583 72.389 C 83.763 71.692 84.417 71.027 85.304 71.027 C 86.392 71.027 86.381 71.945 86.381 72.167 C 86.381 73.498 84.048 74.469 84.048 76.307 C 84.048 78.165 86.012 78.556 87.142 78.271 C 87.078 80.129 84.945 80.763 84.882 79.432 C 84.882 79.369 84.829 79.358 84.797 79.443 C 84.533 80.098 84.639 80.678 85.463 80.858 C 85.516 80.868 85.494 80.9 85.442 80.942 C 84.618 81.46 85.061 83.508 85.104 84.11 C 85.167 84.976 84.301 84.871 84.227 84.85 C 84.196 84.839 84.153 84.85 84.217 84.924 C 84.829 85.673 85.589 84.987 85.589 84.987 C 86.16 85.166 85.811 85.652 85.42 85.906 C 85.357 85.948 85.368 85.99 85.431 85.99 C 85.516 86.001 86.403 86.075 86.561 85.367 C 86.952 85.832 87.532 85.663 87.649 85.599 C 87.818 85.515 88.652 85.209 88.726 86.138 C 88.726 86.201 88.768 86.159 88.8 86.127 C 89.423 85.335 88.757 84.85 88.377 84.797 C 88.409 84.755 88.905 84.332 89.359 84.913 C 89.391 84.955 89.423 84.966 89.423 84.881 C 89.476 83.878 88.662 83.794 88.134 84.227 C 88.113 84.121 87.934 83.561 88.726 83.582 C 88.747 83.582 88.779 83.551 88.747 83.519 C 88.134 82.864 87.628 83.456 87.501 83.604 C 87.226 83.931 86.54 83.794 86.476 83.794 C 86.688 80.319 89.75 81.555 90.172 79.865 C 90.194 79.781 90.236 79.812 90.236 79.844 C 90.352 80.256 91.387 80.309 91.577 79.506 C 91.588 79.453 91.577 79.422 91.545 79.453 C 90.658 80.34 88.662 77.574 91.387 75.324 C 93.71 73.413 95.79 74.48 96.582 75.103 C 96.625 75.377 96.456 75.472 96.35 75.504 C 96.308 75.515 96.297 75.546 96.361 75.578 C 96.582 75.662 96.889 75.631 97.036 75.43 C 97.533 75.779 97.11 76.222 96.91 76.338 C 96.857 76.37 96.878 76.402 96.92 76.412 C 97.374 76.497 97.755 76.032 97.776 75.757 L 97.85 75.8 L 97.85 77.774 C 97.85 80.583 101.092 80.974 104.65 83.35 C 108.209 80.964 111.44 80.583 111.44 77.774 L 111.44 75.8 L 111.514 75.757 C 111.535 76.021 111.905 76.497 112.37 76.412 C 112.412 76.402 112.433 76.37 112.38 76.338 C 112.18 76.212 111.747 75.779 112.253 75.43 C 112.401 75.641 112.708 75.662 112.929 75.578 C 112.993 75.557 112.982 75.515 112.94 75.504 C 112.834 75.472 112.665 75.377 112.708 75.103 C 113.5 74.469 115.58 73.403 117.903 75.324 C 120.628 77.574 118.632 80.33 117.745 79.453 C 117.702 79.411 117.702 79.453 117.713 79.506 C 117.903 80.319 118.938 80.256 119.054 79.844 C 119.065 79.812 119.107 79.781 119.117 79.865 C 119.54 81.555 122.592 80.319 122.813 83.794 C 122.75 83.804 122.064 83.931 121.789 83.604 C 121.673 83.466 121.166 82.864 120.543 83.519 C 120.501 83.561 120.543 83.582 120.564 83.582 C 121.356 83.561 121.187 84.121 121.156 84.227 C 120.628 83.794 119.814 83.878 119.867 84.881 C 119.867 84.955 119.899 84.955 119.931 84.913 C 120.385 84.332 120.881 84.755 120.913 84.797 C 120.543 84.85 119.867 85.335 120.49 86.127 C 120.522 86.159 120.554 86.201 120.564 86.138 C 120.649 85.209 121.472 85.504 121.641 85.599 C 121.757 85.663 122.338 85.832 122.729 85.367 C 122.887 86.075 123.774 86.001 123.859 85.99 C 123.922 85.99 123.922 85.948 123.869 85.906 C 123.489 85.652 123.13 85.166 123.7 84.987 C 123.7 84.987 124.461 85.673 125.073 84.924 C 125.126 84.86 125.094 84.839 125.063 84.85 C 124.989 84.871 124.123 84.976 124.186 84.11 C 124.228 83.508 124.672 81.46 123.848 80.942 C 123.796 80.911 123.774 80.879 123.827 80.858 C 124.651 80.678 124.756 80.098 124.492 79.443 C 124.461 79.358 124.408 79.38 124.408 79.432 C 124.345 80.763 122.222 80.129 122.148 78.271 C 123.289 78.566 125.242 78.165 125.242 76.307 C 125.242 74.48 122.908 73.498 122.908 72.167 C 122.908 71.945 122.898 71.027 123.986 71.027 C 124.873 71.027 125.527 71.692 125.707 72.389 C 125.717 72.42 125.749 72.431 125.781 72.389 C 125.908 72.22 125.886 71.533 125.57 71.164 C 125.538 71.132 125.57 71.058 125.644 71.1 C 125.739 71.164 126.055 71.259 126.383 71.259 C 127.111 71.259 127.502 70.858 127.502 70.192 C 127.502 69.78 127.354 69.569 127.418 69.432 C 127.449 69.369 127.365 69.326 127.333 69.4 C 127.228 69.612 127.037 70.14 126.298 70.14 C 126.288 70.14 124.767 70.14 124.514 70.14 C 122.518 70.14 122.338 71.755 122.338 72.146 C 122.338 73.783 124.419 74.49 124.419 76.148 C 124.419 76.539 124.218 77.183 123.151 77.183 C 122.708 77.183 122.243 77.056 121.969 76.94 C 121.969 76.94 121.493 74.036 120.078 73.022 C 120.078 73.022 118.431 73.825 116.794 72.938 C 115.548 72.262 114.957 71.808 113.859 72.568 C 112.76 73.329 111.81 74.142 111.694 74.121 L 111.43 74.068 L 111.43 67.531 C 111.937 67.478 111.968 67.932 111.947 68.049 C 111.916 68.196 111.757 68.323 112.095 68.841 C 112.127 68.883 112.158 68.862 112.169 68.82 C 112.18 68.693 112.253 68.471 112.422 68.471 C 112.591 68.471 113.373 69.052 114.038 69.717 C 114.038 69.717 114.418 68.566 115.337 68.207 C 114.82 68.123 112.581 67.584 112.581 66.602 C 112.581 66.275 112.211 66.201 111.968 66.222 C 111.958 66.19 111.588 65.324 110.912 65.778 C 110.881 65.799 110.881 65.852 110.923 65.863 C 111.229 65.937 111.356 66.243 111.366 66.581 C 110.712 66.38 107.934 65.599 104.64 65.599 C 103.035 65.599 101.567 65.789 100.395 66 L 100.395 68.26 L 99.476 68.26 L 99.476 66.18 L 99.476 66.18 Z  M 93.393 89.39 C 93.15 89.295 92.992 89.137 92.992 88.81 L 92.992 87.405 C 92.591 87.268 91.492 86.845 89.285 86.845 C 87.459 86.845 86.888 87.257 86.857 87.405 L 86.371 90.077 C 86.371 90.077 87.11 89.401 89.761 89.57 C 92.95 89.771 96.255 91.661 96.255 89.644 L 96.255 88.461 C 93.763 88.472 93.393 89.274 93.393 89.39 Z  M 113.024 88.472 L 113.024 89.654 C 113.024 91.661 116.33 89.781 119.519 89.58 C 122.169 89.412 122.908 90.087 122.908 90.087 L 122.423 87.405 C 122.402 87.257 121.821 86.845 119.994 86.845 C 117.797 86.845 116.699 87.268 116.287 87.405 L 116.287 88.81 C 116.287 89.126 116.129 89.285 115.886 89.39 C 115.897 89.274 115.527 88.472 113.024 88.472 Z  M 104.64 87.257 C 109.782 87.257 114.999 87.521 115.675 88.303 C 115.728 88.366 115.749 88.303 115.749 88.25 L 115.749 85.525 C 115.749 84.733 110.363 84.269 104.629 84.269 C 98.895 84.269 93.509 84.733 93.509 85.525 L 93.509 88.25 C 93.509 88.292 93.531 88.356 93.583 88.303 C 94.291 87.532 99.508 87.257 104.64 87.257 Z  M 100.057 74.416 L 99.539 74.279 L 99.497 74.342 L 98.895 74.078 C 98.895 74.078 99.339 74.078 99.434 74.078 C 99.486 74.078 99.486 74.047 99.465 74.026 C 99.222 73.783 99.001 73.572 99.001 73.572 C 99.001 73.572 99.244 73.667 99.592 73.793 C 99.634 73.804 99.645 73.783 99.624 73.751 C 99.455 73.508 99.222 73.17 99.222 73.17 C 99.222 73.17 99.708 73.498 99.803 73.561 C 99.835 73.582 99.856 73.561 99.845 73.529 C 99.719 73.212 99.571 72.843 99.571 72.843 L 100.099 73.35 C 100.12 73.371 100.152 73.36 100.141 73.329 C 100.088 73.086 99.993 72.642 99.993 72.642 L 100.384 73.212 C 100.405 73.244 100.437 73.234 100.437 73.202 C 100.437 73.086 100.447 72.579 100.447 72.579 C 100.447 72.579 100.616 72.959 100.69 73.149 C 100.711 73.191 100.732 73.191 100.754 73.139 C 100.775 73.075 100.954 72.653 100.954 72.653 L 100.975 73.308 L 100.891 73.329 L 100.785 74.11 C 101.556 73.931 102.528 72.6 103.267 72.6 C 104.154 72.6 104.471 73.635 106.097 73.107 C 106.509 73.719 106.657 74.247 106.815 74.976 C 107.449 75.567 108.325 75.367 108.325 74.744 C 108.325 73.899 107.406 73.74 107.406 72.853 C 107.406 72.463 107.681 71.892 108.431 71.892 C 108.832 71.892 109.413 72.061 109.751 72.061 C 110.152 72.061 110.236 71.776 110.279 71.65 C 110.31 71.565 110.427 71.586 110.416 71.66 C 110.405 71.745 110.458 71.861 110.458 72.051 C 110.458 72.611 109.645 72.684 109.55 72.611 C 109.508 72.579 109.476 72.621 109.508 72.653 C 109.635 72.748 109.603 73.086 109.455 73.297 C 109.434 73.318 109.413 73.318 109.413 73.297 C 109.328 72.896 108.853 72.399 108.441 72.399 C 108.293 72.399 107.987 72.484 107.987 72.843 C 107.987 73.339 108.99 73.804 108.99 74.839 C 108.99 75.916 107.924 76.18 106.847 75.905 C 106.878 76.93 108.41 77.532 108.441 76.803 C 108.441 76.75 108.473 76.782 108.484 76.803 C 108.705 77.12 108.61 77.352 108.315 77.479 C 108.579 77.595 108.631 78.133 108.705 78.461 C 108.821 78.947 109.328 78.672 109.36 78.661 C 109.392 78.64 109.402 78.661 109.381 78.693 C 109.191 79.189 108.674 78.999 108.674 78.999 C 108.41 79.189 108.726 79.358 108.969 79.432 C 109.001 79.443 109.001 79.464 108.98 79.485 C 108.8 79.548 108.42 79.675 108.23 79.348 C 108.093 79.686 107.808 79.675 107.702 79.675 C 107.501 79.675 107.375 79.876 107.417 80.15 C 107.417 80.172 107.406 80.182 107.385 80.172 C 106.921 79.865 107.185 79.496 107.375 79.401 C 107.343 79.38 107.016 79.242 106.878 79.622 C 106.868 79.654 106.847 79.654 106.836 79.622 C 106.636 79.073 107.079 78.915 107.396 79.052 C 107.375 78.978 107.206 78.704 106.783 78.799 C 106.762 78.809 106.752 78.799 106.762 78.767 C 106.836 78.598 107.037 78.355 107.428 78.598 C 107.628 78.725 107.966 78.545 107.998 78.524 C 107.311 77.162 105.991 78.302 105.685 77.236 C 105.675 77.215 105.653 77.194 105.632 77.257 C 105.558 77.479 104.978 77.5 104.872 77.056 C 104.861 77.025 104.872 77.014 104.904 77.035 C 104.988 77.12 105.168 77.194 105.411 76.856 C 105.569 76.623 105.59 76.317 105.59 76.116 C 105.59 75.293 104.766 73.899 103.478 73.899 C 102.665 73.899 101.788 74.216 101.134 74.691 L 101.736 74.828 C 101.683 75.441 101.092 75.8 100.553 75.641 L 100.648 74.944 C 100.553 74.976 100.321 75.06 100.194 75.24 C 100.183 75.251 100.162 75.251 100.162 75.229 C 100.057 74.828 100.384 74.628 100.479 74.585 C 100.49 74.575 100.49 74.575 100.468 74.575 C 100.173 74.564 100.014 74.775 99.962 74.849 C 99.951 74.86 99.94 74.86 99.94 74.849 C 99.972 74.765 99.919 74.564 100.057 74.416 Z  M 101.862 79.147 C 101.63 79.432 101.429 79.158 101.123 79.158 C 100.838 79.158 100.785 79.401 100.785 79.496 C 100.785 79.517 100.775 79.517 100.764 79.506 C 100.437 79.063 100.806 78.82 101.018 78.788 C 100.986 78.756 100.669 78.545 100.468 78.841 C 100.458 78.862 100.437 78.852 100.437 78.83 C 100.426 78.281 100.859 78.239 101.155 78.482 C 101.208 78.271 101.07 78.133 100.838 78.123 C 100.806 78.123 100.806 78.102 100.817 78.091 C 100.912 77.986 101.007 77.943 101.102 77.943 C 101.408 77.943 101.451 78.334 101.651 78.334 C 101.947 78.334 102.38 77.933 102.412 77.891 C 102.401 77.869 102.116 77.088 102.169 76.623 C 102.169 76.602 102.158 76.602 102.148 76.613 C 102 76.697 101.641 76.687 101.641 76.243 C 101.641 76.212 101.651 76.201 101.672 76.233 C 101.831 76.454 102.095 76.201 102.221 76.053 C 102.359 75.895 103.119 74.796 104.122 74.796 C 104.344 74.796 104.629 74.923 104.861 75.082 C 104.513 75.504 104.861 75.905 105.115 75.852 C 105.147 75.842 105.147 75.874 105.125 75.884 C 103.795 76.38 103.204 76.581 103.204 77.7 C 103.204 78.281 103.404 78.609 103.742 78.524 C 103.763 78.514 103.774 78.524 103.753 78.545 C 103.626 78.693 103.489 78.746 103.372 78.746 C 103.098 78.746 103.045 78.598 102.897 78.598 C 102.749 78.598 102.253 78.894 102.253 79.137 C 102.253 79.232 102.316 79.358 102.485 79.464 C 102.496 79.475 102.485 79.485 102.485 79.485 C 102.338 79.485 101.947 79.517 101.862 79.147 Z  M 105.358 68.323 C 104.946 68.302 104.671 68.387 104.692 68.524 C 104.893 68.735 105.157 68.714 105.358 68.323 Z  M 103.827 69.348 C 104.122 69.274 104.439 69.305 104.481 69.316 C 104.524 69.326 104.524 69.4 104.471 69.411 C 103.858 69.485 103.827 69.77 103.436 69.77 C 103.182 69.77 102.897 69.506 103.003 69.126 C 103.013 69.073 103.056 69.073 103.066 69.126 C 103.108 69.295 103.351 69.474 103.827 69.348 Z  M 95.875 82.928 C 96.276 83.445 96.667 82.959 97.205 82.959 C 97.469 82.959 97.786 83.044 97.839 83.572 C 97.839 83.604 97.86 83.604 97.892 83.572 C 98.473 82.78 97.807 82.336 97.427 82.273 C 97.512 82.199 98.071 81.851 98.441 82.368 C 98.462 82.4 98.504 82.389 98.504 82.347 C 98.504 81.344 97.755 81.27 97.205 81.703 C 97.1 81.312 97.396 81.059 97.776 81.059 C 97.818 81.059 97.839 81.027 97.818 81.006 C 97.142 80.288 96.646 81.196 96.53 81.333 C 96.266 81.692 95.305 81.016 94.914 80.615 C 94.914 80.615 95.759 79.728 95.759 78.915 C 95.759 78.862 95.748 78.799 95.748 78.767 C 95.748 78.746 95.759 78.735 95.78 78.746 C 95.864 78.799 95.98 78.83 96.097 78.83 C 96.287 78.83 96.656 78.767 96.656 78.081 C 96.656 78.028 96.635 78.028 96.614 78.06 C 96.508 78.207 96.403 78.239 96.318 78.239 C 95.632 78.239 94.206 75.958 92.517 75.958 C 92.073 75.958 91.239 76.275 90.827 76.729 C 91.028 76.845 91.07 77.099 91.049 77.278 C 91.017 77.563 90.785 77.711 90.553 77.774 C 90.51 77.785 90.51 77.817 90.553 77.838 C 91.408 78.165 92.95 78.746 93.309 79.052 C 93.721 79.411 93.647 80.087 93.404 81.027 C 93.172 81.924 92.675 81.808 92.485 81.777 C 92.453 81.777 92.453 81.787 92.464 81.808 C 92.686 82.083 92.95 82.178 93.182 82.178 C 93.626 82.178 93.795 81.903 94.016 81.903 C 94.396 81.903 95.21 82.452 95.21 82.875 C 95.21 83.107 95.03 83.329 94.787 83.477 C 94.777 83.487 94.777 83.508 94.798 83.508 C 94.977 83.54 95.727 83.604 95.875 82.928 Z  M 114.492 83.508 C 114.513 83.508 114.524 83.487 114.503 83.477 C 114.27 83.318 114.08 83.107 114.08 82.875 C 114.08 82.452 114.883 81.903 115.274 81.903 C 115.506 81.903 115.664 82.178 116.108 82.178 C 116.34 82.178 116.604 82.083 116.826 81.808 C 116.847 81.787 116.836 81.766 116.805 81.777 C 116.625 81.808 116.118 81.924 115.886 81.027 C 115.643 80.087 115.559 79.411 115.981 79.052 C 116.33 78.746 117.882 78.165 118.737 77.838 C 118.78 77.817 118.78 77.785 118.737 77.774 C 118.505 77.711 118.273 77.563 118.241 77.278 C 118.22 77.099 118.262 76.856 118.463 76.729 C 118.04 76.275 117.206 75.958 116.763 75.958 C 115.073 75.958 113.647 78.239 112.961 78.239 C 112.876 78.239 112.76 78.207 112.665 78.06 C 112.644 78.028 112.623 78.028 112.623 78.081 C 112.623 78.767 112.993 78.83 113.183 78.83 C 113.288 78.83 113.415 78.799 113.5 78.746 C 113.521 78.735 113.531 78.746 113.531 78.767 C 113.531 78.799 113.521 78.862 113.521 78.915 C 113.521 79.728 114.365 80.615 114.365 80.615 C 113.985 81.016 113.024 81.682 112.75 81.333 C 112.634 81.185 112.137 80.288 111.461 81.006 C 111.44 81.037 111.451 81.059 111.504 81.059 C 111.884 81.059 112.18 81.312 112.074 81.703 C 111.525 81.27 110.775 81.344 110.775 82.347 C 110.775 82.389 110.817 82.4 110.838 82.368 C 111.197 81.851 111.768 82.199 111.842 82.273 C 111.461 82.326 110.807 82.78 111.377 83.572 C 111.398 83.604 111.419 83.604 111.43 83.572 C 111.493 83.054 111.81 82.959 112.063 82.959 C 112.591 82.959 112.982 83.445 113.394 82.928 C 113.563 83.604 114.313 83.54 114.492 83.508 Z  M 100.859 70.34 C 100.806 70.414 100.627 70.34 100.564 70.308 C 100.553 70.298 100.542 70.308 100.553 70.319 C 100.595 70.414 100.764 70.699 101.018 70.699 C 101.134 70.699 101.303 70.636 101.345 70.551 C 101.345 70.551 102.338 70.879 102.823 71.005 C 102.633 71.259 102.517 71.565 102.485 71.892 C 102.095 71.65 100.511 70.805 100.511 70.805 L 100.025 71.481 C 99.94 71.586 99.55 71.301 99.634 71.196 L 100.004 70.678 C 99.877 70.551 99.581 70.625 99.497 70.657 C 99.486 70.657 99.476 70.657 99.486 70.636 C 99.539 70.53 99.719 70.224 100.183 70.361 C 100.183 70.076 99.761 70.171 99.645 70.203 C 99.634 70.203 99.624 70.203 99.634 70.192 C 99.75 70.066 100.099 69.791 100.479 70.023 L 100.648 69.791 L 100.31 69.432 L 100.521 69.136 L 100.764 69.453 L 102.591 66.95 C 102.633 66.887 103.003 66.781 103.13 66.75 C 103.14 66.887 103.161 67.267 103.119 67.331 L 101.324 69.854 L 101.704 69.981 L 101.493 70.277 L 101.049 70.066 L 100.859 70.34 Z  M 107.269 69.928 C 107.269 70.161 107.406 70.499 107.713 70.393 C 107.723 70.382 107.744 70.393 107.734 70.404 C 107.692 70.657 107.227 70.889 107.026 70.594 C 106.836 70.984 106.889 71.354 107.28 71.565 C 107.301 71.576 107.301 71.607 107.28 71.628 C 107.037 71.797 106.667 71.766 106.498 71.428 C 106.171 71.671 106.213 72.199 106.414 72.378 C 106.414 72.378 105.506 72.917 104.682 72.537 C 104.133 72.273 103.689 71.935 102.982 71.998 C 103.077 71.005 103.573 70.752 104.481 70.604 C 105.21 70.488 105.294 70.15 105.199 69.897 C 104.956 69.833 104.502 70.055 104.502 70.055 C 104.418 69.918 104.534 69.78 104.534 69.78 C 104.492 69.728 104.471 69.548 104.471 69.548 C 104.978 69.548 105.073 69.432 105.073 69.432 C 105.168 68.904 104.629 68.851 104.217 69.136 C 104.027 68.967 104.059 68.746 104.059 68.746 C 104.006 68.714 103.964 68.629 103.964 68.587 C 103.964 68.46 104.566 68.123 104.724 68.08 C 104.766 67.901 104.978 67.658 105.622 67.721 C 105.696 67.552 105.569 66.929 105.495 66.771 C 105.474 66.718 105.506 66.697 105.558 66.729 C 105.78 66.866 106.002 67.394 106.16 67.404 C 106.16 67.404 106.878 67.024 106.91 67.045 C 106.942 67.067 107.047 67.869 107.047 67.869 C 107.142 67.985 107.702 67.869 107.945 67.975 C 108.008 68.006 108.008 68.049 107.945 68.059 C 107.765 68.091 107.185 68.344 107.09 68.503 C 107.428 68.999 107.269 69.728 107.269 69.928 Z " fill="rgb(255,255,255)"/></g><g><g><path d=" M 143.078 68.091 C 143.68 67.911 143.997 67.616 144.039 67.119 L 144.757 58.756 L 143.807 58.481 L 143.807 58.006 C 144.546 57.911 145.444 57.89 146.035 57.89 L 146.626 57.89 L 149.192 65.831 L 149.213 65.831 L 151.706 57.89 L 152.413 57.89 C 153.004 57.89 153.744 57.911 154.398 58.006 L 154.398 58.481 L 153.385 58.724 L 154.103 67.732 L 155.053 67.911 L 155.053 68.27 C 154.662 68.45 154.103 68.545 153.469 68.545 C 152.719 68.545 152.244 68.513 151.663 68.376 L 151.663 68.07 C 152.35 67.901 152.667 67.5 152.635 66.824 L 152.223 59.389 L 152.191 59.389 L 149.277 68.471 L 148.643 68.556 L 145.697 59.4 L 145.676 59.421 L 145.169 67.626 L 146.236 67.901 L 146.236 68.26 C 145.528 68.471 145.137 68.534 144.356 68.534 C 143.976 68.534 143.5 68.471 143.099 68.365 L 143.099 68.091 L 143.078 68.091 Z " fill="rgb(0,0,0)"/><path d=" M 156.215 68.112 C 156.658 67.954 157.081 67.626 157.081 67.225 L 157.081 61.692 L 156.035 61.248 L 156.035 60.9 C 156.774 60.688 157.524 60.593 157.989 60.593 L 158.517 60.593 L 158.432 61.48 L 158.432 67.7 L 159.351 67.943 L 159.351 68.249 C 158.791 68.45 158.284 68.524 157.45 68.524 C 157.07 68.524 156.595 68.492 156.225 68.376 L 156.225 68.112 L 156.215 68.112 Z  M 156.901 58.154 C 156.901 57.647 157.26 57.193 157.83 57.193 C 158.284 57.193 158.686 57.541 158.686 58.08 C 158.686 58.65 158.295 59.094 157.767 59.094 C 157.281 59.083 156.901 58.692 156.901 58.154 Z " fill="rgb(0,0,0)"/><path d=" M 160.618 68.112 C 161.041 67.954 161.484 67.626 161.484 67.225 L 161.484 61.692 L 160.428 61.248 L 160.428 60.889 C 161.178 60.678 161.917 60.593 162.392 60.593 L 162.783 60.593 L 162.783 61.48 C 163.343 60.921 164.251 60.562 165.201 60.562 C 166.564 60.562 167.493 61.428 167.493 63.117 L 167.493 67.7 L 168.348 67.943 L 168.348 68.249 C 167.905 68.429 167.334 68.524 166.627 68.524 C 166.278 68.524 165.888 68.492 165.56 68.376 L 165.56 68.112 C 165.972 67.932 166.152 67.626 166.152 67.035 L 166.152 63.909 C 166.152 62.304 165.476 61.702 164.515 61.702 C 163.839 61.702 163.195 61.934 162.825 62.209 L 162.825 67.711 L 163.744 67.943 L 163.744 68.249 C 163.184 68.45 162.667 68.524 161.843 68.524 C 161.452 68.524 160.988 68.492 160.618 68.376 L 160.618 68.112 Z " fill="rgb(0,0,0)"/><path d=" M 169.573 68.112 C 170.017 67.954 170.439 67.626 170.439 67.225 L 170.439 61.692 L 169.394 61.248 L 169.394 60.9 C 170.133 60.688 170.883 60.593 171.347 60.593 L 171.875 60.593 L 171.791 61.48 L 171.791 67.7 L 172.709 67.943 L 172.709 68.249 C 172.15 68.45 171.643 68.524 170.809 68.524 C 170.428 68.524 169.953 68.492 169.584 68.376 L 169.584 68.112 L 169.573 68.112 Z  M 170.26 58.154 C 170.26 57.647 170.619 57.193 171.189 57.193 C 171.643 57.193 172.044 57.541 172.044 58.08 C 172.044 58.65 171.653 59.094 171.125 59.094 C 170.64 59.083 170.26 58.692 170.26 58.154 Z " fill="rgb(0,0,0)"/><path d=" M 173.882 66.612 C 174.621 67.299 175.318 67.647 176.194 67.647 C 177.113 67.647 177.588 67.204 177.588 66.634 C 177.588 66.063 177.261 65.704 176.184 65.24 L 175.371 64.891 C 174.42 64.479 173.892 63.793 173.892 62.864 C 173.892 61.575 175.033 60.456 176.743 60.456 C 178.053 60.456 178.581 60.847 178.581 61.47 C 178.581 61.713 178.549 61.924 178.496 62.156 C 177.968 61.797 177.25 61.533 176.627 61.533 C 175.582 61.533 175.085 61.987 175.085 62.547 C 175.085 63.138 175.381 63.466 176.363 63.835 L 177.25 64.184 C 178.433 64.638 178.876 65.25 178.876 66.211 C 178.876 67.468 177.662 68.619 175.835 68.619 C 174.399 68.619 173.755 68.165 173.755 67.278 C 173.734 67.056 173.776 66.792 173.882 66.612 Z " fill="rgb(0,0,0)"/><path d=" M 180.682 63.92 L 180.735 61.744 L 179.837 61.744 L 179.837 61.206 L 181.601 59.453 L 182.14 59.389 L 182.076 60.868 L 184.241 60.868 L 184.125 61.755 L 182.034 61.755 L 182.002 63.814 C 181.981 64.5 181.981 65.124 181.981 65.725 C 181.981 67.056 182.372 67.51 182.984 67.51 C 183.46 67.51 183.871 67.341 184.199 67.088 L 184.368 67.151 C 184.304 68.112 183.734 68.608 182.604 68.608 C 181.295 68.608 180.661 67.922 180.661 66.327 C 180.64 65.535 180.672 64.669 180.682 63.92 Z " fill="rgb(0,0,0)"/><path d=" M 188.285 60.477 C 190.049 60.477 191.116 61.66 191.116 63.54 C 191.116 63.846 191.116 64.173 191.094 64.585 L 186.268 64.585 C 186.268 66.422 187.335 67.478 188.687 67.478 C 189.489 67.478 190.376 67.204 190.999 66.771 C 191.031 66.855 191.063 67.035 191.063 67.193 C 191.063 67.932 189.986 68.619 188.243 68.619 C 186.374 68.619 184.853 67.162 184.853 64.87 C 184.864 62.029 186.585 60.477 188.285 60.477 Z  M 189.806 63.74 C 189.806 62.135 189.12 61.364 188.148 61.364 C 187.251 61.364 186.3 62.441 186.3 63.74 L 189.806 63.74 Z " fill="rgb(0,0,0)"/><path d=" M 192.372 68.112 C 192.795 67.954 193.238 67.626 193.238 67.225 L 193.238 61.692 L 192.182 61.248 L 192.182 60.889 C 192.932 60.678 193.671 60.593 194.146 60.593 L 194.537 60.593 L 194.537 61.734 L 194.558 61.734 L 195.012 61.227 C 195.456 60.752 195.899 60.509 196.448 60.509 C 197.019 60.509 197.304 60.752 197.304 61.216 C 197.304 61.523 197.209 61.892 197.04 62.198 C 196.733 61.956 196.374 61.818 196.026 61.818 C 195.519 61.818 195.044 62.051 194.59 62.494 L 194.59 67.7 L 195.72 67.943 L 195.72 68.249 C 195.16 68.45 194.621 68.524 193.692 68.524 C 193.217 68.524 192.763 68.492 192.383 68.376 L 192.383 68.112 L 192.372 68.112 Z " fill="rgb(0,0,0)"/><path d=" M 197.821 68.112 C 198.265 67.954 198.687 67.626 198.687 67.225 L 198.687 61.692 L 197.642 61.248 L 197.642 60.9 C 198.381 60.688 199.131 60.593 199.595 60.593 L 200.123 60.593 L 200.039 61.48 L 200.039 67.7 L 200.957 67.943 L 200.957 68.249 C 200.398 68.45 199.891 68.524 199.057 68.524 C 198.676 68.524 198.201 68.492 197.832 68.376 L 197.832 68.112 L 197.821 68.112 Z  M 198.508 58.154 C 198.508 57.647 198.867 57.193 199.437 57.193 C 199.891 57.193 200.292 57.541 200.292 58.08 C 200.292 58.65 199.901 59.094 199.373 59.094 C 198.888 59.083 198.508 58.692 198.508 58.154 Z " fill="rgb(0,0,0)"/><path d=" M 205.097 60.477 C 206.86 60.477 207.927 61.66 207.927 63.54 C 207.927 63.846 207.927 64.173 207.906 64.585 L 203.08 64.585 C 203.08 66.422 204.147 67.478 205.498 67.478 C 206.301 67.478 207.188 67.204 207.811 66.771 C 207.843 66.855 207.874 67.035 207.874 67.193 C 207.874 67.932 206.797 68.619 205.055 68.619 C 203.186 68.619 201.665 67.162 201.665 64.87 C 201.676 62.029 203.386 60.477 205.097 60.477 Z  M 206.618 63.74 C 206.618 62.135 205.931 61.364 204.96 61.364 C 204.062 61.364 203.112 62.441 203.112 63.74 L 206.618 63.74 Z " fill="rgb(0,0,0)"/><path d=" M 211.919 61.459 L 211.243 60.984 L 211.243 60.593 L 214.369 60.593 L 214.369 60.984 L 213.439 61.375 L 215.203 66.56 L 215.224 66.56 L 217.04 61.417 L 216.111 60.973 L 216.111 60.583 L 218.635 60.583 L 218.635 60.973 L 218.181 61.354 L 215.266 68.577 L 214.707 68.608 L 211.919 61.459 Z " fill="rgb(0,0,0)"/><path d=" M 223.419 64.141 L 223.419 63.698 C 223.419 61.934 222.996 61.554 221.961 61.554 C 221.064 61.554 220.198 61.934 219.501 62.621 C 219.469 62.462 219.448 62.315 219.448 62.124 C 219.448 61.079 220.219 60.467 222.13 60.467 C 223.788 60.467 224.77 61.301 224.77 62.663 C 224.77 63.022 224.717 63.846 224.707 64.321 L 224.654 66.972 C 224.77 67.267 225.013 67.573 225.309 67.806 C 225.066 68.101 224.622 68.429 224.2 68.64 C 223.894 68.439 223.64 68.186 223.45 67.837 C 222.996 68.281 222.109 68.619 221.243 68.619 C 220.018 68.619 219.163 67.848 219.163 66.803 C 219.163 65.377 220.736 64.141 223.419 64.141 Z  M 221.856 67.647 C 222.363 67.647 223.017 67.447 223.429 67.204 L 223.429 64.912 C 221.581 64.912 220.578 65.683 220.578 66.57 C 220.578 67.225 221.021 67.647 221.856 67.647 Z " fill="rgb(0,0,0)"/><path d=" M 226.597 68.112 C 227.02 67.954 227.463 67.626 227.463 67.225 L 227.463 61.692 L 226.407 61.248 L 226.407 60.889 C 227.157 60.678 227.896 60.593 228.371 60.593 L 228.762 60.593 L 228.762 61.48 C 229.322 60.921 230.23 60.562 231.18 60.562 C 232.542 60.562 233.472 61.428 233.472 63.117 L 233.472 67.7 L 234.327 67.943 L 234.327 68.249 C 233.884 68.429 233.313 68.524 232.606 68.524 C 232.257 68.524 231.867 68.492 231.539 68.376 L 231.539 68.112 C 231.951 67.932 232.131 67.626 232.131 67.035 L 232.131 63.909 C 232.131 62.304 231.455 61.702 230.494 61.702 C 229.828 61.702 229.163 61.934 228.804 62.209 L 228.804 67.711 L 229.723 67.954 L 229.723 68.26 C 229.163 68.46 228.646 68.534 227.822 68.534 C 227.431 68.534 226.967 68.503 226.597 68.387 L 226.597 68.112 Z " fill="rgb(0,0,0)"/><path d=" M 238.731 68.07 C 239.322 67.89 239.681 67.573 239.681 66.824 L 239.681 58.798 L 238.646 58.45 L 238.646 58.091 C 239.713 57.911 240.631 57.858 241.972 57.858 C 245.415 57.858 247.685 59.611 247.685 62.758 C 247.685 66.359 244.94 68.534 241.73 68.534 C 240.441 68.534 239.765 68.513 238.731 68.365 L 238.731 68.07 L 238.731 68.07 Z  M 241.888 67.584 C 244.201 67.584 246.091 65.968 246.091 63.054 C 246.091 60.34 244.275 58.83 241.93 58.83 C 241.666 58.83 241.371 58.851 241.075 58.883 L 241.075 67.531 C 241.381 67.552 241.613 67.584 241.888 67.584 Z " fill="rgb(0,0,0)"/><path d=" M 252.374 60.477 C 254.138 60.477 255.204 61.66 255.204 63.54 C 255.204 63.846 255.204 64.173 255.194 64.585 L 250.368 64.585 C 250.368 66.422 251.434 67.478 252.786 67.478 C 253.588 67.478 254.476 67.204 255.099 66.771 C 255.13 66.855 255.162 67.035 255.162 67.193 C 255.162 67.932 254.085 68.619 252.342 68.619 C 250.473 68.619 248.953 67.162 248.953 64.87 C 248.953 62.029 250.674 60.477 252.374 60.477 Z  M 253.905 63.74 C 253.905 62.135 253.219 61.364 252.247 61.364 C 251.35 61.364 250.399 62.441 250.399 63.74 L 253.905 63.74 Z " fill="rgb(0,0,0)"/><path d=" M 256.45 68.112 C 256.873 67.954 257.316 67.626 257.316 67.225 L 257.316 61.755 L 256.419 61.755 L 256.419 61.185 L 257.316 60.826 L 257.316 59.611 C 257.295 57.879 258.446 56.633 260.463 56.633 C 261.625 56.633 262.079 56.94 262.079 57.415 C 262.079 57.563 262.047 57.795 261.994 57.953 C 261.392 57.742 260.474 57.605 259.819 57.605 C 259.154 57.605 258.604 58.228 258.604 59.389 C 258.604 59.632 258.636 60.498 258.668 60.868 L 260.759 60.868 L 260.579 61.755 L 258.647 61.755 L 258.647 67.7 L 259.682 67.943 L 259.682 68.249 C 259.122 68.45 258.573 68.524 257.665 68.524 C 257.274 68.524 256.809 68.492 256.44 68.376 L 256.44 68.112 L 256.45 68.112 Z " fill="rgb(0,0,0)"/><path d=" M 264.592 60.477 C 266.356 60.477 267.422 61.66 267.422 63.54 C 267.422 63.846 267.422 64.173 267.401 64.585 L 262.575 64.585 C 262.575 66.422 263.642 67.478 264.993 67.478 C 265.796 67.478 266.683 67.204 267.306 66.771 C 267.338 66.855 267.369 67.035 267.369 67.193 C 267.369 67.932 266.292 68.619 264.55 68.619 C 262.681 68.619 261.16 67.162 261.16 64.87 C 261.171 62.029 262.881 60.477 264.592 60.477 Z  M 266.113 63.74 C 266.113 62.135 265.426 61.364 264.455 61.364 C 263.557 61.364 262.607 62.441 262.607 63.74 L 266.113 63.74 Z " fill="rgb(0,0,0)"/><path d=" M 268.679 68.112 C 269.101 67.954 269.545 67.626 269.545 67.225 L 269.545 61.692 L 268.489 61.248 L 268.489 60.889 C 269.238 60.678 269.978 60.593 270.453 60.593 L 270.844 60.593 L 270.844 61.48 C 271.403 60.921 272.311 60.562 273.262 60.562 C 274.624 60.562 275.553 61.428 275.553 63.117 L 275.553 67.7 L 276.409 67.943 L 276.409 68.249 C 275.965 68.429 275.395 68.524 274.687 68.524 C 274.339 68.524 273.948 68.492 273.621 68.376 L 273.621 68.112 C 274.033 67.932 274.212 67.626 274.212 67.035 L 274.212 63.909 C 274.212 62.304 273.536 61.702 272.575 61.702 C 271.91 61.702 271.245 61.934 270.886 62.209 L 270.886 67.711 L 271.804 67.954 L 271.804 68.26 C 271.245 68.46 270.727 68.534 269.904 68.534 C 269.513 68.534 269.048 68.503 268.679 68.387 L 268.679 68.112 Z " fill="rgb(0,0,0)"/><path d=" M 277.539 66.612 C 278.278 67.299 278.975 67.647 279.851 67.647 C 280.77 67.647 281.245 67.204 281.245 66.634 C 281.245 66.063 280.918 65.704 279.841 65.24 L 279.028 64.891 C 278.077 64.479 277.549 63.793 277.549 62.864 C 277.549 61.575 278.69 60.456 280.4 60.456 C 281.71 60.456 282.238 60.847 282.238 61.47 C 282.238 61.713 282.206 61.924 282.153 62.156 C 281.625 61.797 280.907 61.533 280.284 61.533 C 279.239 61.533 278.742 61.987 278.742 62.547 C 278.742 63.138 279.038 63.466 280.02 63.835 L 280.907 64.184 C 282.09 64.638 282.533 65.25 282.533 66.211 C 282.533 67.468 281.319 68.619 279.492 68.619 C 278.056 68.619 277.412 68.165 277.412 67.278 C 277.391 67.056 277.433 66.792 277.539 66.612 Z " fill="rgb(0,0,0)"/><path d=" M 283.642 68.112 C 284.086 67.954 284.508 67.626 284.508 67.225 L 284.508 61.692 L 283.463 61.248 L 283.463 60.9 C 284.202 60.688 284.952 60.593 285.406 60.593 L 285.934 60.593 L 285.849 61.48 L 285.849 67.7 L 286.768 67.943 L 286.768 68.249 C 286.208 68.45 285.701 68.524 284.867 68.524 C 284.487 68.524 284.012 68.492 283.642 68.376 L 283.642 68.112 Z  M 284.329 58.154 C 284.329 57.647 284.688 57.193 285.258 57.193 C 285.712 57.193 286.113 57.541 286.113 58.08 C 286.113 58.65 285.723 59.094 285.195 59.094 C 284.698 59.083 284.329 58.692 284.329 58.154 Z " fill="rgb(0,0,0)"/><path d=" M 291.319 60.477 C 293.083 60.477 294.149 61.66 294.149 63.54 C 294.149 63.846 294.149 64.173 294.128 64.585 L 289.302 64.585 C 289.302 66.422 290.369 67.478 291.721 67.478 C 292.523 67.478 293.41 67.204 294.033 66.771 C 294.065 66.855 294.097 67.035 294.097 67.193 C 294.097 67.932 293.02 68.619 291.277 68.619 C 289.408 68.619 287.887 67.162 287.887 64.87 C 287.898 62.029 289.619 60.477 291.319 60.477 Z  M 292.84 63.74 C 292.84 62.135 292.154 61.364 291.182 61.364 C 290.284 61.364 289.334 62.441 289.334 63.74 L 292.84 63.74 Z " fill="rgb(0,0,0)"/></g></g></g></g></svg>